ply
format ascii 1.0
comment Created by Blender 2.83.5 - www.blender.org, source file: 'teleport.blend'
element vertex 17
property float x
property float y
property float z
property float nx
property float ny
property float nz
property float s
property float t
element face 16
property list uchar uint vertex_indices
end_header
0.000000 0.000000 0.000000 -0.000000 1.000000 0.000000 0.000000 1.000000
0.000000 0.000000 -200.000000 -0.000000 1.000000 0.000000 1.000000 1.000000
-76.536690 0.000000 -184.775894 -0.000000 1.000000 0.000000 1.000000 1.000000
-141.421356 0.000000 -141.421356 -0.000000 1.000000 0.000000 1.000000 1.000000
-184.775894 0.000000 -76.536682 -0.000000 1.000000 0.000000 1.000000 1.000000
-200.000000 0.000000 0.000009 -0.000000 1.000000 0.000000 1.000000 1.000000
-184.775894 0.000000 76.536705 0.000000 1.000000 0.000000 1.000000 1.000000
-141.421356 0.000000 141.421356 0.000000 1.000000 0.000000 1.000000 1.000000
-76.536697 0.000000 184.775894 0.000000 1.000000 0.000000 1.000000 1.000000
-0.000030 0.000000 200.000000 0.000000 1.000000 0.000000 1.000000 1.000000
76.536644 0.000000 184.775925 0.000000 1.000000 0.000000 1.000000 1.000000
141.421326 0.000000 141.421402 0.000000 1.000000 0.000000 1.000000 1.000000
184.775894 0.000000 76.536713 0.000000 1.000000 0.000000 1.000000 1.000000
200.000000 0.000000 -0.000002 0.000000 1.000000 0.000000 1.000000 1.000000
184.775894 0.000000 -76.536720 0.000000 1.000000 -0.000000 1.000000 1.000000
141.421310 0.000000 -141.421402 0.000000 1.000000 -0.000000 1.000000 1.000000
76.536598 0.000000 -184.775955 0.000000 1.000000 -0.000000 1.000000 1.000000
3 0 1 2
3 0 2 3
3 0 3 4
3 0 4 5
3 0 5 6
3 0 6 7
3 0 7 8
3 0 8 9
3 0 9 10
3 0 10 11
3 0 11 12
3 0 12 13
3 0 13 14
3 0 14 15
3 0 15 16
3 0 16 1
