ply
format ascii 1.0
comment Created by Blender 2.83.5 - www.blender.org, source file: 'stage1.blend'
element vertex 6
property float x
property float y
property float z
property float nx
property float ny
property float nz
property float s
property float t
element face 4
property list uchar uint vertex_indices
end_header
2240.000000 -2495.999756 -6118.399902 0.000000 0.000000 1.000000 0.156250 -0.046875
-2880.000000 -1087.999756 -6118.399902 0.000000 0.000000 1.000000 0.023438 0.113281
-2880.000000 -2495.999756 -6118.399902 0.000000 0.000000 1.000000 -0.003906 0.070312
2240.000000 7168.000488 -6118.399414 0.000000 0.000000 1.000000 0.375000 0.261719
-3648.000000 7168.000488 -6118.399414 0.000000 0.000000 0.999969 0.187500 0.398438
-3648.000000 -1087.999756 -6118.399902 0.000000 0.000000 1.000000 0.000000 0.132812
3 0 1 2
3 3 1 0
3 1 4 5
3 3 4 1
