ply
format ascii 1.0
comment Created by Blender 2.83.5 - www.blender.org, source file: 'stage1.blend'
element vertex 64
property float x
property float y
property float z
property float nx
property float ny
property float nz
property float s
property float t
element face 35
property list uchar uint vertex_indices
end_header
-5020.000000 -0.000307 6044.000000 0.000000 1.000000 0.000000 0.796296 0.203704
-3770.000000 -0.000311 6144.000000 0.000000 1.000000 0.000000 4.500000 0.500000
-4165.406250 -0.000283 5189.406250 0.000000 0.999969 0.000000 3.328426 -2.328426
-5120.000000 -0.000272 4794.000000 0.000000 1.000000 0.000000 0.500000 -3.500000
-5020.000000 -0.000316 6244.000000 0.000000 1.000000 0.000000 0.796296 0.796296
-5120.000000 -0.000351 7494.000000 0.000000 1.000000 0.000000 0.500000 4.500000
-4165.406250 -0.000339 7098.594727 0.000000 1.000000 0.000000 3.328426 3.328429
-5220.002441 -0.000316 6244.000000 0.000000 1.000000 0.000000 0.203696 0.796296
-6470.000000 -0.000311 6144.000000 0.000000 1.000000 0.000000 -3.500000 0.500000
-6074.597168 -0.000339 7098.594727 0.000000 1.000000 0.000000 -2.328436 3.328429
-5220.000000 -0.000307 6044.000000 0.000000 1.000000 0.000000 0.203704 0.203704
-6074.594727 -0.000283 5189.406250 0.000000 1.000000 0.000000 -2.328429 -2.328426
-6670.000000 4005.046875 680.393555 0.000000 1.000000 0.000000 -0.936004 0.564090
-6670.000000 4005.046875 1480.393433 0.000000 1.000000 0.000000 -0.936004 1.384449
-6120.000000 4005.046875 1480.393433 0.000000 1.000000 0.000000 -0.372007 1.384449
-6120.000000 4005.046875 680.393555 0.000000 1.000000 0.000000 -0.372007 0.564090
-4120.000000 3405.046875 1090.393433 0.000000 1.000000 0.000000 1.678889 0.984524
-4620.000000 3405.046875 1090.393433 0.000000 1.000000 0.000000 1.166165 0.984524
-4620.000000 3405.046875 2455.393555 0.000000 1.000000 0.000000 1.166165 2.384260
-3550.978271 3405.046875 2455.393555 0.000000 1.000000 0.000000 2.262391 2.384260
-3550.978271 3405.046875 937.151001 0.000000 1.000000 0.000000 2.262391 0.827382
-6420.000000 5405.046875 680.393616 0.000000 1.000000 0.000000 -0.679642 0.564090
-6120.000000 5405.046875 680.393616 0.000000 1.000000 0.000000 -0.372007 0.564090
-6420.000000 5405.046875 -919.605408 0.000000 1.000000 0.000000 -0.679642 -1.076626
-6820.000000 5405.046875 -819.605408 0.000000 1.000000 0.000000 -1.089821 -0.974081
-6820.000000 5405.046875 580.393616 0.000000 1.000000 0.000000 -1.089821 0.461545
-7120.000000 5405.046875 280.393616 0.000000 1.000000 0.000000 -1.397455 0.153911
-7120.000000 5405.046875 -519.605408 0.000000 1.000000 0.000000 -1.397455 -0.666447
-7220.000000 5405.046875 -219.606400 0.000000 1.000000 0.000000 -1.500000 -0.358813
-7220.000000 5405.046875 -19.606396 0.000000 1.000000 0.000000 -1.500000 -0.153724
-5420.000000 5405.046875 680.393616 -0.266915 0.963713 0.000000 0.345806 0.564090
-5420.000000 5405.046875 -1219.605469 0.000000 1.000000 0.000000 0.345806 -1.384260
-5420.000000 5405.046875 -919.605408 -0.514481 0.857479 0.000000 0.345806 -1.076626
-4920.000000 5705.046875 680.393616 -0.417829 0.908505 0.000000 0.858530 0.564090
-4920.000000 5705.046875 -919.605408 -0.417829 0.908505 0.000000 0.858530 -1.076626
-4620.000000 5805.046875 680.393616 -0.160161 0.987060 0.000000 1.166165 0.564090
-4620.000000 5805.046875 -919.605408 -0.160161 0.987060 0.000000 1.166165 -1.076626
-4120.000000 5805.046875 680.393616 0.000000 1.000000 0.000000 1.678889 0.564090
-4120.000000 5805.046875 -919.605408 0.000000 1.000000 0.000000 1.678889 -1.076626
-3720.000000 5805.046875 580.393616 0.000000 1.000000 0.000000 2.089068 0.461545
-3820.000000 5805.046875 -19.606379 0.000000 1.000000 0.000000 1.986523 -0.153724
-3820.000000 5805.046875 -219.606369 0.000000 1.000000 0.000000 1.986523 -0.358813
-3720.000000 5805.046875 -819.605408 0.000000 1.000000 0.000000 2.089068 -0.974081
-3620.000000 5805.046875 -19.606379 0.000000 1.000000 0.000000 2.191613 -0.153724
-3457.778564 5805.046875 342.043182 0.000000 0.999969 0.000000 2.357963 0.217129
-3620.000000 5805.046875 -219.606369 0.000000 1.000000 0.000000 2.191613 -0.358813
-3420.000000 5805.046875 -519.605408 0.000000 1.000000 0.000000 2.396702 -0.666447
-3320.000000 5805.046875 -219.606400 0.000000 0.999969 0.000000 2.499247 -0.358813
-3319.266113 5805.046875 23.374014 0.000000 1.000000 0.000000 2.500000 -0.109649
-6520.000000 3405.046875 2455.393555 0.000000 1.000000 -0.000000 -0.782187 2.384260
-4620.000000 3405.046875 1480.393433 0.000000 1.000000 -0.000000 1.166165 1.384449
-6520.000000 3405.046875 1480.393433 0.000000 1.000000 -0.000000 -0.782187 1.384449
1636.000000 8704.000000 -2659.999756 0.000000 1.000000 0.000000 0.796296 0.203704
2886.000000 8704.000000 -2559.999756 0.000000 1.000000 0.000000 4.500000 0.500000
2490.593750 8704.000000 -3514.593506 0.000000 0.999969 0.000000 3.328426 -2.328426
1536.000000 8704.000000 -3909.999756 0.000000 1.000000 0.000000 0.500000 -3.500000
1636.000000 8704.000000 -2460.000000 0.000000 1.000000 0.000000 0.796296 0.796296
1536.000000 8704.000000 -1210.000000 0.000000 1.000000 0.000000 0.500000 4.500000
2490.593750 8704.000000 -1605.405273 0.000000 1.000000 0.000000 3.328426 3.328429
1435.997559 8704.000000 -2460.000000 0.000000 1.000000 0.000000 0.203696 0.796296
186.000000 8704.000000 -2559.999756 0.000000 1.000000 0.000000 -3.500000 0.500000
581.402832 8704.000000 -1605.405273 0.000000 1.000000 0.000000 -2.328436 3.328429
1436.000000 8704.000000 -2659.999756 0.000000 1.000000 0.000000 0.203704 0.203704
581.405273 8704.000000 -3514.593506 0.000000 1.000000 0.000000 -2.328429 -2.328426
4 0 1 2 3
4 4 5 6 1
4 7 8 9 5
4 10 3 11 8
3 5 4 7
3 8 7 10
3 3 10 0
3 1 0 4
4 12 13 14 15
5 16 17 18 19 20
3 21 22 23
4 24 25 21 23
4 26 25 24 27
4 27 28 29 26
4 22 30 31 23
4 32 30 33 34
4 34 33 35 36
4 35 37 38 36
3 39 40 37
3 38 41 42
4 38 37 40 41
4 43 40 39 44
4 45 46 42 41
3 46 45 47
3 44 48 43
4 48 47 45 43
4 49 18 50 51
4 52 53 54 55
4 56 57 58 53
4 59 60 61 57
4 62 55 63 60
3 57 56 59
3 60 59 62
3 55 62 52
3 53 52 56
