ply
format ascii 1.0
comment Created by Blender 2.83.5 - www.blender.org, source file: 'stage1.blend'
element vertex 160
property float x
property float y
property float z
property float nx
property float ny
property float nz
property float s
property float t
element face 75
property list uchar uint vertex_indices
end_header
-3770.000000 -0.000311 6144.000000 0.554674 -0.832026 0.000000 2.500000 0.500000
-5120.000000 -900.000244 6144.000000 0.000000 -1.000000 0.000000 0.500000 0.500000
-4165.406250 -0.000283 5189.406250 0.392224 -0.832026 -0.392224 1.914213 -0.914213
-5120.000000 -0.000272 4794.000000 0.000000 -0.832026 -0.554674 0.500000 -1.500000
-6074.594727 -0.000283 5189.406250 -0.392224 -0.832026 -0.392224 -0.914214 -0.914213
-6470.000000 -0.000311 6144.000000 -0.554674 -0.832026 0.000000 -1.500000 0.500000
-6074.597168 -0.000339 7098.594727 -0.392224 -0.832026 0.392224 -0.914218 1.914214
-5120.000000 -0.000351 7494.000000 0.000000 -0.832026 0.554674 0.500000 2.500000
-4165.406250 -0.000339 7098.594727 0.392224 -0.832026 0.392224 1.914213 1.914214
-6120.000000 4005.046875 680.393555 0.000000 0.000000 1.000000 -0.441860 0.063954
-6120.000000 5405.046875 680.393616 0.000000 0.000000 1.000000 -0.441860 1.366279
-6420.000000 5405.046875 680.393616 -0.166326 0.012207 0.985961 -0.720930 1.366279
-6670.000000 4005.046875 680.393555 -0.512558 -0.062990 0.856319 -0.953488 0.063954
-4620.000000 4605.046875 680.393555 0.000000 0.000000 0.999969 0.953488 0.622093
-5420.000000 5405.046875 680.393616 0.000000 0.000000 1.000000 0.209302 1.366279
-4520.000000 5705.046875 -919.605408 0.000000 0.000000 -1.000000 1.046512 1.645349
-4620.000000 5805.046875 -919.605408 0.000000 0.000000 -1.000000 0.953488 1.738372
-4120.000000 5805.046875 -919.605408 0.122166 0.000000 -0.992492 1.418605 1.738372
-4220.000000 5705.046875 -919.605408 0.000000 0.000000 -1.000000 1.325581 1.645349
-6120.000000 4005.046875 1090.393433 0.000000 0.000000 1.000000 -0.441860 0.063954
-4620.000000 3405.046875 1090.393433 0.000000 0.000000 1.000000 0.953488 -0.494186
-4620.000000 4605.046875 1090.393555 0.000000 0.000000 1.000000 0.953488 0.622093
-4120.000000 5405.046875 -1319.605469 0.143010 0.000000 -0.989715 1.418605 1.366279
-3579.385254 5334.333008 -1152.686890 0.482009 0.000000 -0.876125 1.921502 1.300499
-3579.385254 3405.046875 -1152.686890 0.445021 -0.478286 -0.757042 1.921502 -0.494186
-4120.000000 3405.046875 -1319.605591 0.177435 -0.479751 -0.859249 1.418605 -0.494186
-3120.000000 5205.046875 -719.605408 0.787988 0.000000 -0.615650 2.348837 1.180233
-3120.000000 3405.046875 -719.605408 0.695853 -0.515458 -0.500076 2.348837 -0.494186
-3118.402100 4916.438477 493.863098 0.837611 0.000000 0.546220 0.964085 0.867181
-3118.402100 3405.046875 493.863159 0.720328 -0.486099 0.494766 -0.441860 0.867181
-2947.713135 3405.046875 101.749382 0.835444 -0.516251 0.188330 -0.441860 0.502424
-2947.713135 4956.046875 101.749382 0.976745 0.000000 0.214240 1.000930 0.502424
-2920.000000 3405.046875 -319.606415 0.846950 -0.502823 -0.172552 -0.441860 0.110465
-2920.000000 5105.046875 -319.606415 0.969115 0.000000 -0.246498 1.139535 0.110465
-3550.978271 4826.891113 937.151001 0.532212 0.000000 0.846583 1.947927 0.828460
-4120.000000 4705.046875 1090.393555 0.147832 0.000000 0.988983 1.418605 0.715117
-4120.000000 3405.046875 1090.393433 0.131138 0.000000 0.991333 1.418605 -0.494186
-3550.978271 3405.046875 937.151062 0.536760 -0.384411 0.751061 1.947927 -0.494186
-3120.000000 3405.046875 -719.605408 0.695853 -0.515458 -0.500076 -0.441860 -0.261627
-3120.000000 5205.046875 -719.605408 0.787988 0.000000 -0.615650 1.232558 -0.261627
-3550.978271 4826.891113 937.151001 0.532212 0.000000 0.846583 0.880785 1.279541
-3550.978271 3405.046875 937.151062 0.536760 -0.384411 0.751061 -0.441860 1.279542
-4320.000000 3405.046875 1090.393433 0.000000 0.000000 1.000000 1.232558 -0.494186
-3319.266113 4995.875977 23.374016 0.968688 0.000000 0.248268 1.037981 0.429516
-3319.266113 5805.046875 23.374014 0.979339 0.000000 0.202094 1.790698 0.429516
-3457.778564 5805.046875 342.043182 0.812983 0.000000 0.582263 1.790698 0.725953
-3457.778564 4907.136719 342.043182 0.791559 0.000000 0.611072 0.955432 0.725953
-3720.000000 4805.046875 580.393555 0.434339 0.000000 0.900723 1.790698 0.808140
-3720.000000 5805.046875 580.393616 0.471816 0.000000 0.881680 1.790698 1.738372
-4120.000000 5805.046875 680.393616 0.122166 0.000000 0.992492 1.418605 1.738372
-4120.000000 4705.046875 680.393555 0.105014 0.000000 0.994446 1.418605 0.715117
-4620.000000 5805.046875 680.393616 0.000000 0.000000 1.000000 0.953488 1.738372
-3420.000000 5205.046875 -519.605408 0.870693 0.000000 -0.491745 1.232558 -0.075581
-3420.000000 5805.046875 -519.605408 0.850642 0.000000 -0.525712 1.790698 -0.075581
-3320.000000 5805.046875 -219.606400 0.986816 0.000000 -0.161657 1.790698 0.203488
-3320.000000 5105.046875 -219.606400 0.992004 0.000000 -0.126102 1.139535 0.203488
-5420.000000 5405.046875 -1219.605469 -0.214972 0.000000 -0.976592 0.000000 0.000000
-5420.000000 5405.046875 680.393616 0.000000 0.000000 1.000000 0.000000 0.000000
-5420.000000 5405.046875 -919.605408 0.000000 0.000000 1.000000 0.000000 0.000000
-7120.000000 5405.046875 280.393616 -0.850642 0.000000 0.525712 1.418605 0.668604
-7220.000000 5405.046875 -19.606396 -0.987060 0.000000 0.160161 1.418605 0.389535
-7220.000000 3405.046875 -19.606483 -0.849635 -0.508408 0.139958 -0.441860 0.389535
-7120.000000 3405.046875 280.393524 -0.745598 -0.470840 0.471541 -0.441860 0.668604
-7120.000000 5405.046875 -519.605408 -0.850642 0.000000 -0.525712 -1.372093 1.366279
-6820.000000 5405.046875 -819.605408 -0.492691 0.000000 -0.870174 -1.093023 1.366279
-6820.000000 3405.046875 -819.605530 -0.440840 -0.450423 -0.776360 -1.093023 -0.494186
-7120.000000 3405.046875 -519.605530 -0.733909 -0.495621 -0.464400 -1.372093 -0.494186
-6820.000000 5405.046875 580.393616 -0.548784 0.013794 0.835841 -1.093023 1.366279
-7120.000000 5405.046875 280.393616 -0.850642 0.000000 0.525712 -1.372093 1.366279
-7120.000000 3405.046875 280.393524 -0.745598 -0.470840 0.471541 -1.372093 -0.494186
-6820.000000 3405.046875 580.393494 -0.513108 -0.468734 0.719016 -1.093023 -0.494186
-6520.000000 3405.046875 680.393494 -0.844935 -0.399609 0.355480 -0.813954 -0.494186
-7220.000000 5405.046875 -219.606400 -0.987060 0.000000 -0.160161 1.418605 0.203488
-7220.000000 3405.046875 -219.606476 -0.847774 -0.509659 -0.146458 -0.441860 0.203488
-6420.000000 5405.046875 -919.605408 -0.264992 0.000000 -0.964232 -0.720930 1.366279
-6420.000000 3405.046875 -919.605530 -0.276467 -0.479324 -0.832911 -0.720930 -0.494186
-7120.000000 5405.046875 -519.605408 -0.850642 0.000000 -0.525712 1.418605 -0.075581
-7120.000000 3405.046875 -519.605530 -0.733909 -0.495621 -0.464400 -0.441860 -0.075581
-5420.000000 5405.046875 -1219.605469 -0.214972 0.000000 -0.976592 0.209302 1.366279
-4720.000000 5405.046875 -1319.605469 -0.070864 0.000000 -0.997467 0.860465 1.366279
-4720.000000 3405.046875 -1319.605591 -0.071291 -0.446394 -0.891964 0.860465 -0.494186
-5420.000000 3405.046875 -1219.605591 -0.197974 -0.437025 -0.877377 0.209302 -0.494186
-3457.778564 4907.136719 342.043182 0.791559 0.000000 0.611072 2.034625 0.903107
-3457.778564 5805.046875 342.043182 0.812983 0.000000 0.582263 2.034625 1.738372
-3720.000000 5305.046875 -819.605408 0.528306 0.000000 -0.849025 1.790698 1.273256
-4120.000000 5405.046875 -919.605408 0.130772 0.000000 -0.991394 1.418605 1.366279
-3720.000000 5805.046875 -819.605408 0.492691 0.000000 -0.870174 1.790698 1.738372
-3420.000000 5205.046875 -519.605408 0.870693 0.000000 -0.491745 2.069767 1.180233
-3420.000000 5805.046875 -519.605408 0.850642 0.000000 -0.525712 2.069767 1.738372
-4920.000000 5705.046875 680.393616 0.000000 0.000000 1.000000 0.674419 1.645349
-4520.000000 5405.046875 -919.605408 0.000000 0.000000 -1.000000 1.046512 1.366279
-4920.000000 5705.046875 -919.605408 0.000000 0.000000 -1.000000 0.674419 1.645349
-4220.000000 5405.046875 -919.605408 0.000000 0.000000 -1.000000 1.325581 1.366279
-5420.000000 5405.046875 -919.605408 0.000000 0.000000 1.000000 0.209302 1.366279
-5120.000000 2405.046875 80.393448 -0.015809 -0.978027 -0.207770 0.453488 0.046511
-6420.000000 3405.046875 -919.605530 -0.276467 -0.479324 -0.832911 -0.755814 -0.883721
-5420.000000 3405.046875 -1219.605591 -0.197974 -0.437025 -0.877377 0.174419 -1.162790
-4720.000000 3405.046875 -1319.605591 -0.071291 -0.446394 -0.891964 0.825581 -1.255814
-6670.000000 4005.046875 1480.393433 -0.741356 -0.185339 0.644978 -0.953488 0.063954
-6520.000000 3405.046875 1480.393433 -0.634693 -0.158666 0.756279 -0.813954 -0.494186
-6120.000000 4005.046875 1480.393433 0.000000 0.000000 1.000000 -0.441860 0.063954
-6820.000000 3405.046875 -819.605530 -0.440840 -0.450423 -0.776360 -1.127907 -0.790697
-7120.000000 3405.046875 -519.605530 -0.733909 -0.495621 -0.464400 -1.406977 -0.511627
-7220.000000 3405.046875 -19.606483 -0.849635 -0.508408 0.139958 -1.500000 -0.046512
-7220.000000 3405.046875 -219.606476 -0.847774 -0.509659 -0.146458 -1.500000 -0.232559
-6820.000000 3405.046875 580.393494 -0.513108 -0.468734 0.719016 -1.127907 0.511627
-7120.000000 3405.046875 280.393524 -0.745598 -0.470840 0.471541 -1.406977 0.232558
-2947.713135 3405.046875 101.749382 0.835444 -0.516251 0.188330 2.474220 0.066377
-3118.402100 3405.046875 493.863159 0.720328 -0.486099 0.494766 2.315440 0.431134
-3550.978271 3405.046875 937.151062 0.536760 -0.384411 0.751061 1.913043 0.843495
-3120.000000 3405.046875 -719.605408 0.695853 -0.515458 -0.500076 2.313953 -0.697674
-2920.000000 3405.046875 -319.606415 0.846950 -0.502823 -0.172552 2.500000 -0.325582
-4120.000000 3405.046875 -1319.605591 0.177435 -0.479751 -0.859249 1.383721 -1.255814
-3579.385254 3405.046875 -1152.686890 0.445021 -0.478286 -0.757042 1.886618 -1.100540
-6670.000000 4005.046875 680.393555 -0.512558 -0.062990 0.856319 0.308831 -0.030828
-6520.000000 3405.046875 680.393494 -0.844935 -0.399609 0.355480 -0.053773 -0.030828
-6520.000000 3405.046875 1480.393433 -0.634693 -0.158666 0.756279 -0.053773 -0.499864
-6670.000000 4005.046875 1480.393433 -0.741356 -0.185339 0.644978 0.308832 -0.499864
-4620.000000 3405.046875 1480.393433 0.000000 0.000000 0.999969 0.953488 -0.494186
-6520.000000 3405.046875 680.393494 -0.844935 -0.399609 0.355480 -0.848837 0.604651
-6520.000000 2905.046875 680.393494 -1.000000 -0.000000 0.000000 -0.210028 0.427006
-6520.000000 2905.046875 2455.393799 -1.000000 -0.000000 0.000000 -0.054044 1.455925
-6520.000000 3405.046875 2455.393799 -1.000000 -0.000000 0.000000 -0.343880 1.499864
-6520.000000 3405.046875 680.393494 -1.000000 -0.000000 0.000000 -0.499864 0.470945
-5120.000000 2405.046875 80.393448 -0.015809 -0.978027 -0.207770 -0.054044 -0.499864
-6520.000000 2905.046875 680.393494 -0.761467 -0.471603 -0.444624 -0.210028 0.427006
-6520.000000 3405.046875 680.393494 -0.844935 -0.399609 0.355480 -0.499864 0.470945
-6520.000000 2905.046875 680.393494 -0.336336 -0.941742 0.000000 -0.848837 0.604651
-5120.000000 2405.046875 80.393448 -0.336336 -0.941742 0.000000 0.453488 0.046511
-6520.000000 2905.046875 2455.393799 -0.336336 -0.941742 0.000000 -0.848837 2.255814
-6520.000000 2905.046875 2455.393799 0.000000 0.000000 1.000000 0.819468 1.366175
-3550.978271 2905.046875 2455.393555 0.000000 0.000000 1.000000 0.819469 -0.530168
-3550.978271 3405.046875 2455.393555 0.000000 0.000000 1.000000 0.500113 -0.530168
-6520.000000 3405.046875 2455.393799 0.000000 0.000000 1.000000 0.500113 1.366175
-3550.978271 2905.046875 2455.393555 1.000000 0.000000 0.000000 -0.077856 1.456165
-3550.978271 2905.046875 937.150879 1.000000 0.000000 0.000000 -0.210682 0.577934
-3550.978271 3405.046875 937.150879 1.000000 0.000000 0.000000 -0.499908 0.621677
-3550.978271 3405.046875 2455.393555 1.000000 0.000000 0.000000 -0.367082 1.499908
-5120.000000 2405.046875 80.393448 0.479252 0.000000 -0.877677 -0.077856 -0.499908
-3550.978271 3405.046875 937.150879 0.479252 0.000000 -0.877677 -0.499908 0.621677
-3550.978271 2905.046875 937.150879 0.479252 0.000000 -0.877677 -0.210682 0.577934
-3550.978271 2905.046875 2455.393555 0.303626 -0.952791 0.000000 1.913043 2.255814
-5120.000000 2405.046875 80.393448 0.303626 -0.952791 0.000000 0.453488 0.046511
-3550.978271 2905.046875 937.150879 0.303626 -0.952791 0.000000 1.913043 0.843495
-6520.000000 2905.046875 2455.393799 0.000000 -0.978550 0.206010 -0.848837 2.255814
-5120.000000 2405.046875 80.393448 0.000000 -0.978550 0.206010 0.453488 0.046511
-3550.978271 2905.046875 2455.393555 0.000000 -0.978550 0.206010 1.913043 2.255814
-4519.999023 3405.046875 1090.393433 0.000000 0.000000 1.000000 1.046513 -0.494186
-4519.999512 3655.047119 1090.393433 0.000000 0.000000 1.000000 1.046512 -0.261628
-4369.999512 3655.047119 1090.393433 0.000000 0.000000 1.000000 1.186047 -0.261628
-4369.999023 3405.046875 1090.393433 0.000000 0.000000 1.000000 1.186048 -0.494186
2886.000000 8704.000000 -2559.999268 0.554674 -0.832026 0.000000 2.500000 0.500000
1536.000000 7804.000000 -2559.999512 0.000000 -1.000000 0.000000 0.500000 0.500000
2490.593750 8704.000000 -3514.593018 0.392224 -0.832026 -0.392224 1.914213 -0.914213
1536.000000 8704.000000 -3909.999268 0.000000 -0.832026 -0.554674 0.500000 -1.500000
581.405273 8704.000000 -3514.593018 -0.392224 -0.832026 -0.392224 -0.914214 -0.914213
186.000000 8704.000000 -2559.999268 -0.554674 -0.832026 0.000000 -1.500000 0.500000
581.402832 8704.000000 -1605.404785 -0.392224 -0.832026 0.392224 -0.914218 1.914214
1536.000000 8704.000000 -1209.999512 0.000000 -0.832026 0.554674 0.500000 2.500000
2490.593750 8704.000000 -1605.404785 0.392224 -0.832026 0.392224 1.914213 1.914214
3 0 1 2
3 2 1 3
3 3 1 4
3 4 1 5
3 5 1 6
3 6 1 7
3 7 1 8
3 8 1 0
4 9 10 11 12
4 10 9 13 14
4 15 16 17 18
3 19 20 21
4 22 23 24 25
4 23 26 27 24
4 28 29 30 31
4 30 32 33 31
4 34 35 36 37
4 32 38 39 33
4 28 40 41 29
3 42 36 35
4 43 44 45 46
4 47 48 49 50
4 50 49 51 13
4 52 53 54 55
3 56 57 58
4 59 60 61 62
4 63 64 65 66
4 67 68 69 70
3 71 12 70
4 60 72 73 61
4 64 74 75 65
4 72 76 77 73
4 11 67 70 12
4 78 79 80 81
4 78 81 75 74
4 82 83 48 47
4 84 85 17 86
4 87 84 86 88
4 43 55 54 44
4 14 13 51 89
4 15 90 91 16
4 85 92 18 17
3 93 91 90
4 94 95 96 97
3 98 99 100
4 101 95 94 102
4 102 94 103 104
4 105 106 103 94
4 107 108 109 94
4 110 111 107 94
4 110 94 112 113
3 97 112 94
4 114 115 116 117
3 100 99 118
3 119 105 94
4 120 121 122 123
3 124 125 126
3 127 128 129
4 130 131 132 133
4 134 135 136 137
3 138 139 140
3 141 142 143
3 144 145 146
4 20 147 148 21
4 42 35 149 150
4 21 148 149 35
3 151 152 153
3 153 152 154
3 154 152 155
3 155 152 156
3 156 152 157
3 157 152 158
3 158 152 159
3 159 152 151
4 25 80 79 22
