ply
format ascii 1.0
comment Created by Blender 2.83.5 - www.blender.org, source file: 'stage1.blend'
element vertex 46
property float x
property float y
property float z
property float nx
property float ny
property float nz
property float s
property float t
element face 13
property list uchar uint vertex_indices
end_header
-4120.000000 4705.046875 1090.393555 -0.206122 0.978454 0.009217 1.000000 1.000000
-4120.000000 4705.046875 680.393555 -0.207892 0.978088 0.010834 0.000000 1.000000
-4620.000000 4605.046875 680.393555 -0.284921 0.958525 0.000000 0.000000 0.000000
-4620.000000 4605.046875 1090.393555 -0.284921 0.958525 0.000000 1.000000 0.000000
-3457.778564 4907.136719 342.043182 -0.098727 0.985778 0.135838 -0.000000 1.000000
-3720.000000 4805.046875 580.393555 -0.191931 0.979308 0.064028 -0.000000 -0.000000
-3550.978271 4826.891113 937.151062 -0.193945 0.979125 0.060732 1.000000 0.000000
-3118.402100 4916.438477 493.863129 -0.080630 0.986328 0.143651 1.000000 1.000000
-4620.000000 4605.046875 1090.393555 -0.284921 0.958525 0.000000 0.999999 1.000000
-4620.000000 4605.046875 680.393555 -0.284921 0.958525 0.000000 -0.000000 1.000000
-6120.000000 4005.046875 680.393555 -0.371380 0.928465 0.000000 0.000001 -1.500000
-6120.000000 4005.046875 1090.393433 0.000000 1.000000 0.000000 1.000000 -1.500000
-3550.978271 4826.891113 937.151062 -0.193945 0.979125 0.060732 1.000000 1.000000
-3720.000000 4805.046875 580.393555 -0.191931 0.979308 0.064028 -0.000000 1.000000
-4120.000000 4705.046875 680.393555 -0.207892 0.978088 0.010834 0.000000 -0.000000
-4120.000000 4705.046875 1090.393555 -0.206122 0.978454 0.009217 1.000000 0.000000
-3120.000000 5205.046875 -719.605408 0.117100 0.972594 0.200812 1.000000 -0.000000
-3579.385254 5334.333008 -1152.686890 0.148473 0.982452 0.112857 1.000000 1.500000
-3720.000000 5305.046875 -819.605408 0.146397 0.981750 0.121220 -0.000000 1.500000
-3420.000000 5205.046875 -519.605408 0.117405 0.972686 0.200171 0.000000 -0.000000
-2920.000000 5105.046875 -319.606415 0.079928 0.951384 0.297342 1.000000 -0.000000
-3120.000000 5205.046875 -719.605408 0.117100 0.972594 0.200812 1.000000 1.000000
-3420.000000 5205.046875 -519.605408 0.117405 0.972686 0.200171 0.000000 1.000000
-3320.000000 5105.046875 -219.606400 0.078402 0.950041 0.302103 -0.000000 0.000000
-2920.000000 5105.046875 -319.606415 0.079928 0.951384 0.297342 1.000000 1.000000
-3320.000000 5105.046875 -219.606400 0.078402 0.950041 0.302103 0.000000 1.000000
-3319.266113 4995.875977 23.374016 0.023164 0.962249 0.271157 0.000000 0.000000
-2947.713135 4956.046875 101.749390 0.022797 0.962523 0.270119 1.000000 0.000000
-3118.402100 4916.438477 493.863129 -0.080630 0.986328 0.143651 1.000000 0.000000
-2947.713135 4956.046875 101.749390 0.022797 0.962523 0.270119 1.000000 1.000000
-3319.266113 4995.875977 23.374016 0.023164 0.962249 0.271157 0.000000 1.000000
-3457.778564 4907.136719 342.043182 -0.098727 0.985778 0.135838 0.000000 0.000000
-3579.385254 5334.333008 -1152.686890 0.148473 0.982452 0.112857 1.000000 -0.500000
-4120.000000 5405.046875 -1319.605469 0.071413 0.996948 0.031373 1.000000 1.000000
-4120.000000 5405.046875 -919.605408 0.085360 0.995636 0.037507 -0.000000 1.000000
-3720.000000 5305.046875 -819.605408 0.146397 0.981750 0.121220 -0.000000 -0.500000
-6120.000000 4005.046875 1480.393433 0.371380 0.928465 0.000000 1.000000 -3.999957
-4620.000000 3405.046875 1480.393433 0.371380 0.928465 0.000000 1.000000 1.000000
-4620.000000 3405.046875 1090.393433 0.371380 0.928465 0.000000 0.000232 1.000000
-6120.000000 4005.046875 1090.393433 0.000000 1.000000 0.000000 0.000232 -3.999957
-4720.000000 5405.046875 -1319.605469 0.000000 1.000000 0.000000 1.000000 -0.615384
-5420.000000 5405.046875 -1219.605469 0.000000 1.000000 0.000000 1.000000 1.000000
-5420.000000 5405.046875 -919.605408 0.000000 1.000000 0.000000 0.000000 1.000000
-4520.000000 5405.046875 -919.605408 0.000000 1.000000 0.000000 0.000000 -1.076923
-4120.000000 5405.046875 -919.605408 0.085360 0.995636 0.037507 0.000000 -2.000000
-4120.000000 5405.046875 -1319.605469 0.071413 0.996948 0.031373 0.999999 -2.000000
4 0 1 2 3
4 4 5 6 7
4 8 9 10 11
4 12 13 14 15
4 16 17 18 19
4 20 21 22 23
4 24 25 26 27
4 28 29 30 31
4 32 33 34 35
4 36 37 38 39
3 40 41 42
3 40 42 43
4 44 45 40 43
