ply
format ascii 1.0
comment Created by Blender 2.83.5 - www.blender.org, source file: 'stage1.blend'
element vertex 76
property float x
property float y
property float z
property float nx
property float ny
property float nz
property float s
property float t
element face 20
property list uchar uint vertex_indices
end_header
-5220.002441 -500.000305 6244.000000 0.000000 1.000000 -0.000000 0.999888 0.000100
-5020.000000 -500.000305 6244.000000 0.000000 1.000000 -0.000000 0.999888 0.999900
-5020.000000 -500.000305 6044.000000 0.000000 1.000000 -0.000000 0.000100 0.999900
-5220.000000 -500.000305 6044.000000 0.000000 1.000000 -0.000000 0.000100 0.000112
-3820.000000 5205.046875 -19.606405 0.577349 0.577349 -0.577349 0.999900 0.000100
-3620.000000 5205.046875 -19.606405 -0.577349 0.577349 -0.577349 0.999900 0.999900
-3620.000000 5205.046875 -219.606400 -0.577349 0.577349 0.577349 0.000100 0.999900
-3820.000000 5205.046875 -219.606400 0.577349 0.577349 0.577349 0.000100 0.000100
-3820.000000 5805.046875 -219.606369 0.707083 0.000000 0.707083 1.000000 1.000000
-3820.000000 5805.046875 -19.606379 0.707083 0.000000 -0.707083 0.000173 1.000000
-3820.000000 5205.046875 -19.606405 0.577349 0.577349 -0.577349 0.000174 -1.499942
-3820.000000 5205.046875 -219.606400 0.577349 0.577349 0.577349 1.000000 -1.499942
-3820.000000 5805.046875 -219.606369 0.707083 0.000000 0.707083 0.000001 1.000000
-3820.000000 5205.046875 -219.606400 0.577349 0.577349 0.577349 0.000000 -1.500000
-3620.000000 5205.046875 -219.606400 -0.577349 0.577349 0.577349 1.000000 -1.500000
-3620.000000 5805.046875 -219.606369 -0.707083 0.000000 0.707083 1.000000 1.000000
-3620.000000 5805.046875 -19.606379 -0.707083 0.000000 -0.707083 1.000000 1.000000
-3620.000000 5805.046875 -219.606369 -0.707083 0.000000 0.707083 0.000173 1.000000
-3620.000000 5205.046875 -219.606400 -0.577349 0.577349 0.577349 0.000174 -1.499942
-3620.000000 5205.046875 -19.606405 -0.577349 0.577349 -0.577349 1.000000 -1.499942
-3820.000000 5805.046875 -19.606379 0.707083 0.000000 -0.707083 1.000000 1.000000
-3620.000000 5805.046875 -19.606379 -0.707083 0.000000 -0.707083 0.000173 1.000000
-3620.000000 5205.046875 -19.606405 -0.577349 0.577349 -0.577349 0.000174 -1.499942
-3820.000000 5205.046875 -19.606405 0.577349 0.577349 -0.577349 1.000000 -1.499942
-4220.000000 5405.046875 -619.605408 -0.577349 0.577349 -0.577349 0.000100 0.000100
-4520.000000 5405.046875 -619.605408 0.577349 0.577349 -0.577349 0.999900 0.000100
-4520.000000 5705.046875 -619.605408 0.577349 -0.577349 -0.577349 0.999900 0.999900
-4220.000000 5705.046875 -619.605408 -0.577349 -0.577349 -0.577349 0.000100 0.999900
-4220.000000 5405.046875 -919.605408 -0.707083 0.707083 0.000000 0.000100 0.000100
-4520.000000 5405.046875 -919.605408 0.707083 0.707083 0.000000 0.999900 0.000100
-4520.000000 5405.046875 -619.605408 0.577349 0.577349 -0.577349 0.999900 0.999900
-4220.000000 5405.046875 -619.605408 -0.577349 0.577349 -0.577349 0.000100 0.999900
-4520.000000 5705.046875 -919.605408 0.707083 -0.707083 0.000000 0.999900 0.999900
-4520.000000 5705.046875 -619.605408 0.577349 -0.577349 -0.577349 0.000100 0.999900
-4520.000000 5405.046875 -619.605408 0.577349 0.577349 -0.577349 0.000100 0.000100
-4220.000000 5405.046875 -619.605408 -0.577349 0.577349 -0.577349 0.999900 0.000100
-4220.000000 5705.046875 -619.605408 -0.577349 -0.577349 -0.577349 0.999900 0.999900
-4220.000000 5705.046875 -919.605408 -0.707083 -0.707083 0.000000 0.000100 0.999900
-4520.000000 5705.046875 -619.605408 0.577349 -0.577349 -0.577349 0.999900 0.000100
-4220.000000 5705.046875 -619.605408 -0.577349 -0.577349 -0.577349 0.000100 0.000100
-5020.000000 -0.000307 6044.000000 -1.000000 0.000000 -0.000000 -0.000000 1.000000
-5020.000000 -500.000305 6044.000000 -1.000000 0.000000 -0.000000 -0.000000 -1.500000
-5020.000000 -500.000305 6244.000000 -1.000000 0.000000 -0.000000 1.000000 -1.500000
-5020.000000 -0.000316 6244.000000 -1.000000 0.000000 -0.000000 1.000000 1.000000
-5220.000000 -0.000307 6044.000000 0.000000 0.000000 1.000000 0.000000 1.000000
-5220.000000 -500.000305 6044.000000 0.000000 0.000000 1.000000 0.000000 -1.500000
-5020.000000 -500.000305 6044.000000 0.000000 0.000000 1.000000 1.000000 -1.500000
-5020.000000 -0.000307 6044.000000 0.000000 0.000000 1.000000 1.000000 1.000000
-5020.000000 -0.000316 6244.000000 0.000000 0.000000 -1.000000 -0.000000 1.000000
-5020.000000 -500.000305 6244.000000 0.000000 0.000000 -1.000000 0.000000 -1.500000
-5220.002441 -500.000305 6244.000000 0.000000 0.000000 -1.000000 1.000000 -1.500000
-5220.002441 -0.000316 6244.000000 0.000000 0.000000 -1.000000 1.000000 1.000000
-5220.002441 -0.000316 6244.000000 1.000000 0.000000 0.000012 -0.000000 1.000000
-5220.002441 -500.000305 6244.000000 1.000000 0.000000 0.000012 0.000000 -1.500000
-5220.000000 -500.000305 6044.000000 1.000000 0.000000 0.000012 1.000000 -1.500000
-5220.000000 -0.000307 6044.000000 1.000000 0.000000 0.000012 1.000000 1.000000
1435.997559 8204.000000 -2460.000000 0.000000 1.000000 -0.000000 0.999888 0.000100
1636.000000 8204.000000 -2460.000000 0.000000 1.000000 -0.000000 0.999888 0.999900
1636.000000 8204.000000 -2659.999756 0.000000 1.000000 -0.000000 0.000100 0.999900
1436.000000 8204.000000 -2659.999756 0.000000 1.000000 -0.000000 0.000100 0.000112
1636.000000 8704.000000 -2659.999512 -1.000000 0.000000 -0.000000 -0.000000 1.000000
1636.000000 8204.000000 -2659.999756 -1.000000 0.000000 -0.000000 -0.000000 -1.500000
1636.000000 8204.000000 -2460.000000 -1.000000 0.000000 -0.000000 1.000000 -1.500000
1636.000000 8704.000000 -2459.999756 -1.000000 0.000000 -0.000000 1.000000 1.000000
1436.000000 8704.000000 -2659.999512 0.000000 -0.000000 1.000000 0.000000 1.000000
1436.000000 8204.000000 -2659.999756 0.000000 -0.000000 1.000000 0.000000 -1.500000
1636.000000 8204.000000 -2659.999756 0.000000 -0.000000 1.000000 1.000000 -1.500000
1636.000000 8704.000000 -2659.999512 0.000000 -0.000000 1.000000 1.000000 1.000000
1636.000000 8704.000000 -2459.999756 0.000000 0.000000 -1.000000 -0.000000 1.000000
1636.000000 8204.000000 -2460.000000 0.000000 0.000000 -1.000000 0.000000 -1.500000
1435.997559 8204.000000 -2460.000000 0.000000 0.000000 -1.000000 1.000000 -1.500000
1435.997559 8704.000000 -2459.999756 0.000000 0.000000 -1.000000 1.000000 1.000000
1435.997559 8704.000000 -2459.999756 1.000000 -0.000000 0.000012 -0.000000 1.000000
1435.997559 8204.000000 -2460.000000 1.000000 -0.000000 0.000012 0.000000 -1.500000
1436.000000 8204.000000 -2659.999756 1.000000 -0.000000 0.000012 1.000000 -1.500000
1436.000000 8704.000000 -2659.999512 1.000000 -0.000000 0.000012 1.000000 1.000000
4 0 1 2 3
4 4 5 6 7
4 8 9 10 11
4 12 13 14 15
4 16 17 18 19
4 20 21 22 23
4 24 25 26 27
4 28 29 30 31
4 32 33 34 29
4 28 35 36 37
4 38 32 37 39
4 40 41 42 43
4 44 45 46 47
4 48 49 50 51
4 52 53 54 55
4 56 57 58 59
4 60 61 62 63
4 64 65 66 67
4 68 69 70 71
4 72 73 74 75
