ply
format ascii 1.0
comment Created by Blender 2.83.5 - www.blender.org, source file: 'stage1.blend'
element vertex 102
property float x
property float y
property float z
property float nx
property float ny
property float nz
property float s
property float t
element face 137
property list uchar uint vertex_indices
end_header
3373.801025 -1654.250244 3205.050293 -0.125462 0.973601 -0.190619 -0.087705 0.646411
3148.801758 -1879.249878 2531.132080 -0.146947 0.953459 -0.263253 -0.500000 1.035899
2531.133545 -1879.249878 3148.800293 -0.273995 0.948912 -0.156316 -0.500000 -0.035898
3092.551758 -1710.500244 3308.769287 -0.237861 0.958525 -0.156865 -0.170304 0.312406
3003.281250 -1654.250244 3808.693359 -0.244819 0.964873 -0.095035 0.013426 -0.198788
3261.301025 -1598.000244 3992.550293 -0.187689 0.976745 -0.103488 0.210700 -0.134443
2305.051758 -1879.249878 3992.550293 -0.348521 0.936674 -0.033387 -0.232051 -0.964101
2867.551758 -1654.250366 4330.050293 -0.318094 0.947691 0.025880 0.180714 -0.768886
3092.551758 -1598.000366 4555.050293 -0.225349 0.945463 0.235115 0.381512 -0.768886
3992.551025 -1879.249878 2305.050293 0.006104 0.963225 -0.268532 -0.232051 1.964102
3936.301025 -1598.000244 3373.800293 -0.033815 0.970397 -0.239051 0.235101 0.988035
4273.800781 -1654.250244 3205.050293 0.022645 0.960570 -0.277017 0.302722 1.427265
3542.551758 -1485.500366 4330.050293 -0.134556 0.989441 0.053713 0.490287 -0.183245
2531.133545 -1879.250000 4836.300293 -0.298990 0.925687 0.231697 0.232051 -1.500000
4836.300781 -1879.249878 2531.132080 0.116428 0.944182 -0.308084 0.232050 2.499999
3655.051025 -1598.000244 3598.800293 -0.150365 0.977081 -0.150578 0.210699 0.548805
3936.301025 -1485.500244 3767.550293 -0.084964 0.983154 -0.161748 0.417081 0.646412
4780.050781 -1654.250244 3205.050293 0.104801 0.964110 -0.243843 0.522336 1.866495
5230.050781 -1766.750244 3092.550293 0.385815 0.883541 -0.265389 0.657578 2.354529
5453.969238 -1879.249878 3148.800293 0.435896 0.884457 -0.166326 0.767949 2.500000
5005.050781 -1654.250244 3486.300293 0.300394 0.952391 -0.051668 0.741952 1.817692
4667.550781 -1541.750244 3767.550293 0.241615 0.966918 -0.081484 0.728719 1.280855
4386.300781 -1541.750244 3655.050293 0.076144 0.981414 -0.176000 0.557907 1.134445
3992.551025 -1485.500366 4386.300293 0.059603 0.982299 0.177435 0.709902 0.158378
4330.050781 -1485.500366 4273.800293 0.159154 0.956969 0.242531 0.807508 0.548805
4555.050781 -1485.500244 4048.800293 0.274728 0.957060 0.092257 0.807508 0.939232
3711.301025 -1598.000366 4780.050293 -0.047212 0.880337 0.471908 0.747537 -0.427263
3992.551025 -1598.000366 4780.050293 0.149266 0.848445 0.507767 0.869545 -0.183246
4442.550781 -1654.250366 4555.050293 0.349773 0.824091 0.445509 0.961567 0.402394
4723.800781 -1654.250366 4273.800293 0.446608 0.822016 0.353252 0.961567 0.890428
4892.550781 -1654.250244 3880.050293 0.379925 0.917936 0.113987 0.863961 1.378462
5286.300781 -1766.750244 3655.050293 0.318033 0.947996 -0.011444 0.925997 1.915298
5511.300781 -1823.000244 3823.800293 0.277932 0.959899 0.036470 1.091224 1.964101
5680.050781 -1879.249878 3992.550293 0.228645 0.971648 0.059816 1.232050 1.964100
5230.050781 -1766.750244 3880.050293 0.299051 0.930021 0.213477 0.999202 1.671282
4498.800781 -1879.250244 4836.300293 0.336894 0.780328 0.526841 1.085640 0.207179
4836.300781 -1879.250244 4555.050293 0.458998 0.781426 0.422681 1.110042 0.744017
5061.300781 -1879.250244 4273.800293 0.405164 0.816309 0.411603 1.085640 1.183247
5230.050781 -1935.500366 4273.800293 0.164006 0.913633 0.371929 1.153261 1.329657
5398.800781 -1935.500366 4273.800293 -0.260872 0.953307 0.152104 1.226466 1.476066
5511.300781 -1879.250244 4273.800293 -0.213996 0.975982 0.040376 1.280854 1.573674
5511.300781 -1879.250244 4442.550293 -0.226936 0.973846 -0.008545 1.354059 1.427263
5453.969238 -1879.250000 4836.300293 -0.338206 0.927641 -0.158330 1.500000 1.035897
5398.800781 -1935.500366 4555.050293 -0.461348 0.884610 -0.067629 1.348475 1.232049
3992.551025 -1879.250244 5061.300293 0.168889 0.739769 0.651265 0.963632 -0.427264
3711.301025 -1879.250244 5117.550293 0.088290 0.881924 0.463027 0.866025 -0.720085
3430.051758 -1879.250244 5117.550293 -0.025727 0.955565 0.293558 0.744018 -0.964102
3205.051758 -1879.250244 5061.300293 -0.065279 0.963073 0.261116 0.622009 -1.110512
2755.051758 -1879.250244 4948.800293 -0.088137 0.970611 0.223792 0.377992 -1.403332
5005.050781 -1991.750366 4555.050293 0.405591 0.839625 0.361248 1.172078 0.890425
5286.300781 -1991.750366 4611.300293 -0.437666 0.883847 -0.164953 1.318489 1.085638
5173.800781 -2048.000244 4555.050293 -0.074038 0.992676 0.095187 1.239699 1.036835
5173.800781 -1991.750366 4836.300293 -0.228187 0.962249 -0.148198 1.367292 0.792819
4892.550781 -1991.750366 5061.300293 -0.193518 0.948790 -0.249641 1.342891 0.353588
4948.800781 -1935.500366 5230.050293 -0.280648 0.899319 -0.335276 1.446082 0.255982
5230.050781 -1935.500366 4948.800293 -0.363262 0.875942 -0.317331 1.446082 0.744016
3992.551025 -1879.250244 5567.550293 0.005615 0.986236 -0.165136 1.183248 -0.866496
3992.551025 -1879.250000 5680.050293 0.000000 1.000000 0.000000 1.232051 -0.964102
4386.300781 -1879.250244 5511.300293 -0.031495 0.978668 -0.202948 1.329658 -0.476068
4836.300781 -1879.250000 5453.967773 -0.150273 0.924619 -0.349895 1.500000 -0.035900
4723.800781 -1935.500366 5342.550293 -0.078066 0.938536 -0.336222 1.397279 -0.036839
3767.551025 -1879.250244 5567.550293 0.025544 0.994415 -0.102176 1.085641 -1.061709
3148.801758 -1879.250000 5453.967773 0.000000 1.000000 0.000000 0.767950 -1.500000
4948.800781 -2048.000244 4780.050293 0.063692 0.995483 0.070254 1.239699 0.646409
4667.550781 -2048.000244 5005.050293 0.082888 0.993347 0.079836 1.215298 0.207178
4330.050781 -2048.000244 5173.800293 0.058168 0.998016 0.022919 1.142093 -0.232053
4048.801025 -1991.750366 5173.800293 0.218726 0.916501 0.334849 1.025669 -0.476069
4048.801025 -1991.750366 5286.300293 0.126377 0.973235 -0.191839 1.074472 -0.573675
3711.301025 -1935.500366 5342.550293 0.155400 0.984924 -0.075869 0.958048 -0.915299
3486.301025 -1879.250244 5342.550293 0.096591 0.994018 -0.050569 0.866026 -1.110512
3148.801758 933.249756 5453.967773 0.000000 1.000000 0.000000 0.767907 -1.499680
2980.051758 933.249756 5746.250977 0.000000 1.000000 0.000000 0.821488 -1.899616
3992.551025 933.249756 6017.550293 0.000000 1.000000 0.000000 1.378320 -1.256641
3992.551025 933.249756 5680.050293 0.000000 1.000000 0.000000 1.231934 -0.963868
5005.050781 933.249756 5746.250977 0.000000 1.000000 0.000000 1.699808 -0.142975
4836.300781 933.249756 5453.967773 0.000000 1.000000 0.000000 1.499840 -0.035813
5453.969238 933.249817 4836.300293 0.000000 1.000000 0.000000 1.499840 1.035813
5746.252930 933.249756 5005.050293 0.000000 1.000000 0.000000 1.699809 1.142976
6017.551758 933.249817 3992.550293 0.000000 0.999969 0.000000 1.378321 2.256642
5680.050781 933.249817 3992.550293 0.000000 1.000000 0.000000 1.231934 1.963868
5746.252930 933.249878 2980.050293 0.000000 1.000000 0.000000 0.821488 2.899618
5453.969238 933.249878 3148.800293 0.000000 0.999969 0.000000 0.767907 2.499681
5005.050781 933.249878 2238.848145 0.000000 1.000000 0.000000 0.178512 2.899617
4836.300781 933.249878 2531.132080 0.000000 1.000000 0.000000 0.232094 2.499681
3992.551025 933.249939 1967.550415 0.000000 1.000000 0.000000 -0.378321 2.256642
3992.551025 933.249878 2305.050293 0.000000 0.999969 0.000000 -0.231934 1.963868
2980.051758 933.249878 2238.848145 0.000000 1.000000 0.000000 -0.699808 1.142976
3148.801758 933.249878 2531.132080 0.000000 1.000000 0.000000 -0.499840 1.035813
2238.849609 933.249878 2980.050293 0.000000 1.000000 0.000000 -0.699808 -0.142975
2531.133545 933.249878 3148.800293 0.000000 1.000000 0.000000 -0.499840 -0.035813
1967.551758 933.249817 3992.550293 0.000000 1.000000 0.000000 -0.378321 -1.256641
2305.051758 933.249817 3992.550293 0.000000 1.000000 0.000000 -0.231934 -0.963867
2238.849609 933.249756 5005.050293 0.000000 1.000000 0.000000 0.178512 -1.899616
2531.133545 933.249817 4836.300293 0.000000 1.000000 0.000000 0.232094 -1.499680
6144.000000 933.249878 2582.302002 0.000000 1.000000 0.000000 0.821488 3.589691
5402.798828 933.249939 1841.100708 0.000000 1.000000 0.000000 0.178512 3.589691
5402.798828 933.249756 6144.000000 0.000000 1.000000 0.000000 2.044846 -0.142975
6144.000000 933.249756 5402.797852 0.000000 1.000000 0.000000 2.044846 1.142975
1841.102051 933.249756 5402.797852 0.000000 1.000000 0.000000 0.178512 -2.589691
2582.303467 933.249756 6143.998535 0.000000 1.000000 0.000000 0.821488 -2.589691
2582.303467 933.249939 1841.100708 0.000000 1.000000 0.000000 -1.044846 1.142976
1841.102051 933.249878 2582.302002 0.000000 1.000000 0.000000 -1.044845 -0.142975
4 0 1 2 3
4 3 4 5 0
4 3 2 6 4
3 5 7 8
3 7 4 6
3 9 10 11
3 5 8 12
3 1 0 9
3 6 13 7
3 14 9 11
3 10 0 15
3 5 15 0
3 7 13 8
3 4 7 5
3 9 0 10
3 12 15 5
3 10 15 16
3 15 12 16
3 14 11 17
3 10 16 11
3 11 16 17
3 14 17 18
3 19 14 18
3 18 20 19
3 17 20 18
3 17 21 20
3 17 22 21
3 17 16 22
3 16 12 23
3 24 16 23
3 25 16 24
4 22 16 25 21
3 23 12 26
3 12 8 26
3 23 26 27
3 24 23 28
3 27 28 23
3 29 25 24
3 24 28 29
3 30 25 29
3 25 30 21
3 20 21 30
3 19 20 31
3 20 30 31
3 19 31 32
3 33 19 32
3 32 31 34
3 31 30 34
3 29 34 30
3 28 35 36
3 29 28 36
3 37 29 36
3 29 37 34
3 34 37 32
3 32 37 38
3 39 40 32
3 32 38 39
3 32 40 33
3 33 40 41
3 42 33 41
3 43 40 39
3 40 43 41
3 41 43 42
3 28 27 35
3 35 27 44
3 27 26 44
3 44 26 45
3 26 46 45
3 26 8 46
3 46 8 47
3 8 13 48
3 37 36 49
3 37 49 38
3 50 43 39
3 39 51 50
3 39 38 51
3 49 51 38
3 52 43 50
3 53 52 50
3 53 54 55
3 52 53 55
3 43 52 55
3 43 55 42
3 55 54 42
3 56 57 58
3 57 59 58
3 58 59 60
3 60 59 54
3 42 54 59
3 61 62 57
3 56 61 57
3 49 63 51
3 51 63 50
3 53 50 63
3 36 63 49
3 35 63 36
3 63 35 64
3 64 35 65
3 63 64 53
3 54 53 60
3 64 60 53
3 60 64 58
3 64 65 58
3 44 65 35
3 65 44 66
3 67 65 66
3 65 67 58
3 58 67 56
3 44 45 66
3 66 45 67
3 67 45 68
3 67 68 56
3 61 56 68
3 45 46 68
3 13 62 48
3 8 48 47
3 62 47 48
3 68 46 69
3 68 69 61
3 62 61 69
4 46 47 62 69
4 70 71 72 73
4 73 72 74 75
4 76 77 78 79
4 79 78 80 81
4 81 80 82 83
4 83 82 84 85
4 85 84 86 87
4 87 86 88 89
4 89 88 90 91
4 91 90 92 93
4 93 92 71 70
4 82 80 94 95
4 76 75 74 77
4 77 74 96 97
4 71 92 98 99
4 88 86 100 101
