ply
format ascii 1.0
comment Created by Blender 2.83.5 - www.blender.org, source file: 'stage1.blend'
element vertex 48
property float x
property float y
property float z
property float nx
property float ny
property float nz
property float s
property float t
element face 12
property list uchar uint vertex_indices
end_header
4836.300781 933.249756 5453.967773 -0.499985 0.000000 -0.866024 1.000000 0.000000
5453.969238 933.249817 4836.300293 -0.866024 0.000000 -0.499985 1.000000 1.000000
5453.969238 -1879.250000 4836.300293 -0.866024 0.000000 -0.499985 0.000000 1.000000
4836.300781 -1879.250000 5453.967773 -0.499985 0.000000 -0.866024 0.000000 0.000000
3992.551025 933.249756 5680.050293 0.000000 0.000000 -1.000000 1.000000 0.000000
4836.300781 933.249756 5453.967773 -0.499985 0.000000 -0.866024 1.000000 1.000000
4836.300781 -1879.250000 5453.967773 -0.499985 0.000000 -0.866024 0.000000 1.000000
3992.551025 -1879.250000 5680.050293 0.000000 0.000000 -1.000000 0.000000 0.000000
3148.801758 933.249756 5453.967773 0.499985 0.000000 -0.866024 1.000000 0.000000
3992.551025 933.249756 5680.050293 0.000000 0.000000 -1.000000 1.000000 1.000000
3992.551025 -1879.250000 5680.050293 0.000000 0.000000 -1.000000 0.000000 1.000000
3148.801758 -1879.250000 5453.967773 0.499985 0.000000 -0.866024 0.000000 0.000000
2531.133545 933.249817 4836.300293 0.866024 0.000000 -0.499985 1.000000 0.000000
3148.801758 933.249756 5453.967773 0.499985 0.000000 -0.866024 1.000000 1.000000
3148.801758 -1879.250000 5453.967773 0.499985 0.000000 -0.866024 0.000000 1.000000
2531.133545 -1879.250000 4836.300293 0.866024 0.000000 -0.499985 0.000000 0.000000
2305.051758 933.249817 3992.550293 0.999969 0.000000 0.000000 1.000000 0.000000
2531.133545 933.249817 4836.300293 0.866024 0.000000 -0.499985 1.000000 1.000000
2531.133545 -1879.250000 4836.300293 0.866024 0.000000 -0.499985 0.000000 1.000000
2305.051758 -1879.249878 3992.550293 0.999969 0.000000 0.000000 0.000000 0.000000
2531.133545 933.249878 3148.800293 0.866024 0.000000 0.499985 1.000000 0.000000
2305.051758 933.249817 3992.550293 0.999969 0.000000 0.000000 1.000000 1.000000
2305.051758 -1879.249878 3992.550293 0.999969 0.000000 0.000000 0.000000 1.000000
2531.133545 -1879.249878 3148.800293 0.866024 0.000000 0.499985 0.000000 0.000000
3148.801758 933.249878 2531.132080 0.499985 0.000000 0.866024 1.000000 0.000000
2531.133545 933.249878 3148.800293 0.866024 0.000000 0.499985 1.000000 1.000000
2531.133545 -1879.249878 3148.800293 0.866024 0.000000 0.499985 -0.000000 1.000000
3148.801758 -1879.249878 2531.132080 0.499985 0.000000 0.866024 0.000000 0.000000
3992.551025 933.249878 2305.050293 0.000000 0.000000 0.999969 1.000000 0.000000
3148.801758 933.249878 2531.132080 0.499985 0.000000 0.866024 1.000000 1.000000
3148.801758 -1879.249878 2531.132080 0.499985 0.000000 0.866024 0.000000 1.000000
3992.551025 -1879.249878 2305.050293 0.000000 0.000000 0.999969 0.000000 0.000000
4836.300781 933.249878 2531.132080 -0.499985 0.000000 0.866024 1.000000 -0.000000
3992.551025 933.249878 2305.050293 0.000000 0.000000 0.999969 1.000000 1.000000
3992.551025 -1879.249878 2305.050293 0.000000 0.000000 0.999969 0.000000 1.000000
4836.300781 -1879.249878 2531.132080 -0.499985 0.000000 0.866024 0.000000 0.000000
5453.969238 933.249878 3148.800293 -0.866024 0.000000 0.499985 1.000000 -0.000000
4836.300781 933.249878 2531.132080 -0.499985 0.000000 0.866024 1.000000 1.000000
4836.300781 -1879.249878 2531.132080 -0.499985 0.000000 0.866024 0.000000 1.000000
5453.969238 -1879.249878 3148.800293 -0.866024 0.000000 0.499985 0.000000 0.000000
5680.050781 933.249817 3992.550293 -0.999969 0.000000 0.000000 1.000000 0.000000
5453.969238 933.249878 3148.800293 -0.866024 0.000000 0.499985 1.000000 1.000000
5453.969238 -1879.249878 3148.800293 -0.866024 0.000000 0.499985 0.000000 1.000000
5680.050781 -1879.249878 3992.550293 -0.999969 0.000000 0.000000 0.000000 0.000000
5453.969238 933.249817 4836.300293 -0.866024 0.000000 -0.499985 1.000000 0.000000
5680.050781 933.249817 3992.550293 -0.999969 0.000000 0.000000 1.000000 1.000000
5680.050781 -1879.249878 3992.550293 -0.999969 0.000000 0.000000 0.000000 1.000000
5453.969238 -1879.250000 4836.300293 -0.866024 0.000000 -0.499985 0.000000 0.000000
4 0 1 2 3
4 4 5 6 7
4 8 9 10 11
4 12 13 14 15
4 16 17 18 19
4 20 21 22 23
4 24 25 26 27
4 28 29 30 31
4 32 33 34 35
4 36 37 38 39
4 40 41 42 43
4 44 45 46 47
