ply
format ascii 1.0
comment Created by Blender 2.83.5 - www.blender.org, source file: 'stage1.blend'
element vertex 48
property float x
property float y
property float z
property float nx
property float ny
property float nz
property float s
property float t
element face 20
property list uchar uint vertex_indices
end_header
6017.551758 933.249817 3992.550293 1.000000 0.000000 0.000000 1.500000 -0.499832
5746.252930 933.249756 5005.050293 0.965911 0.000000 -0.258797 1.500000 -0.008864
5746.252930 -5120.000000 5005.050293 0.965911 0.000000 -0.258797 -0.499762 -0.008864
6017.551758 -5120.000000 3992.550049 1.000000 0.000000 0.000000 -0.499762 -0.499831
2980.051758 933.249878 2238.848145 0.258797 0.000000 -0.965911 1.500000 1.008992
3992.551025 933.249939 1967.550415 0.000000 0.000000 -1.000000 1.500000 1.500000
3992.551025 -5120.000000 1967.550171 0.000000 0.000000 -0.999969 -0.500000 1.499999
2980.051758 -5120.000000 2238.848633 0.258797 0.000000 -0.965911 -0.500000 1.008992
3992.551025 933.249939 1967.550415 0.000000 0.000000 -1.000000 1.499762 -0.500000
5005.050781 933.249878 2238.848145 -0.258797 0.000000 -0.965911 1.499762 -0.009033
5005.050781 -5120.000000 2238.848633 -0.258797 0.000000 -0.965911 -0.500000 -0.009032
3992.551025 -5120.000000 1967.550171 0.000000 0.000000 -0.999969 -0.500000 -0.499998
2238.849609 933.249756 5005.050293 -0.965911 0.000000 -0.258797 1.500000 1.008992
1967.551758 933.249817 3992.550293 -0.999969 0.000000 0.000000 1.500000 1.500000
1967.551758 -5120.000000 3992.550049 -0.999969 0.000000 0.000000 -0.500000 1.499999
2238.849609 -5120.000000 5005.050293 -0.965911 0.000000 -0.258797 -0.500000 1.008991
5005.050781 933.249756 5746.250977 -0.258797 0.000000 0.965911 1.500000 1.009033
3992.551025 933.249756 6017.550293 0.000000 0.000000 1.000000 1.500000 1.500000
3992.551025 -5120.000488 6017.550293 0.000000 0.000000 1.000000 -0.499762 1.500000
5005.050781 -5120.000488 5746.250977 -0.258797 0.000000 0.965911 -0.499762 1.009033
5746.252930 933.249878 2980.050293 0.965911 0.000000 0.258797 1.499762 1.008864
6017.551758 933.249817 3992.550293 1.000000 0.000000 0.000000 1.499762 1.499832
6017.551758 -5120.000000 3992.550049 1.000000 0.000000 0.000000 -0.500000 1.499832
5746.252930 -5120.000000 2980.050049 0.965911 0.000000 0.258797 -0.500000 1.008865
1967.551758 933.249817 3992.550293 -0.999969 0.000000 0.000000 1.500000 -0.500000
2238.849609 933.249878 2980.050293 -0.965911 0.000000 0.258797 1.500000 -0.008992
2238.849609 -5120.000000 2980.050049 -0.965911 0.000000 0.258797 -0.500000 -0.008993
1967.551758 -5120.000000 3992.550049 -0.999969 0.000000 0.000000 -0.500000 -0.500000
3992.551025 933.249756 6017.550293 0.000000 0.000000 1.000000 1.500000 -0.500000
2980.051758 933.249756 5746.250977 0.258797 0.000000 0.965911 1.500000 -0.008992
2980.051758 -5120.000488 5746.250977 0.258797 0.000000 0.965911 -0.500000 -0.008993
3992.551025 -5120.000488 6017.550293 0.000000 0.000000 1.000000 -0.500000 -0.500000
1841.102051 933.249878 2582.302002 -1.000000 0.000000 0.000000 1.500000 0.254495
2582.303467 933.249939 1841.100708 0.000000 0.000000 -1.000000 1.500000 0.745503
2582.303467 -5120.000000 1841.100464 0.000000 0.000000 -1.000000 -0.500000 0.745504
1841.102051 -5120.000000 2582.302490 -1.000000 0.000000 0.000000 -0.500000 0.254497
2582.303467 933.249756 6143.998535 0.000000 0.000000 1.000000 1.500000 0.254495
1841.102051 933.249756 5402.797852 -1.000000 0.000000 0.000000 1.500000 0.745503
1841.102051 -5120.000000 5402.797852 -1.000000 0.000000 0.000000 -0.500000 0.745504
2582.303467 -5120.000488 6143.998535 0.000000 0.000000 1.000000 -0.500000 0.254497
6144.000000 933.249756 5402.797852 1.000000 0.000000 0.000000 1.500000 0.254601
6144.000000 -5120.000000 5402.797852 1.000000 0.000000 0.000000 -0.499762 0.254600
5402.798828 933.249756 6144.000000 0.000000 0.000000 1.000000 1.500000 0.745568
5402.798828 -5120.000488 6144.000000 0.000000 0.000000 1.000000 -0.499762 0.745567
5402.798828 933.249939 1841.100708 0.000000 0.000000 -1.000000 1.499762 0.254433
6144.000000 933.249878 2582.302002 1.000000 0.000000 0.000000 1.499762 0.745400
6144.000000 -5120.000000 2582.302490 1.000000 0.000000 0.000000 -0.500000 0.745399
5402.798828 -5120.000000 1841.100464 0.000000 0.000000 -1.000000 -0.500000 0.254433
4 0 1 2 3
4 4 5 6 7
4 8 9 10 11
4 12 13 14 15
4 16 17 18 19
4 20 21 22 23
4 24 25 26 27
4 28 29 30 31
4 32 33 34 35
4 36 37 38 39
4 2 1 40 41
4 41 40 42 43
4 44 45 46 47
4 10 9 44 47
4 20 23 46 45
4 16 19 43 42
4 12 15 38 37
4 30 29 36 39
4 26 25 32 35
4 4 7 34 33
