ply
format ascii 1.0
comment Created by Blender 2.83.5 - www.blender.org, source file: 'stage1.blend'
element vertex 20
property float x
property float y
property float z
property float nx
property float ny
property float nz
property float s
property float t
property uchar red
property uchar green
property uchar blue
property uchar alpha
element face 5
property list uchar uint vertex_indices
end_header
-4570.000000 3405.049805 1090.390015 1.000000 -0.000002 0.000002 0.375000 0.000000 0 0 0 255
-4569.999023 3405.046875 790.393433 1.000000 -0.000002 0.000002 0.375000 0.250000 0 0 0 255
-4569.999023 3655.047119 790.393433 1.000000 -0.000002 0.000002 0.625000 0.250000 0 0 0 255
-4569.999023 3655.047119 1090.393433 1.000000 -0.000002 0.000002 0.625000 0.000000 0 0 0 255
-4569.999023 3405.046875 790.393433 0.000000 0.000000 1.000000 0.375000 0.250000 0 0 0 255
-4319.999023 3405.046875 790.393433 0.000000 0.000000 1.000000 0.375000 0.500000 0 0 0 255
-4319.999023 3655.047119 790.393433 0.000000 0.000000 1.000000 0.625000 0.500000 0 0 0 255
-4569.999023 3655.047119 790.393433 0.000000 0.000000 1.000000 0.625000 0.250000 0 0 0 255
-4319.999023 3405.046875 790.393433 -1.000000 0.000002 -0.000002 0.375000 0.500000 0 0 0 255
-4320.000000 3405.049805 1090.390015 -1.000000 0.000002 -0.000002 0.375000 0.750000 0 0 0 255
-4319.999023 3655.047119 1090.393433 -1.000000 0.000002 -0.000002 0.625000 0.750000 0 0 0 255
-4319.999023 3655.047119 790.393433 -1.000000 0.000002 -0.000002 0.625000 0.500000 0 0 0 255
-4569.999023 3405.046875 790.393433 0.000000 1.000000 -0.000010 0.125000 0.500000 0 0 0 255
-4570.000000 3405.049805 1090.390015 0.000000 1.000000 -0.000010 0.125000 0.750000 0 0 0 255
-4320.000000 3405.049805 1090.390015 0.000000 1.000000 -0.000010 0.375000 0.750000 0 0 0 255
-4319.999023 3405.046875 790.393433 0.000000 1.000000 -0.000010 0.375000 0.500000 0 0 0 255
-4319.999023 3655.047119 790.393433 0.000000 -1.000000 0.000000 0.625000 0.500000 0 0 0 255
-4319.999023 3655.047119 1090.393433 0.000000 -1.000000 0.000000 0.625000 0.750000 0 0 0 255
-4569.999023 3655.047119 1090.393433 0.000000 -1.000000 0.000000 0.875000 0.750000 0 0 0 255
-4569.999023 3655.047119 790.393433 0.000000 -1.000000 0.000000 0.875000 0.500000 0 0 0 255
4 0 1 2 3
4 4 5 6 7
4 8 9 10 11
4 12 13 14 15
4 16 17 18 19
