ply
format ascii 1.0
element vertex 65
property short x
property short y
property short z
property float nx
property float ny
property float nz
property uchar alpha
element face 112
property list uchar uint vertex_indices
end_header
-133 -40 39 -0.9140625 -0.2734375 0.265625 0
-134 -1 55 -0.9140625 0.0 0.375 0
-145 -1 0 -0.9921875 -0.0078125 0.0 0
-102 -73 72 -0.6953125 -0.5 0.4921875 255
-102 0 102 -0.703125 0.0 0.6953125 255
-54 -95 94 -0.375 -0.6484375 0.640625 255
-55 0 134 -0.375 0.0 0.9140625 255
0 -102 102 0.0 -0.6953125 0.6953125 255
0 0 145 0.0 0.0 0.9921875 255
56 -94 94 0.3828125 -0.640625 0.640625 255
55 0 134 0.375 0.0 0.9140625 255
103 -71 72 0.703125 -0.484375 0.4921875 255
102 0 102 0.703125 0.0 0.6953125 255
134 -38 39 0.9140625 -0.2578125 0.265625 255
134 1 55 0.9140625 0.0 0.375 255
145 1 0 0.9921875 0.0078125 0.0 255
-133 -56 0 -0.9140625 -0.3828125 0.0 255
-101 -103 0 -0.6953125 -0.703125 0.0 255
-54 -134 0 -0.375 -0.9140625 0.0 255
1 -145 0 0.0078125 -0.9921875 0.0 255
56 -133 0 0.3828125 -0.90625 0.0 255
103 -101 0 0.703125 -0.6875 0.0 255
134 -54 0 0.9140625 -0.3671875 0.0 255
-133 -40 -39 -0.9140625 -0.2734375 -0.265625 255
-133 -56 0 -0.9140625 -0.3828125 0.0 0
-102 -73 -72 -0.6953125 -0.5 -0.4921875 255
-54 -95 -94 -0.375 -0.6484375 -0.640625 255
0 -102 -102 0.0 -0.6953125 -0.6953125 255
56 -94 -94 0.3828125 -0.640625 -0.640625 255
103 -71 -72 0.703125 -0.484375 -0.4921875 255
134 -38 -39 0.9140625 -0.2578125 -0.265625 255
-134 -1 -55 -0.9140625 0.0 -0.375 255
-133 -40 -39 -0.9140625 -0.2734375 -0.265625 0
-102 0 -102 -0.703125 0.0 -0.6953125 255
-55 0 -134 -0.375 0.0 -0.9140625 255
0 0 -145 0.0 0.0 -0.9921875 255
55 0 -134 0.375 0.0 -0.9140625 255
102 0 -102 0.703125 0.0 -0.6953125 255
134 1 -55 0.9140625 0.0 -0.375 255
-134 38 -39 -0.9140625 0.2578125 -0.265625 255
-134 -1 -55 -0.9140625 0.0 -0.375 0
-103 71 -72 -0.703125 0.484375 -0.4921875 255
-56 94 -94 -0.3828125 0.640625 -0.640625 255
0 102 -102 0.0 0.6953125 -0.6953125 255
54 95 -94 0.375 0.6484375 -0.640625 255
102 73 -72 0.6953125 0.5 -0.4921875 255
133 40 -39 0.9140625 0.2734375 -0.265625 255
-134 54 0 -0.9140625 0.3671875 0.0 255
-134 38 -39 -0.9140625 0.2578125 -0.265625 0
-103 101 0 -0.703125 0.6875 0.0 255
-56 133 0 -0.3828125 0.90625 0.0 255
-1 145 0 -0.0078125 0.9921875 0.0 255
54 134 0 0.375 0.9140625 0.0 255
101 103 0 0.6953125 0.703125 0.0 255
133 56 0 0.9140625 0.3828125 0.0 255
-134 38 39 -0.9140625 0.2578125 0.265625 255
-134 54 0 -0.9140625 0.3671875 0.0 0
-103 71 72 -0.703125 0.484375 0.4921875 255
-56 94 94 -0.3828125 0.640625 0.640625 255
0 102 102 0.0 0.6953125 0.6953125 255
54 95 94 0.375 0.6484375 0.640625 255
102 73 72 0.6953125 0.5 0.4921875 255
133 40 39 0.9140625 0.2734375 0.265625 255
-134 -1 55 -0.9140625 0.0 0.375 255
-134 38 39 -0.9140625 0.2578125 0.265625 0
3 0 1 2
3 1 0 3
3 1 3 4
3 4 3 5
3 4 5 6
3 6 5 7
3 6 7 8
3 8 7 9
3 8 9 10
3 10 9 11
3 10 11 12
3 12 11 13
3 12 13 14
3 14 13 15
3 16 0 2
3 0 16 17
3 0 17 3
3 3 17 18
3 3 18 5
3 5 18 19
3 5 19 7
3 7 19 20
3 7 20 9
3 9 20 21
3 9 21 11
3 11 21 22
3 11 22 13
3 13 22 15
3 23 24 2
3 24 23 25
3 24 25 17
3 17 25 26
3 17 26 18
3 18 26 27
3 18 27 19
3 19 27 28
3 19 28 20
3 20 28 29
3 20 29 21
3 21 29 30
3 21 30 22
3 22 30 15
3 31 32 2
3 32 31 33
3 32 33 25
3 25 33 34
3 25 34 26
3 26 34 35
3 26 35 27
3 27 35 36
3 27 36 28
3 28 36 37
3 28 37 29
3 29 37 38
3 29 38 30
3 30 38 15
3 39 40 2
3 40 39 41
3 40 41 33
3 33 41 42
3 33 42 34
3 34 42 43
3 34 43 35
3 35 43 44
3 35 44 36
3 36 44 45
3 36 45 37
3 37 45 46
3 37 46 38
3 38 46 15
3 47 48 2
3 48 47 49
3 48 49 41
3 41 49 50
3 41 50 42
3 42 50 51
3 42 51 43
3 43 51 52
3 43 52 44
3 44 52 53
3 44 53 45
3 45 53 54
3 45 54 46
3 46 54 15
3 55 56 2
3 56 55 57
3 56 57 49
3 49 57 58
3 49 58 50
3 50 58 59
3 50 59 51
3 51 59 60
3 51 60 52
3 52 60 61
3 52 61 53
3 53 61 62
3 53 62 54
3 54 62 15
3 63 64 2
3 64 63 4
3 64 4 57
3 57 4 6
3 57 6 58
3 58 6 8
3 58 8 59
3 59 8 10
3 59 10 60
3 60 10 12
3 60 12 61
3 61 12 14
3 61 14 62
3 62 14 15
