ply
format ascii 1.0
element vertex 14
property short x
property short y
property short z
property float s
property float t
property uchar red
property uchar green
property uchar blue
property uchar alpha
element face 18
property list uchar uint vertex_indices
end_header
196 17 114 0.666015625 0.36328125 255 255 255 255
259 2 106 0.85546875 0.955078125 255 255 255 255
184 -14 137 0.810546875 0.15625 255 255 255 255
196 17 -113 0.236328125 0.41015625 255 255 255 255
259 2 -105 0.166015625 1.03515625 255 255 255 255
171 17 -157 -0.177734375 -0.0859375 255 255 255 255
184 -14 -136 -0.03515625 0.203125 255 255 255 255
91 42 -114 0.4921875 -0.5625 255 255 255 255
140 42 -34 1.244140625 0.373046875 255 255 255 255
116 -38 -75 0.703125 0.013671875 255 255 255 255
171 17 158 0.845703125 -0.119140625 255 255 255 255
116 -38 76 0.248046875 -0.005859375 255 255 255 255
91 42 115 0.265625 -0.55078125 255 255 255 255
140 42 35 -0.046875 0.361328125 255 255 255 255
3 0 1 2
3 3 4 5
3 5 4 6
3 6 7 5
3 5 7 8
3 5 8 3
3 3 8 9
3 3 9 6
3 6 4 3
3 6 9 7
3 10 11 2
3 0 12 10
3 10 12 11
3 2 1 10
3 10 1 0
3 2 11 13
3 0 13 12
3 2 13 0
