ply
format ascii 1.0
element vertex 18
property short x
property short y
property short z
property float nx
property float ny
property float nz
property uchar alpha
element face 14
property list uchar uint vertex_indices
end_header
72 -16 0 0.6953125 -0.6953125 -0.03125 0
56 -16 27 0.171875 -0.640625 0.7265625 0
27 -35 0 0.09375 -0.984375 -0.03125 0
90 28 0 0.7890625 -0.2578125 0.5234375 255
56 28 46 0.7890625 -0.2578125 0.5234375 255
56 28 46 -0.375 -0.265625 0.875 255
-37 27 0 -0.375 -0.265625 0.875 255
-17 -17 0 -0.3203125 -0.4609375 0.8125 255
56 -16 -22 0.171875 -0.59375 -0.765625 255
55 28 -41 0.7421875 -0.265625 -0.5859375 255
90 28 0 0.7421875 -0.265625 -0.5859375 255
-37 27 0 -0.3359375 -0.2578125 -0.890625 255
55 28 -41 -0.3359375 -0.2578125 -0.890625 255
-17 -17 0 -0.28125 -0.4140625 -0.84375 255
55 28 -41 -0.0078125 0.9921875 0.0 255
-37 27 0 -0.0078125 0.9921875 0.0 0
56 28 46 -0.0078125 0.9921875 0.0 0
90 28 0 -0.0078125 0.9921875 0.0 255
3 0 1 2
3 3 4 1
3 3 1 0
3 5 6 7
3 5 7 1
3 1 7 2
3 8 0 2
3 9 10 0
3 9 0 8
3 11 12 8
3 11 8 13
3 13 8 2
3 14 15 16
3 14 16 17
