ply
format ascii 1.0
element vertex 16
property short x
property short y
property short z
property float s
property float t
property float nx
property float ny
property float nz
property uchar alpha
element face 8
property list uchar uint vertex_indices
end_header
-163 -122 0 0.015625 0.017578125 0.0 -0.578125 0.796875 255
163 -122 0 0.982421875 0.017578125 0.0 -0.578125 0.796875 255
-122 -81 30 0.109375 0.18359375 0.0 -0.578125 0.796875 255
122 -81 30 0.857421875 0.18359375 0.0 -0.578125 0.796875 255
-163 -122 0 0.015625 0.017578125 -0.578125 0.0 0.796875 255
-122 -81 30 0.109375 0.18359375 -0.578125 0.0 0.796875 255
-163 122 0 0.015625 0.984375 -0.578125 0.0 0.796875 255
-122 81 30 0.109375 0.849609375 -0.578125 0.0 0.796875 255
-122 81 30 0.109375 0.849609375 0.0 0.578125 0.796875 255
122 81 30 0.857421875 0.849609375 0.0 0.578125 0.796875 255
163 122 0 0.982421875 0.984375 0.0 0.578125 0.796875 255
-163 122 0 0.015625 0.984375 0.0 0.578125 0.796875 255
122 81 30 0.857421875 0.849609375 0.578125 0.0 0.796875 255
122 -81 30 0.857421875 0.18359375 0.578125 0.0 0.796875 255
163 -122 0 0.982421875 0.017578125 0.578125 0.0 0.796875 255
163 122 0 0.982421875 0.984375 0.578125 0.0 0.796875 255
3 0 1 2
3 1 3 2
3 4 5 6
3 5 7 6
3 8 9 10
3 11 8 10
3 12 13 14
3 15 12 14
