ply
format ascii 1.0
comment Created by Blender 2.83.5 - www.blender.org, source file: 'retroliftA.blend'
element vertex 24
property float x
property float y
property float z
property float nx
property float ny
property float nz
property float s
property float t
element face 6
property list uchar uint vertex_indices
end_header
75.000000 -49.999996 49.999992 0.000000 0.000000 1.000000 2.999827 0.000173
75.000000 0.000000 49.999992 0.000000 0.000000 1.000000 2.999827 1.000057
-75.000000 0.000000 50.000000 0.000000 0.000000 1.000000 0.000173 1.000057
-75.000000 -49.999996 50.000000 0.000000 0.000000 1.000000 0.000173 0.000173
-75.000000 -49.999996 50.000000 -1.000000 0.000000 0.000000 1.999900 0.000100
-75.000000 0.000000 50.000000 -1.000000 0.000000 0.000000 1.999900 0.999900
-75.000000 0.000000 -49.999992 -1.000000 0.000000 0.000000 0.000100 0.999900
-75.000000 -49.999996 -49.999992 -1.000000 0.000000 0.000000 0.000100 0.000100
-75.000000 -49.999996 -49.999992 -0.000000 0.000000 -1.000000 2.999827 0.000173
-75.000000 0.000000 -49.999992 -0.000000 0.000000 -1.000000 2.999827 1.000058
75.000000 0.000000 -50.000000 -0.000000 0.000000 -1.000000 0.000173 1.000057
75.000000 -49.999996 -50.000000 -0.000000 0.000000 -1.000000 0.000173 0.000173
75.000000 -49.999996 -50.000000 1.000000 0.000000 0.000000 1.999900 0.000100
75.000000 0.000000 -50.000000 1.000000 0.000000 0.000000 1.999900 0.999900
75.000000 0.000000 49.999992 1.000000 0.000000 0.000000 0.000100 0.999900
75.000000 -49.999996 49.999992 1.000000 0.000000 0.000000 0.000100 0.000100
-75.000000 -49.999996 50.000000 -0.000000 -1.000000 0.000000 0.000173 0.000000
-75.000000 -49.999996 -49.999992 -0.000000 -1.000000 0.000000 0.000173 0.000000
75.000000 -49.999996 -50.000000 -0.000000 -1.000000 0.000000 2.999827 0.000000
75.000000 -49.999996 49.999992 -0.000000 -1.000000 0.000000 2.999827 0.000000
-75.000000 0.000000 -49.999992 0.000000 1.000000 0.000000 0.000173 1.000000
-75.000000 0.000000 50.000000 0.000000 1.000000 0.000000 0.000173 1.000000
75.000000 0.000000 49.999992 0.000000 1.000000 0.000000 2.999827 1.000000
75.000000 0.000000 -50.000000 0.000000 1.000000 0.000000 2.999826 1.000000
4 0 1 2 3
4 4 5 6 7
4 8 9 10 11
4 12 13 14 15
4 16 17 18 19
4 20 21 22 23
