ply
format ascii 1.0
element vertex 10
property short x
property short y
property short z
property uchar red
property uchar green
property uchar blue
property uchar alpha
element face 8
property list uchar uint vertex_indices
end_header
0 -8 0 255 255 0 255
-32 80 0 255 255 0 255
32 80 0 255 255 0 255
-52 28 0 255 255 0 255
-116 80 0 255 255 0 255
-84 -52 0 255 255 0 255
52 28 0 255 255 0 255
84 -52 0 255 255 0 255
116 80 0 255 255 0 255
0 160 0 255 255 0 255
3 0 1 2
3 3 4 1
3 0 5 3
3 6 7 0
3 2 8 6
3 1 9 2
3 0 3 1
3 2 6 0
