ply
format ascii 1.0
element vertex 10
property short x
property short y
property short z
property float nx
property float ny
property float nz
property uchar alpha
element face 8
property list uchar uint vertex_indices
end_header
0 -8 0 0.0 0.0 -0.9921875 0
-32 80 0 0.0 0.0 -0.9921875 0
32 80 0 0.0 0.0 -0.9921875 0
-52 28 0 0.0 0.0 -0.9921875 255
-116 80 0 0.0 0.0 -0.9921875 255
-84 -52 0 0.0 0.0 -0.9921875 255
52 28 0 0.0 0.0 -0.9921875 255
84 -52 0 0.0 0.0 -0.9921875 255
116 80 0 0.0 0.0 -0.9921875 255
0 160 0 0.0 0.0 -0.9921875 255
3 0 1 2
3 3 4 1
3 0 5 3
3 6 7 0
3 2 8 6
3 1 9 2
3 0 3 1
3 2 6 0
