ply
format ascii 1.0
element vertex 8
property short x
property short y
property short z
property float s
property float t
property float nx
property float ny
property float nz
property uchar alpha
element face 4
property list uchar uint vertex_indices
end_header
604 0 -58 0.966796875 0.103515625 0.0 0.0 -0.9921875 255
-12 0 -58 0.015625 0.10546875 0.0 0.0 -0.9921875 255
-12 1024 -58 0.015625 0.931640625 0.0 0.0 -0.9921875 255
604 1024 -58 0.966796875 0.9296875 0.0 0.0 -0.9921875 255
-12 0 59 0.015625 0.10546875 0.0 0.0 0.9921875 255
604 0 59 0.966796875 0.107421875 0.0 0.0 0.9921875 255
604 1024 59 0.966796875 0.927734375 0.0 0.0 0.9921875 255
-12 1024 59 0.015625 0.923828125 0.0 0.0 0.9921875 255
3 0 1 2
3 0 2 3
3 4 5 6
3 4 6 7
