ply
format ascii 1.0
element vertex 12
property short x
property short y
property short z
property float nx
property float ny
property float nz
property uchar alpha
element face 18
property list uchar uint vertex_indices
end_header
512 488 -156 -0.1875 0.5625 -0.7890625 255
512 372 -156 0.1796875 -0.5546875 -0.796875 255
456 432 -156 -0.7109375 -0.21875 -0.640625 255
432 432 -100 -0.984375 0.0078125 -0.0078125 255
512 512 -100 -0.0078125 0.984375 -0.0078125 255
572 432 -156 0.6953125 0.25 -0.65625 255
512 348 -100 -0.0078125 -0.984375 -0.0078125 255
596 432 -100 0.984375 0.0078125 -0.0078125 255
572 432 -40 0.875 -0.28125 0.3515625 255
512 372 -40 -0.3125 -0.8671875 0.3515625 255
456 432 -40 -0.875 0.296875 0.34375 255
512 488 -40 0.265625 0.8828125 0.34375 255
3 0 1 2
3 0 2 3
3 0 3 4
3 0 5 1
3 5 0 4
3 2 1 6
3 1 7 6
3 1 5 7
3 2 6 3
3 5 4 7
3 6 8 9
3 3 6 9
3 6 7 8
3 4 3 10
3 3 9 10
3 7 4 11
3 7 11 8
3 4 10 11
