ply
format ascii 1.0
element vertex 12
property short x
property short y
property short z
property float nx
property float ny
property float nz
property uchar alpha
element face 18
property list uchar uint vertex_indices
end_header
512 512 104 -0.0078125 0.984375 0.0078125 255
456 432 160 -0.703125 0.2421875 0.6484375 255
512 488 160 0.171875 0.5703125 0.7890625 255
512 372 160 -0.1953125 -0.546875 0.796875 255
572 432 160 0.703125 -0.2265625 0.6484375 255
596 432 104 0.984375 0.0078125 0.0078125 255
512 348 104 -0.0078125 -0.984375 0.0078125 255
432 432 104 -0.984375 0.0078125 0.0078125 255
512 488 44 -0.296875 0.875 -0.34375 255
456 432 44 -0.8828125 -0.265625 -0.34375 255
512 372 44 0.28125 -0.875 -0.3515625 255
572 432 44 0.8671875 0.3125 -0.3515625 255
3 0 1 2
3 2 3 4
3 2 1 3
3 5 2 4
3 5 0 2
3 6 4 3
3 7 6 3
3 7 3 1
3 6 5 4
3 0 7 1
3 8 9 7
3 9 6 7
3 8 7 0
3 9 10 6
3 10 5 6
3 10 11 5
3 11 0 5
3 11 8 0
