ply
format ascii 1.0
element vertex 8
property short x
property short y
property short z
property float s
property float t
property float nx
property float ny
property float nz
property uchar alpha
element face 4
property list uchar uint vertex_indices
end_header
591 0 -58 0.96875 0.109375 0.0 0.0 -0.9921875 255
-8 1010 -58 0.0 0.919921875 0.0 0.0 -0.9921875 255
591 1010 -58 0.982421875 0.923828125 0.0 0.0 -0.9921875 255
-8 0 -58 -0.013671875 0.107421875 0.0 0.0 -0.9921875 255
-8 0 59 0.015625 0.10546875 0.0 0.0 0.9921875 255
591 1010 59 0.966796875 0.927734375 0.0 0.0 0.9921875 255
-8 1010 59 0.015625 0.923828125 0.0 0.0 0.9921875 255
591 0 59 0.966796875 0.107421875 0.0 0.0 0.9921875 255
3 0 1 2
3 0 3 1
3 4 5 6
3 4 7 5
