ply
format ascii 1.0
element vertex 24
property short x
property short y
property short z
property float nx
property float ny
property float nz
property uchar alpha
element face 36
property list uchar uint vertex_indices
end_header
492 468 -152 -0.1875 0.5546875 -0.796875 255
414 412 -98 -0.984375 0.0 0.0 255
492 491 -98 0.0 0.984375 0.0 255
492 468 153 0.1875 0.5546875 0.796875 255
492 357 153 -0.1796875 -0.5625 0.7890625 255
546 412 153 0.7109375 -0.234375 0.6484375 255
437 412 153 -0.7109375 0.2265625 0.6484375 255
492 491 99 0.0 0.984375 0.0 255
569 412 99 0.984375 0.0 0.0 255
492 334 99 0.0 -0.984375 0.0 255
414 412 99 -0.984375 0.0 0.0 255
492 468 44 -0.2890625 0.8671875 -0.3671875 255
437 412 44 -0.8671875 -0.2890625 -0.359375 255
492 357 44 0.296875 -0.8671875 -0.359375 255
546 412 44 0.875 0.28125 -0.359375 255
437 412 -43 -0.875 0.28125 0.359375 255
492 468 -43 0.296875 0.8671875 0.3671875 255
546 412 -152 0.7109375 0.2265625 -0.640625 255
492 357 -152 0.1875 -0.5546875 -0.7890625 255
437 412 -152 -0.703125 -0.234375 -0.6484375 255
569 412 -98 0.984375 0.0 0.0 255
492 334 -98 0.0 -0.984375 0.0 255
492 357 -43 -0.2890625 -0.875 0.359375 255
546 412 -43 0.875 -0.2890625 0.359375 255
3 0 1 2
3 3 4 5
3 3 6 4
3 7 6 3
3 8 3 5
3 8 7 3
3 9 5 4
3 10 9 4
3 10 4 6
3 9 8 5
3 7 10 6
3 11 12 10
3 11 10 7
3 12 9 10
3 12 13 9
3 13 8 9
3 14 7 8
3 13 14 8
3 14 11 7
3 2 15 16
3 0 17 18
3 0 19 1
3 17 0 2
3 18 17 20
3 19 18 21
3 18 20 21
3 0 18 19
3 19 21 1
3 17 2 20
3 1 21 22
3 21 23 22
3 21 20 23
3 2 1 15
3 1 22 15
3 20 2 16
3 20 16 23
