ply
format ascii 1.0
element vertex 16
property short x
property short y
property short z
property float s
property float t
property float nx
property float ny
property float nz
property uchar alpha
element face 8
property list uchar uint vertex_indices
end_header
-8 1000 -58 0.015625 0.916015625 -0.9921875 0.0 0.0 255
-8 0 -58 0.015625 0.0703125 -0.9921875 0.0 0.0 255
-8 0 59 0.982421875 0.0703125 -0.9921875 0.0 0.0 255
-8 0 -58 0.982421875 0.873046875 0.0 -0.9921875 0.0 255
591 0 -58 0.982421875 0.1484375 0.0 -0.9921875 0.0 255
591 0 59 0.015625 0.1484375 0.0 -0.9921875 0.0 255
-8 0 59 0.015625 0.873046875 0.0 -0.9921875 0.0 255
-8 1000 59 0.015625 0.873046875 0.0 0.9921875 0.0 255
591 1000 -58 0.982421875 0.1484375 0.0 0.9921875 0.0 255
-8 1000 -58 0.982421875 0.873046875 0.0 0.9921875 0.0 255
591 1000 59 0.015625 0.1484375 0.0 0.9921875 0.0 255
591 1000 59 0.982421875 0.916015625 0.9921875 0.0 0.0 255
591 0 59 0.982421875 0.0703125 0.9921875 0.0 0.0 255
591 0 -58 0.015625 0.0703125 0.9921875 0.0 0.0 255
591 1000 -58 0.015625 0.916015625 0.9921875 0.0 0.0 255
-8 1000 59 0.982421875 0.916015625 -0.9921875 0.0 0.0 255
3 0 1 2
3 3 4 5
3 3 5 6
3 7 8 9
3 7 10 8
3 11 12 13
3 11 13 14
3 0 2 15
