ply
format ascii 1.0
element vertex 8
property short x
property short y
property short z
property float nx
property float ny
property float nz
property uchar alpha
element face 4
property list uchar uint vertex_indices
end_header
492 468 153 0.0 0.0 0.9921875 255
492 357 153 0.0 0.0 0.9921875 255
546 412 153 0.0 0.0 0.9921875 255
437 412 153 0.0 0.0 0.9921875 255
492 468 -152 0.0 0.0 -0.9921875 255
546 412 -152 0.0 0.0 -0.9921875 255
492 357 -152 0.0 0.0 -0.9921875 255
437 412 -152 0.0 0.0 -0.9921875 255
3 0 1 2
3 0 3 1
3 4 5 6
3 4 6 7
