ply
format ascii 1.0
element vertex 8
property short x
property short y
property short z
property float s
property float t
property float nx
property float ny
property float nz
property uchar alpha
element face 4
property list uchar uint vertex_indices
end_header
591 0 -58 0.015625 0.009765625 0.0 0.0 -0.9921875 255
-8 1000 -58 0.982421875 0.9921875 0.0 0.0 -0.9921875 255
591 1000 -58 0.015625 0.9921875 0.0 0.0 -0.9921875 255
-8 0 -58 0.982421875 0.009765625 0.0 0.0 -0.9921875 255
-8 0 59 0.982421875 0.009765625 0.0 0.0 0.9921875 255
591 1000 59 0.015625 0.9921875 0.0 0.0 0.9921875 255
-8 1000 59 0.982421875 0.9921875 0.0 0.0 0.9921875 255
591 0 59 0.015625 0.009765625 0.0 0.0 0.9921875 255
3 0 1 2
3 0 3 1
3 4 5 6
3 4 7 5
