ply
format ascii 1.0
element vertex 48
property short x
property short y
property short z
property float s
property float t
property float nx
property float ny
property float nz
property uchar alpha
element face 28
property list uchar uint vertex_indices
end_header
-163 -122 0 0.982421875 0.984375 -0.578125 0.0 0.796875 255
-122 -81 30 0.857421875 0.849609375 -0.578125 0.0 0.796875 255
-163 122 0 0.982421875 0.017578125 -0.578125 0.0 0.796875 255
-143 102 0 0.919921875 0.1015625 0.6953125 0.0 -0.6953125 255
-133 92 10 0.888671875 0.142578125 0.6953125 0.0 -0.6953125 255
-133 -92 10 0.888671875 0.890625 0.6953125 0.0 -0.6953125 255
-133 92 10 0.888671875 0.142578125 0.0 0.0 -0.9921875 255
133 -92 10 0.078125 0.890625 0.0 0.0 -0.9921875 255
-133 -92 10 0.888671875 0.890625 0.0 0.0 -0.9921875 255
133 92 10 0.078125 0.142578125 0.0 0.0 -0.9921875 255
133 92 10 0.078125 0.142578125 0.0 -0.6953125 -0.6953125 255
-133 92 10 0.888671875 0.142578125 0.0 -0.6953125 -0.6953125 255
-143 102 0 0.919921875 0.1015625 0.0 -0.6953125 -0.6953125 255
143 -102 0 0.046875 0.931640625 -0.6953125 0.0 -0.6953125 255
133 92 10 0.078125 0.142578125 -0.6953125 0.0 -0.6953125 255
143 102 0 0.046875 0.1015625 -0.6953125 0.0 -0.6953125 255
133 -92 10 0.078125 0.890625 -0.6953125 0.0 -0.6953125 255
143 102 0 0.046875 0.1015625 0.0 -0.6953125 -0.6953125 255
-143 -102 0 0.919921875 0.931640625 0.0 0.6953125 -0.6953125 255
133 -92 10 0.078125 0.890625 0.0 0.6953125 -0.6953125 255
143 -102 0 0.046875 0.931640625 0.0 0.6953125 -0.6953125 255
-133 -92 10 0.888671875 0.890625 0.0 0.6953125 -0.6953125 255
-143 -102 0 0.919921875 0.931640625 0.6953125 0.0 -0.6953125 255
163 122 0 0.015625 0.017578125 0.0 0.0 -0.9921875 255
-143 102 0 0.919921875 0.1015625 0.0 0.0 -0.9921875 255
-163 122 0 0.982421875 0.017578125 0.0 0.0 -0.9921875 255
143 102 0 0.046875 0.1015625 0.0 0.0 -0.9921875 255
143 -102 0 0.046875 0.931640625 0.0 0.0 -0.9921875 255
163 -122 0 0.015625 0.984375 0.0 0.0 -0.9921875 255
-143 -102 0 0.919921875 0.931640625 0.0 0.0 -0.9921875 255
-163 -122 0 0.982421875 0.984375 0.0 0.0 -0.9921875 255
163 -122 0 0.015625 0.984375 0.0 -0.578125 0.796875 255
122 -81 30 0.109375 0.849609375 0.0 -0.578125 0.796875 255
-122 -81 30 0.857421875 0.849609375 0.0 -0.578125 0.796875 255
-122 81 30 0.857421875 0.18359375 -0.578125 0.0 0.796875 255
-122 81 30 0.857421875 0.18359375 0.0 0.0 0.9921875 255
-122 -81 30 0.857421875 0.849609375 0.0 0.0 0.9921875 255
122 -81 30 0.109375 0.849609375 0.0 0.0 0.9921875 255
-163 -122 0 0.982421875 0.984375 0.0 -0.578125 0.796875 255
-122 81 30 0.857421875 0.18359375 0.0 0.578125 0.796875 255
122 81 30 0.109375 0.18359375 0.0 0.578125 0.796875 255
163 122 0 0.015625 0.017578125 0.0 0.578125 0.796875 255
-163 122 0 0.982421875 0.017578125 0.0 0.578125 0.796875 255
122 81 30 0.109375 0.18359375 0.0 0.0 0.9921875 255
163 122 0 0.015625 0.017578125 0.578125 0.0 0.796875 255
122 81 30 0.109375 0.18359375 0.578125 0.0 0.796875 255
163 -122 0 0.015625 0.984375 0.578125 0.0 0.796875 255
122 -81 30 0.109375 0.849609375 0.578125 0.0 0.796875 255
3 0 1 2
3 3 4 5
3 6 7 8
3 6 9 7
3 10 11 12
3 13 14 15
3 13 16 14
3 10 12 17
3 18 19 20
3 18 21 19
3 3 5 22
3 23 24 25
3 23 26 24
3 23 27 26
3 23 28 27
3 25 24 29
3 25 29 30
3 29 27 28
3 29 28 30
3 31 32 33
3 1 34 2
3 35 36 37
3 38 31 33
3 39 40 41
3 42 39 41
3 43 35 37
3 44 45 46
3 45 47 46
