ply
format ascii 1.0
element vertex 17
property short x
property short y
property short z
property float s
property float t
property float nx
property float ny
property float nz
property uchar alpha
element face 9
property list uchar uint vertex_indices
end_header
20 72 77 0.982421875 0.017578125 0.0 -0.9921875 0.0 255
-19 72 87 0.015625 0.984375 0.0 -0.9921875 0.0 255
-19 72 77 0.015625 0.017578125 0.0 -0.9921875 0.0 255
0 102 77 0.482421875 0.017578125 0.0 0.9921875 0.0 255
20 102 87 0.015625 0.984375 0.0 0.9921875 0.0 255
20 102 77 0.015625 0.017578125 0.0 0.9921875 0.0 255
-19 102 87 0.982421875 0.984375 0.0 0.9921875 0.0 255
-19 102 77 0.982421875 0.017578125 0.0 0.9921875 0.0 255
-19 72 77 0.015625 0.017578125 -0.9921875 0.0 0.0 255
-19 102 87 0.982421875 0.984375 -0.9921875 0.0 0.0 255
-19 102 77 0.015625 0.984375 -0.9921875 0.0 0.0 255
-19 72 87 0.982421875 0.017578125 -0.9921875 0.0 0.0 255
20 72 87 0.982421875 0.984375 0.0 -0.9921875 0.0 255
20 102 77 0.982421875 0.984375 0.9921875 0.0 0.0 255
20 72 87 0.015625 0.017578125 0.9921875 0.0 0.0 255
20 72 77 0.982421875 0.017578125 0.9921875 0.0 0.0 255
20 102 87 0.015625 0.984375 0.9921875 0.0 0.0 255
3 0 1 2
3 3 4 5
3 3 6 4
3 3 7 6
3 8 9 10
3 8 11 9
3 0 12 1
3 13 14 15
3 13 16 14
