ply
format ascii 1.0
element vertex 36
property short x
property short y
property short z
property float s
property float t
property float nx
property float ny
property float nz
property uchar alpha
element face 18
property list uchar uint vertex_indices
end_header
77 102 -50 0.015625 2.6796875 -0.9921875 0.0 0.0 255
77 20 -50 0.015625 0.017578125 -0.9921875 0.0 0.0 255
77 20 51 3.310546875 0.017578125 -0.9921875 0.0 0.0 255
-76 20 -50 0.015625 3.34375 0.0 0.9921875 0.0 255
77 20 51 4.974609375 0.017578125 0.0 0.9921875 0.0 255
77 20 -50 4.974609375 3.34375 0.0 0.9921875 0.0 255
-76 20 51 0.015625 0.017578125 0.0 0.9921875 0.0 255
-76 102 51 0.015625 2.6796875 0.9921875 0.0 0.0 255
-76 20 -50 3.310546875 0.017578125 0.9921875 0.0 0.0 255
-76 102 -50 3.310546875 2.6796875 0.9921875 0.0 0.0 255
-76 20 51 0.015625 0.017578125 0.9921875 0.0 0.0 255
77 102 51 0.015625 2.6796875 0.0 0.0 -0.9921875 255
-76 20 51 4.974609375 0.017578125 0.0 0.0 -0.9921875 255
-76 102 51 4.974609375 2.6796875 0.0 0.0 -0.9921875 255
77 20 51 0.015625 0.017578125 0.0 0.0 -0.9921875 255
-91 102 -76 5.13671875 0.044921875 0.0 0.9921875 0.0 255
-76 102 -50 4.638671875 0.939453125 0.0 0.9921875 0.0 255
77 102 -50 -0.34375 0.982421875 0.0 0.9921875 0.0 255
77 102 51 3.310546875 2.6796875 -0.9921875 0.0 0.0 255
-76 102 -50 0.015625 2.6796875 0.0 0.0 0.9921875 255
-76 20 -50 0.015625 0.017578125 0.0 0.0 0.9921875 255
77 20 -50 4.974609375 0.017578125 0.0 0.0 0.9921875 255
77 102 -50 4.974609375 2.6796875 0.0 0.0 0.9921875 255
-76 102 -50 -0.513671875 0.017578125 0.0 0.9921875 0.0 255
-91 102 -76 -1.759765625 0.919921875 0.0 0.9921875 0.0 255
-91 102 77 5.72265625 0.919921875 0.0 0.9921875 0.0 255
-76 102 51 4.4765625 0.017578125 0.0 0.9921875 0.0 255
92 102 -76 -0.84375 0.09765625 0.0 0.9921875 0.0 255
92 102 -76 6.22265625 0.04296875 0.0 0.9921875 0.0 255
77 102 -50 4.974609375 0.900390625 0.0 0.9921875 0.0 255
77 102 51 0.015625 0.951171875 0.0 0.9921875 0.0 255
92 102 77 -1.26171875 0.119140625 0.0 0.9921875 0.0 255
77 102 51 -0.51171875 0.951171875 0.0 0.9921875 0.0 255
-91 102 77 7.71875 0.060546875 0.0 0.9921875 0.0 255
92 102 77 -1.26171875 0.064453125 0.0 0.9921875 0.0 255
-76 102 51 6.970703125 0.947265625 0.0 0.9921875 0.0 255
3 0 1 2
3 3 4 5
3 3 6 4
3 7 8 9
3 7 10 8
3 11 12 13
3 11 14 12
3 15 16 17
3 0 2 18
3 19 20 21
3 19 21 22
3 23 24 25
3 23 25 26
3 15 17 27
3 28 29 30
3 28 30 31
3 32 33 34
3 32 35 33
