ply
format ascii 1.0
element vertex 28
property short x
property short y
property short z
property float s
property float t
property float nx
property float ny
property float nz
property uchar alpha
element face 16
property list uchar uint vertex_indices
end_header
92 0 -68 0.990234375 0.017578125 0.9921875 0.0 0.0 255
92 102 0 0.08203125 3.3203125 0.9921875 0.0 0.0 255
92 0 0 0.173828125 0.017578125 0.9921875 0.0 0.0 255
92 102 -76 0.990234375 3.3203125 0.9921875 0.0 0.0 255
92 102 0 0.037109375 3.287109375 0.9921875 0.0 0.0 255
92 102 77 0.97265625 3.287109375 0.9921875 0.0 0.0 255
92 0 69 0.990234375 0.017578125 0.9921875 0.0 0.0 255
92 0 0 0.1484375 0.017578125 0.9921875 0.0 0.0 255
-91 102 0 0.0546875 3.337890625 -0.9921875 0.0 0.0 255
-91 102 -76 0.990234375 3.337890625 -0.9921875 0.0 0.0 255
-91 0 -68 0.990234375 0.017578125 -0.9921875 0.0 0.0 255
-91 0 0 0.1484375 0.017578125 -0.9921875 0.0 0.0 255
-91 0 -68 0.990234375 0.017578125 0.0 -0.0703125 -0.984375 255
-91 102 -76 0.990234375 3.34375 0.0 -0.0703125 -0.984375 255
0 102 -76 -0.8046875 3.34375 0.0 -0.0703125 -0.984375 255
0 0 -68 -0.8046875 0.017578125 0.0 -0.0703125 -0.984375 255
92 0 69 0.990234375 0.017578125 0.0 -0.0703125 0.984375 255
0 102 77 -0.8046875 3.34375 0.0 -0.0703125 0.984375 255
0 0 69 -0.8046875 0.017578125 0.0 -0.0703125 0.984375 255
-91 0 69 0.990234375 0.017578125 -0.9921875 0.0 0.0 255
-91 102 77 1.00390625 3.35546875 -0.9921875 0.0 0.0 255
-91 102 0 0.123046875 3.35546875 -0.9921875 0.0 0.0 255
-91 0 0 0.197265625 0.017578125 -0.9921875 0.0 0.0 255
92 102 -76 0.990234375 3.34375 0.0 -0.0703125 -0.984375 255
92 0 -68 0.990234375 0.017578125 0.0 -0.0703125 -0.984375 255
-91 0 69 0.990234375 0.017578125 0.0 -0.0703125 0.984375 255
-91 102 77 0.990234375 3.34375 0.0 -0.0703125 0.984375 255
92 102 77 0.990234375 3.34375 0.0 -0.0703125 0.984375 255
3 0 1 2
3 0 3 1
3 4 5 6
3 4 6 7
3 8 9 10
3 8 10 11
3 12 13 14
3 12 14 15
3 16 17 18
3 19 20 21
3 19 21 22
3 14 23 24
3 14 24 15
3 17 25 18
3 17 26 25
3 16 27 17
