ply
format ascii 1.0
element vertex 46
property short x
property short y
property short z
property float s
property float t
property float nx
property float ny
property float nz
property uchar alpha
element face 24
property list uchar uint vertex_indices
end_header
92 0 154 0.015625 0.017578125 0.9921875 0.0 0.0 255
92 0 0 4.974609375 0.017578125 0.9921875 0.0 0.0 255
92 30 27 4.1015625 1.982421875 0.9921875 0.0 0.0 255
92 46 77 2.48046875 2.96484375 0.9921875 0.0 0.0 255
92 30 127 0.857421875 1.982421875 0.9921875 0.0 0.0 255
-91 30 27 1.294921875 1.94921875 -0.9921875 0.0 0.0 255
-91 30 127 6.16015625 1.94921875 -0.9921875 0.0 0.0 255
-91 46 77 3.7265625 2.916015625 -0.9921875 0.0 0.0 255
-91 0 0 0.015625 0.017578125 -0.9921875 0.0 0.0 255
-91 0 154 7.46875 0.017578125 -0.9921875 0.0 0.0 255
-73 20 127 5.97265625 3.26171875 0.0 -0.9921875 0.0 255
-73 20 27 5.97265625 0.017578125 0.0 -0.9921875 0.0 255
74 20 27 0.015625 0.017578125 0.0 -0.9921875 0.0 255
74 20 127 0.015625 3.26171875 0.0 -0.9921875 0.0 255
-91 0 0 -1.51171875 0.94921875 0.0 -0.9921875 0.0 255
74 0 15 6.572265625 0.25 0.0 -0.9921875 0.0 255
-73 0 15 -0.61328125 0.25 0.0 -0.9921875 0.0 255
-91 0 0 6.05078125 0.951171875 0.0 -0.9921875 0.0 255
-73 0 15 5.353515625 0.103515625 0.0 -0.9921875 0.0 255
-73 0 138 -0.251953125 0.111328125 0.0 -0.9921875 0.0 255
-91 0 154 -0.955078125 0.9609375 0.0 -0.9921875 0.0 255
-91 0 154 -2.109375 0.060546875 0.0 -0.9921875 0.0 255
-73 0 138 -1.2109375 0.904296875 0.0 -0.9921875 0.0 255
74 0 138 5.97265625 0.998046875 0.0 -0.9921875 0.0 255
92 0 154 6.87109375 0.17578125 0.0 -0.9921875 0.0 255
74 0 15 5.474609375 0.953125 0.0 -0.9921875 0.0 255
92 0 0 6.22265625 0.111328125 0.0 -0.9921875 0.0 255
92 0 154 -1.26171875 0.111328125 0.0 -0.9921875 0.0 255
74 0 138 -0.513671875 0.953125 0.0 -0.9921875 0.0 255
74 0 138 -3.6171875 0.974609375 -0.9921875 0.0 0.0 255
74 20 27 1.193359375 0.033203125 -0.9921875 0.0 0.0 255
74 0 15 1.705078125 0.955078125 -0.9921875 0.0 0.0 255
92 0 0 7.46875 0.94921875 0.0 -0.9921875 0.0 255
-73 0 15 -4.64453125 0.96484375 0.9921875 0.0 0.0 255
-73 20 27 -4.060546875 0.044921875 0.9921875 0.0 0.0 255
-73 20 127 0.94140625 0.021484375 0.9921875 0.0 0.0 255
-73 0 138 1.51171875 0.935546875 0.9921875 0.0 0.0 255
74 0 15 -3.806640625 0.92578125 0.0 -0.5078125 0.84375 255
-73 20 27 0.982421875 0.017578125 0.0 -0.5078125 0.84375 255
-73 0 15 0.982421875 0.92578125 0.0 -0.5078125 0.84375 255
74 20 27 -3.806640625 0.017578125 0.0 -0.5078125 0.84375 255
74 20 127 -3.130859375 0.048828125 -0.9921875 0.0 0.0 255
-73 0 138 -5.8671875 0.83203125 0.0 -0.4765625 -0.8671875 255
74 20 127 1.150390625 0.109375 0.0 -0.4765625 -0.8671875 255
74 0 138 1.19921875 0.875 0.0 -0.4765625 -0.8671875 255
-73 20 127 -5.9140625 0.06640625 0.0 -0.4765625 -0.8671875 255
3 0 1 2
3 0 2 3
3 0 3 4
3 5 6 7
3 5 8 9
3 5 9 6
3 10 11 12
3 10 12 13
3 14 15 16
3 17 18 19
3 17 19 20
3 21 22 23
3 21 23 24
3 25 26 27
3 28 25 27
3 29 30 31
3 14 32 15
3 33 34 35
3 33 35 36
3 37 38 39
3 37 40 38
3 29 41 30
3 42 43 44
3 42 45 43
