ply
format ascii 1.0
element vertex 20
property short x
property short y
property short z
property float s
property float t
property float nx
property float ny
property float nz
property uchar alpha
element face 10
property list uchar uint vertex_indices
end_header
-19 20 136 0.015625 0.984375 0.0 0.9921875 0.0 255
20 20 154 0.982421875 0.017578125 0.0 0.9921875 0.0 255
20 20 136 0.982421875 0.984375 0.0 0.9921875 0.0 255
20 20 154 0.982421875 0.984375 0.0 0.4375 0.8828125 255
-19 20 154 0.015625 0.984375 0.0 0.4375 0.8828125 255
-19 0 164 0.015625 0.017578125 0.0 0.4375 0.8828125 255
20 0 164 0.982421875 0.017578125 0.0 0.4375 0.8828125 255
20 0 154 -0.01171875 1.0625 0.0 -0.9921875 0.0 255
20 0 164 0.015625 0.0234375 0.0 -0.9921875 0.0 255
-19 0 164 0.9609375 0.009765625 0.0 -0.9921875 0.0 255
-19 0 154 0.966796875 1.046875 0.0 -0.9921875 0.0 255
20 20 136 0.98828125 1.02734375 0.9921875 0.0 0.0 255
20 0 164 0.015625 0.017578125 0.9921875 0.0 0.0 255
20 0 154 0.52734375 0.02734375 0.9921875 0.0 0.0 255
20 20 154 0.025390625 1.0078125 0.9921875 0.0 0.0 255
-19 0 154 0.484375 0.017578125 -0.9921875 0.0 0.0 255
-19 0 164 0.982421875 0.017578125 -0.9921875 0.0 0.0 255
-19 20 154 0.982421875 0.984375 -0.9921875 0.0 0.0 255
-19 20 154 0.015625 0.017578125 0.0 0.9921875 0.0 255
-19 20 136 0.099609375 0.984375 -0.9921875 0.0 0.0 255
3 0 1 2
3 3 4 5
3 3 5 6
3 7 8 9
3 7 9 10
3 11 12 13
3 11 14 12
3 15 16 17
3 0 18 1
3 15 17 19
