ply
format ascii 1.0
element vertex 27
property short x
property short y
property short z
property float s
property float t
property float nx
property float ny
property float nz
property uchar alpha
element face 16
property list uchar uint vertex_indices
end_header
-91 46 77 0.990234375 1.99609375 0.0 0.9375 0.296875 255
0 30 127 -0.8046875 0.017578125 0.0 0.9375 0.296875 255
0 46 77 -0.8046875 1.99609375 0.0 0.9375 0.296875 255
0 0 154 -0.8046875 -0.9609375 0.0 0.65625 0.734375 255
92 30 127 0.990234375 0.984375 0.0 0.65625 0.734375 255
0 30 127 -0.8046875 0.984375 0.0 0.65625 0.734375 255
92 0 154 0.990234375 -0.9609375 0.0 0.65625 0.734375 255
-91 30 127 0.990234375 0.984375 0.0 0.65625 0.734375 255
-91 0 154 0.990234375 -0.9609375 0.0 0.65625 0.734375 255
0 30 127 -0.8046875 -0.01953125 0.0 0.9375 0.296875 255
92 30 127 0.990234375 -0.01953125 0.0 0.9375 0.296875 255
92 46 77 0.990234375 2.025390625 0.0 0.9375 0.296875 255
0 46 77 -0.8046875 2.025390625 0.0 0.9375 0.296875 255
0 30 27 -0.8046875 0.984375 0.0 0.65625 -0.734375 255
92 30 27 0.990234375 0.984375 0.0 0.65625 -0.734375 255
92 0 0 0.990234375 -0.9609375 0.0 0.65625 -0.734375 255
-91 30 127 0.990234375 0.017578125 0.0 0.9375 0.296875 255
0 46 77 -0.8046875 1.982421875 0.0 0.9375 -0.296875 255
92 30 27 0.990234375 0.017578125 0.0 0.9375 -0.296875 255
0 30 27 -0.8046875 0.017578125 0.0 0.9375 -0.296875 255
92 46 77 0.990234375 1.982421875 0.0 0.9375 -0.296875 255
-91 30 27 0.990234375 0.017578125 0.0 0.9375 -0.296875 255
-91 46 77 0.990234375 2.01171875 0.0 0.9375 -0.296875 255
0 46 77 -0.8046875 2.01171875 0.0 0.9375 -0.296875 255
0 0 0 -0.8046875 -0.9609375 0.0 0.65625 -0.734375 255
-91 0 0 0.990234375 -0.9609375 0.0 0.65625 -0.734375 255
-91 30 27 0.990234375 0.984375 0.0 0.65625 -0.734375 255
3 0 1 2
3 3 4 5
3 3 6 4
3 7 3 5
3 7 8 3
3 9 10 11
3 9 11 12
3 13 14 15
3 0 16 1
3 17 18 19
3 17 20 18
3 21 22 23
3 21 23 19
3 13 15 24
3 25 13 24
3 25 26 13
