ply
format ascii 1.0
element vertex 156
property short x
property short y
property short z
property float nx
property float ny
property float nz
property uchar alpha
element face 88
property list uchar uint vertex_indices
end_header
219 22 -17 -0.9375 0.296875 0.0 0
219 22 17 -0.9375 0.296875 0.0 0
230 57 7 -0.9375 0.296875 0.0 0
230 57 -7 -0.9375 0.296875 0.0 255
257 22 17 0.9609375 0.21875 0.0 255
257 22 -17 0.9609375 0.21875 0.0 255
249 57 -7 0.9609375 0.21875 0.0 255
249 57 7 0.9609375 0.21875 0.0 255
257 22 -17 0.0 0.2734375 -0.9453125 255
219 22 -17 0.0 0.2734375 -0.9453125 255
230 57 -7 0.0 0.2734375 -0.9453125 255
249 57 -7 0.0 0.2734375 -0.9453125 255
219 22 17 0.0 0.2734375 0.9453125 255
257 22 17 0.0 0.2734375 0.9453125 255
249 57 7 0.0 0.2734375 0.9453125 255
230 57 7 0.0 0.2734375 0.9453125 255
230 57 7 0.0 0.9921875 0.0 255
249 57 7 0.0 0.9921875 0.0 0
249 57 -7 0.0 0.9921875 0.0 0
230 57 -7 0.0 0.9921875 0.0 255
272 22 -17 -0.9453125 0.2734375 0.0 255
272 22 17 -0.9453125 0.2734375 0.0 255
285 70 9 -0.9453125 0.2734375 0.0 255
285 70 -9 -0.9453125 0.2734375 0.0 255
317 22 -17 0.0 0.171875 -0.96875 255
272 22 -17 0.0 0.171875 -0.96875 255
285 70 -9 0.0 0.171875 -0.96875 255
318 70 -9 0.0 0.171875 -0.96875 255
317 22 17 0.9921875 0.0 0.0 255
317 22 -17 0.9921875 0.0 0.0 255
318 70 -9 0.9921875 0.0 0.0 255
318 70 9 0.9921875 0.0 0.0 255
272 22 17 0.0 0.171875 0.96875 255
317 22 17 0.0 0.171875 0.96875 0
318 70 9 0.0 0.171875 0.96875 0
285 70 9 0.0 0.171875 0.96875 255
272 22 -17 0.0 0.9921875 0.0 255
131 22 -17 0.0 0.9921875 0.0 255
131 22 17 0.0 0.9921875 0.0 255
272 22 17 0.0 0.9921875 0.0 255
317 -22 17 0.9921875 0.0 0.0 255
317 -22 -17 0.9921875 0.0 0.0 255
285 70 9 0.0 0.9921875 0.0 255
318 70 9 0.0 0.9921875 0.0 255
318 70 -9 0.0 0.9921875 0.0 255
285 70 -9 0.0 0.9921875 0.0 255
317 -22 -17 0.0 -0.9921875 0.0 255
317 -22 17 0.0 -0.9921875 0.0 0
131 -22 17 0.0 -0.9921875 0.0 0
131 -22 -17 0.0 -0.9921875 0.0 255
130 41 -53 0.9375 0.3125 0.0 255
92 113 -34 0.875 0.4609375 0.0 255
92 113 34 0.875 0.4609375 0.0 255
130 41 53 0.9765625 0.15625 0.0 255
130 -39 53 0.9375 -0.3125 0.0 255
92 -111 34 0.875 -0.4609375 0.0 255
92 -111 -34 0.875 -0.4609375 0.0 255
130 -39 -53 0.9765625 -0.15625 0.0 255
92 -111 -34 -0.140625 -0.234375 -0.953125 255
20 -80 -30 -0.1640625 -0.265625 -0.9375 255
-4 -39 -37 -0.125 -0.1171875 -0.96875 255
130 -39 -53 -0.109375 -0.09375 -0.9765625 255
-4 41 -37 -0.1328125 0.15625 -0.96875 0
130 41 -53 -0.109375 0.0625 -0.9765625 0
130 -39 53 -0.109375 -0.0625 0.9765625 255
130 41 53 -0.109375 0.09375 0.9765625 255
-4 41 37 -0.125 0.1171875 0.96875 255
-4 -39 37 -0.1328125 -0.15625 0.96875 255
92 113 34 -0.140625 0.234375 0.953125 255
20 82 30 -0.1640625 0.265625 0.9375 255
-4 41 -37 -0.96875 0.171875 0.0 255
-4 -39 -37 -0.921875 -0.3515625 0.0 255
-4 -39 37 -0.96875 -0.171875 0.0 255
-4 41 37 -0.921875 0.3515625 0.0 255
20 82 30 -0.6484375 0.7421875 0.0 255
20 82 -30 -0.6484375 0.7421875 0.0 255
20 -80 -30 -0.6484375 -0.7421875 0.0 0
20 -80 30 -0.6484375 -0.7421875 0.0 0
-4 41 -37 -0.1328125 0.15625 -0.96875 255
20 82 -30 -0.1640625 0.265625 -0.9375 255
92 113 -34 -0.140625 0.234375 -0.953125 255
130 41 -53 -0.109375 0.0625 -0.9765625 255
92 113 34 -0.390625 0.90625 0.0 255
92 113 -34 -0.390625 0.90625 0.0 255
20 -80 30 -0.1640625 -0.265625 0.9375 0
92 -111 34 -0.140625 -0.234375 0.953125 0
92 -111 -34 -0.390625 -0.90625 0.0 255
92 -111 34 -0.390625 -0.90625 0.0 255
20 -80 30 -0.6484375 -0.7421875 0.0 255
20 -80 -30 -0.6484375 -0.7421875 0.0 255
12 -121 15 0.0859375 0.984375 0.0 255
12 -121 -15 0.0859375 0.984375 0.0 255
-51 -115 0 0.0859375 0.984375 0.0 255
12 -121 -15 -0.4375 0.1953125 -0.859375 255
16 -152 -25 -0.390625 0.1640625 -0.890625 255
-51 -115 0 -0.203125 0.2578125 -0.9296875 255
16 -152 25 -0.390625 0.1640625 0.890625 255
12 -121 15 -0.4375 0.1953125 0.859375 0
-51 -115 0 -0.203125 0.2578125 0.9296875 0
21 -171 0 -0.6015625 -0.78125 0.0 255
16 -152 25 -0.5390625 -0.6953125 0.4375 255
-51 -115 0 -0.6015625 -0.78125 0.0 255
16 -152 -25 -0.5390625 -0.6953125 -0.4375 255
-51 115 0 0.0859375 -0.984375 0.0 255
12 121 -15 0.0859375 -0.984375 0.0 255
12 121 15 0.0859375 -0.984375 0.0 255
-51 115 0 -0.203125 -0.2578125 -0.9296875 255
16 152 -25 -0.390625 -0.1640625 -0.890625 255
12 121 -15 -0.6953125 -0.265625 -0.6484375 255
-51 115 0 -0.203125 -0.2578125 0.9296875 255
12 121 15 -0.8046875 -0.28125 0.4921875 255
16 152 25 -0.390625 -0.1640625 0.890625 255
-51 115 0 -0.6015625 0.78125 0.0 255
16 152 25 -0.5390625 0.6953125 0.4375 0
21 171 0 -0.6015625 0.78125 0.0 0
16 152 -25 -0.5390625 0.6953125 -0.4375 255
317 -22 17 0.0 0.0 0.9921875 255
317 22 17 0.0 0.0 0.9921875 255
131 22 17 0.0 0.0 0.9921875 255
131 -22 17 0.0 0.0 0.9921875 255
317 22 -17 0.0 0.0 -0.9921875 255
317 -22 -17 0.0 0.0 -0.9921875 255
131 -22 -17 0.0 0.0 -0.9921875 255
131 22 -17 0.0 0.0 -0.9921875 255
56 97 -31 -0.2890625 -0.109375 -0.9375 255
23 83 -19 -0.8203125 -0.2421875 -0.484375 255
12 121 -15 -0.6953125 -0.265625 -0.6484375 0
23 83 -19 -0.8203125 -0.2421875 -0.484375 0
23 83 19 -0.71875 -0.203125 0.640625 255
56 97 31 -0.2890625 -0.109375 0.9375 255
16 152 -25 0.625 0.5234375 -0.5546875 255
21 171 0 0.625 0.5390625 -0.5390625 255
77 106 0 0.625 0.5234375 -0.5546875 255
56 97 -31 0.6171875 0.515625 -0.5703125 255
16 152 25 0.625 0.5234375 0.5546875 255
56 97 31 0.6171875 0.515625 0.5703125 255
77 106 0 0.625 0.5234375 0.5546875 255
21 171 0 0.625 0.5390625 0.5390625 255
12 -121 -15 -0.4375 0.1953125 -0.859375 0
24 -82 -19 -0.4765625 0.1171875 -0.8515625 0
57 -96 -31 -0.2890625 0.109375 -0.9375 255
24 -82 -19 -0.9453125 0.2890625 0.0 255
12 -121 -15 -0.9453125 0.2890625 0.0 255
12 -121 15 -0.9453125 0.2890625 0.0 255
24 -82 19 -0.9453125 0.2890625 0.0 255
24 -82 19 -0.4765625 0.1171875 0.8515625 255
12 -121 15 -0.4375 0.1953125 0.859375 255
57 -96 31 -0.2890625 0.109375 0.9375 255
78 -105 0 0.625 -0.5234375 -0.5546875 255
21 -171 0 0.625 -0.5390625 -0.5390625 255
16 -152 -25 0.625 -0.5234375 -0.5546875 255
57 -96 -31 0.6171875 -0.515625 -0.5703125 255
16 -152 25 0.625 -0.5234375 0.5546875 255
21 -171 0 0.625 -0.5390625 0.5390625 0
78 -105 0 0.625 -0.5234375 0.5546875 0
57 -96 31 0.6171875 -0.515625 0.5703125 255
3 0 1 2
3 0 2 3
3 4 5 6
3 4 6 7
3 8 9 10
3 8 10 11
3 12 13 14
3 12 14 15
3 16 17 18
3 16 18 19
3 20 21 22
3 20 22 23
3 24 25 26
3 24 26 27
3 28 29 30
3 28 30 31
3 32 33 34
3 32 34 35
3 36 37 38
3 36 38 39
3 29 28 40
3 29 40 41
3 42 43 44
3 42 44 45
3 46 47 48
3 46 48 49
3 50 51 52
3 50 52 53
3 54 55 56
3 54 56 57
3 58 59 60
3 61 58 60
3 60 62 63
3 60 63 61
3 64 65 66
3 64 66 67
3 68 69 66
3 65 68 66
3 70 71 72
3 70 72 73
3 73 74 75
3 73 75 70
3 71 76 77
3 71 77 72
3 53 54 57
3 53 57 50
3 78 79 80
3 78 80 81
3 82 83 75
3 82 75 74
3 67 84 85
3 67 85 64
3 86 87 88
3 86 88 89
3 90 91 92
3 93 94 95
3 96 97 98
3 99 100 101
3 102 99 101
3 103 104 105
3 106 107 108
3 109 110 111
3 112 113 114
3 112 114 115
3 116 117 118
3 116 118 119
3 120 121 122
3 120 122 123
3 107 124 125
3 108 107 125
3 110 126 127
3 110 127 128
3 111 110 128
3 111 128 129
3 130 131 132
3 130 132 133
3 134 135 136
3 137 134 136
3 94 138 139
3 140 94 139
3 141 142 143
3 141 143 144
3 145 146 96
3 145 96 147
3 148 149 150
3 148 150 151
3 152 153 154
3 155 152 154
