ply
format ascii 1.0
element vertex 7
property short x
property short y
property short z
property float s
property float t
property float nx
property float ny
property float nz
property uchar alpha
element face 9
property list uchar uint vertex_indices
end_header
0 504 19 0.955078125 0.517578125 0.0 0.984375 -0.03125 255
24 490 34 0.931640625 0.22265625 0.765625 0.4609375 0.421875 255
0 490 -6 0.931640625 0.517578125 -0.0078125 0.4453125 -0.875 255
-23 490 34 0.931640625 0.810546875 -0.765625 0.453125 0.421875 255
0 -39 34 0.05078125 0.517578125 0.0 -0.03125 0.984375 255
-23 -39 -6 0.05078125 0.810546875 -0.8515625 0.0 -0.4921875 255
24 -39 -6 0.05078125 0.22265625 0.8515625 0.0 -0.5 255
3 0 1 2
3 2 3 0
3 0 3 1
3 4 1 3
3 3 5 4
3 5 3 2
3 2 6 5
3 1 4 6
3 6 2 1
