ply
format ascii 1.0
element vertex 20
property short x
property short y
property short z
property float s
property float t
property float nx
property float ny
property float nz
property uchar alpha
element face 10
property list uchar uint vertex_indices
end_header
180 260 20 0.982421875 0.017578125 0.0 -0.9921875 0.0 255
-179 260 60 0.015625 0.017578125 0.0 -0.9921875 0.0 255
-179 260 20 0.015625 0.017578125 0.0 -0.9921875 0.0 255
180 260 20 0.982421875 0.017578125 0.0 0.0 -0.9921875 255
-179 260 20 0.015625 0.017578125 0.0 0.0 -0.9921875 255
-179 460 20 0.015625 0.984375 0.0 0.0 -0.9921875 255
-179 260 20 0.015625 0.017578125 -0.9921875 0.0 0.0 255
-179 260 60 0.015625 0.017578125 -0.9921875 0.0 0.0 255
-179 460 60 0.015625 0.984375 -0.9921875 0.0 0.0 255
-179 460 20 0.015625 0.984375 -0.9921875 0.0 0.0 255
180 260 60 0.982421875 0.017578125 0.0 -0.9921875 0.0 255
-179 460 20 0.015625 0.984375 0.0 0.9921875 0.0 255
-179 460 60 0.015625 0.984375 0.0 0.9921875 0.0 255
180 460 60 0.982421875 0.984375 0.0 0.9921875 0.0 255
180 460 20 0.982421875 0.984375 0.0 0.0 -0.9921875 255
180 460 20 0.982421875 0.984375 0.0 0.9921875 0.0 255
180 260 60 0.982421875 0.017578125 0.9921875 0.0 0.0 255
180 460 20 0.982421875 0.984375 0.9921875 0.0 0.0 255
180 460 60 0.982421875 0.984375 0.9921875 0.0 0.0 255
180 260 20 0.982421875 0.017578125 0.9921875 0.0 0.0 255
3 0 1 2
3 3 4 5
3 6 7 8
3 6 8 9
3 0 10 1
3 11 12 13
3 3 5 14
3 11 13 15
3 16 17 18
3 16 19 17
