# Blender v2.83.5 OBJ File: 'stage3.blend'
# www.blender.org
mtllib map.mtl
o 0
v -512.000000 1024.000000 -512.000000
v 512.000000 1024.000000 512.000000
v -512.000000 0.000000 512.000000
v 512.000000 0.000000 512.000000
v -512.000000 0.000000 -512.000000
v -512.000000 1024.000000 512.000000
v 512.000000 1024.000000 -512.000000
v 512.000000 0.000000 -512.000000
vt 2.000000 -2.000000
vt 2.000000 2.000000
vt -2.000000 2.000000
vt -2.000000 -2.000000
vt 1.999600 -1.999600
vt 1.999600 1.999600
vt -1.999600 1.999599
vt -1.999600 -1.999600
vt -8.000566 -3.999578
vt -8.000566 3.999290
vt -15.999434 3.999294
vt -15.999434 -3.999576
vt 15.999434 -3.999578
vt 15.999434 3.999290
vt 8.000566 3.999294
vt 8.000566 -3.999576
vt -0.000566 -3.999578
vt -0.000566 3.999290
vt -7.999434 3.999294
vt -7.999434 -3.999576
vt 7.999434 -3.999578
vt 7.999434 3.999290
vt 0.000566 3.999294
vt 0.000566 -3.999576
vn 0.0000 1.0000 0.0000
vn 0.0000 -1.0000 0.0000
vn 0.0000 0.0000 1.0000
vn 1.0000 0.0000 0.0000
vn -1.0000 0.0000 0.0000
vn 0.0000 0.0000 -1.0000
usemtl ground
s off
f 4/1/1 8/2/1 5/3/1 3/4/1
usemtl roof
f 6/5/2 1/6/2 7/7/2 2/8/2
usemtl wall
f 8/9/3 7/10/3 1/11/3 5/12/3
f 5/13/4 1/14/4 6/15/4 3/16/4
f 4/17/5 2/18/5 7/19/5 8/20/5
f 3/21/6 6/22/6 2/23/6 4/24/6
