ply
format ascii 1.0
comment Created by Blender 2.83.5 - www.blender.org, source file: 'stage3.blend'
element vertex 16
property float x
property float y
property float z
property float nx
property float ny
property float nz
property float s
property float t
element face 4
property list uchar uint vertex_indices
end_header
512.000000 0.000000 -512.000000 -0.000000 0.000000 1.000000 -8.000566 -3.999578
512.000000 1024.000000 -512.000000 -0.000000 0.000000 1.000000 -8.000566 3.999290
-512.000000 1024.000000 -512.000000 -0.000000 0.000000 1.000000 -15.999434 3.999294
-512.000000 0.000000 -512.000000 -0.000000 0.000000 1.000000 -15.999434 -3.999576
-512.000000 0.000000 -512.000000 1.000000 0.000000 0.000000 15.999434 -3.999578
-512.000000 1024.000000 -512.000000 1.000000 0.000000 0.000000 15.999434 3.999290
-512.000000 1024.000000 512.000000 1.000000 0.000000 0.000000 8.000566 3.999294
-512.000000 0.000000 512.000000 1.000000 0.000000 0.000000 8.000566 -3.999576
512.000000 0.000000 512.000000 -1.000000 0.000000 0.000000 -0.000566 -3.999578
512.000000 1024.000000 512.000000 -1.000000 0.000000 0.000000 -0.000566 3.999290
512.000000 1024.000000 -512.000000 -1.000000 0.000000 0.000000 -7.999434 3.999294
512.000000 0.000000 -512.000000 -1.000000 0.000000 0.000000 -7.999434 -3.999576
-512.000000 0.000000 512.000000 -0.000000 0.000000 -1.000000 7.999434 -3.999578
-512.000000 1024.000000 512.000000 -0.000000 0.000000 -1.000000 7.999434 3.999290
512.000000 1024.000000 512.000000 -0.000000 0.000000 -1.000000 0.000566 3.999294
512.000000 0.000000 512.000000 -0.000000 0.000000 -1.000000 0.000566 -3.999576
4 0 1 2 3
4 4 5 6 7
4 8 9 10 11
4 12 13 14 15
