ply
format ascii 1.0
element vertex 7
property short x
property short y
property short z
property float s
property float t
property float nx
property float ny
property float nz
property uchar alpha
element face 5
property list uchar uint vertex_indices
end_header
33 35 118 0.7265625 0.244140625 0.375 0.296875 0.859375 255
96 22 45 1.2265625 0.12890625 0.5625 -0.71875 0.3828125 255
71 101 113 1.01953125 0.83984375 0.6640625 0.171875 0.7109375 255
0 110 143 0.46484375 0.91796875 0.0 0.40625 0.8984375 255
-31 35 118 0.216796875 0.240234375 -0.375 0.296875 0.8671875 255
-70 101 113 -0.087890625 0.830078125 -0.6640625 0.171875 0.7109375 255
-95 22 46 -0.279296875 0.115234375 -0.6875 -0.5546875 0.4375 255
3 0 1 2
3 3 4 0
3 3 5 4
3 2 3 0
3 5 6 4
