ply
format ascii 1.0
element vertex 146
property short x
property short y
property short z
property float s
property float t
property float nx
property float ny
property float nz
property uchar alpha
element face 144
property list uchar uint vertex_indices
end_header
4864 1024 4096 21.857421875 7.3359375 -0.0625 0.984375 -0.0546875 255
7680 768 0 26.431640625 13.990234375 -0.328125 0.9296875 0.0 255
3840 768 2304 20.1953125 10.248046875 -0.0546875 0.984375 -0.0625 255
2304 768 4352 17.69921875 6.919921875 -0.03125 0.984375 -0.0078125 255
3584 656 -767 19.779296875 15.23828125 0.0859375 0.9609375 0.2109375 255
5888 1024 4096 23.521484375 7.3359375 0.0859375 0.984375 -0.015625 255
7686 768 7100 26.44140625 2.455078125 -0.1484375 0.9765625 -0.0546875 255
8192 2560 4096 27.263671875 7.3359375 -0.875 0.4609375 0.03125 255
8192 1855 1024 27.263671875 12.326171875 -0.9609375 0.21875 -0.0078125 255
6289 912 -2653 24.173828125 18.30078125 0.6796875 0.5390625 0.46875 255
5468 912 -1870 22.83984375 17.029296875 0.4140625 0.609375 0.65625 255
-2815 1024 256 9.3828125 13.57421875 0.0078125 0.984375 -0.0078125 255
-4991 1024 -2431 5.84765625 17.94140625 0.0546875 0.984375 -0.015625 255
-3231 1024 -159 8.70703125 14.25 0.0 0.9921875 0.0 255
1692 768 3192 16.70703125 8.8046875 0.0 0.984375 0.0 255
-1535 256 5888 11.4609375 4.42578125 -0.0078125 0.9765625 0.125 255
-3071 0 7168 8.966796875 2.345703125 -0.0078125 0.9609375 -0.2109375 255
-921 0 6400 12.458984375 3.59375 0.0234375 0.96875 0.1953125 255
-921 256 5888 12.458984375 4.42578125 -0.1328125 0.9140625 0.34375 255
-2559 179 5888 9.798828125 4.42578125 -0.1171875 0.9765625 0.0390625 255
-3583 0 5888 8.134765625 4.42578125 -0.078125 0.984375 0.0078125 255
-1791 973 -767 11.046875 15.23828125 0.09375 0.96875 -0.1640625 255
-4991 1024 -4479 5.84765625 21.267578125 0.1171875 0.96875 -0.140625 255
-4132 513 -6035 7.244140625 23.794921875 0.140625 0.96875 -0.1171875 255
-7167 1024 -7167 2.3125 25.634765625 0.0703125 0.9453125 0.2734375 255
-1872 768 -1441 10.9140625 16.33203125 0.1328125 0.9609375 -0.171875 255
-2559 768 -2815 9.798828125 18.564453125 0.1328125 0.9765625 0.0390625 255
-4095 1024 -2943 7.302734375 18.7734375 0.21875 0.9609375 0.0546875 255
-7167 1024 512 2.3125 13.158203125 0.0 0.9921875 0.0 255
-5887 1024 -2943 4.392578125 18.7734375 0.0 0.9921875 0.0 255
-4095 1024 -3967 7.302734375 20.435546875 0.1953125 0.953125 -0.15625 255
-6015 1024 -3839 4.18359375 20.228515625 0.0 0.9921875 0.0 255
-3151 512 -6526 8.8359375 24.591796875 0.09375 0.96875 0.1796875 255
-7167 1024 4096 2.3125 7.3359375 0.7421875 0.640625 0.0703125 255
-8191 1536 -8191 0.650390625 27.296875 0.359375 0.8828125 0.25 255
-3151 1024 -6526 8.8359375 24.591796875 0.046875 0.90625 0.390625 255
-4095 1792 -8191 7.302734375 27.296875 0.0 0.8046875 0.5703125 255
-6143 2560 -8191 3.9765625 27.296875 -0.078125 0.5859375 0.7890625 255
8093 1936 -6029 0.4375 -0.185546875 -0.59375 0.7890625 0.0390625 255
8093 1936 -5934 0.591796875 -0.1953125 -0.5625 0.7265625 0.359375 255
8093 2064 -5934 0.603515625 0.009765625 -0.984375 0.0078125 0.0 255
8093 2085 -5982 0.52734375 0.044921875 -0.984375 0.0625 0.0 255
8093 2064 -6029 0.44921875 0.017578125 -0.984375 0.015625 -0.0234375 255
8192 2560 -8191 -3.013671875 0.984375 -0.8046875 0.3984375 0.40625 255
7680 768 0 10.12109375 -2.66796875 -0.328125 0.9296875 0.0 255
8192 1855 1024 11.875 -0.876953125 -0.9609375 0.21875 -0.0078125 255
8192 2720 -5119 1.98046875 0.984375 -0.9765625 0.140625 0.0 255
8093 1936 -6029 -1.01171875 0.984375 -0.59375 0.7890625 0.0390625 255
8192 2560 -8191 -1.01171875 4.673828125 -0.8046875 0.3984375 0.40625 255
7680 2080 -7679 -1.953125 3.623046875 -0.0703125 0.9609375 0.203125 255
7029 912 -3999 25.375 20.48828125 0.1796875 0.9140625 0.3125 255
8093 1936 -5934 27.28125 23.953125 -0.5625 0.7265625 0.359375 255
3840 2048 8192 20.1953125 0.68359375 -0.078125 0.84375 -0.5078125 255
768 768 7168 15.205078125 2.345703125 -0.140625 0.9375 -0.28125 255
6289 1936 -2653 24.173828125 18.30078125 0.375 0.8203125 0.40625 255
8093 1936 -6029 27.21484375 23.98828125 -0.59375 0.7890625 0.0390625 255
8093 1936 -5934 9.00390625 -5.189453125 -0.5625 0.7265625 0.359375 255
6289 912 -2653 3.34765625 -3.140625 0.6796875 0.5390625 0.46875 255
7029 912 -3999 5.115234375 -4.390625 0.1796875 0.9140625 0.3125 255
6289 1936 -2653 4.462890625 -1.9765625 0.375 0.8203125 0.40625 255
3097 1741 -733 -0.1328125 1.970703125 0.1015625 0.671875 0.71875 255
5468 912 -1870 1.98046875 -1.9765625 0.4140625 0.609375 0.65625 255
768 768 5888 15.205078125 4.42578125 -0.046875 0.9140625 0.3671875 255
-3071 640 8192 8.966796875 0.68359375 -0.0390625 0.7734375 -0.6171875 255
768 768 7680 15.205078125 1.513671875 -0.15625 0.7890625 -0.5703125 255
768 0 7168 15.205078125 2.345703125 0.0 0.9609375 -0.21875 255
8192 1024 8192 27.263671875 0.68359375 -0.3359375 0.921875 -0.0546875 255
-869 1024 -5528 12.544921875 22.970703125 -0.125 0.9765625 0.078125 255
3072 2513 -7679 18.947265625 26.46484375 -0.109375 0.984375 0.0 255
3072 2513 -8191 18.947265625 27.296875 0.0078125 0.8515625 0.5 255
-3105 1024 -6549 8.91015625 24.630859375 -0.015625 0.8828125 0.4453125 255
-8191 1280 8192 0.650390625 0.68359375 0.6015625 0.7421875 -0.25 255
5888 1024 5120 23.521484375 5.673828125 0.0625 0.984375 0.0625 255
4864 1024 5120 21.857421875 5.673828125 -0.0703125 0.984375 0.046875 255
1792 768 5376 16.8671875 5.2578125 -0.0234375 0.984375 0.0234375 255
3584 656 -767 -0.857421875 0.181640625 0.0859375 0.9609375 0.2109375 255
-7167 0 7168 2.3125 2.345703125 0.1171875 0.9765625 -0.1171875 255
-7167 0 4096 2.3125 7.3359375 0.34375 0.921875 0.046875 255
-5375 0 6464 5.224609375 3.490234375 0.0 0.9921875 0.0 255
-383 0 6400 13.333984375 3.59375 0.0 0.9921875 0.0 255
-7167 1024 4096 0.982421875 1.443359375 0.7421875 0.640625 0.0703125 255
-8191 1280 8192 -4.89453125 1.80078125 0.6015625 0.7421875 -0.25 255
-7167 0 4096 0.982421875 0.017578125 0.34375 0.921875 0.046875 255
-6591 0 5312 3.248046875 5.361328125 0.0 0.9921875 0.0 255
-8191 2048 0 0.650390625 13.990234375 0.65625 0.734375 0.015625 255
-6015 0 6464 4.18359375 3.490234375 0.0 0.9921875 0.0 255
-6591 0 5888 3.248046875 4.42578125 0.0 0.9921875 0.0 255
4352 3712 -8191 1.78125 1.669921875 0.0 0.0 0.9921875 255
512 3328 -8191 -3.568359375 1.185546875 -0.046875 0.4453125 0.8828125 255
3072 2513 -8191 0.015625 0.017578125 0.0078125 0.8515625 0.5 255
8192 2560 -8191 7.11328125 0.017578125 -0.8046875 0.3984375 0.40625 255
512 3328 -8191 14.7890625 27.296875 -0.046875 0.4453125 0.8828125 255
8192 2560 -8191 27.263671875 27.296875 -0.8046875 0.3984375 0.40625 255
7680 2080 -7679 26.431640625 26.46484375 -0.0703125 0.9609375 0.203125 255
6246 2080 -6962 24.103515625 25.30078125 0.0859375 0.984375 0.0 255
6246 2080 -7167 24.103515625 25.634765625 0.0625 0.984375 0.0625 255
6265 2080 -6527 24.1328125 24.59375 0.078125 0.984375 0.0078125 255
6451 2080 -6962 24.435546875 25.30078125 0.0234375 0.984375 0.0234375 255
-3445 777 -4662 8.359375 21.564453125 0.2109375 0.9609375 -0.1015625 255
-2458 1024 -5155 9.9609375 22.365234375 0.0 0.9921875 0.0 255
-2240 1024 -4835 10.31640625 21.845703125 0.0 0.9921875 0.0 255
-2413 1024 -5178 10.03515625 22.40234375 0.0 0.9921875 0.0 255
-2285 1024 -4812 10.2421875 21.80859375 0.0 0.9921875 0.0 255
1280 768 3328 16.037109375 8.583984375 0.0 0.9921875 0.0 255
-1535 768 1536 11.4609375 11.494140625 0.0 0.9921875 0.0 255
2304 768 4864 17.69921875 6.08984375 -0.03125 0.984375 -0.015625 255
-7167 768 512 2.3125 13.158203125 0.0 0.9921875 0.0 255
-3368 768 246 8.484375 13.58984375 0.0 0.9921875 0.0 255
-3503 768 111 8.265625 13.810546875 0.0 0.9921875 0.0 255
-3071 768 512 8.966796875 13.158203125 0.0 0.9921875 0.0 255
6451 2080 -7167 24.435546875 25.634765625 0.0 0.9921875 0.0 255
6252 1936 -2700 24.11328125 18.376953125 0.0078125 0.984375 0.015625 255
-4095 768 4096 7.302734375 7.3359375 0.0 0.9921875 0.0 255
-3071 768 3072 8.966796875 9.0 0.0 0.9921875 0.0 255
-7167 768 4096 2.3125 7.3359375 0.0 0.9921875 0.0 255
1024 768 171 15.62109375 13.712890625 0.0 0.9921875 0.0 255
1888 768 720 17.0234375 12.8203125 0.0 0.9921875 0.0 255
-6015 0 4736 4.18359375 6.296875 0.0 0.9921875 0.0 255
-5375 0 4736 5.224609375 6.296875 0.0 0.9921875 0.0 255
-4095 0 4096 7.302734375 7.3359375 -0.03125 0.984375 -0.0625 255
-3583 0 5376 8.134765625 5.2578125 -0.0546875 0.984375 0.0078125 255
-4799 0 5312 6.16015625 5.361328125 0.0 0.9921875 0.0 255
-2559 179 5376 9.798828125 5.2578125 -0.1171875 0.984375 0.0 255
-1535 256 5376 11.4609375 5.2578125 -0.0078125 0.9765625 -0.171875 255
-921 0 5888 12.458984375 4.42578125 0.0 0.9921875 0.0 255
-4799 0 5888 6.16015625 4.42578125 0.0 0.9921875 0.0 255
-921 0 4865 12.458984375 6.087890625 0.0390625 0.8984375 -0.3984375 255
-921 256 5375 12.458984375 5.2578125 -0.0546875 0.828125 -0.53125 255
-3503 1024 111 8.265625 13.810546875 0.0 0.9921875 0.0 255
768 0 5888 15.205078125 4.42578125 0.0 0.9921875 0.0 255
256 0 6400 14.373046875 3.59375 0.0 0.9921875 0.0 255
3060 1741 -780 18.927734375 15.2578125 -0.2421875 0.9375 0.1875 255
5888 3072 1230 0.015625 0.984375 0.0 0.9921875 0.0 255
4454 3072 1127 1.208984375 -1.501953125 0.0 0.9921875 0.0 255
4454 3072 1332 1.5546875 -1.302734375 0.0 0.9921875 0.0 255
3097 1741 -733 18.986328125 15.181640625 0.1015625 0.671875 0.71875 255
2079 1368 -1535 17.333984375 16.484375 -0.6015625 0.625 0.46875 255
2076 768 425 17.328125 13.298828125 0.0 0.9921875 0.0 255
1212 768 -123 15.92578125 14.19140625 0.0 0.9921875 0.0 255
5120 3072 2560 2.978515625 0.984375 0.0 0.9921875 0.0 255
5120 3072 -99 -1.51171875 -1.576171875 0.0 0.9921875 0.0 255
3584 3072 2560 4.474609375 -1.576171875 0.0 0.9921875 0.0 255
4250 3072 1332 1.75390625 -1.6484375 0.0 0.9921875 0.0 255
2816 3072 1230 2.978515625 -4.16796875 0.0 0.9921875 0.0 255
3584 3072 -99 0.015625 -4.16796875 0.0 0.9921875 0.0 255
4250 3072 1127 1.408203125 -1.84765625 0.0 0.9921875 0.0 255
3 0 1 2
3 3 2 4
3 3 0 2
3 2 1 4
3 0 5 1
3 1 5 6
3 1 7 8
3 6 7 1
3 1 9 10
3 4 1 10
3 11 12 13
3 3 4 14
3 15 16 17
3 17 18 15
3 15 19 16
3 19 20 16
3 11 21 12
3 22 23 24
3 21 25 12
3 26 27 12
3 25 26 12
3 28 12 29
3 22 30 23
3 31 22 24
3 23 32 24
3 33 24 34
3 24 35 36
3 24 36 37
3 34 24 37
3 38 39 40
3 38 40 41
3 38 41 42
3 38 42 43
3 41 43 42
3 39 44 45
3 45 40 39
3 41 40 45
3 41 45 46
3 41 46 43
3 47 48 49
3 9 1 50
3 1 51 50
3 52 6 53
3 54 51 55
3 56 57 58
3 56 59 57
3 59 60 61
3 57 59 61
3 62 53 6
3 63 52 64
3 16 64 65
3 53 64 52
3 6 52 66
3 67 68 69
3 69 70 67
3 63 64 16
3 71 63 16
3 6 72 73
3 5 72 6
3 74 62 6
3 73 74 6
3 6 66 7
3 60 75 61
3 71 76 77
3 78 16 20
3 16 78 76
3 17 16 79
3 16 65 79
3 16 76 71
3 80 81 82
3 83 77 76
3 33 84 71
3 85 86 76
3 78 85 76
3 76 86 83
3 33 34 84
3 87 88 89
3 90 87 89
3 36 35 70
3 36 70 91
3 70 69 91
3 92 69 93
3 69 94 95
3 69 95 93
3 69 96 94
3 93 97 55
3 27 26 98
3 99 100 101
3 99 102 100
3 100 67 101
3 101 67 70
3 30 27 98
3 30 98 23
3 103 3 14
3 103 14 104
3 3 105 73
3 3 73 0
3 106 107 108
3 106 109 107
3 96 69 68
3 93 95 110
3 94 96 97
3 96 55 97
3 111 54 55
3 111 55 96
3 112 113 106
3 109 106 113
3 106 114 112
3 104 14 115
3 14 116 115
3 83 117 77
3 77 118 119
3 120 118 121
3 119 118 120
3 122 123 119
3 79 124 17
3 125 78 20
3 119 120 122
3 119 123 126
3 123 127 126
3 13 12 128
3 28 128 12
3 117 118 77
3 105 74 73
3 24 28 31
3 28 29 31
3 65 129 130
3 65 130 79
3 93 110 97
3 131 54 111
3 132 133 134
3 135 131 136
3 131 135 54
3 116 137 138
3 116 138 115
3 139 132 134
3 132 140 133
3 141 142 143
3 133 140 144
3 145 133 144
3 145 144 143
3 142 145 143
3 139 134 142
3 141 139 142
