ply
format ascii 1.0
element vertex 38
property short x
property short y
property short z
property float s
property float t
property float nx
property float ny
property float nz
property uchar alpha
element face 20
property list uchar uint vertex_indices
end_header
768 768 5888 0.982421875 -0.46484375 -0.046875 0.9140625 0.3671875 255
1792 768 4864 -0.009765625 2.509765625 0.0 0.9921875 0.0 255
768 768 5376 -0.009765625 0.029296875 -0.1796875 0.921875 -0.3125 255
1792 768 5376 0.982421875 2.013671875 -0.0234375 0.984375 0.0234375 255
1792 768 5376 0.982421875 -0.978515625 -0.0234375 0.984375 0.0234375 255
2304 768 4864 0.982421875 0.984375 -0.03125 0.984375 -0.015625 255
1792 768 4864 0.015625 0.017578125 0.0 0.9921875 0.0 255
-1791 768 1792 1.01171875 -0.23828125 0.0 0.9921875 0.0 255
-1535 768 2048 1.01171875 0.767578125 0.0 0.9921875 0.0 255
-1535 768 1536 0.00390625 -0.23828125 0.0 0.9921875 0.0 255
-921 256 5375 0.015625 2.2109375 -0.0546875 0.828125 -0.53125 255
-1535 256 5376 0.015625 0.984375 -0.0078125 0.9765625 -0.171875 255
-1535 256 5888 0.982421875 0.984375 -0.0078125 0.9765625 0.125 255
-921 256 5888 0.982421875 2.2109375 -0.1328125 0.9140625 0.34375 255
-2559 179 5376 0.015625 -0.984375 -0.1171875 0.984375 0.0 255
-2559 179 5888 0.982421875 -0.984375 -0.1171875 0.9765625 0.0390625 255
-3583 0 5376 0.07421875 0.984375 -0.0546875 0.984375 0.0078125 255
-4799 0 5312 -0.037109375 -1.13671875 0.0 0.9921875 0.0 255
-4799 0 5888 0.982421875 -1.13671875 0.0 0.9921875 0.0 255
-3583 0 5888 0.982421875 0.984375 -0.078125 0.984375 0.0078125 255
-3583 0 5376 0.015625 -3.0 -0.0546875 0.984375 0.0078125 255
-3583 0 5888 0.982421875 -3.0 -0.078125 0.984375 0.0078125 255
1792 768 4352 0.982421875 0.017578125 0.0 0.9921875 0.0 255
1792 768 4864 0.982421875 0.984375 0.0 0.9921875 0.0 255
2304 768 4864 0.015625 0.984375 -0.03125 0.984375 -0.015625 255
2304 768 4352 0.015625 0.017578125 -0.03125 0.984375 -0.0078125 255
-1535 768 2048 1.021484375 -0.30078125 0.0 0.9921875 0.0 255
1280 768 3840 1.021484375 8.693359375 0.0 0.9921875 0.0 255
-1535 768 1536 0.015625 -0.9921875 0.0 0.9921875 0.0 255
1280 768 3328 0.015625 8.001953125 0.0 0.9921875 0.0 255
1280 768 3840 0.9921875 -0.01171875 0.0 0.9921875 0.0 255
1792 768 4352 0.9921875 2.00390625 0.0 0.9921875 0.0 255
2304 768 4352 0.015625 3.01171875 -0.03125 0.984375 -0.0078125 255
1280 768 3328 0.015625 -1.01953125 0.0 0.9921875 0.0 255
-3071 768 512 0.015625 0.017578125 0.0 0.9921875 0.0 255
-2815 768 256 0.982421875 0.017578125 0.0 0.9921875 0.0 255
-3097 768 -24 0.982421875 0.984375 0.0 0.9921875 0.0 255
-3368 768 246 -0.07421875 1.017578125 0.0 0.9921875 0.0 255
3 0 1 2
3 0 3 1
3 4 5 6
3 7 8 9
3 10 11 12
3 13 10 12
3 11 14 12
3 14 15 12
3 16 17 18
3 16 18 19
3 14 20 21
3 14 21 15
3 22 23 24
3 22 24 25
3 26 27 28
3 27 29 28
3 30 31 32
3 30 32 33
3 34 35 36
3 34 36 37
