ply
format ascii 1.0
element vertex 72
property short x
property short y
property short z
property float s
property float t
property float nx
property float ny
property float nz
property uchar alpha
element face 36
property list uchar uint vertex_indices
end_header
2151 768 6650 3.9765625 0.017578125 0.7578125 0.0 0.6328125 255
2151 819 6650 3.9765625 0.984375 0.7578125 0.0 0.6328125 255
2019 819 6807 0.015625 0.984375 0.7578125 0.0 0.6328125 255
1747 768 6579 3.4765625 0.017578125 -0.7578125 0.0 -0.6328125 255
1747 819 6579 3.4765625 0.984375 -0.7578125 0.0 -0.6328125 255
1879 819 6421 -0.330078125 0.984375 -0.7578125 0.0 -0.6328125 255
1879 768 6421 -0.330078125 0.017578125 -0.7578125 0.0 -0.6328125 255
1879 768 6421 3.9765625 0.017578125 0.1640625 0.0 -0.9765625 255
1879 819 6421 3.9765625 0.984375 0.1640625 0.0 -0.9765625 255
2081 819 6456 -0.193359375 0.984375 0.1640625 0.0 -0.9765625 255
2081 768 6456 -0.193359375 0.017578125 0.1640625 0.0 -0.9765625 255
2081 768 6456 3.9765625 0.017578125 0.9296875 0.0 -0.3359375 255
2151 819 6650 0.015625 0.984375 0.9296875 0.0 -0.3359375 255
2151 768 6650 0.015625 0.017578125 0.9296875 0.0 -0.3359375 255
2081 819 6456 3.9765625 0.984375 0.9296875 0.0 -0.3359375 255
-6265 1024 -5344 3.4765625 0.017578125 -0.7578125 0.0 -0.6328125 255
-6265 1075 -5344 3.4765625 0.984375 -0.7578125 0.0 -0.6328125 255
-6133 1075 -5503 -0.330078125 0.984375 -0.7578125 0.0 -0.6328125 255
2019 768 6807 0.015625 0.017578125 0.7578125 0.0 0.6328125 255
2019 768 6807 3.9765625 0.017578125 -0.1640625 0.0 0.9765625 255
2019 819 6807 3.9765625 0.984375 -0.1640625 0.0 0.9765625 255
1817 819 6772 0.015625 0.984375 -0.1640625 0.0 0.9765625 255
1817 768 6772 0.015625 0.017578125 -0.1640625 0.0 0.9765625 255
1817 768 6772 3.9765625 0.017578125 -0.9296875 0.0 0.3359375 255
1817 819 6772 3.9765625 0.984375 -0.9296875 0.0 0.3359375 255
1747 819 6579 0.015625 0.984375 -0.9296875 0.0 0.3359375 255
1747 768 6579 0.015625 0.017578125 -0.9296875 0.0 0.3359375 255
-6133 1024 -5503 -0.330078125 0.017578125 -0.7578125 0.0 -0.6328125 255
-5993 1024 -5116 3.9765625 0.017578125 -0.171875 0.0 0.9765625 255
-6194 1075 -5152 0.015625 0.984375 -0.171875 0.0 0.9765625 255
-6194 1024 -5152 0.015625 0.017578125 -0.171875 0.0 0.9765625 255
-6133 1024 -5503 3.9765625 0.017578125 0.1640625 0.0 -0.9765625 255
-5931 1075 -5468 -0.193359375 0.984375 0.1640625 0.0 -0.9765625 255
-5931 1024 -5468 -0.193359375 0.017578125 0.1640625 0.0 -0.9765625 255
-6133 1075 -5503 3.9765625 0.984375 0.1640625 0.0 -0.9765625 255
-5931 1024 -5468 3.9765625 0.017578125 0.9296875 0.0 -0.328125 255
-5931 1075 -5468 3.9765625 0.984375 0.9296875 0.0 -0.328125 255
-5861 1075 -5273 0.015625 0.984375 0.9296875 0.0 -0.328125 255
-5861 1024 -5273 0.015625 0.017578125 0.9296875 0.0 -0.328125 255
-5861 1024 -5273 3.9765625 0.017578125 0.7578125 0.0 0.6328125 255
-5861 1075 -5273 3.9765625 0.984375 0.7578125 0.0 0.6328125 255
-5993 1075 -5116 0.015625 0.984375 0.7578125 0.0 0.6328125 255
-5993 1024 -5116 0.015625 0.017578125 0.7578125 0.0 0.6328125 255
-6677 1024 -3554 3.9765625 0.017578125 0.171875 0.0 -0.9765625 255
-6475 1075 -3518 -0.193359375 0.984375 0.171875 0.0 -0.9765625 255
-6475 1024 -3518 -0.193359375 0.017578125 0.171875 0.0 -0.9765625 255
-5993 1075 -5116 3.9765625 0.984375 -0.171875 0.0 0.9765625 255
-6194 1024 -5152 3.9765625 0.017578125 -0.9296875 0.0 0.34375 255
-6194 1075 -5152 3.9765625 0.984375 -0.9296875 0.0 0.34375 255
-6265 1075 -5344 0.015625 0.984375 -0.9296875 0.0 0.34375 255
-6265 1024 -5344 0.015625 0.017578125 -0.9296875 0.0 0.34375 255
-6809 1024 -3395 3.4765625 0.017578125 -0.7578125 0.0 -0.6328125 255
-6809 1075 -3395 3.4765625 0.984375 -0.7578125 0.0 -0.6328125 255
-6677 1075 -3554 -0.330078125 0.984375 -0.7578125 0.0 -0.6328125 255
-6677 1024 -3554 -0.330078125 0.017578125 -0.7578125 0.0 -0.6328125 255
-6677 1075 -3554 3.9765625 0.984375 0.171875 0.0 -0.9765625 255
-6739 1024 -3202 3.9765625 0.017578125 -0.9296875 0.0 0.3359375 255
-6739 1075 -3202 3.9765625 0.984375 -0.9296875 0.0 0.3359375 255
-6809 1075 -3395 0.015625 0.984375 -0.9296875 0.0 0.3359375 255
-6475 1024 -3518 3.9765625 0.017578125 0.9296875 0.0 -0.3359375 255
-6405 1075 -3324 0.015625 0.984375 0.9296875 0.0 -0.3359375 255
-6405 1024 -3324 0.015625 0.017578125 0.9296875 0.0 -0.3359375 255
-6475 1075 -3518 3.9765625 0.984375 0.9296875 0.0 -0.3359375 255
-6405 1024 -3324 3.9765625 0.017578125 0.7578125 0.0 0.6328125 255
-6405 1075 -3324 3.9765625 0.984375 0.7578125 0.0 0.6328125 255
-6537 1075 -3167 0.015625 0.984375 0.7578125 0.0 0.6328125 255
-6537 1024 -3167 0.015625 0.017578125 0.7578125 0.0 0.6328125 255
-6537 1024 -3167 3.9765625 0.017578125 -0.1640625 0.0 0.9765625 255
-6739 1075 -3202 0.015625 0.984375 -0.1640625 0.0 0.9765625 255
-6739 1024 -3202 0.015625 0.017578125 -0.1640625 0.0 0.9765625 255
-6537 1075 -3167 3.9765625 0.984375 -0.1640625 0.0 0.9765625 255
-6809 1024 -3395 0.015625 0.017578125 -0.9296875 0.0 0.3359375 255
3 0 1 2
3 3 4 5
3 3 5 6
3 7 8 9
3 7 9 10
3 11 12 13
3 11 14 12
3 15 16 17
3 0 2 18
3 19 20 21
3 19 21 22
3 23 24 25
3 23 25 26
3 15 17 27
3 28 29 30
3 31 32 33
3 31 34 32
3 35 36 37
3 35 37 38
3 39 40 41
3 39 41 42
3 43 44 45
3 28 46 29
3 47 48 49
3 47 49 50
3 51 52 53
3 51 53 54
3 43 55 44
3 56 57 58
3 59 60 61
3 59 62 60
3 63 64 65
3 63 65 66
3 67 68 69
3 67 70 68
3 56 58 71
