ply
format ascii 1.0
element vertex 22
property short x
property short y
property short z
property float s
property float t
property float nx
property float ny
property float nz
property uchar alpha
element face 10
property list uchar uint vertex_indices
end_header
2276 802 4352 0.982421875 0.017578125 -0.9921875 0.0 0.0 255
2276 802 4438 0.015625 0.017578125 -0.9921875 0.0 0.0 255
2276 888 4438 0.015625 0.984375 -0.9921875 0.0 0.0 255
-4466 1052 -1975 0.015625 0.017578125 0.6640625 0.0 0.734375 255
-4402 1138 -2033 0.982421875 0.984375 0.6640625 0.0 0.734375 255
-4466 1138 -1975 0.015625 0.984375 0.6640625 0.0 0.734375 255
-4466 1052 -1975 0.015625 0.017578125 0.65625 0.0 0.734375 255
-4401 1052 -2033 0.982421875 0.017578125 0.65625 0.0 0.734375 255
-4402 1138 -2033 0.982421875 0.984375 0.65625 0.0 0.734375 255
-3543 857 -4185 0.015625 0.017578125 0.40625 0.0546875 0.8984375 255
-3465 943 -4226 0.982421875 0.984375 0.40625 0.0546875 0.8984375 255
-3544 943 -4190 0.015625 0.984375 0.40625 0.0546875 0.8984375 255
-3464 856 -4221 0.982421875 0.017578125 0.40625 0.0546875 0.8984375 255
-4247 1058 -763 0.015625 0.017578125 0.6953125 0.0 0.6953125 255
-4186 1058 -824 0.982421875 0.017578125 0.6953125 0.0 0.6953125 255
-4186 1144 -824 0.982421875 0.984375 0.6953125 0.0 0.6953125 255
-4247 1144 -763 0.015625 0.984375 0.6953125 0.0 0.6953125 255
6205 907 -1524 0.982421875 0.017578125 0.6875 0.0 0.7109375 255
6267 907 -1584 -0.0078125 0.017578125 0.6875 0.0 0.7109375 255
6267 993 -1584 -0.0078125 1.0078125 0.6875 0.0 0.7109375 255
2276 888 4352 0.982421875 0.984375 -0.9921875 0.0 0.0 255
6205 993 -1524 0.982421875 1.0078125 0.6875 0.0 0.7109375 255
3 0 1 2
3 3 4 5
3 6 7 8
3 9 10 11
3 9 12 10
3 13 14 15
3 13 15 16
3 17 18 19
3 0 2 20
3 17 19 21
