ply
format ascii 1.0
element vertex 243
property short x
property short y
property short z
property float s
property float t
property float nx
property float ny
property float nz
property uchar alpha
element face 95
property list uchar uint vertex_indices
end_header
-4442 1145 -2005 0.982421875 0.9921875 -0.3671875 -0.03125 0.9140625 255
-4448 1018 -2012 0.654296875 0.015625 -0.3671875 -0.03125 0.9140625 255
-4438 1018 -2008 0.875 0.017578125 -0.3671875 -0.03125 0.9140625 255
-4445 1145 -2016 0.541015625 0.9921875 -0.78125 0.5625 0.2109375 255
-4442 1145 -2005 0.982421875 0.9921875 -0.78125 0.5625 0.2109375 255
-4441 1149 -2012 0.75 1.03515625 -0.78125 0.5625 0.2109375 255
-4448 1018 -2012 0.654296875 0.015625 -0.953125 0.0234375 0.2578125 255
-4442 1145 -2005 0.982421875 0.9921875 -0.953125 0.0234375 0.2578125 255
-4445 1145 -2016 0.541015625 0.9921875 -0.953125 0.0234375 0.2578125 255
-4434 1145 -2013 0.76171875 1.009765625 0.96875 -0.03125 -0.171875 255
-4438 1018 -2008 0.875 0.017578125 0.96875 -0.03125 -0.171875 255
-4440 1018 -2019 0.43359375 0.017578125 0.96875 -0.03125 -0.171875 255
-4440 1018 -2019 0.43359375 0.017578125 0.2578125 0.03125 -0.953125 255
-4445 1145 -2016 0.541015625 0.9921875 0.2578125 0.03125 -0.953125 255
-4434 1145 -2013 0.76171875 1.009765625 0.2578125 0.03125 -0.953125 255
-4441 1149 -2012 0.75 1.03515625 0.2109375 0.5625 -0.78125 255
-4434 1145 -2013 0.76171875 1.009765625 0.2109375 0.5625 -0.78125 255
-4445 1145 -2016 0.541015625 0.9921875 0.2109375 0.5625 -0.78125 255
-4445 1145 -2016 0.205078125 1.001953125 -0.6484375 -0.0078125 -0.7421875 255
-4440 1018 -2019 0.015625 0.009765625 -0.6484375 -0.0078125 -0.7421875 255
-4448 1018 -2012 0.42578125 0.009765625 -0.6484375 -0.0078125 -0.7421875 255
-4438 1018 -2008 0.205078125 0.015625 0.6953125 0.0 0.6953125 255
-4434 1145 -2013 0.42578125 0.9921875 0.6953125 0.0 0.6953125 255
-4442 1145 -2005 0.015625 0.9921875 0.6953125 0.0 0.6953125 255
-4408 1052 -2040 1.85546875 0.9921875 -0.6640625 0.0 -0.734375 255
-4472 1138 -1982 0.015625 0.166015625 -0.6640625 0.0 -0.734375 255
-4408 1138 -2040 0.015625 0.9921875 -0.6640625 0.0 -0.734375 255
-4441 1149 -2012 0.205078125 1.033203125 0.4765625 0.71875 0.4765625 255
-4442 1145 -2005 0.015625 0.9921875 0.4765625 0.71875 0.4765625 255
-4434 1145 -2013 0.42578125 0.9921875 0.4765625 0.71875 0.4765625 255
-4472 1138 -1982 0.982421875 0.009765625 0.0 0.9921875 0.0 255
-4402 1138 -2033 0.607421875 0.8515625 0.0 0.9921875 0.0 255
-4408 1138 -2040 0.982421875 0.8515625 0.0 0.9921875 0.0 255
-4466 1138 -1975 0.607421875 0.009765625 0.0 0.9921875 0.0 255
-4408 1052 -2040 0.982421875 0.8515625 0.0 -0.9921875 0.0 255
-4401 1052 -2033 0.607421875 0.8515625 0.0 -0.9921875 0.0 255
-4466 1052 -1975 0.607421875 0.009765625 0.0 -0.9921875 0.0 255
-4472 1052 -1982 0.982421875 0.009765625 0.0 -0.9921875 0.0 255
-4472 1052 -1982 1.85546875 0.166015625 -0.6640625 0.0 -0.734375 255
-3515 822 -4213 0.654296875 0.015625 -0.984375 0.015625 -0.0859375 255
-3513 950 -4212 0.982421875 0.9921875 -0.984375 0.015625 -0.0859375 255
-3512 949 -4223 0.541015625 0.9921875 -0.984375 0.015625 -0.0859375 255
-4401 1052 -2033 0.359375 0.009765625 0.75 0.0078125 -0.640625 255
-4408 1138 -2040 0.015625 0.9453125 0.75 0.0078125 -0.640625 255
-4402 1138 -2033 0.359375 0.9453125 0.75 0.0078125 -0.640625 255
-4401 1052 -2033 0.359375 0.009765625 0.6953125 0.0 -0.6953125 255
-4408 1052 -2040 0.015625 0.009765625 0.6953125 0.0 -0.6953125 255
-4408 1138 -2040 0.015625 0.9453125 0.6953125 0.0 -0.6953125 255
-4472 1052 -1982 0.015625 0.009765625 -0.75 0.0 0.640625 255
-4466 1052 -1975 0.359375 0.009765625 -0.75 0.0 0.640625 255
-4466 1138 -1975 0.359375 0.9453125 -0.75 0.0 0.640625 255
-4472 1138 -1982 0.015625 0.9453125 -0.75 0.0 0.640625 255
-3513 950 -4212 0.982421875 0.9921875 -0.5625 0.0 0.8125 255
-3515 822 -4213 0.654296875 0.015625 -0.5625 0.0 0.8125 255
-3505 823 -4206 0.875 0.017578125 -0.5625 0.0 0.8125 255
-3512 949 -4223 0.541015625 0.9921875 -0.703125 0.6796875 -0.125 255
-3513 950 -4212 0.982421875 0.9921875 -0.703125 0.6796875 -0.125 255
-3509 953 -4218 0.75 1.03515625 -0.703125 0.6796875 -0.125 255
-3548 943 -4199 0.982421875 0.009765625 0.0 0.9921875 0.0 255
-3544 943 -4190 0.607421875 0.009765625 0.0 0.9921875 0.0 255
-3465 943 -4226 0.607421875 0.8515625 0.0 0.9921875 0.0 255
-3502 950 -4217 0.76171875 1.009765625 0.984375 -0.015625 0.078125 255
-3505 823 -4206 0.875 0.017578125 0.984375 -0.015625 0.078125 255
-3504 822 -4218 0.43359375 0.017578125 0.984375 -0.015625 0.078125 255
-3509 953 -4218 0.75 1.03515625 0.3515625 0.6015625 -0.6953125 255
-3502 950 -4217 0.76171875 1.009765625 0.3515625 0.6015625 -0.6953125 255
-3512 949 -4223 0.541015625 0.9921875 0.3515625 0.6015625 -0.6953125 255
-3504 822 -4218 0.43359375 0.017578125 0.5078125 0.0 -0.84375 255
-3512 949 -4223 0.541015625 0.9921875 0.5078125 0.0 -0.84375 255
-3502 950 -4217 0.76171875 1.009765625 0.5078125 0.0 -0.84375 255
-3512 949 -4223 0.205078125 1.001953125 -0.40625 -0.0546875 -0.8984375 255
-3504 822 -4218 0.015625 0.009765625 -0.40625 -0.0546875 -0.8984375 255
-3515 822 -4213 0.42578125 0.009765625 -0.40625 -0.0546875 -0.8984375 255
-3505 823 -4206 0.205078125 0.015625 0.40625 0.0625 0.8984375 255
-3502 950 -4217 0.42578125 0.9921875 0.40625 0.0625 0.8984375 255
-3513 950 -4212 0.015625 0.9921875 0.40625 0.0625 0.8984375 255
-3509 953 -4218 0.205078125 1.033203125 0.25 0.7734375 0.5546875 255
-3513 950 -4212 0.015625 0.9921875 0.25 0.7734375 0.5546875 255
-3502 950 -4217 0.42578125 0.9921875 0.25 0.7734375 0.5546875 255
-3464 856 -4221 0.359375 0.009765625 0.90625 -0.0078125 -0.3984375 255
-3469 942 -4235 0.015625 0.9453125 0.90625 -0.0078125 -0.3984375 255
-3465 943 -4226 0.359375 0.9453125 0.90625 -0.0078125 -0.3984375 255
-3548 943 -4199 0.982421875 0.009765625 -0.0234375 0.984375 -0.09375 255
-3465 943 -4226 0.607421875 0.8515625 -0.0234375 0.984375 -0.09375 255
-3469 942 -4235 0.982421875 0.8515625 -0.0234375 0.984375 -0.09375 255
-3468 856 -4229 0.982421875 0.8515625 -0.0078125 -0.984375 0.0 255
-3464 856 -4221 0.607421875 0.8515625 -0.0078125 -0.984375 0.0 255
-3543 857 -4185 0.607421875 0.009765625 -0.0078125 -0.984375 0.0 255
-3547 857 -4194 0.982421875 0.009765625 -0.0078125 -0.984375 0.0 255
-3468 856 -4229 1.85546875 0.9921875 -0.40625 -0.0625 -0.8984375 255
-3548 943 -4199 0.015625 0.166015625 -0.40625 -0.0625 -0.8984375 255
-3469 942 -4235 0.015625 0.9921875 -0.40625 -0.0625 -0.8984375 255
-3468 856 -4229 1.85546875 0.9921875 -0.3984375 -0.0546875 -0.8984375 255
-3547 857 -4194 1.85546875 0.166015625 -0.3984375 -0.0546875 -0.8984375 255
-3548 943 -4199 0.015625 0.166015625 -0.3984375 -0.0546875 -0.8984375 255
-3464 856 -4221 0.359375 0.009765625 0.8828125 -0.015625 -0.4375 255
-3468 856 -4229 0.015625 0.009765625 0.8828125 -0.015625 -0.4375 255
-3469 942 -4235 0.015625 0.9453125 0.8828125 -0.015625 -0.4375 255
-4228 1151 -804 0.205078125 1.001953125 -0.6953125 0.0 -0.6953125 255
-4224 1024 -808 0.015625 0.009765625 -0.6953125 0.0 -0.6953125 255
-4232 1024 -800 0.42578125 0.009765625 -0.6953125 0.0 -0.6953125 255
-3547 857 -4194 0.015625 0.009765625 -0.90625 0.0078125 0.3984375 255
-3543 857 -4185 0.359375 0.009765625 -0.90625 0.0078125 0.3984375 255
-3544 943 -4190 0.359375 0.9453125 -0.90625 0.0078125 0.3984375 255
-3548 943 -4199 0.015625 0.9453125 -0.90625 0.0078125 0.3984375 255
-4232 1024 -800 0.654296875 0.015625 -0.9453125 0.03125 0.28125 255
-4225 1151 -794 0.982421875 0.9921875 -0.9453125 0.03125 0.28125 255
-4228 1151 -804 0.541015625 0.9921875 -0.9453125 0.03125 0.28125 255
-4225 1151 -794 0.982421875 0.9921875 -0.2578125 -0.0234375 0.953125 255
-4232 1024 -800 0.654296875 0.015625 -0.2578125 -0.0234375 0.953125 255
-4221 1024 -797 0.875 0.017578125 -0.2578125 -0.0234375 0.953125 255
-4228 1151 -804 0.541015625 0.9921875 -0.7890625 0.546875 0.234375 255
-4225 1151 -794 0.982421875 0.9921875 -0.7890625 0.546875 0.234375 255
-4224 1155 -800 0.75 1.03515625 -0.7890625 0.546875 0.234375 255
-4217 1151 -802 0.76171875 1.009765625 0.953125 -0.0390625 -0.2578125 255
-4221 1024 -797 0.875 0.017578125 0.953125 -0.0390625 -0.2578125 255
-4224 1024 -808 0.43359375 0.017578125 0.953125 -0.0390625 -0.2578125 255
-4224 1155 -800 0.75 1.03515625 0.1328125 0.6171875 -0.7578125 255
-4217 1151 -802 0.76171875 1.009765625 0.1328125 0.6171875 -0.7578125 255
-4228 1151 -804 0.541015625 0.9921875 0.1328125 0.6171875 -0.7578125 255
-4224 1024 -808 0.43359375 0.017578125 0.171875 0.03125 -0.96875 255
-4228 1151 -804 0.541015625 0.9921875 0.171875 0.03125 -0.96875 255
-4217 1151 -802 0.76171875 1.009765625 0.171875 0.03125 -0.96875 255
-4193 1058 -830 1.85546875 0.9921875 -0.6953125 0.0 -0.6953125 255
-4254 1144 -769 0.015625 0.166015625 -0.6953125 0.0 -0.6953125 255
-4193 1144 -830 0.015625 0.9921875 -0.6953125 0.0 -0.6953125 255
-4221 1024 -797 0.205078125 0.015625 0.6953125 0.0 0.6953125 255
-4217 1151 -802 0.42578125 0.9921875 0.6953125 0.0 0.6953125 255
-4225 1151 -794 0.015625 0.9921875 0.6953125 0.0 0.6953125 255
-4224 1155 -800 0.205078125 1.033203125 0.5234375 0.65625 0.5234375 255
-4225 1151 -794 0.015625 0.9921875 0.5234375 0.65625 0.5234375 255
-4217 1151 -802 0.42578125 0.9921875 0.5234375 0.65625 0.5234375 255
-4254 1144 -769 0.982421875 0.009765625 0.0 0.9921875 0.0 255
-4186 1144 -824 0.607421875 0.8515625 0.0 0.9921875 0.0 255
-4193 1144 -830 0.982421875 0.8515625 0.0 0.9921875 0.0 255
-4247 1144 -763 0.607421875 0.009765625 0.0 0.9921875 0.0 255
-4193 1058 -830 0.982421875 0.8515625 0.0 -0.9921875 0.0 255
-4247 1058 -763 0.607421875 0.009765625 0.0 -0.9921875 0.0 255
-4254 1058 -769 0.982421875 0.009765625 0.0 -0.9921875 0.0 255
-4186 1058 -824 0.607421875 0.8515625 0.0 -0.9921875 0.0 255
2286 802 4352 0.015625 0.009765625 0.0 0.0 -0.9921875 255
2276 888 4352 0.359375 0.9453125 0.0 0.0 -0.9921875 255
2286 888 4352 0.015625 0.9453125 0.0 0.0 -0.9921875 255
-4254 1058 -769 1.85546875 0.166015625 -0.6953125 0.0 -0.6953125 255
-4186 1058 -824 0.359375 0.009765625 0.640625 0.0 -0.75 255
-4193 1058 -830 0.015625 0.009765625 0.640625 0.0 -0.75 255
-4193 1144 -830 0.015625 0.9453125 0.640625 0.0 -0.75 255
-4186 1144 -824 0.359375 0.9453125 0.640625 0.0 -0.75 255
-4254 1058 -769 0.015625 0.009765625 -0.640625 0.0 0.75 255
-4247 1058 -763 0.359375 0.009765625 -0.640625 0.0 0.75 255
-4247 1144 -763 0.359375 0.9453125 -0.640625 0.0 0.75 255
-4254 1144 -769 0.015625 0.9453125 -0.640625 0.0 0.75 255
2276 802 4352 0.359375 0.009765625 0.0 0.0 -0.9921875 255
2286 888 4352 0.982421875 0.009765625 0.0 0.9921875 0.0 255
2276 888 4352 0.607421875 0.009765625 0.0 0.9921875 0.0 255
2276 888 4438 0.607421875 0.8515625 0.0 0.9921875 0.0 255
2276 802 4438 0.359375 0.009765625 0.0 0.0 0.9921875 255
2286 802 4438 0.015625 0.009765625 0.0 0.0 0.9921875 255
2286 888 4438 0.015625 0.9453125 0.0 0.0 0.9921875 255
2276 888 4438 0.359375 0.9453125 0.0 0.0 0.9921875 255
2286 802 4438 1.85546875 0.9921875 0.9921875 0.0 0.0 255
2286 888 4352 0.015625 0.166015625 0.9921875 0.0 0.0 255
2286 888 4438 0.015625 0.9921875 0.9921875 0.0 0.0 255
2286 802 4352 1.85546875 0.166015625 0.9921875 0.0 0.0 255
2286 802 4438 0.982421875 0.8515625 0.0 -0.9921875 0.0 255
2276 802 4352 0.607421875 0.009765625 0.0 -0.9921875 0.0 255
2286 802 4352 0.982421875 0.009765625 0.0 -0.9921875 0.0 255
2276 802 4438 0.607421875 0.8515625 0.0 -0.9921875 0.0 255
2286 888 4438 0.982421875 0.8515625 0.0 0.9921875 0.0 255
2286 899 4395 0.75 1.03515625 0.421875 0.6328125 0.6328125 255
2283 895 4401 0.76171875 1.009765625 0.421875 0.6328125 0.6328125 255
2292 895 4395 0.541015625 0.9921875 0.421875 0.6328125 0.6328125 255
2292 895 4395 0.541015625 0.9921875 0.3828125 0.578125 -0.6953125 255
2283 895 4390 0.982421875 0.9921875 0.3828125 0.578125 -0.6953125 255
2286 899 4395 0.75 1.03515625 0.3828125 0.578125 -0.6953125 255
2283 895 4401 0.76171875 1.009765625 -0.546875 -0.03125 0.8203125 255
2283 768 4395 0.875 0.017578125 -0.546875 -0.03125 0.8203125 255
2292 768 4401 0.43359375 0.017578125 -0.546875 -0.03125 0.8203125 255
2292 768 4401 0.43359375 0.017578125 0.546875 0.03125 0.8203125 255
2292 895 4395 0.541015625 0.9921875 0.546875 0.03125 0.8203125 255
2283 895 4401 0.76171875 1.009765625 0.546875 0.03125 0.8203125 255
2292 768 4390 0.654296875 0.015625 0.4765625 0.03125 -0.859375 255
2283 895 4390 0.982421875 0.9921875 0.4765625 0.03125 -0.859375 255
2292 895 4395 0.541015625 0.9921875 0.4765625 0.03125 -0.859375 255
2286 899 4395 0.205078125 1.033203125 -0.7890625 0.59375 0.0 255
2283 895 4390 0.015625 0.9921875 -0.7890625 0.59375 0.0 255
2283 895 4401 0.42578125 0.9921875 -0.7890625 0.59375 0.0 255
2283 895 4390 0.982421875 0.9921875 -0.4765625 -0.03125 -0.859375 255
2292 768 4390 0.654296875 0.015625 -0.4765625 -0.03125 -0.859375 255
2283 768 4395 0.875 0.017578125 -0.4765625 -0.03125 -0.859375 255
2283 768 4395 0.205078125 0.015625 -0.9921875 0.0 0.0 255
2283 895 4401 0.42578125 0.9921875 -0.9921875 0.0 0.0 255
2283 895 4390 0.015625 0.9921875 -0.9921875 0.0 0.0 255
2292 895 4395 0.205078125 1.001953125 0.9921875 0.0 0.0 255
2292 768 4401 0.015625 0.009765625 0.9921875 0.0 0.0 255
2292 768 4390 0.42578125 0.009765625 0.9921875 0.0 0.0 255
6221 873 -1562 0.654296875 0.015625 -0.96875 0.03125 0.171875 255
6227 1000 -1555 0.982421875 0.9921875 -0.96875 0.03125 0.171875 255
6225 1000 -1566 0.541015625 0.9921875 -0.96875 0.03125 0.171875 255
6225 1000 -1566 0.541015625 0.9921875 -0.7578125 0.6171875 0.1328125 255
6227 1000 -1555 0.982421875 0.9921875 -0.7578125 0.6171875 0.1328125 255
6229 1004 -1562 0.75 1.03515625 -0.7578125 0.6171875 0.1328125 255
6227 1000 -1555 0.982421875 0.9921875 -0.2578125 -0.0390625 0.953125 255
6221 873 -1562 0.654296875 0.015625 -0.2578125 -0.0390625 0.953125 255
6232 873 -1559 0.875 0.017578125 -0.2578125 -0.0390625 0.953125 255
6236 1000 -1563 0.76171875 1.009765625 0.953125 -0.03125 -0.2578125 255
6232 873 -1559 0.875 0.017578125 0.953125 -0.03125 -0.2578125 255
6229 873 -1570 0.43359375 0.017578125 0.953125 -0.03125 -0.2578125 255
6229 1004 -1562 0.75 1.03515625 0.2109375 0.5625 -0.78125 255
6236 1000 -1563 0.76171875 1.009765625 0.2109375 0.5625 -0.78125 255
6225 1000 -1566 0.541015625 0.9921875 0.2109375 0.5625 -0.78125 255
6229 873 -1570 0.43359375 0.017578125 0.2578125 0.03125 -0.953125 255
6225 1000 -1566 0.541015625 0.9921875 0.2578125 0.03125 -0.953125 255
6236 1000 -1563 0.76171875 1.009765625 0.2578125 0.03125 -0.953125 255
6260 907 -1591 0.982421875 0.8515625 0.0 -0.9921875 0.0 255
6267 907 -1584 0.607421875 0.8515625 0.0 -0.9921875 0.0 255
6205 907 -1524 0.607421875 0.009765625 0.0 -0.9921875 0.0 255
6225 1000 -1566 0.205078125 1.001953125 -0.6953125 0.0 -0.6953125 255
6229 873 -1570 0.015625 0.009765625 -0.6953125 0.0 -0.6953125 255
6221 873 -1562 0.42578125 0.009765625 -0.6953125 0.0 -0.6953125 255
6232 873 -1559 0.205078125 0.015625 0.65625 0.0 0.734375 255
6236 1000 -1563 0.42578125 0.9921875 0.65625 0.0 0.734375 255
6227 1000 -1555 0.015625 0.9921875 0.65625 0.0 0.734375 255
6229 1004 -1562 0.205078125 1.033203125 0.46875 0.6875 0.5234375 255
6227 1000 -1555 0.015625 0.9921875 0.46875 0.6875 0.5234375 255
6236 1000 -1563 0.42578125 0.9921875 0.46875 0.6875 0.5234375 255
6198 993 -1531 0.982421875 0.009765625 0.0 0.9921875 0.0 255
6205 993 -1524 0.607421875 0.009765625 0.0 0.9921875 0.0 255
6267 993 -1584 0.607421875 0.8515625 0.0 0.9921875 0.0 255
6260 993 -1591 0.982421875 0.8515625 0.0 0.9921875 0.0 255
6198 907 -1531 0.982421875 0.009765625 0.0 -0.9921875 0.0 255
6260 907 -1591 1.85546875 0.9921875 -0.6875 0.0 -0.7109375 255
6198 993 -1531 0.015625 0.166015625 -0.6875 0.0 -0.7109375 255
6260 993 -1591 0.015625 0.9921875 -0.6875 0.0 -0.7109375 255
6198 907 -1531 1.85546875 0.166015625 -0.6875 0.0 -0.7109375 255
6267 907 -1584 0.359375 0.009765625 0.6953125 0.0 -0.6953125 255
6260 907 -1591 0.015625 0.009765625 0.6953125 0.0 -0.6953125 255
6260 993 -1591 0.015625 0.9453125 0.6953125 0.0 -0.6953125 255
6267 993 -1584 0.359375 0.9453125 0.6953125 0.0 -0.6953125 255
6198 907 -1531 0.015625 0.009765625 -0.6953125 0.0 0.6953125 255
6205 907 -1524 0.359375 0.009765625 -0.6953125 0.0 0.6953125 255
6205 993 -1524 0.359375 0.9453125 -0.6953125 0.0 0.6953125 255
6198 993 -1531 0.015625 0.9453125 -0.6953125 0.0 0.6953125 255
3 0 1 2
3 3 4 5
3 6 7 8
3 9 10 11
3 12 13 14
3 15 16 17
3 18 19 20
3 21 22 23
3 24 25 26
3 27 28 29
3 30 31 32
3 30 33 31
3 34 35 36
3 34 36 37
3 24 38 25
3 39 40 41
3 42 43 44
3 45 46 47
3 48 49 50
3 48 50 51
3 52 53 54
3 55 56 57
3 58 59 60
3 61 62 63
3 64 65 66
3 67 68 69
3 70 71 72
3 73 74 75
3 76 77 78
3 79 80 81
3 82 83 84
3 85 86 87
3 85 87 88
3 89 90 91
3 92 93 94
3 95 96 97
3 98 99 100
3 101 102 103
3 101 103 104
3 105 106 107
3 108 109 110
3 111 112 113
3 114 115 116
3 117 118 119
3 120 121 122
3 123 124 125
3 126 127 128
3 129 130 131
3 132 133 134
3 132 135 133
3 136 137 138
3 136 139 137
3 140 141 142
3 123 143 124
3 144 145 146
3 144 146 147
3 148 149 150
3 148 150 151
3 140 152 141
3 153 154 155
3 156 157 158
3 156 158 159
3 160 161 162
3 160 163 161
3 164 165 166
3 164 167 165
3 153 155 168
3 169 170 171
3 172 173 174
3 175 176 177
3 178 179 180
3 181 182 183
3 184 185 186
3 187 188 189
3 190 191 192
3 193 194 195
3 196 197 198
3 199 200 201
3 202 203 204
3 205 206 207
3 208 209 210
3 211 212 213
3 214 215 216
3 217 218 219
3 220 221 222
3 223 224 225
3 226 227 228
3 226 228 229
3 214 216 230
3 231 232 233
3 231 234 232
3 235 236 237
3 235 237 238
3 239 240 241
3 239 241 242
