ply
format ascii 1.0
element vertex 68
property short x
property short y
property short z
property float s
property float t
property uchar red
property uchar green
property uchar blue
property uchar alpha
element face 34
property list uchar uint vertex_indices
end_header
-3890 768 2867 0.982421875 0.017578125 255 255 255 180
-4300 768 2867 0.982421875 0.984375 255 255 255 180
-4300 768 3277 0.015625 0.984375 255 255 255 180
4485 963 3846 0.982421875 0.017578125 255 255 255 180
3930 891 3698 0.015625 0.984375 255 255 255 180
4132 941 4051 0.015625 0.017578125 255 255 255 180
4284 912 3493 0.982421875 0.984375 255 255 255 180
3165 768 5778 0.982421875 0.017578125 255 255 255 180
2657 768 6056 0.015625 0.984375 255 255 255 180
3050 768 6171 0.015625 0.017578125 255 255 255 180
2772 768 5663 0.982421875 0.984375 255 255 255 180
-4001 0 4882 0.982421875 0.017578125 255 255 255 180
-4153 0 4501 0.982421875 0.984375 255 255 255 180
-4534 0 4653 0.015625 0.984375 255 255 255 180
-4382 0 5034 0.015625 0.017578125 255 255 255 180
-5761 1024 -4942 0.982421875 0.984375 255 255 255 180
-5822 1024 -4366 0.015625 0.017578125 255 255 255 180
-5504 1024 -4624 0.982421875 0.017578125 255 255 255 180
-3890 768 3277 0.015625 0.017578125 255 255 255 180
-4914 768 1843 0.982421875 0.017578125 255 255 255 180
-5324 768 2253 0.015625 0.984375 255 255 255 180
-4914 768 2253 0.015625 0.017578125 255 255 255 180
-5324 768 1843 0.982421875 0.984375 255 255 255 180
5729 891 5972 0.982421875 0.017578125 255 255 255 180
5160 835 6061 0.015625 0.984375 255 255 255 180
5494 804 6296 0.015625 0.017578125 255 255 255 180
5395 922 5737 0.982421875 0.984375 255 255 255 180
-6080 1024 -4685 0.015625 0.984375 255 255 255 180
-3890 768 1331 0.982421875 0.984375 255 255 255 180
-4300 768 1331 0.015625 0.984375 255 255 255 180
-4300 768 1741 0.015625 0.017578125 255 255 255 180
-5857 821 -6563 0.982421875 0.017578125 255 255 255 180
-6199 861 -6786 0.982421875 0.984375 255 255 255 180
-6403 979 -6450 0.015625 0.984375 255 255 255 180
-6061 939 -6228 0.015625 0.017578125 255 255 255 180
-6677 1024 -5127 0.982421875 0.984375 255 255 255 180
-7065 1024 -4993 0.015625 0.984375 255 255 255 180
-6931 1024 -4606 0.015625 0.017578125 255 255 255 180
-6543 1024 -4740 0.982421875 0.017578125 255 255 255 180
6261 2213 -7837 0.982421875 0.984375 255 255 255 180
5856 2251 -7882 0.015625 0.984375 255 255 255 180
5804 2175 -7483 0.015625 0.017578125 255 255 255 180
6210 2137 -7438 0.982421875 0.017578125 255 255 255 180
-5967 1024 -635 0.982421875 0.984375 255 255 255 180
-6377 1024 -635 0.015625 0.984375 255 255 255 180
-6377 1024 -225 0.015625 0.017578125 255 255 255 180
-3890 768 1741 0.982421875 0.017578125 255 255 255 180
-6450 768 3379 0.982421875 0.984375 255 255 255 180
-6860 768 3379 0.015625 0.984375 255 255 255 180
-6860 768 3789 0.015625 0.017578125 255 255 255 180
-6450 768 3789 0.982421875 0.017578125 255 255 255 180
-3378 768 2355 0.982421875 0.984375 255 255 255 180
-3788 768 2765 0.015625 0.017578125 255 255 255 180
-3378 768 2765 0.982421875 0.017578125 255 255 255 180
-3788 768 2355 0.015625 0.984375 255 255 255 180
-5967 1024 -225 0.982421875 0.017578125 255 255 255 180
7040 1998 -5748 0.982421875 0.984375 255 255 255 180
6559 2018 -5426 0.015625 0.017578125 255 255 255 180
6960 1988 -5347 0.982421875 0.017578125 255 255 255 180
6639 2028 -5827 0.015625 0.984375 255 255 255 180
4301 3072 1434 0.982421875 0.984375 255 255 255 180
3891 3072 1434 0.015625 0.984375 255 255 255 180
3891 3072 1843 0.015625 0.017578125 255 255 255 180
4301 3072 1843 0.982421875 0.017578125 255 255 255 180
-1497 39 4825 0.015625 0.017578125 255 255 255 180
-1797 163 5074 0.982421875 0.017578125 255 255 255 180
-1220 125 5114 0.015625 0.984375 255 255 255 180
-1520 250 5364 0.982421875 0.984375 255 255 255 180
3 0 1 2
3 3 4 5
3 3 6 4
3 7 8 9
3 7 10 8
3 11 12 13
3 11 13 14
3 15 16 17
3 0 2 18
3 19 20 21
3 19 22 20
3 23 24 25
3 23 26 24
3 15 27 16
3 28 29 30
3 31 32 33
3 31 33 34
3 35 36 37
3 35 37 38
3 39 40 41
3 39 41 42
3 43 44 45
3 28 30 46
3 47 48 49
3 47 49 50
3 51 52 53
3 51 54 52
3 43 45 55
3 56 57 58
3 56 59 57
3 60 61 62
3 60 62 63
3 64 65 66
3 65 67 66
