ply
format ascii 1.0
element vertex 8
property short x
property short y
property short z
property float s
property float t
property uchar red
property uchar green
property uchar blue
property uchar alpha
element face 4
property list uchar uint vertex_indices
end_header
-993 1690 -2310 22.140625 0.984375 255 255 255 255
-2262 1690 -4824 0.18359375 0.984375 255 255 255 255
-2262 1075 -4824 0.18359375 0.056640625 255 255 255 255
-993 1075 -2310 22.140625 0.056640625 255 255 255 255
-3128 1690 -6537 -10.9921875 0.984375 255 255 255 255
-3128 1075 -6537 -10.9921875 0.056640625 255 255 255 255
-2436 1075 -5167 0.982421875 0.056640625 255 255 255 255
-2436 1690 -5167 0.982421875 0.984375 255 255 255 255
3 0 1 2
3 0 2 3
3 4 5 6
3 7 4 6
