ply
format ascii 1.0
element vertex 40
property short x
property short y
property short z
property float s
property float t
property uchar red
property uchar green
property uchar blue
property uchar alpha
element face 20
property list uchar uint vertex_indices
end_header
-3071 768 1536 5.97265625 0.017578125 255 255 255 255
-3071 1024 3072 0.015625 0.984375 255 255 255 255
-3071 768 3072 0.015625 0.017578125 255 255 255 255
768 870 5847 0.982421875 0.984375 255 255 255 255
1751 768 5335 -10.173828125 0.017578125 255 255 255 255
768 768 5847 0.982421875 0.017578125 255 255 255 255
1751 870 5335 -10.173828125 0.984375 255 255 255 255
1751 870 5335 0.8046875 0.984375 255 255 255 255
2263 768 4864 -6.251953125 0.017578125 255 255 255 255
1751 768 5335 0.8046875 0.017578125 255 255 255 255
2263 870 4864 -6.251953125 0.984375 255 255 255 255
2263 870 4864 3.7265625 0.984375 255 255 255 255
2263 870 4480 0.015625 0.984375 255 255 255 255
2262 768 4480 0.015625 0.017578125 255 255 255 255
2263 768 4864 3.7265625 0.017578125 255 255 255 255
3078 1741 -756 0.982421875 0.017578125 255 255 255 255
3078 1869 -756 0.982421875 0.984375 255 255 255 255
6271 2064 -2677 -22.96875 0.984375 255 255 255 255
-3071 1024 1536 5.97265625 0.984375 255 255 255 255
-4095 1024 4096 0.982421875 0.984375 255 255 255 255
-7167 1024 4096 -10.9921875 0.984375 255 255 255 255
-7167 768 4096 -10.994140625 0.017578125 255 255 255 255
-4095 768 4096 0.98046875 0.017578125 255 255 255 255
-4095 768 4096 0.326171875 0.01171875 255 255 255 255
-3071 768 3072 5.97265625 0.017578125 255 255 255 255
-3071 1024 3072 5.97265625 0.984375 255 255 255 255
-4095 1024 4096 0.326171875 1.0078125 255 255 255 255
6270 1936 -2677 -22.96875 0.017578125 255 255 255 255
6271 2064 -2677 11.6484375 0.984375 255 255 255 255
8093 2064 -5982 -18.11328125 0.984375 255 255 255 255
6270 1936 -2677 11.626953125 0.017578125 255 255 255 255
8093 1936 -5982 -18.13671875 0.017578125 255 255 255 255
-1521 891 2034 -7.998046875 0.984375 255 255 255 255
1288 768 3820 19.0390625 0.017578125 255 255 255 255
1288 891 3820 19.0390625 0.984375 255 255 255 255
-1521 768 2034 -7.998046875 0.017578125 255 255 255 255
768 768 7168 0.982421875 0.017578125 255 255 255 255
768 870 7168 0.982421875 0.984375 255 255 255 255
768 870 5847 -11.890625 0.984375 255 255 255 255
768 768 5847 -11.890625 0.017578125 255 255 255 255
3 0 1 2
3 3 4 5
3 3 6 4
3 7 8 9
3 7 10 8
3 11 12 13
3 14 11 13
3 15 16 17
3 0 18 1
3 19 20 21
3 19 21 22
3 23 24 25
3 23 25 26
3 27 15 17
3 28 29 30
3 29 31 30
3 32 33 34
3 32 35 33
3 36 37 38
3 36 38 39
