ply
format ascii 1.0
element vertex 286
property short x
property short y
property short z
property float s
property float t
property float nx
property float ny
property float nz
property uchar alpha
element face 212
property list uchar uint vertex_indices
end_header
-2815 1024 256 0.982421875 0.984375 -0.1875 0.0 0.96875 255
-3231 960 -159 -1.310546875 0.765625 -0.1953125 0.0 0.96875 255
-3097 768 -24 -0.56640625 0.017578125 -0.6953125 0.0 0.6953125 255
-2815 768 256 0.982421875 0.017578125 0.3125 0.0 0.9375 255
-3231 1024 -159 -1.310546875 0.984375 0.0 0.0 0.984375 255
-3231 768 -159 -1.30859375 0.017578125 -0.703125 0.0 0.6953125 255
-3231 960 -159 0.982421875 0.765625 -0.1953125 0.0 0.96875 255
-3231 1024 -159 0.982421875 0.984375 0.0 0.0 0.984375 255
-3503 1024 111 -0.513671875 0.984375 0.5234375 0.0 0.8359375 255
-3503 960 111 -0.513671875 0.765625 0.265625 0.0 0.953125 255
-7167 768 4096 -3.0078125 0.984375 0.6953125 0.0 0.6953125 255
-7167 0 4096 -3.0078125 0.017578125 0.0 0.0 0.9921875 255
-4095 0 4096 0.982421875 0.017578125 0.328125 0.46875 0.8046875 255
-4095 768 4096 0.982421875 0.984375 0.375 0.0 0.9140625 255
768 768 7680 1.6484375 0.984375 -0.9921875 0.0 0.0 255
768 768 7168 0.982421875 0.984375 -0.9921875 0.0 0.0 255
768 0 7168 0.982421875 0.017578125 -0.9921875 0.0 0.0 255
768 768 5888 -0.6796875 0.984375 -0.9921875 0.0 0.0 255
768 717 5888 -0.6796875 0.94921875 -0.9921875 0.0 0.0 255
768 0 5888 -0.6796875 0.017578125 -0.546875 0.8203125 0.0 255
3776 2560 2227 0.046875 0.54296875 -0.3984375 -0.7421875 0.515625 255
2816 3072 1230 0.982421875 1.513671875 -0.78125 -0.5859375 0.1484375 255
3200 2560 1230 0.607421875 1.513671875 -0.6484375 -0.7421875 -0.0859375 255
4352 2048 1230 -0.51171875 1.515625 0.0 -0.984375 0.0 255
3584 3072 -99 0.234375 2.810546875 -0.390625 -0.59375 -0.6875 255
3776 2560 232 0.046875 2.486328125 -0.3046875 -0.7734375 -0.5234375 255
3584 3072 2560 0.234375 0.21875 -0.2578125 -0.5859375 0.75 255
5120 3072 -99 -1.26171875 2.810546875 0.390625 -0.59375 -0.6875 255
4928 2560 232 -1.07421875 2.486328125 0.3359375 -0.71875 -0.5859375 255
4928 2560 2227 -1.07421875 0.54296875 0.2421875 -0.7421875 0.6015625 255
5504 2560 1230 -1.634765625 1.515625 0.640625 -0.7421875 0.0859375 255
5888 3072 1230 -2.009765625 1.515625 0.78125 -0.5859375 -0.1484375 255
5120 3072 2560 -1.26171875 0.21875 0.515625 -0.5859375 0.6015625 255
-7167 768 4096 -12.98828125 0.017578125 0.6953125 0.0 0.6953125 255
-7167 768 512 0.982421875 0.017578125 0.515625 0.0 0.84375 255
-7167 1024 512 0.982421875 0.984375 0.734375 0.0 0.65625 255
-7167 1024 4096 -12.98828125 0.984375 0.9921875 0.0 0.0 255
-3503 1024 111 15.953125 0.984375 0.5234375 0.0 0.8359375 255
-7167 1024 512 0.015625 0.984375 0.734375 0.0 0.65625 255
-3503 960 111 15.953125 0.765625 0.265625 0.0 0.953125 255
-7167 768 512 0.015625 0.017578125 0.515625 0.0 0.84375 255
-3503 768 111 15.953125 0.017578125 0.1015625 0.0 0.984375 255
2851 1613 -1919 0.400390625 -1.09375 -0.2421875 0.78125 0.546875 255
3072 2945 -2047 0.19140625 1.09765625 -0.546875 0.8125 0.125 255
3072 2894 -2175 0.015625 0.984375 -0.578125 0.796875 -0.0859375 255
3072 2894 -2431 -0.4296875 0.984375 -0.6015625 0.75 0.203125 255
2802 1613 -2653 -0.791015625 -1.107421875 -0.78125 0.4765625 0.3671875 255
3072 2349 -2047 0.19140625 0.14453125 0.1171875 -0.359375 0.9140625 255
3328 2493 -1603 0.9140625 0.4453125 -0.09375 -0.5078125 0.8359375 255
3328 2944 -1603 0.912109375 1.16796875 -0.0859375 0.8203125 0.546875 255
5289 2493 -3327 4.982421875 0.017578125 0.796875 -0.4921875 0.296875 255
5543 2637 -2883 4.994140625 1.0546875 0.796875 -0.4921875 0.296875 255
3328 2493 -1603 0.0 1.0546875 -0.09375 -0.5078125 0.8359375 255
3072 2945 -2559 -0.63671875 1.09765625 -0.2890625 0.2421875 0.9140625 255
3072 3521 -7167 0.982421875 0.453125 -0.78125 -0.453125 -0.3984375 255
3072 3666 -7167 0.982421875 0.984375 -0.1484375 0.9765625 0.078125 255
3072 3666 -7679 0.08203125 0.984375 -0.3828125 0.453125 -0.7890625 255
3072 3521 -7679 0.08203125 0.734375 -0.3203125 -0.828125 -0.421875 255
5289 2493 -3327 0.982421875 0.267578125 0.796875 -0.4921875 0.296875 255
5289 3089 -3327 0.982421875 0.984375 0.2109375 0.953125 -0.15625 255
5543 3089 -2883 -1.01171875 0.984375 0.78125 0.5234375 0.296875 255
5543 2637 -2883 0.015625 0.640625 0.796875 -0.4921875 0.296875 255
3072 2349 -2047 0.015625 0.017578125 0.1171875 -0.359375 0.9140625 255
167 2709 -3757 0.24609375 2.3046875 0.4375 0.8046875 0.3671875 255
54 2762 -3700 0.015625 2.408203125 -0.4765625 0.4375 0.7421875 255
54 1024 -3700 0.015625 -0.978515625 -0.484375 0.3984375 0.7578125 255
3072 3521 -7167 0.638671875 7.0390625 -0.78125 -0.453125 -0.3984375 255
3072 3521 -7679 -0.25 6.923828125 -0.3203125 -0.828125 -0.421875 255
5289 3088 -5887 0.982421875 2.013671875 0.4765625 -0.765625 -0.390625 255
5733 3089 -6143 0.1484375 2.013671875 0.875 -0.4453125 -0.0625 255
5733 3089 -6143 0.982421875 0.017578125 0.875 -0.4453125 -0.0625 255
5732 3233 -6143 0.982421875 0.298828125 0.53125 0.828125 0.0625 255
5289 3233 -5887 0.015625 0.30078125 0.3125 0.7421875 0.5703125 255
5289 3088 -5887 0.015625 0.017578125 0.4765625 -0.765625 -0.390625 255
419 2706 -3884 0.76953125 2.298828125 0.1640625 0.8359375 0.5 255
533 2755 -3942 1.029296875 2.39453125 -0.640625 0.4921875 0.5625 255
169 1024 -3471 1.0703125 -2.37890625 -0.9375 0.2890625 -0.1171875 255
537 2721 -3657 0.248046875 0.919921875 -0.4375 0.65625 -0.59375 255
652 2772 -3715 0.015625 0.984375 -0.8515625 0.453125 0.203125 255
169 2775 -3471 1.037109375 1.033203125 -0.3359375 0.84375 -0.3828125 255
286 2723 -3530 0.775390625 0.9296875 -0.171875 0.7890625 -0.5625 255
2560 2862 -2613 0.72265625 1.65625 0.5 0.84375 0.0859375 255
2560 2864 -2367 0.40234375 1.66015625 0.7265625 0.640625 -0.1953125 255
2560 1613 -2737 0.880859375 0.017578125 0.640625 0.546875 0.515625 255
2560 2912 -2736 0.880859375 1.720703125 -0.125 0.3671875 0.90625 255
2560 1612 -2244 0.015625 0.017578125 0.0390625 0.71875 0.671875 255
2560 2917 -2244 0.2421875 1.728515625 0.328125 0.875 0.328125 255
400 2546 -3014 0.015625 0.392578125 -0.515625 -0.8046875 0.2421875 255
228 2802 -2532 1.232421875 0.984375 -0.5625 0.796875 0.140625 255
400 2802 -3014 0.015625 0.984375 -0.4765625 0.859375 0.0 255
54 1024 -3700 8.126953125 4.15234375 -0.484375 0.3984375 0.7578125 255
652 2772 -3715 7.951171875 2.44921875 -0.8515625 0.453125 0.203125 255
533 2755 -3942 8.228515625 2.46484375 -0.640625 0.4921875 0.5625 255
2560 2917 -2244 0.732421875 0.984375 0.328125 0.875 0.328125 255
2388 2917 -1762 -0.513671875 0.984375 0.203125 0.78125 0.5703125 255
2560 2661 -2244 0.732421875 0.392578125 0.5703125 -0.609375 0.5234375 255
400 2546 -3014 7.421875 2.669921875 -0.515625 -0.8046875 0.2421875 255
2388 2917 -1762 5.1328125 2.306640625 0.203125 0.78125 0.5703125 255
228 2802 -2532 7.15625 2.419921875 -0.5625 0.796875 0.140625 255
2560 2661 -2244 5.064453125 2.556640625 0.5703125 -0.609375 0.5234375 255
400 1024 -3014 7.421875 4.15234375 -0.5390625 0.75 0.3359375 255
2560 1612 -2244 5.064453125 3.578125 0.0390625 0.71875 0.671875 255
2560 2917 -2244 5.064453125 2.306640625 0.328125 0.875 0.328125 255
400 2802 -3014 7.421875 2.419921875 -0.4765625 0.859375 0.0 255
169 1024 -3471 7.89453125 4.15234375 -0.9375 0.2890625 -0.1171875 255
169 2775 -3471 7.89453125 2.4453125 -0.3359375 0.84375 -0.3828125 255
1298 3810 -5631 10.4765625 1.4375 -0.6796875 0.4375 -0.5625 255
1343 3835 -5657 10.541015625 1.412109375 -0.4921875 0.0 -0.8515625 255
1697 3835 -5861 11.1015625 1.412109375 -0.4921875 0.0 -0.859375 255
3072 3666 -6655 13.484375 1.578125 0.015625 0.6015625 -0.78125 255
3072 4294 -6655 13.484375 0.984375 -0.1875 0.0 -0.96875 255
1697 4091 -5861 11.1015625 1.1640625 -0.4921875 0.0 -0.8515625 255
1609 4194 -5810 10.953125 1.0625 -0.4921875 0.0 -0.859375 255
1298 4293 -5631 10.4765625 0.984375 -0.609375 0.171875 -0.7578125 255
4846 3233 -5631 16.46484375 2.0 0.6875 0.59375 -0.3828125 255
2560 1613 -2737 5.212890625 3.578125 0.640625 0.546875 0.515625 255
3072 2945 -2559 4.44921875 2.28125 -0.2890625 0.2421875 0.9140625 255
2560 2912 -2736 5.212890625 2.3125 -0.125 0.3671875 0.90625 255
1298 4293 -3583 7.45703125 0.984375 -0.671875 0.5234375 0.5 255
1431 4194 -5708 10.671875 1.0625 -0.4921875 0.0 -0.859375 255
1343 4091 -5657 10.541015625 1.1640625 -0.4921875 0.0 -0.8515625 255
1298 3954 -3583 7.45703125 1.296875 -0.5234375 0.765625 0.3359375 255
4846 3089 -3583 1.46875 2.140625 0.6953125 0.5078125 0.484375 255
4846 4242 -3583 1.46875 0.984375 0.390625 0.8671875 0.265625 255
3072 4097 -2559 4.44921875 1.15625 -0.0234375 0.71875 0.6796875 255
2802 1613 -2653 4.841796875 3.578125 -0.78125 0.4765625 0.3671875 255
851 3818 -5894 -1.6953125 -0.658203125 -0.2734375 0.5625 -0.765625 255
507 3042 -5697 -2.115234375 0.24609375 -0.4921875 0.0 -0.859375 255
329 3042 -5595 -2.349609375 0.255859375 -0.4921875 0.0 -0.859375 255
868 3954 -3302 7.427734375 1.296875 -0.6015625 0.6171875 0.4765625 255
868 2801 -3302 7.427734375 2.419921875 -0.5390625 0.578125 0.5859375 255
-181 2658 -5302 9.572265625 2.560546875 -0.71875 0.25 -0.625 255
-181 3818 -5302 9.572265625 1.4296875 -0.78125 0.546875 -0.25 255
3072 2513 -7167 1.29296875 0.72265625 -0.0859375 0.4765625 -0.859375 255
596 2939 -5748 -1.994140625 0.359375 -0.4921875 0.0 -0.859375 255
3072 3666 -7167 1.2421875 -0.59765625 -0.1484375 0.9765625 0.078125 255
-181 2658 -5302 -3.0078125 0.72265625 -0.71875 0.25 -0.625 255
596 2683 -5748 -1.982421875 0.65234375 -0.4921875 -0.0078125 -0.859375 255
3072 2513 -7167 13.478515625 2.701171875 -0.0859375 0.4765625 -0.859375 255
5289 3088 -5887 16.462890625 2.140625 0.4765625 -0.765625 -0.390625 255
5289 2080 -5887 16.462890625 3.123046875 0.7734375 0.578125 -0.203125 255
3072 3521 -7167 13.478515625 1.71875 -0.78125 -0.453125 -0.3984375 255
5289 3233 -5887 16.462890625 2.0 0.3125 0.7421875 0.5703125 255
5289 3089 -3327 19.435546875 2.138671875 0.2109375 0.953125 -0.15625 255
5289 1936 -3327 19.435546875 3.263671875 0.6640625 0.5859375 0.4453125 255
5543 3089 -2883 1.716796875 2.138671875 0.78125 0.5234375 0.296875 255
3328 2944 -1603 4.21484375 2.28125 -0.0859375 0.8203125 0.546875 255
3328 2493 -1603 4.21484375 2.720703125 -0.09375 -0.5078125 0.8359375 255
3072 3521 -7679 13.474609375 1.71875 -0.3203125 -0.828125 -0.421875 255
3072 3666 -7679 13.474609375 1.578125 -0.3828125 0.453125 -0.7890625 255
5733 3089 -6143 16.4609375 2.140625 0.875 -0.4453125 -0.0625 255
5732 3233 -6143 16.4609375 2.0 0.53125 0.828125 0.0625 255
5289 2493 -3327 1.470703125 2.720703125 0.796875 -0.4921875 0.296875 255
3072 2349 -2047 4.455078125 2.861328125 0.1171875 -0.359375 0.9140625 255
2851 1613 -1919 4.69140625 3.578125 -0.2421875 0.78125 0.546875 255
5289 1936 -3327 1.470703125 3.263671875 0.6640625 0.5859375 0.4453125 255
3072 2945 -2047 4.455078125 2.28125 -0.546875 0.8125 0.125 255
5543 2637 -2883 1.716796875 2.580078125 0.796875 -0.4921875 0.296875 255
-869 1024 -5528 9.626953125 4.15234375 -0.1796875 0.796875 0.546875 255
54 2762 -3700 8.126953125 2.458984375 -0.4765625 0.4375 0.7421875 255
-869 2657 -5528 9.626953125 2.560546875 -0.171875 0.953125 -0.203125 255
4846 4242 -5631 16.46484375 0.984375 0.59375 0.75 -0.234375 255
4846 3089 -3583 19.43359375 2.140625 0.6953125 0.5078125 0.484375 255
4846 4242 -3583 19.43359375 0.984375 0.390625 0.8671875 0.265625 255
3072 4097 -3071 4.44140625 1.15625 0.0703125 0.3828125 0.90625 255
3072 4293 -3071 4.44140625 0.984375 0.078125 0.7265625 0.6640625 255
4402 4294 -3839 1.46484375 0.984375 0.453125 0.7421875 0.46875 255
4402 4293 -3839 1.46484375 0.984375 0.328125 0.609375 0.703125 255
3072 2513 -7679 13.474609375 2.701171875 -0.0234375 0.984375 0.046875 255
240 2939 -5544 -2.462890625 0.376953125 -0.4921875 0.0 -0.859375 255
240 2683 -5544 -2.451171875 0.671875 -0.4921875 -0.0078125 -0.859375 255
-181 3818 -5302 -3.05859375 -0.60546875 -0.78125 0.546875 -0.25 255
-7167 1024 -7167 -4.30078125 0.984375 -0.15625 0.0 0.9765625 255
-3151 512 -6526 0.982421875 0.349609375 -0.578125 0.296875 0.7421875 255
-3151 1024 -6526 0.982421875 0.984375 -0.578125 0.0 0.796875 255
2079 1368 -1535 3.091796875 1.3515625 -0.1953125 0.96875 0.0 255
-1016 1024 -2299 0.015625 0.984375 -0.59375 0.484375 0.625 255
-1016 0 -2299 0.015625 0.017578125 -0.40625 0.8125 0.375 255
-2458 1024 -5155 0.982421875 0.984375 -0.8828125 0.0 0.4453125 255
-2633 0 -5497 0.404296875 -0.3125 -0.3125 0.859375 0.3671875 255
-2458 0 -5155 0.982421875 -0.3125 -0.6171875 0.6953125 0.3125 255
-3151 512 -6526 -1.01171875 0.349609375 -0.578125 0.296875 0.7421875 255
-3151 1024 -6526 -1.01171875 0.984375 -0.578125 0.0 0.796875 255
-3445 1 -4662 0.40234375 0.017578125 0.7890625 0.4375 -0.390625 255
-3617 1 -5005 0.982421875 0.017578125 0.2578125 0.953125 -0.015625 255
-4132 513 -6035 2.400390625 0.681640625 0.75 0.6328125 -0.0546875 255
-3445 777 -4662 0.40234375 1.025390625 0.8828125 0.0 -0.4375 255
-1791 0 -767 1.384765625 0.017578125 0.71875 0.6328125 0.2421875 255
-2815 1024 256 -1.009765625 1.3203125 -0.1875 0.0 0.96875 255
-2815 0 256 -1.01171875 0.017578125 0.3125 0.8828125 0.3125 255
-2559 0 -2815 0.982421875 -0.978515625 0.390625 0.8828125 -0.1953125 255
-2559 768 -2815 0.982421875 0.017578125 0.8828125 0.0 -0.4375 255
-1872 0 -1441 -1.248046875 -0.978515625 0.765625 0.5546875 -0.28125 255
-1872 768 -1441 -1.248046875 0.017578125 0.9609375 0.0 -0.2265625 255
-1016 0 -2299 0.982421875 0.017578125 -0.40625 0.8125 0.375 255
-1535 1024 -3327 -0.138671875 0.984375 -0.8828125 0.0 0.4453125 255
-1535 0 -3327 -0.138671875 0.017578125 -0.625 0.6953125 0.3125 255
-1016 1024 -2299 0.982421875 0.984375 -0.59375 0.484375 0.625 255
-1791 0 -767 0.31640625 0.017578125 0.71875 0.6328125 0.2421875 255
-1872 0 -1441 0.982421875 0.017578125 0.765625 0.5546875 -0.28125 255
-1872 768 -1441 0.982421875 0.984375 0.9609375 0.0 -0.2265625 255
-1791 973 -767 0.31640625 1.28125 0.9375 0.0 0.3203125 255
1434 0 4864 1.380859375 0.765625 0.0 0.9921875 0.0 255
-921 0 5377 -0.912109375 0.265625 0.59375 0.7890625 0.0 255
768 0 5376 0.732421875 0.267578125 -0.5390625 0.75 -0.3359375 255
-1791 973 -767 1.384765625 1.28125 0.9375 0.0 0.3203125 255
-2815 1024 256 -1.013671875 1.375 -0.1875 0.0 0.96875 255
768 717 5376 1.1484375 0.94921875 -0.71875 0.0 -0.6796875 255
768 768 5376 1.1484375 0.984375 -0.4375 0.0 -0.8828125 255
1792 768 4864 -0.337890625 0.984375 -0.7734375 0.0 -0.6171875 255
768 0 5376 1.1484375 0.017578125 -0.5390625 0.75 -0.3359375 255
1792 0 4864 -0.337890625 0.017578125 -0.7265625 0.5 -0.4453125 255
1434 0 4352 1.380859375 1.265625 0.0 0.9921875 0.0 255
1792 0 4864 1.73046875 0.765625 -0.7265625 0.5 -0.4453125 255
768 0 5888 0.732421875 -0.23046875 -0.546875 0.8203125 0.0 255
-921 0 5888 -0.912109375 -0.23046875 0.546875 0.8203125 0.0 255
-383 0 6400 -0.388671875 -0.728515625 0.0 0.9921875 0.0 255
-3071 0 3072 -3.0078125 2.513671875 0.46875 0.859375 0.1171875 255
-4095 0 4096 -4.005859375 1.515625 0.328125 0.46875 0.8046875 255
-921 0 4865 -0.912109375 0.765625 0.4375 0.8828125 0.0 255
256 0 6400 0.234375 -0.728515625 0.0 0.9921875 0.0 255
-3071 768 512 2.978515625 0.68359375 0.953125 0.0 0.25 255
-3071 768 3072 -1.01171875 0.68359375 0.8515625 0.0 0.5 255
-3071 0 3072 -1.01171875 0.017578125 0.46875 0.859375 0.1171875 255
-1791 0 1792 -1.759765625 3.759765625 -0.328125 0.9296875 0.0 255
-3071 0 512 -3.0078125 5.0078125 0.6953125 0.5703125 0.40625 255
-1535 0 2048 -1.51171875 3.51171875 -0.546875 0.4453125 0.6875 255
1280 0 3840 1.232421875 1.763671875 -0.453125 0.703125 0.5234375 255
-921 256 5888 0.015625 1.009765625 0.9921875 0.0 0.0 255
-921 0 6400 -2.0078125 0.009765625 0.9921875 0.0 0.0 255
-921 0 5888 -0.013671875 0.013671875 0.546875 0.8203125 0.0 255
-921 0 4865 3.9765625 0.0234375 0.4375 0.8828125 0.0 255
-921 256 5375 1.982421875 0.984375 0.9921875 0.0 0.0 255
-921 0 5377 1.98046875 0.017578125 0.59375 0.7890625 0.0 255
-3071 0 512 2.978515625 0.017578125 0.6953125 0.5703125 0.40625 255
1792 0 4352 1.73046875 1.265625 -0.8984375 0.328125 0.234375 255
-4095 0 4096 0.09765625 0.017578125 0.328125 0.46875 0.8046875 255
-3071 768 3072 1.98046875 0.68359375 0.8515625 0.0 0.5 255
-4095 768 4096 0.09765625 0.68359375 0.375 0.0 0.9140625 255
-3071 0 3072 1.98046875 0.017578125 0.46875 0.859375 0.1171875 255
-1791 768 1792 -4.740234375 0.984375 -0.984375 0.0 0.0 255
-1791 0 1792 -4.740234375 0.017578125 -0.328125 0.9296875 0.0 255
-1535 0 2048 -4.275390625 0.017578125 -0.546875 0.4453125 0.6875 255
1280 0 3840 0.0546875 0.017578125 -0.453125 0.703125 0.5234375 255
1280 768 3840 0.0546875 0.984375 -0.5859375 0.0 0.7890625 255
-1535 768 2048 -4.275390625 0.984375 -0.6171875 0.0 0.7734375 255
1792 768 4352 0.982421875 0.984375 -0.8515625 0.0 0.5 255
1792 0 4352 0.015625 0.017578125 -0.8984375 0.328125 0.234375 255
1792 0 4864 0.650390625 0.017578125 -0.7265625 0.5 -0.4453125 255
1792 768 4864 0.650390625 0.984375 -0.7734375 0.0 -0.6171875 255
1792 0 4352 0.982421875 0.017578125 -0.8984375 0.328125 0.234375 255
1792 768 4352 0.015625 0.984375 -0.8515625 0.0 0.5 255
-1535 0 1536 -1.51171875 4.009765625 -0.4921875 0.6953125 -0.4921875 255
-767 0 -767 -0.76171875 6.255859375 0.0 0.9921875 0.0 255
-2815 0 256 -2.7578125 5.2578125 0.3125 0.8828125 0.3125 255
-1791 0 -767 -1.759765625 6.255859375 0.71875 0.6328125 0.2421875 255
-1016 0 -2299 -1.00390625 7.748046875 -0.40625 0.8125 0.375 255
-1872 0 -1441 -1.83984375 6.912109375 0.765625 0.5546875 -0.28125 255
-1535 0 -3327 -1.51171875 8.75 -0.625 0.6953125 0.3125 255
-2559 0 -2815 -2.509765625 8.251953125 0.390625 0.8828125 -0.1953125 255
-4132 513 -6035 -4.0703125 11.375 0.75 0.6328125 -0.0546875 255
-3617 1 -5005 -3.580078125 10.431640625 0.2578125 0.953125 -0.015625 255
-2633 0 -5497 -2.607421875 10.919921875 -0.3125 0.859375 0.3671875 255
-2679 0 -5045 -2.625 10.423828125 0.0 0.984375 0.0 255
-3251 0 -4759 -3.18359375 10.146484375 0.0 0.984375 0.0 255
-3151 512 -6526 -3.0859375 11.869140625 -0.578125 0.296875 0.7421875 255
-3445 1 -4662 -3.373046875 10.05078125 0.7890625 0.4375 -0.390625 255
-2458 0 -5155 -2.41015625 10.53125 -0.6171875 0.6953125 0.3125 255
-2096 922 -4764 -0.76171875 -0.38671875 0.453125 0.8671875 0.15625 255
-2240 1024 -4835 -0.845703125 -0.478515625 0.5859375 0.796875 -0.03125 255
-942 922 -2479 0.8984375 -0.38671875 0.046875 0.859375 -0.484375 255
-970 1024 -2322 0.982421875 -0.48046875 0.203125 0.828125 -0.5 255
-869 1024 -5528 -0.845703125 0.984375 -0.1796875 0.796875 0.546875 255
-1552 717 -4752 -0.595703125 0.080078125 0.2265625 0.9296875 0.25 255
-1210 717 -4925 -0.595703125 0.455078125 0.0546875 0.953125 0.265625 255
-1867 819 -4737 -0.6796875 -0.19921875 0.3515625 0.921875 0.0625 255
-828 819 -2680 0.81640625 -0.19921875 0.1484375 0.921875 -0.328125 255
-286 717 -3097 0.732421875 0.455078125 -0.2421875 0.9453125 -0.171875 255
-629 717 -2924 0.732421875 0.080078125 0.0 0.953125 -0.25 255
28 819 -3113 0.81640625 0.734375 -0.359375 0.9140625 -0.109375 255
257 922 -3085 0.8984375 0.921875 -0.5390625 0.828125 0.0078125 255
400 1024 -3014 0.982421875 0.984375 -0.5390625 0.75 0.3359375 255
-1010 819 -5170 -0.6796875 0.734375 -0.09375 0.921875 0.34375 255
-897 922 -5370 -0.76171875 0.921875 -0.3984375 0.8359375 0.34375 255
54 1024 -3700 0.482421875 0.984375 -0.484375 0.3984375 0.7578125 255
169 1024 -3471 0.650390625 0.984375 -0.9375 0.2890625 -0.1171875 255
3 0 1 2
3 3 0 2
3 0 4 1
3 1 5 2
3 6 7 8
3 6 8 9
3 10 11 12
3 12 13 10
3 14 15 16
3 15 17 16
3 18 19 16
3 16 17 18
3 20 21 22
3 23 20 22
3 22 21 24
3 22 24 25
3 23 22 25
3 20 26 21
3 24 27 28
3 25 24 28
3 23 25 28
3 23 29 20
3 23 28 30
3 23 30 29
3 28 27 31
3 28 31 30
3 30 31 32
3 30 32 29
3 29 32 26
3 29 26 20
3 33 34 35
3 35 36 33
3 37 38 39
3 38 40 39
3 40 41 39
3 42 43 44
3 42 44 45
3 42 45 46
3 43 47 48
3 49 43 48
3 50 51 52
3 45 53 46
3 54 55 56
3 54 56 57
3 58 59 60
3 58 60 61
3 50 52 62
3 63 64 65
3 66 67 68
3 67 69 68
3 70 71 72
3 73 70 72
3 74 63 65
3 74 65 75
3 76 77 78
3 76 79 80
3 76 80 77
3 81 82 83
3 81 83 84
3 82 85 83
3 82 86 85
3 87 88 89
3 90 91 92
3 93 94 95
3 96 97 98
3 96 99 97
3 100 101 102
3 100 102 103
3 90 104 91
3 104 103 105
3 104 100 103
3 106 107 108
3 106 108 109
3 109 108 110
3 108 111 110
3 111 112 110
3 112 113 110
3 109 110 114
3 113 107 106
3 115 116 117
3 118 113 106
3 113 119 120
3 113 112 119
3 113 120 107
3 121 118 106
3 122 123 124
3 122 124 116
3 115 125 116
3 126 127 128
3 116 124 117
3 124 129 117
3 129 130 117
3 130 129 91
3 131 129 132
3 129 92 91
3 129 131 92
3 126 133 134
3 126 135 133
3 136 137 133
3 137 134 133
3 138 139 140
3 138 141 139
3 140 142 143
3 140 143 144
3 145 146 147
3 148 149 150
3 149 151 150
3 152 153 154
3 155 152 154
3 154 153 156
3 157 145 147
3 158 159 160
3 110 161 114
3 114 161 162
3 161 163 162
3 164 165 118
3 165 164 166
3 164 167 166
3 164 118 121
3 158 90 159
3 168 158 160
3 136 126 128
3 126 134 127
3 169 170 136
3 169 136 128
3 136 170 137
3 126 136 171
3 172 173 174
3 175 176 177
3 178 179 180
3 178 181 179
3 178 182 181
3 183 184 185
3 183 185 186
3 187 188 189
3 190 191 192
3 191 193 192
3 194 195 196
3 194 197 195
3 198 199 200
3 198 200 201
3 202 203 204
3 187 205 206
3 207 208 209
3 210 207 209
3 211 210 209
3 202 212 203
3 204 213 202
3 214 215 216
3 212 217 218
3 212 219 203
3 219 212 218
3 214 216 220
3 221 222 223
3 224 225 217
3 226 224 217
3 227 226 217
3 228 229 230
3 231 232 233
3 221 223 234
3 235 227 212
3 236 237 238
3 236 239 237
3 240 241 242
3 242 243 244
3 242 244 245
3 244 243 246
3 247 248 249
3 227 217 212
3 243 250 246
3 251 247 249
3 242 245 240
3 252 253 254
3 254 253 255
3 253 256 255
3 256 257 255
3 258 259 256
3 256 259 257
3 260 261 262
3 261 263 262
3 261 264 263
3 265 260 262
3 261 266 264
3 263 267 262
3 268 269 270
3 269 271 270
3 272 269 268
3 272 273 274
3 275 268 270
3 275 270 276
3 270 277 278
3 270 278 276
3 270 279 277
3 270 280 279
3 270 281 280
3 270 271 281
3 272 268 275
3 275 276 278
3 273 275 278
3 272 275 273
3 274 278 277
3 274 273 278
3 282 274 277
3 272 274 282
3 282 277 279
3 272 282 283
3 283 282 279
3 283 279 280
3 284 272 283
3 284 283 280
3 285 284 280
3 285 280 281
