ply
format ascii 1.0
element vertex 28
property short x
property short y
property short z
property float s
property float t
property float nx
property float ny
property float nz
property uchar alpha
element face 14
property list uchar uint vertex_indices
end_header
768 717 5888 -0.6796875 0.94921875 -0.9921875 0.0 0.0 255
768 717 5376 -1.34375 0.94921875 -0.71875 0.0 -0.6796875 255
768 0 5376 -1.34375 0.017578125 -0.5390625 0.75 -0.3359375 255
-3071 0 512 0.015625 0.017578125 0.6953125 0.5703125 0.40625 255
-2815 0 256 0.455078125 0.017578125 0.3125 0.8828125 0.3125 255
-2815 768 256 0.455078125 0.669921875 0.3125 0.0 0.9375 255
-3071 768 512 -0.013671875 0.65625 0.953125 0.0 0.25 255
-921 0 5888 -0.912109375 -0.23046875 0.546875 0.8203125 0.0 255
768 0 5376 0.732421875 0.267578125 -0.5390625 0.75 -0.3359375 255
-921 0 5377 -0.912109375 0.265625 0.59375 0.7890625 0.0 255
768 0 5888 0.732421875 -0.23046875 -0.546875 0.8203125 0.0 255
-921 0 5377 1.98046875 0.017578125 0.59375 0.7890625 0.0 255
-921 205 5888 0.015625 0.810546875 0.9921875 0.0 0.0 255
-921 0 5888 -0.013671875 0.013671875 0.546875 0.8203125 0.0 255
-921 205 5376 1.98046875 0.81640625 0.9921875 0.0 0.0 255
-1764 0 -3213 -1.734375 8.638671875 0.0 0.9921875 0.0 255
-2679 0 -5045 -2.625 10.423828125 0.0 0.984375 0.0 255
-3251 0 -4759 -3.18359375 10.146484375 0.0 0.984375 0.0 255
768 0 5888 -0.6796875 0.017578125 -0.546875 0.8203125 0.0 255
-1791 768 1792 0.455078125 0.984375 -0.984375 0.0 0.0 255
-1535 0 1536 0.015625 0.083984375 -0.4921875 0.6953125 -0.4921875 255
-1791 0 1792 0.455078125 0.083984375 -0.328125 0.9296875 0.0 255
-1535 768 1536 0.015625 0.984375 -0.6953125 0.0 -0.6953125 255
-1791 0 1792 -1.759765625 3.759765625 -0.328125 0.9296875 0.0 255
-2815 0 256 -2.7578125 5.2578125 0.3125 0.8828125 0.3125 255
-3071 0 512 -3.0078125 5.0078125 0.6953125 0.5703125 0.40625 255
-1535 0 1536 -1.51171875 4.009765625 -0.4921875 0.6953125 -0.4921875 255
-2336 0 -2926 -2.291015625 8.359375 0.0 0.9921875 0.0 255
3 0 1 2
3 3 4 5
3 3 5 6
3 7 8 9
3 7 10 8
3 11 12 13
3 11 14 12
3 15 16 17
3 0 2 18
3 19 20 21
3 19 22 20
3 23 24 25
3 23 26 24
3 15 17 27
