ply
format ascii 1.0
element vertex 40
property short x
property short y
property short z
property float s
property float t
property float nx
property float ny
property float nz
property uchar alpha
element face 29
property list uchar uint vertex_indices
end_header
2851 1613 -1919 0.623046875 -0.853515625 -0.2421875 0.78125 0.546875 255
2802 1613 -2653 0.54296875 0.3359375 -0.78125 0.4765625 0.3671875 255
2560 1613 -2737 0.150390625 0.47265625 0.640625 0.546875 0.515625 255
2560 1612 -2244 0.150390625 -0.326171875 0.0390625 0.71875 0.671875 255
2874 1576 -1794 0.66015625 -1.056640625 -0.3203125 0.921875 0.140625 255
400 1024 -3014 -3.35546875 0.923828125 -0.5390625 0.75 0.3359375 255
2488 1369 -2138 0.033203125 -0.498046875 -0.453125 0.8203125 0.296875 255
4147 3072 -2559 2.728515625 0.18359375 -0.140625 0.96875 -0.140625 255
5289 3089 -3327 4.583984375 1.431640625 0.2109375 0.953125 -0.15625 255
3072 2945 -2047 0.982421875 -0.646484375 -0.546875 0.8125 0.125 255
228 2802 -2532 0.35546875 -4.84765625 -0.5625 0.796875 0.140625 255
1328 2918 -2520 2.142578125 -4.8671875 -0.0234375 0.984375 -0.109375 255
400 2802 -3014 0.634765625 -4.064453125 -0.4765625 0.859375 0.0 255
1260 2918 -2327 2.03125 -5.1796875 -0.09375 0.9765625 0.1015625 255
4352 3072 -2354 7.0546875 -5.13671875 0.0234375 0.9765625 0.1328125 255
4147 3072 -2354 6.720703125 -5.13671875 -0.0703125 0.984375 0.0703125 255
3328 2944 -1603 5.390625 -6.357421875 -0.0859375 0.8203125 0.546875 255
2388 2917 -1762 3.86328125 -6.099609375 0.203125 0.78125 0.5703125 255
1452 2918 -2259 2.34375 -5.29296875 0.0 0.984375 0.0 255
2560 2917 -2244 4.142578125 -5.31640625 0.328125 0.875 0.328125 255
1521 2918 -2452 2.455078125 -4.978515625 0.0 0.984375 0.0 255
4147 3072 -2559 6.720703125 -4.8046875 -0.140625 0.96875 -0.140625 255
3072 2945 -2047 4.974609375 -5.63671875 -0.546875 0.8125 0.125 255
3072 4293 -6655 4.974609375 1.84765625 0.0078125 0.984375 -0.0078125 255
4402 4294 -5375 7.134765625 -0.23046875 0.171875 0.96875 0.0 255
4846 4242 -5631 7.85546875 0.18359375 0.59375 0.75 -0.234375 255
4352 3072 -2559 7.0546875 -4.8046875 -0.0078125 0.984375 0.0078125 255
5289 3089 -3327 8.576171875 -3.556640625 0.2109375 0.953125 -0.15625 255
5543 3089 -2883 8.98828125 -4.279296875 0.78125 0.5234375 0.296875 255
1298 4293 -5631 2.09375 0.18359375 -0.609375 0.171875 -0.7578125 255
1298 4293 -3583 2.09375 -3.140625 -0.671875 0.5234375 0.5 255
3072 4293 -3071 4.974609375 -3.97265625 0.078125 0.7265625 0.6640625 255
4402 4294 -3839 7.134765625 -2.724609375 0.453125 0.7421875 0.46875 255
5732 3233 -6143 9.296875 0.984375 0.53125 0.828125 0.0625 255
3072 3666 -7679 4.974609375 3.509765625 -0.3828125 0.453125 -0.7890625 255
3072 3666 -7167 4.974609375 2.6796875 -0.1484375 0.9765625 0.078125 255
868 3954 -3302 1.39453125 -3.59765625 -0.6015625 0.6171875 0.4765625 255
851 3818 -5894 1.3671875 0.611328125 -0.2734375 0.5625 -0.765625 255
-181 3818 -5302 -0.30859375 -0.34765625 -0.78125 0.546875 -0.25 255
5289 3233 -5887 8.576171875 0.599609375 0.3125 0.7421875 0.5703125 255
3 0 1 2
3 2 3 0
3 0 3 4
3 5 6 3
3 3 6 4
3 7 8 9
3 10 11 12
3 10 13 11
3 14 15 16
3 13 10 17
3 18 13 17
3 19 12 11
3 20 19 11
3 20 17 19
3 20 18 17
3 15 21 22
3 16 15 22
3 23 24 25
3 21 26 27
3 27 26 14
3 28 27 14
3 28 14 16
3 23 29 30
3 23 31 32
3 23 30 31
3 23 32 24
3 33 34 35
3 36 37 38
3 39 33 35
