ply
format ascii 1.0
element vertex 131
property short x
property short y
property short z
property float s
property float t
property float nx
property float ny
property float nz
property uchar alpha
element face 87
property list uchar uint vertex_indices
end_header
6131 1885 -2767 0.73828125 6.865234375 -0.1640625 0.96875 -0.0859375 255
3037 1669 -904 0.734375 -0.1875 -0.1484375 0.953125 -0.203125 255
3060 1741 -780 0.982421875 -0.265625 -0.15625 0.8828125 -0.4140625 255
3072 2513 -7167 0.015625 0.017578125 -0.0859375 0.4765625 -0.859375 255
3072 2462 -7295 0.19921875 -0.107421875 0.09375 0.9765625 -0.109375 255
-353 2606 -5359 0.244140625 7.56640625 -0.125 0.9765625 -0.0859375 255
-181 2658 -5302 0.015625 7.333984375 -0.71875 0.25 -0.625 255
3072 2462 -7551 0.767578125 0.134765625 0.0625 0.96875 0.1953125 255
3072 2513 -7679 0.982421875 0.017578125 -0.0234375 0.984375 0.046875 255
-697 2606 -5472 0.728515625 8.53125 0.1328125 0.9765625 0.0390625 255
-353 2606 -5359 0.21484375 8.046875 -0.125 0.9765625 -0.0859375 255
3072 2462 -7295 0.330078125 0.373046875 0.09375 0.9765625 -0.109375 255
-869 2657 -5528 0.982421875 8.775390625 -0.171875 0.953125 -0.203125 255
167 2709 -3757 0.748046875 3.005859375 0.4375 0.8046875 0.3671875 255
-697 2606 -5472 0.720703125 -0.740234375 0.1328125 0.9765625 0.0390625 255
-869 2657 -5528 0.974609375 -0.986328125 -0.171875 0.953125 -0.203125 255
2079 1368 -1535 0.982421875 0.03125 -0.1953125 0.96875 0.0 255
3060 1741 -780 0.982421875 1.513671875 -0.15625 0.8828125 -0.4140625 255
3037 1669 -904 0.88671875 1.388671875 -0.1484375 0.953125 -0.203125 255
2874 1576 -1794 0.189453125 0.619140625 -0.3203125 0.921875 0.140625 255
-353 2606 -5359 0.2265625 -0.236328125 -0.125 0.9765625 -0.0859375 255
533 2755 -3942 -0.029296875 3.01953125 -0.640625 0.4921875 0.5625 255
-181 2658 -5302 0.015625 0.017578125 -0.71875 0.25 -0.625 255
419 2706 -3884 0.21484375 3.01171875 0.1640625 0.8359375 0.5 255
517 2750 -3086 0.740234375 3.189453125 0.09375 0.96875 -0.1640625 255
169 2775 -3471 1.0078125 2.216796875 -0.3359375 0.84375 -0.3828125 255
400 2802 -3014 1.009765625 3.21484375 -0.4765625 0.859375 0.0 255
54 2762 -3700 1.013671875 3.009765625 -0.4765625 0.4375 0.7421875 255
751 2750 -3230 0.205078125 3.14453125 -0.1640625 0.96875 0.109375 255
868 2801 -3302 -0.056640625 3.12890625 -0.5390625 0.578125 0.5859375 255
652 2772 -3715 -0.04296875 2.216796875 -0.8515625 0.453125 0.203125 255
537 2721 -3657 0.21484375 2.212890625 -0.4375 0.65625 -0.59375 255
286 2723 -3530 0.740234375 2.2109375 -0.171875 0.7890625 -0.5625 255
4956 3038 -3519 0.2421875 5.15625 0.140625 0.96875 0.109375 255
4846 3089 -3583 0.015625 5.0078125 0.6953125 0.5078125 0.484375 255
3072 2894 -2431 0.2421875 0.1015625 -0.6015625 0.75 0.203125 255
4402 4294 -3839 0.015625 0.017578125 0.453125 0.7421875 0.46875 255
4513 4190 -3775 0.23828125 -0.126953125 0.171875 0.9609375 0.1640625 255
4402 4294 -5375 0.015625 3.541015625 0.171875 0.96875 0.0 255
4735 4190 -3647 0.74609375 -0.419921875 -0.1484375 0.96875 -0.078125 255
4846 4242 -5631 1.001953125 4.126953125 0.59375 0.75 -0.234375 255
4846 4242 -3583 1.001953125 -0.568359375 0.390625 0.8671875 0.265625 255
2079 1368 -1535 0.982421875 2.64453125 -0.1953125 0.96875 0.0 255
400 1024 -3014 -0.03125 0.685546875 -0.5390625 0.75 0.3359375 255
-1016 1024 -2299 0.982421875 -0.48046875 -0.59375 0.484375 0.625 255
2488 1369 -2138 0.001953125 -0.021484375 -0.453125 0.8203125 0.296875 255
3072 2894 -2175 0.755859375 -0.193359375 -0.578125 0.796875 -0.0859375 255
3072 2945 -2559 0.015625 0.25 -0.2890625 0.2421875 0.9140625 255
3072 2945 -2047 1.01171875 -0.341796875 -0.546875 0.8125 0.125 255
5178 3038 -3391 0.755859375 5.453125 -0.1640625 0.96875 -0.0703125 255
5289 3089 -3327 1.013671875 5.6015625 0.2109375 0.953125 -0.15625 255
4956 3182 -5695 0.2109375 5.517578125 0.21875 0.9609375 -0.0234375 255
4846 3233 -5631 -0.044921875 5.369140625 0.6875 0.59375 -0.3828125 255
4956 3038 -3519 0.2109375 0.462890625 0.140625 0.96875 0.109375 255
5178 3182 -5823 0.724609375 5.814453125 -0.1015625 0.96875 0.140625 255
5178 3038 -3391 0.724609375 0.166015625 -0.1640625 0.96875 -0.0703125 255
5289 3233 -5887 0.982421875 0.017578125 0.3125 0.7421875 0.5703125 255
3072 3666 -7167 0.982421875 5.99609375 -0.1484375 0.9765625 0.078125 255
3072 3614 -7039 0.724609375 5.84765625 0.0703125 0.9609375 0.1953125 255
4846 3089 -3583 -0.04296875 0.611328125 0.6953125 0.5078125 0.484375 255
5289 3089 -3327 0.982421875 0.017578125 0.2109375 0.953125 -0.15625 255
5289 3233 -5887 0.982421875 5.962890625 0.3125 0.7421875 0.5703125 255
5178 3182 -5823 0.7265625 0.166015625 -0.1015625 0.96875 0.140625 255
4956 3182 -5695 0.21484375 0.4609375 0.21875 0.9609375 -0.0234375 255
3072 3614 -6783 0.208984375 5.552734375 0.078125 0.96875 -0.1640625 255
1188 3902 -3519 0.2421875 4.923828125 -0.140625 0.9765625 0.0234375 255
1298 3954 -3583 0.015625 4.775390625 -0.5234375 0.765625 0.3359375 255
1188 3758 -5695 0.2421875 -0.12890625 -0.1484375 0.96875 -0.109375 255
3072 3666 -6655 -0.046875 5.40625 0.015625 0.6015625 -0.78125 255
4846 3233 -5631 -0.0390625 0.607421875 0.6875 0.59375 -0.3828125 255
3072 3614 -7039 0.755859375 -0.42578125 0.0703125 0.9609375 0.1953125 255
3072 3666 -7167 1.01171875 -0.57421875 -0.1484375 0.9765625 0.078125 255
966 3758 -5823 0.755859375 5.220703125 0.1796875 0.96875 0.078125 255
1188 3758 -5695 0.2421875 4.923828125 -0.1484375 0.96875 -0.109375 255
3072 3614 -6783 0.2421875 -0.12890625 0.078125 0.96875 -0.1640625 255
851 3818 -5894 1.013671875 5.369140625 -0.2734375 0.5625 -0.765625 255
1298 3810 -5631 0.015625 4.775390625 -0.6796875 0.4375 -0.5625 255
3072 3666 -6655 0.015625 0.017578125 0.015625 0.6015625 -0.78125 255
3072 4046 -2687 0.701171875 5.369140625 -0.0546875 0.96875 -0.1796875 255
3072 4046 -2943 0.140625 5.17578125 -0.03125 0.953125 0.25 255
966 3902 -3391 0.7578125 0.2109375 0.140625 0.96875 -0.109375 255
966 3902 -3391 0.755859375 5.220703125 0.140625 0.96875 -0.109375 255
966 3758 -5823 0.755859375 -0.42578125 0.1796875 0.96875 0.078125 255
1298 3810 -5631 0.015625 0.017578125 -0.6796875 0.4375 -0.5625 255
851 3818 -5894 1.01171875 -0.57421875 -0.2734375 0.5625 -0.765625 255
868 3954 -3302 1.013671875 5.369140625 -0.6015625 0.6171875 0.4765625 255
1298 3954 -3583 0.083984375 0.794921875 -0.5234375 0.765625 0.3359375 255
1188 3902 -3519 0.30859375 0.599609375 -0.140625 0.9765625 0.0234375 255
3072 4097 -3071 -0.138671875 5.078125 0.0703125 0.3828125 0.90625 255
6131 2029 -6447 0.7265625 -0.830078125 -0.0859375 0.9765625 0.125 255
6265 2080 -6527 0.982421875 -0.978515625 -0.1328125 0.9296875 0.296875 255
3072 2462 -7551 0.724609375 6.03125 0.0625 0.96875 0.1953125 255
868 3954 -3302 0.982421875 0.017578125 -0.6015625 0.6171875 0.4765625 255
3072 4097 -2559 0.982421875 5.466796875 -0.0234375 0.71875 0.6796875 255
4513 4190 -3775 0.2421875 4.158203125 0.171875 0.9609375 0.1640625 255
4402 4293 -3839 0.015625 4.009765625 0.328125 0.609375 0.703125 255
3072 4046 -2943 0.2421875 0.291015625 -0.03125 0.953125 0.25 255
3072 4046 -2687 0.755859375 -0.00390625 -0.0546875 0.96875 -0.1796875 255
4735 4190 -3647 0.755859375 4.455078125 -0.1484375 0.96875 -0.078125 255
3072 4097 -3071 0.015625 0.4375 0.0703125 0.3828125 0.90625 255
3072 4097 -2559 1.013671875 -0.15234375 -0.0234375 0.71875 0.6796875 255
4846 4242 -3583 1.013671875 4.603515625 0.390625 0.8671875 0.265625 255
5400 1885 -3263 0.232421875 -0.123046875 0.109375 0.9765625 0.125 255
5400 2029 -5951 0.232421875 5.896484375 0.203125 0.96875 -0.0390625 255
5289 2080 -5887 0.015625 5.75390625 0.7734375 0.578125 -0.203125 255
3072 2513 -7679 0.982421875 6.1796875 -0.0234375 0.984375 0.046875 255
5400 2029 -5951 0.21484375 -0.53515625 0.203125 0.96875 -0.0390625 255
3072 2462 -7295 0.208984375 5.736328125 0.09375 0.9765625 -0.109375 255
3072 2513 -7167 -0.046875 5.587890625 -0.0859375 0.4765625 -0.859375 255
5289 2080 -5887 -0.041015625 -0.38671875 0.7734375 0.578125 -0.203125 255
6265 2080 -6527 0.978515625 6.326171875 -0.1328125 0.9296875 0.296875 255
6131 2029 -6447 0.728515625 6.18359375 -0.0859375 0.9765625 0.125 255
6252 1936 -2700 0.978515625 -0.5546875 -0.3203125 0.9296875 -0.0703125 255
6131 1885 -2767 0.728515625 -0.41015625 -0.1640625 0.96875 -0.0859375 255
5289 1936 -3327 0.015625 0.017578125 0.6640625 0.5859375 0.4453125 255
5400 1885 -3263 0.82421875 -0.09375 0.109375 0.9765625 0.125 255
5289 1936 -3327 0.982421875 0.017578125 0.6640625 0.5859375 0.4453125 255
2851 1613 -1919 0.984375 5.541015625 -0.2421875 0.78125 0.546875 255
2874 1576 -1794 0.82421875 5.6328125 -0.3203125 0.921875 0.140625 255
6252 1936 -2700 0.982421875 7.00390625 -0.3203125 0.9296875 -0.0703125 255
2079 1368 -1535 1.01953125 2.57421875 -0.1953125 0.96875 0.0 255
2488 1369 -2138 0.046875 2.828125 -0.453125 0.8203125 0.296875 255
400 1024 -3014 0.015625 0.017578125 -0.5390625 0.75 0.3359375 255
2560 2912 -2736 -0.041015625 4.142578125 -0.125 0.3671875 0.90625 255
868 2801 -3302 0.033203125 0.185546875 -0.5390625 0.578125 0.5859375 255
751 2750 -3230 0.265625 -0.009765625 -0.1640625 0.96875 0.109375 255
2560 2862 -2613 0.208984375 4.228515625 0.5 0.84375 0.0859375 255
517 2750 -3086 0.740234375 -0.390625 0.09375 0.96875 -0.1640625 255
2560 2864 -2367 0.720703125 4.412109375 0.7265625 0.640625 -0.1953125 255
400 2802 -3014 0.982421875 -0.576171875 -0.4765625 0.859375 0.0 255
2560 2917 -2244 0.982421875 4.5078125 0.328125 0.875 0.328125 255
3 0 1 2
3 3 4 5
3 6 3 5
3 7 8 9
3 7 9 10
3 11 7 10
3 8 12 9
3 13 14 15
3 16 17 18
3 16 18 19
3 20 21 22
3 20 23 21
3 23 20 14
3 23 14 13
3 24 25 26
3 13 15 27
3 28 29 30
3 31 28 30
3 28 31 32
3 28 32 24
3 24 32 25
3 33 34 35
3 36 37 38
3 38 39 40
3 38 37 39
3 41 40 39
3 42 43 44
3 16 19 45
3 33 35 46
3 34 47 35
3 48 49 46
3 49 33 46
3 48 50 49
3 51 52 53
3 54 51 55
3 51 53 55
3 56 57 58
3 52 59 53
3 60 54 55
3 60 61 54
3 62 56 58
3 63 62 64
3 62 58 64
3 65 66 67
3 63 64 68
3 69 63 68
3 70 71 72
3 70 72 73
3 74 70 73
3 71 75 72
3 76 74 73
3 76 77 74
3 78 79 80
3 81 65 82
3 66 83 67
3 65 67 82
3 81 82 84
3 85 81 84
3 79 86 87
3 79 88 86
3 79 87 80
3 89 90 91
3 92 78 80
3 92 93 78
3 94 95 96
3 94 96 97
3 98 94 97
3 95 99 96
3 100 98 97
3 100 101 98
3 102 103 104
3 90 105 91
3 106 107 108
3 109 106 108
3 110 111 112
3 111 113 112
3 114 102 104
3 115 116 117
3 115 117 118
3 0 2 119
3 120 121 122
3 123 124 125
3 123 125 126
3 126 125 127
3 126 127 128
3 129 130 128
3 129 128 127
