ply
format ascii 1.0
element vertex 32
property short x
property short y
property short z
property float s
property float t
property float nx
property float ny
property float nz
property uchar alpha
element face 20
property list uchar uint vertex_indices
end_header
768 717 5376 5.9140625 0.9921875 0.203125 -0.671875 -0.6953125 255
768 717 5888 5.916015625 0.009765625 0.203125 -0.6640625 0.6953125 255
-921 205 5888 -0.96484375 0.009765625 0.203125 -0.6640625 0.6953125 255
-921 205 5376 -0.966796875 1.005859375 0.203125 -0.671875 -0.6875 255
-921 256 5375 -0.908203125 0.9921875 -0.0546875 0.828125 -0.53125 255
768 768 5376 5.97265625 0.9921875 -0.1796875 0.921875 -0.3125 255
-921 256 5888 -0.908203125 0.009765625 -0.1328125 0.9140625 0.34375 255
768 768 5888 5.97265625 0.009765625 -0.046875 0.9140625 0.3671875 255
3319 2944 -1866 0.015625 0.009765625 0.8828125 -0.3984375 -0.171875 255
3319 2970 -1866 0.015625 -0.4765625 0.453125 0.6640625 -0.5625 255
3279 2970 -1718 0.962890625 -0.4765625 0.671875 0.3984375 0.6015625 255
3279 2944 -1718 0.962890625 0.009765625 0.1796875 -0.6484375 0.71875 255
3279 2944 -1718 0.23828125 1.01171875 0.1796875 -0.6484375 0.71875 255
3279 2970 -1718 0.484375 1.01171875 0.671875 0.3984375 0.6015625 255
2407 2943 -1925 0.228515625 0.005859375 -0.484375 0.65625 0.546875 255
2407 2917 -1925 1.125 0.51953125 -0.875 -0.40625 0.1875 255
2407 2943 -1925 1.125 0.029296875 -0.484375 0.65625 0.546875 255
2447 2943 -2073 0.146484375 0.029296875 -0.6796875 0.390625 -0.59375 255
2447 2917 -2073 0.146484375 0.51953125 -0.140625 -0.65625 -0.71875 255
3319 2970 -1866 0.015625 0.9921875 0.453125 0.6640625 -0.5625 255
2447 2943 -2073 0.015625 0.001953125 -0.6796875 0.390625 -0.59375 255
2407 2943 -1925 0.962890625 -0.00390625 -0.484375 0.65625 0.546875 255
3279 2970 -1718 0.962890625 1.001953125 0.671875 0.3984375 0.6015625 255
2447 2917 -2073 0.015625 0.009765625 -0.140625 -0.65625 -0.71875 255
3319 2970 -1866 0.484375 1.017578125 0.453125 0.6640625 -0.5625 255
3319 2944 -1866 0.23828125 1.017578125 0.8828125 -0.3984375 -0.171875 255
2447 2943 -2073 0.228515625 0.009765625 -0.6796875 0.390625 -0.59375 255
3279 2944 -1718 0.962890625 1.001953125 0.1796875 -0.6484375 0.71875 255
2447 2917 -2073 0.015625 0.0 -0.140625 -0.65625 -0.71875 255
3319 2944 -1866 0.015625 0.9921875 0.8828125 -0.3984375 -0.171875 255
2407 2917 -1925 0.015625 0.005859375 -0.875 -0.40625 0.1875 255
2407 2917 -1925 0.962890625 -0.00390625 -0.875 -0.40625 0.1875 255
3 0 1 2
3 3 0 2
3 0 3 4
3 0 4 5
3 6 5 4
3 6 7 5
3 2 1 7
3 2 7 6
3 8 9 10
3 8 10 11
3 12 13 14
3 15 16 17
3 15 17 18
3 19 20 21
3 19 21 22
3 23 24 25
3 23 26 24
3 27 28 29
3 12 14 30
3 27 31 28
