ply
format ascii 1.0
element vertex 8
property short x
property short y
property short z
property float s
property float t
property float nx
property float ny
property float nz
property uchar alpha
element face 4
property list uchar uint vertex_indices
end_header
1782 666 4659 0.982421875 0.017578125 -0.9921875 0.0 0.0 255
1782 768 4557 0.015625 0.984375 -0.9921875 0.0 0.0 255
1782 666 4557 0.015625 0.017578125 -0.9921875 0.0 0.0 255
1782 768 4659 0.982421875 0.984375 -0.9921875 0.0 0.0 255
1782 179 4557 0.015625 -8.962890625 -0.9921875 0.0 0.0 255
1782 282 4659 0.982421875 -7.96484375 -0.9921875 0.0 0.0 255
1782 282 4557 0.015625 -7.96484375 -0.9921875 0.0 0.0 255
1782 179 4659 0.982421875 -8.962890625 -0.9921875 0.0 0.0 255
3 0 1 2
3 0 3 1
3 4 5 6
3 4 7 5
