ply
format ascii 1.0
element vertex 12
property short x
property short y
property short z
property float s
property float t
property float nx
property float ny
property float nz
property uchar alpha
element face 6
property list uchar uint vertex_indices
end_header
5400 2029 -5951 -0.400390625 1.021484375 0.203125 0.96875 -0.0390625 255
6131 2029 -6447 0.982421875 0.017578125 -0.0859375 0.9765625 0.125 255
3072 2462 -7295 0.51171875 6.24609375 0.09375 0.9765625 -0.109375 255
3072 2462 -7551 0.982421875 6.4140625 0.0625 0.96875 0.1953125 255
5400 1885 -3263 -0.439453125 0.984375 0.109375 0.9765625 0.125 255
6131 1885 -2767 0.982421875 0.017578125 -0.1640625 0.96875 -0.0859375 255
5400 2029 -5951 -0.44140625 6.23046875 0.203125 0.96875 -0.0390625 255
6131 2029 -6447 0.982421875 7.197265625 -0.0859375 0.9765625 0.125 255
6131 1885 -2767 -0.484375 6.611328125 -0.1640625 0.96875 -0.0859375 255
5400 1885 -3263 -1.693359375 5.384765625 0.109375 0.9765625 0.125 255
3037 1669 -904 2.2421875 0.017578125 -0.1484375 0.953125 -0.203125 255
2874 1576 -1794 1.11328125 0.017578125 -0.3203125 0.921875 0.140625 255
3 0 1 2
3 1 3 2
3 4 5 6
3 5 7 6
3 8 9 10
3 9 11 10
