ply
format ascii 1.0
element vertex 52
property short x
property short y
property short z
property float s
property float t
property float nx
property float ny
property float nz
property uchar alpha
element face 32
property list uchar uint vertex_indices
end_header
1902 3835 -5506 0.015625 0.017578125 -0.6171875 0.4296875 -0.640625 255
1814 4191 -5455 0.25 0.94140625 -0.640625 -0.6875 -0.296875 255
1902 4088 -5506 0.015625 0.67578125 -0.9453125 -0.2265625 0.15625 255
1697 4091 -5861 0.18359375 1.013671875 -0.7421875 -0.4921875 0.421875 255
1814 4191 -5455 0.44921875 -0.046875 -0.640625 -0.6875 -0.296875 255
1609 4194 -5810 0.44921875 0.984375 -0.21875 -0.953125 0.1171875 255
1902 4088 -5506 0.18359375 -0.048828125 -0.9453125 -0.2265625 0.15625 255
1636 4191 -5353 0.982421875 -0.046875 -0.109375 -0.7734375 -0.6015625 255
1431 4194 -5708 0.982421875 0.984375 0.4296875 -0.8515625 -0.2578125 255
1548 4088 -5302 1.248046875 -0.048828125 0.3125 -0.3984375 -0.84375 255
1343 4091 -5657 1.248046875 1.013671875 0.828125 -0.2421875 -0.4765625 255
1343 4091 -5657 0.015625 0.984375 0.828125 -0.2421875 -0.4765625 255
1548 4088 -5302 1.58203125 1.005859375 0.3125 -0.3984375 -0.84375 255
1548 3835 -5302 1.58203125 0.017578125 0.4921875 0.3984375 -0.75 255
1343 3835 -5657 0.015625 0.017578125 0.3828125 0.8828125 -0.21875 255
1697 3835 -5861 0.015625 0.017578125 -0.765625 0.4375 0.4375 255
1902 3835 -5506 1.58203125 0.017578125 -0.6171875 0.4296875 -0.640625 255
1902 4088 -5506 1.58203125 1.005859375 -0.9453125 -0.2265625 0.15625 255
1548 4088 -5302 1.048828125 0.67578125 0.3125 -0.3984375 -0.84375 255
1636 4191 -5353 0.783203125 0.94140625 -0.109375 -0.7734375 -0.6015625 255
1548 3835 -5302 1.048828125 0.017578125 0.4921875 0.3984375 -0.75 255
1343 3835 -5657 1.048828125 -0.046875 0.3828125 0.8828125 -0.21875 255
1902 3835 -5506 0.015625 0.984375 -0.6171875 0.4296875 -0.640625 255
1697 3835 -5861 0.015625 -0.046875 -0.765625 0.4375 0.4375 255
1548 3835 -5302 1.048828125 0.984375 0.4921875 0.3984375 -0.75 255
1697 4091 -5861 0.015625 0.984375 -0.7421875 -0.4921875 0.421875 255
240 2683 -5544 3.67578125 -1.2265625 0.3828125 0.8828125 -0.21875 255
445 2683 -5189 3.67578125 -0.162109375 0.4921875 0.3984375 -0.75 255
801 2683 -5393 2.611328125 -0.158203125 -0.75 0.40625 -0.5 255
596 2939 -5748 2.810546875 2.169921875 -0.7890625 -0.375 0.453125 255
803 2940 -5394 2.802734375 1.103515625 -0.9296875 -0.3359375 0.0 255
712 3042 -5342 3.078125 1.107421875 -0.6328125 -0.6953125 -0.296875 255
507 3042 -5697 3.078125 2.171875 -0.2109375 -0.953125 0.125 255
534 3042 -5240 3.609375 1.109375 -0.109375 -0.7734375 -0.6015625 255
329 3042 -5595 3.609375 2.173828125 0.4296875 -0.8515625 -0.25 255
445 2939 -5189 3.876953125 1.107421875 0.3125 -0.40625 -0.84375 255
240 2939 -5544 3.876953125 2.173828125 0.828125 -0.25 -0.4765625 255
240 2939 -5544 -1.783203125 -3.47265625 0.828125 -0.25 -0.4765625 255
445 2683 -5189 -0.185546875 -4.470703125 0.4921875 0.3984375 -0.75 255
240 2683 -5544 -1.783203125 -4.470703125 0.3828125 0.8828125 -0.21875 255
445 2939 -5189 -0.185546875 -3.47265625 0.3125 -0.40625 -0.84375 255
801 2683 -5393 2.611328125 -2.974609375 -0.75 0.40625 -0.5 255
712 3042 -5342 2.87890625 -2.04296875 -0.6328125 -0.6953125 -0.296875 255
803 2940 -5394 2.603515625 -2.30859375 -0.9296875 -0.3359375 0.0 255
596 2683 -5748 2.611328125 -1.224609375 -0.6015625 0.6953125 0.34375 255
596 2683 -5748 -1.77734375 -4.470703125 -0.6015625 0.6953125 0.34375 255
801 2683 -5393 -0.1796875 -4.470703125 -0.75 0.40625 -0.5 255
596 2939 -5748 -1.77734375 -3.47265625 -0.7890625 -0.375 0.453125 255
803 2940 -5394 -0.1796875 -3.47265625 -0.9296875 -0.3359375 0.0 255
445 2683 -5189 3.67578125 -2.974609375 0.4921875 0.3984375 -0.75 255
445 2939 -5189 3.67578125 -2.30859375 0.3125 -0.40625 -0.84375 255
534 3042 -5240 3.41015625 -2.04296875 -0.109375 -0.7734375 -0.6015625 255
3 0 1 2
3 3 4 5
3 3 6 4
3 5 4 7
3 5 7 8
3 8 7 9
3 8 9 10
3 11 12 13
3 11 13 14
3 15 16 17
3 0 18 19
3 0 19 1
3 0 20 18
3 21 22 23
3 21 24 22
3 15 17 25
3 26 27 28
3 29 30 31
3 29 31 32
3 32 31 33
3 32 33 34
3 34 33 35
3 34 35 36
3 37 38 39
3 37 40 38
3 41 42 43
3 26 28 44
3 45 46 47
3 46 48 47
3 41 49 50
3 41 50 51
3 41 51 42
