ply
format ascii 1.0
element vertex 52
property short x
property short y
property short z
property float s
property float t
property float nx
property float ny
property float nz
property uchar alpha
element face 28
property list uchar uint vertex_indices
end_header
-6591 0 5888 -2.93359375 -2.630859375 -0.34375 0.9296875 0.0 255
-6245 128 5816 -1.5859375 -2.3515625 -0.34375 0.9296875 0.0 255
-6245 128 5384 -1.5859375 -0.666015625 -0.34375 0.9296875 0.0 255
-6245 128 5816 -1.5859375 -2.3515625 0.0 0.9921875 0.0 255
-5842 128 6248 0.015625 -4.03515625 0.0 0.9921875 0.0 255
-5797 128 5702 0.158203125 -1.908203125 0.0 0.9921875 0.0 255
-6245 128 5384 -1.5859375 -0.666015625 0.0 0.9921875 0.0 255
-5842 128 6248 0.015625 -4.03515625 -0.28125 0.90625 0.2578125 255
-6245 128 5816 -1.5859375 -2.3515625 -0.28125 0.90625 0.2578125 255
-6591 0 5888 -2.93359375 -2.630859375 -0.28125 0.90625 0.2578125 255
-5593 128 5702 0.95703125 -1.908203125 0.0 0.9921875 0.0 255
-5548 128 6248 1.1328125 -4.03515625 0.0 0.9921875 0.0 255
-5375 0 6464 1.806640625 -4.876953125 0.0 0.8515625 0.5 255
-5842 128 6248 0.015625 -4.03515625 0.0 0.8515625 0.5 255
-6015 0 6464 -0.6875 -4.876953125 0.0 0.8515625 0.5 255
-5548 128 6248 1.1328125 -4.03515625 0.0 0.8515625 0.5 255
-6015 0 6464 -0.6875 -4.876953125 -0.2890625 0.8984375 0.2890625 255
-5842 128 6248 0.015625 -4.03515625 -0.2890625 0.8984375 0.2890625 255
-6591 0 5888 -2.93359375 -2.630859375 -0.2890625 0.8984375 0.2890625 255
-5797 128 5498 0.158203125 -1.109375 0.0 0.9921875 0.0 255
-5593 128 5498 0.95703125 -1.109375 0.0 0.9921875 0.0 255
-5145 128 5816 2.703125 -2.3515625 0.0 0.9921875 0.0 255
-4799 0 5888 4.05078125 -2.630859375 0.2890625 0.8984375 0.2890625 255
-5548 128 6248 1.1328125 -4.03515625 0.2890625 0.8984375 0.2890625 255
-5375 0 6464 1.806640625 -4.876953125 0.2890625 0.8984375 0.2890625 255
-4799 0 5888 4.05078125 -2.630859375 0.28125 0.90625 0.2578125 255
-5145 128 5816 2.703125 -2.3515625 0.28125 0.90625 0.2578125 255
-5548 128 6248 1.1328125 -4.03515625 0.28125 0.90625 0.2578125 255
-5145 128 5384 2.703125 -0.666015625 0.0 0.9921875 0.0 255
-4799 0 5312 4.05078125 -0.38671875 0.34375 0.9296875 0.0 255
-5145 128 5816 2.703125 -2.3515625 0.34375 0.9296875 0.0 255
-4799 0 5888 4.05078125 -2.630859375 0.34375 0.9296875 0.0 255
-5145 128 5384 2.703125 -0.666015625 0.34375 0.9296875 0.0 255
-6591 0 5312 -2.93359375 -0.38671875 -0.34375 0.9296875 0.0 255
-5842 128 4952 0.015625 0.984375 0.0 0.9921875 0.0 255
-6591 0 5312 -2.93359375 -0.38671875 -0.28125 0.90625 -0.2578125 255
-6245 128 5384 -1.5859375 -0.666015625 -0.28125 0.90625 -0.2578125 255
-5842 128 4952 0.015625 0.984375 -0.28125 0.90625 -0.2578125 255
-5548 128 4952 1.1328125 0.984375 0.0 0.9921875 0.0 255
-6591 0 5312 -2.93359375 -0.38671875 -0.2890625 0.8984375 -0.2890625 255
-5842 128 4952 0.015625 0.984375 -0.2890625 0.8984375 -0.2890625 255
-6015 0 4736 -0.6875 1.857421875 -0.2890625 0.8984375 -0.2890625 255
-6015 0 4736 -0.6875 1.857421875 0.0 0.8515625 -0.5 255
-5842 128 4952 0.015625 0.984375 0.0 0.8515625 -0.5 255
-5548 128 4952 1.1328125 0.984375 0.0 0.8515625 -0.5 255
-5548 128 4952 1.1328125 0.984375 0.28125 0.90625 -0.2578125 255
-5145 128 5384 2.703125 -0.666015625 0.28125 0.90625 -0.2578125 255
-4799 0 5312 4.05078125 -0.38671875 0.28125 0.90625 -0.2578125 255
-5375 0 4736 1.806640625 1.857421875 0.0 0.8515625 -0.5 255
-5375 0 4736 1.806640625 1.857421875 0.2890625 0.8984375 -0.2890625 255
-5548 128 4952 1.1328125 0.984375 0.2890625 0.8984375 -0.2890625 255
-4799 0 5312 4.05078125 -0.38671875 0.2890625 0.8984375 -0.2890625 255
3 0 1 2
3 3 4 5
3 6 3 5
3 7 8 9
3 4 10 5
3 4 11 10
3 12 13 14
3 12 15 13
3 16 17 18
3 6 5 19
3 20 10 21
3 11 21 10
3 22 23 24
3 25 26 27
3 20 21 28
3 29 30 31
3 29 32 30
3 0 2 33
3 6 19 34
3 35 36 37
3 34 19 20
3 34 20 38
3 39 40 41
3 42 43 44
3 20 28 38
3 45 46 47
3 42 44 48
3 49 50 51
