ply
format ascii 1.0
element vertex 228
property short x
property short y
property short z
property float s
property float t
property float nx
property float ny
property float nz
property uchar alpha
element face 112
property list uchar uint vertex_indices
end_header
-3151 1741 -6526 11.9609375 0.416015625 0.0 0.9921875 0.0 255
-2459 1741 -5155 0.015625 0.416015625 0.0 0.9921875 0.0 255
-2413 1741 -5178 0.015625 0.017578125 0.0 0.9921875 0.0 255
-3105 1690 -6549 11.9609375 0.017578125 0.0 -0.9921875 0.0 255
-2459 1690 -5155 0.015625 0.416015625 0.0 -0.9921875 0.0 255
-3151 1690 -6526 11.9609375 0.416015625 0.0 -0.9921875 0.0 255
-2413 1690 -5178 0.015625 0.017578125 0.0 -0.9921875 0.0 255
-2459 1690 -5155 0.982421875 -0.37890625 -0.8828125 0.0 0.4453125 255
-2459 1741 -5155 0.982421875 0.017578125 -0.8828125 0.0 0.4453125 255
-3151 1741 -6526 -10.9921875 0.017578125 -0.8828125 0.0 0.4453125 255
-3151 1690 -6526 -10.9921875 -0.37890625 -0.8828125 0.0 0.4453125 255
-3105 1690 -6549 11.9609375 0.017578125 0.8828125 0.0 -0.4453125 255
-3105 1741 -6549 11.9609375 0.416015625 0.8828125 0.0 -0.4453125 255
-2413 1741 -5178 0.015625 0.416015625 0.8828125 0.0 -0.4453125 255
-2413 1690 -5178 0.015625 0.017578125 0.8828125 0.0 -0.4453125 255
-3151 1075 -6526 11.9609375 0.416015625 0.0 0.9921875 0.0 255
-2458 1075 -5155 0.015625 0.416015625 0.0 0.9921875 0.0 255
-2413 1075 -5178 0.015625 0.017578125 0.0 0.9921875 0.0 255
-3105 1741 -6549 11.9609375 0.017578125 0.0 0.9921875 0.0 255
-2458 1024 -5155 0.982421875 -0.37890625 -0.8828125 0.0 0.4453125 255
-3151 1075 -6526 -10.9921875 0.017578125 -0.8828125 0.0 0.4453125 255
-3151 1024 -6526 -10.9921875 -0.37890625 -0.8828125 0.0 0.4453125 255
-2458 1075 -5155 0.982421875 0.017578125 -0.8828125 0.0 0.4453125 255
-3105 1024 -6549 11.9609375 0.017578125 0.8828125 0.0 -0.4453125 255
-3105 1075 -6549 11.9609375 0.416015625 0.8828125 0.0 -0.4453125 255
-2413 1075 -5178 0.015625 0.416015625 0.8828125 0.0 -0.4453125 255
-2413 1024 -5178 0.015625 0.017578125 0.8828125 0.0 -0.4453125 255
-3105 1075 -6549 11.9609375 0.017578125 0.0 0.9921875 0.0 255
-1016 1690 -2299 21.94140625 -0.37890625 -0.8828125 0.0 0.4453125 255
-1016 1741 -2299 21.94140625 0.017578125 -0.8828125 0.0 0.4453125 255
-2285 1741 -4812 0.015625 0.017578125 -0.8828125 0.0 0.4453125 255
-3151 1024 -6526 0.982421875 -12.955078125 -0.4375 0.0 -0.8828125 255
-3151 1075 -6526 0.982421875 -11.95703125 -0.4375 0.0 -0.8828125 255
-3105 1075 -6549 0.015625 -11.95703125 -0.4375 0.0 -0.8828125 255
-3105 1024 -6549 0.015625 -12.955078125 -0.4375 0.0 -0.8828125 255
-2413 1024 -5178 0.3828125 0.6171875 0.4453125 0.0 0.8828125 255
-2413 1075 -5178 0.3828125 0.984375 0.4453125 0.0 0.8828125 255
-2458 1075 -5155 0.015625 0.984375 0.4453125 0.0 0.8828125 255
-2458 1024 -5155 0.015625 0.6171875 0.4453125 0.0 0.8828125 255
-2240 1690 -4835 0.982421875 21.974609375 0.0 -0.9921875 0.0 255
-970 1690 -2322 0.982421875 0.017578125 0.0 -0.9921875 0.0 255
-1016 1690 -2299 0.583984375 0.017578125 0.0 -0.9921875 0.0 255
-2285 1690 -4812 0.583984375 21.974609375 0.0 -0.9921875 0.0 255
-1016 1024 -2299 21.94140625 -0.37890625 -0.8828125 0.0 0.4453125 255
-2285 1075 -4812 0.015625 0.017578125 -0.8828125 0.0 0.4453125 255
-2285 1024 -4812 0.015625 -0.37890625 -0.8828125 0.0 0.4453125 255
-2285 1690 -4812 0.015625 -0.37890625 -0.8828125 0.0 0.4453125 255
-2285 1741 -4812 0.583984375 21.974609375 0.0 0.9921875 0.0 255
-970 1741 -2322 0.982421875 0.017578125 0.0 0.9921875 0.0 255
-2240 1741 -4835 0.982421875 21.974609375 0.0 0.9921875 0.0 255
-1016 1741 -2299 0.583984375 0.017578125 0.0 0.9921875 0.0 255
-2240 1690 -4835 0.982421875 0.017578125 0.8828125 0.0 -0.4453125 255
-2240 1741 -4835 0.982421875 0.416015625 0.8828125 0.0 -0.4453125 255
-970 1741 -2322 -20.97265625 0.416015625 0.8828125 0.0 -0.4453125 255
-970 1690 -2322 -20.97265625 0.017578125 0.8828125 0.0 -0.4453125 255
-1016 1075 -2299 21.94140625 0.017578125 -0.8828125 0.0 0.4453125 255
-970 1024 -2322 0.3828125 0.6171875 0.4375 0.0 0.8828125 255
-1016 1075 -2299 0.015625 0.984375 0.4375 0.0 0.8828125 255
-1016 1024 -2299 0.015625 0.6171875 0.4375 0.0 0.8828125 255
-2285 1024 -4812 0.3828125 0.6171875 -0.4453125 0.0 -0.8828125 255
-2285 1075 -4812 0.3828125 0.984375 -0.4453125 0.0 -0.8828125 255
-2240 1075 -4835 0.015625 0.984375 -0.4453125 0.0 -0.8828125 255
-2240 1024 -4835 0.015625 0.6171875 -0.4453125 0.0 -0.8828125 255
-2240 1024 -4835 0.982421875 0.017578125 0.8828125 0.0 -0.4453125 255
-970 1075 -2322 -20.97265625 0.416015625 0.8828125 0.0 -0.4453125 255
-970 1024 -2322 -20.97265625 0.017578125 0.8828125 0.0 -0.4453125 255
-2240 1075 -4835 0.982421875 0.416015625 0.8828125 0.0 -0.4453125 255
-2285 1075 -4812 0.583984375 21.974609375 0.0 0.9921875 0.0 255
-970 1075 -2322 0.982421875 0.017578125 0.0 0.9921875 0.0 255
-2240 1075 -4835 0.982421875 21.974609375 0.0 0.9921875 0.0 255
-1016 1075 -2299 0.583984375 0.017578125 0.0 0.9921875 0.0 255
-2285 1741 -4812 2.978515625 0.984375 -0.8828125 0.0 0.4453125 255
-2458 1690 -5155 0.015625 0.6171875 -0.8828125 0.0 0.4453125 255
-2285 1690 -4812 2.978515625 0.6171875 -0.8828125 0.0 0.4453125 255
-970 1075 -2322 0.3828125 0.984375 0.4375 0.0 0.8828125 255
-970 1690 -2322 0.3828125 0.6171875 0.4375 0.0 0.8828125 255
-970 1741 -2322 0.3828125 0.984375 0.4375 0.0 0.8828125 255
-1016 1741 -2299 0.015625 0.984375 0.4375 0.0 0.8828125 255
-1016 1690 -2299 0.015625 0.6171875 0.4375 0.0 0.8828125 255
-3151 1690 -6526 0.982421875 0.017578125 -0.4375 0.0 -0.8828125 255
-3105 1741 -6549 0.015625 0.984375 -0.4375 0.0 -0.8828125 255
-3105 1690 -6549 0.015625 0.017578125 -0.4375 0.0 -0.8828125 255
-3151 1741 -6526 0.982421875 0.984375 -0.4375 0.0 -0.8828125 255
-2458 1741 -5155 0.015625 0.984375 -0.8828125 0.0 0.4453125 255
-5797 128 5702 0.015625 0.984375 0.9921875 0.0 0.0 255
-5797 -383 5498 0.982421875 -1.478515625 0.9921875 0.0 0.0 255
-5797 128 5498 0.982421875 0.984375 0.9921875 0.0 0.0 255
-2240 1741 -4835 2.978515625 0.984375 0.0 0.9921875 0.0 255
-2413 1741 -5178 0.015625 0.984375 0.0 0.9921875 0.0 255
-2458 1741 -5155 0.015625 0.6171875 0.0 0.9921875 0.0 255
-2285 1741 -4812 2.978515625 0.6171875 0.0 0.9921875 0.0 255
-2240 1690 -4835 0.015625 0.6171875 0.8828125 0.0 -0.4453125 255
-2413 1690 -5178 2.978515625 0.6171875 0.8828125 0.0 -0.4453125 255
-2413 1741 -5178 2.978515625 0.984375 0.8828125 0.0 -0.4453125 255
-2240 1741 -4835 0.015625 0.984375 0.8828125 0.0 -0.4453125 255
-2285 1690 -4812 0.015625 0.017578125 0.0 -0.9921875 0.0 255
-2458 1690 -5155 2.978515625 0.017578125 0.0 -0.9921875 0.0 255
-2413 1690 -5178 2.978515625 0.416015625 0.0 -0.9921875 0.0 255
-2240 1690 -4835 0.015625 0.416015625 0.0 -0.9921875 0.0 255
-5593 128 5702 0.015625 0.984375 0.0 0.0 -0.9921875 255
-5797 -383 5702 0.982421875 -1.4765625 0.0 0.0 -0.9921875 255
-5797 128 5702 0.982421875 0.984375 0.0 0.0 -0.9921875 255
-5797 -383 5702 0.015625 -1.478515625 0.9921875 0.0 0.0 255
-5797 128 5498 0.015625 0.984375 0.0 0.0 0.9921875 255
-5593 -383 5498 0.982421875 -1.478515625 0.0 0.0 0.9921875 255
-5593 128 5498 0.982421875 0.984375 0.0 0.0 0.9921875 255
-5797 -383 5498 0.015625 -1.478515625 0.0 0.0 0.9921875 255
-5593 128 5498 0.015625 0.984375 -0.9921875 0.0 0.0 255
-5593 -383 5702 0.982421875 -1.4765625 -0.9921875 0.0 0.0 255
-5593 128 5702 0.982421875 0.984375 -0.9921875 0.0 0.0 255
-5593 -383 5498 0.015625 -1.4765625 -0.9921875 0.0 0.0 255
-5593 -383 5702 0.015625 -1.4765625 0.0 0.0 -0.9921875 255
-5119 1331 -3429 0.015625 0.984375 0.9921875 0.0 0.0 255
-5119 819 -3634 0.982421875 -1.478515625 0.9921875 0.0 0.0 255
-5119 1331 -3634 0.982421875 0.984375 0.9921875 0.0 0.0 255
-5797 -383 5702 0.982421875 0.017578125 0.0 0.9921875 0.0 255
-5593 -383 5702 0.982421875 0.984375 0.0 0.9921875 0.0 255
-5593 -383 5498 0.015625 0.984375 0.0 0.9921875 0.0 255
-5797 -383 5498 0.015625 0.017578125 0.0 0.9921875 0.0 255
-4914 819 -3634 0.015625 0.984375 0.0 0.9921875 0.0 255
-5119 819 -3634 0.015625 0.017578125 0.0 0.9921875 0.0 255
-5119 819 -3429 0.982421875 0.017578125 0.0 0.9921875 0.0 255
-4914 819 -3429 0.982421875 0.984375 0.0 0.9921875 0.0 255
-5119 1331 -3634 0.015625 0.984375 0.0 0.0 0.9921875 255
-4914 819 -3634 0.982421875 -1.478515625 0.0 0.0 0.9921875 255
-4914 1331 -3634 0.982421875 0.984375 0.0 0.0 0.9921875 255
-5119 819 -3634 0.015625 -1.478515625 0.0 0.0 0.9921875 255
-5119 819 -3429 0.015625 -1.478515625 0.9921875 0.0 0.0 255
-4914 1331 -3429 0.015625 0.984375 0.0 0.0 -0.9921875 255
-4914 819 -3429 0.015625 -1.4765625 0.0 0.0 -0.9921875 255
-5119 819 -3429 0.982421875 -1.4765625 0.0 0.0 -0.9921875 255
-5119 1331 -3429 0.982421875 0.984375 0.0 0.0 -0.9921875 255
-4914 1331 -3634 0.015625 0.984375 -0.9921875 0.0 0.0 255
-4914 819 -3429 0.982421875 -1.4765625 -0.9921875 0.0 0.0 255
-4914 1331 -3429 0.982421875 0.984375 -0.9921875 0.0 0.0 255
-4914 819 -3634 0.015625 -1.4765625 -0.9921875 0.0 0.0 255
-2175 358 1024 0.015625 0.017578125 0.6796875 0.2421875 -0.6796875 255
-2303 358 896 0.96484375 0.017578125 0.6796875 0.2421875 -0.6796875 255
-2303 717 1024 0.474609375 2.01953125 0.6796875 0.2421875 -0.6796875 255
-2303 0 896 0.982421875 -0.978515625 0.6953125 0.0 -0.6953125 255
-2175 358 1024 0.001953125 0.9609375 0.6953125 0.0 -0.6953125 255
-2175 0 1024 0.001953125 -0.978515625 0.6953125 0.0 -0.6953125 255
-2431 0 1024 0.96484375 -0.923828125 -0.6953125 0.0 -0.6953125 255
-2431 358 1024 0.96484375 0.984375 -0.6953125 0.0 -0.6953125 255
-2303 358 896 0.015625 0.984375 -0.6953125 0.0 -0.6953125 255
-2303 0 896 0.015625 -0.923828125 -0.6953125 0.0 -0.6953125 255
-2303 0 1152 0.96484375 -0.923828125 -0.6953125 0.0 0.6953125 255
-2431 358 1024 0.015625 0.984375 -0.6953125 0.0 0.6953125 255
-2431 0 1024 0.015625 -0.923828125 -0.6953125 0.0 0.6953125 255
-2303 358 1152 0.96484375 0.984375 -0.6953125 0.0 0.6953125 255
-2175 0 1024 0.982421875 -0.978515625 0.6953125 0.0 0.6953125 255
-2303 358 1152 0.001953125 0.9609375 0.6953125 0.0 0.6953125 255
-2303 0 1152 0.001953125 -0.978515625 0.6953125 0.0 0.6953125 255
-2175 358 1024 0.982421875 0.9609375 0.6953125 0.0 0.6953125 255
1434 0 4352 0.015625 0.017578125 0.0 0.9921875 0.0 255
1434 0 4864 0.982421875 0.017578125 0.0 0.9921875 0.0 255
1792 0 4352 0.015625 0.984375 0.0 0.9921875 0.0 255
-2303 358 896 0.982421875 0.9609375 0.6953125 0.0 -0.6953125 255
-2431 358 1024 0.001953125 0.017578125 -0.6796875 0.2421875 0.6796875 255
-2303 358 1152 0.982421875 0.017578125 -0.6796875 0.2421875 0.6796875 255
-2303 717 1024 0.4921875 2.01953125 -0.6796875 0.2421875 0.6796875 255
-2303 358 896 0.015625 0.017578125 -0.6796875 0.2421875 -0.6796875 255
-2431 358 1024 0.96484375 0.017578125 -0.6796875 0.2421875 -0.6796875 255
-2303 717 1024 0.474609375 2.01953125 -0.6796875 0.2421875 -0.6796875 255
-2303 358 1152 0.015625 0.017578125 0.6796875 0.2421875 0.6796875 255
-2175 358 1024 0.96484375 0.017578125 0.6796875 0.2421875 0.6796875 255
-2303 717 1024 0.474609375 2.01953125 0.6796875 0.2421875 0.6796875 255
6246 2080 -6962 0.015625 0.984375 0.9921875 0.0 0.0 255
6246 1568 -7167 0.982421875 -1.478515625 0.9921875 0.0 0.0 255
6246 2080 -7167 0.982421875 0.984375 0.9921875 0.0 0.0 255
1792 0 4864 0.982421875 0.984375 0.0 0.9921875 0.0 255
6246 2080 -7167 0.015625 0.984375 0.0 0.0 0.9921875 255
6246 1568 -7167 0.015625 -1.478515625 0.0 0.0 0.9921875 255
6451 1568 -7167 0.982421875 -1.478515625 0.0 0.0 0.9921875 255
6451 2080 -7167 0.982421875 0.984375 0.0 0.0 0.9921875 255
6246 1568 -7167 0.015625 0.984375 0.0 0.9921875 0.0 255
6246 1568 -6962 0.015625 0.017578125 0.0 0.9921875 0.0 255
6451 1568 -6962 0.982421875 0.017578125 0.0 0.9921875 0.0 255
6451 1568 -7167 0.982421875 0.984375 0.0 0.9921875 0.0 255
6246 1568 -6962 0.015625 -1.478515625 0.9921875 0.0 0.0 255
4147 3072 -2354 0.982421875 1.24609375 0.9921875 0.0 0.0 255
4147 2560 -2559 0.015625 -0.978515625 0.9921875 0.0 0.0 255
4147 3072 -2559 0.015625 1.24609375 0.9921875 0.0 0.0 255
6451 2080 -6962 0.015625 0.984375 0.0 0.0 -0.9921875 255
6451 1568 -6962 0.015625 -1.478515625 0.0 0.0 -0.9921875 255
6246 1568 -6962 0.982421875 -1.478515625 0.0 0.0 -0.9921875 255
6246 2080 -6962 0.982421875 0.984375 0.0 0.0 -0.9921875 255
6451 2080 -7167 0.015625 0.984375 -0.9921875 0.0 0.0 255
6451 1568 -7167 0.015625 -1.478515625 -0.9921875 0.0 0.0 255
6451 1568 -6962 0.982421875 -1.478515625 -0.9921875 0.0 0.0 255
6451 2080 -6962 0.982421875 0.984375 -0.9921875 0.0 0.0 255
4352 2560 -2559 0.982421875 0.984375 0.0 0.9921875 0.0 255
4147 2560 -2354 0.015625 0.017578125 0.0 0.9921875 0.0 255
4352 2560 -2354 0.982421875 0.017578125 0.0 0.9921875 0.0 255
4147 2560 -2559 0.015625 0.984375 0.0 0.9921875 0.0 255
4147 3072 -2559 0.982421875 0.984375 0.0 0.0 0.9921875 255
4147 2560 -2559 0.982421875 -1.208984375 0.0 0.0 0.9921875 255
4352 2560 -2559 0.015625 -1.208984375 0.0 0.0 0.9921875 255
4147 2560 -2354 0.982421875 -0.978515625 0.9921875 0.0 0.0 255
4352 3072 -2354 0.015625 0.984375 0.0 0.0 -0.9921875 255
4352 2560 -2354 0.015625 -1.208984375 0.0 0.0 -0.9921875 255
4147 2560 -2354 0.982421875 -1.208984375 0.0 0.0 -0.9921875 255
4147 3072 -2354 0.982421875 0.984375 0.0 0.0 -0.9921875 255
4352 3072 -2559 0.015625 1.24609375 -0.9921875 0.0 0.0 255
4352 2560 -2559 0.015625 -0.978515625 -0.9921875 0.0 0.0 255
4352 2560 -2354 0.982421875 -0.978515625 -0.9921875 0.0 0.0 255
4352 3072 -2354 0.982421875 1.24609375 -0.9921875 0.0 0.0 255
4352 3072 -2559 0.015625 0.984375 0.0 0.0 0.9921875 255
4250 3072 1127 0.015625 0.984375 0.0 0.0 0.9921875 255
4454 2560 1127 0.982421875 -1.478515625 0.0 0.0 0.9921875 255
4454 3072 1127 0.982421875 0.984375 0.0 0.0 0.9921875 255
4454 2560 1127 0.015625 0.017578125 0.0 0.9921875 0.0 255
4250 2560 1332 0.982421875 0.984375 0.0 0.9921875 0.0 255
4454 2560 1332 0.015625 0.984375 0.0 0.9921875 0.0 255
4250 2560 1127 0.982421875 0.017578125 0.0 0.9921875 0.0 255
4454 3072 1127 0.015625 0.984375 -0.9921875 0.0 0.0 255
4454 2560 1332 0.982421875 -1.478515625 -0.9921875 0.0 0.0 255
4454 3072 1332 0.982421875 0.984375 -0.9921875 0.0 0.0 255
4454 2560 1127 0.015625 -1.4765625 -0.9921875 0.0 0.0 255
4454 3072 1332 0.015625 0.984375 0.0 0.0 -0.9921875 255
4454 2560 1332 0.015625 -1.4765625 0.0 0.0 -0.9921875 255
4250 2560 1332 0.982421875 -1.478515625 0.0 0.0 -0.9921875 255
4250 3072 1332 0.982421875 0.984375 0.0 0.0 -0.9921875 255
4250 3072 1332 0.015625 0.984375 0.9921875 0.0 0.0 255
4250 2560 1332 0.015625 -1.4765625 0.9921875 0.0 0.0 255
4250 2560 1127 0.982421875 -1.478515625 0.9921875 0.0 0.0 255
4250 2560 1127 0.015625 -1.4765625 0.0 0.0 0.9921875 255
4250 3072 1127 0.982421875 0.984375 0.9921875 0.0 0.0 255
3 0 1 2
3 3 4 5
3 3 6 4
3 7 8 9
3 7 9 10
3 11 12 13
3 11 13 14
3 15 16 17
3 0 2 18
3 19 20 21
3 19 22 20
3 23 24 25
3 23 25 26
3 15 17 27
3 28 29 30
3 31 32 33
3 31 33 34
3 35 36 37
3 35 37 38
3 39 40 41
3 39 41 42
3 43 44 45
3 28 30 46
3 47 48 49
3 47 50 48
3 51 52 53
3 51 53 54
3 43 55 44
3 56 57 58
3 59 60 61
3 59 61 62
3 63 64 65
3 63 66 64
3 67 68 69
3 67 70 68
3 71 72 73
3 56 74 57
3 75 76 77
3 75 77 78
3 79 80 81
3 79 82 80
3 71 83 72
3 84 85 86
3 87 88 89
3 87 89 90
3 91 92 93
3 91 93 94
3 95 96 97
3 95 97 98
3 99 100 101
3 84 102 85
3 103 104 105
3 103 106 104
3 107 108 109
3 107 110 108
3 99 111 100
3 112 113 114
3 115 116 117
3 115 117 118
3 119 120 121
3 119 121 122
3 123 124 125
3 123 126 124
3 112 127 113
3 128 129 130
3 128 130 131
3 132 133 134
3 132 135 133
3 136 137 138
3 139 140 141
3 142 143 144
3 142 144 145
3 146 147 148
3 146 149 147
3 150 151 152
3 150 153 151
3 154 155 156
3 139 157 140
3 158 159 160
3 161 162 163
3 164 165 166
3 167 168 169
3 155 170 156
3 171 172 173
3 171 173 174
3 175 176 177
3 175 177 178
3 167 179 168
3 180 181 182
3 183 184 185
3 183 185 186
3 187 188 189
3 187 189 190
3 191 192 193
3 191 194 192
3 195 196 197
3 180 198 181
3 199 200 201
3 199 201 202
3 203 204 205
3 203 205 206
3 195 197 207
3 208 209 210
3 211 212 213
3 211 214 212
3 215 216 217
3 215 218 216
3 219 220 221
3 219 221 222
3 223 224 225
3 208 226 209
3 223 225 227
