ply
format ascii 1.0
element vertex 224
property short x
property short y
property short z
property float s
property float t
property float nx
property float ny
property float nz
property uchar alpha
element face 80
property list uchar uint vertex_indices
end_header
5147 923 -957 2.005859375 0.951171875 -0.3828125 0.8984375 -0.15625 255
5345 966 -1188 2.19921875 1.17578125 -0.3828125 0.8984375 -0.15625 255
5097 825 -1387 1.958984375 1.369140625 -0.3828125 0.8984375 -0.15625 255
5314 717 -540 2.169921875 0.544921875 0.1015625 0.65625 0.7265625 255
5812 759 -649 2.654296875 0.650390625 0.1015625 0.65625 0.7265625 255
5669 927 -780 2.515625 0.779296875 0.1015625 0.65625 0.7265625 255
5314 717 -540 2.169921875 0.544921875 -0.1640625 0.84375 0.484375 255
5669 927 -780 2.515625 0.779296875 -0.1640625 0.84375 0.484375 255
5147 923 -957 2.005859375 0.951171875 -0.1640625 0.84375 0.484375 255
5669 927 -780 2.515625 0.779296875 0.2578125 0.9453125 -0.1171875 255
5842 832 -1155 2.68359375 1.14453125 0.2578125 0.9453125 -0.1171875 255
5345 966 -1188 2.19921875 1.17578125 0.2578125 0.9453125 -0.1171875 255
5314 717 -540 2.169921875 0.544921875 -0.390625 0.7421875 0.5234375 255
5147 923 -957 2.005859375 0.951171875 -0.390625 0.7421875 0.5234375 255
4845 748 -936 1.712890625 0.931640625 -0.390625 0.7421875 0.5234375 255
5842 832 -1155 -1.201171875 8.376953125 0.6875 0.6953125 0.140625 255
5669 927 -780 -0.9609375 8.33984375 0.6875 0.6953125 0.140625 255
5812 759 -649 -0.947265625 8.443359375 0.6875 0.6953125 0.140625 255
5452 857 -1485 2.3046875 1.466796875 -0.1875 0.8828125 -0.390625 255
5097 825 -1387 1.958984375 1.369140625 -0.1875 0.8828125 -0.390625 255
5345 966 -1188 2.19921875 1.17578125 -0.1875 0.8828125 -0.390625 255
5097 825 -1387 1.958984375 1.369140625 -0.4921875 0.84375 -0.1328125 255
4845 748 -936 1.712890625 0.931640625 -0.4921875 0.84375 -0.1328125 255
5147 923 -957 2.005859375 0.951171875 -0.4921875 0.84375 -0.1328125 255
5452 857 -1485 2.3046875 1.466796875 0.2578125 0.921875 -0.2421875 255
5345 966 -1188 2.19921875 1.17578125 0.2578125 0.921875 -0.2421875 255
5842 832 -1155 2.68359375 1.14453125 0.2578125 0.921875 -0.2421875 255
5345 966 -1188 2.19921875 1.17578125 -0.046875 0.9765625 0.1328125 255
5147 923 -957 2.005859375 0.951171875 -0.046875 0.9765625 0.1328125 255
5669 927 -780 2.515625 0.779296875 -0.046875 0.9765625 0.1328125 255
-5322 1136 -5756 0.568359375 0.283203125 -0.125 0.7109375 -0.671875 255
-5235 1071 -5842 0.376953125 0.361328125 -0.125 0.7109375 -0.671875 255
-5518 849 -6024 0.18359375 0.017578125 -0.125 0.7109375 -0.671875 255
-5198 899 -5376 0.982421875 0.68359375 0.34375 0.7734375 0.5078125 255
-4852 799 -5458 0.583984375 0.984375 0.34375 0.7734375 0.5078125 255
-5070 1081 -5738 0.451171875 0.60546875 0.34375 0.7734375 0.5078125 255
-5198 899 -5376 0.982421875 0.68359375 0.1484375 0.8515625 0.4765625 255
-5070 1081 -5738 0.451171875 0.60546875 0.1484375 0.8515625 0.4765625 255
-5322 1136 -5756 0.568359375 0.283203125 0.1484375 0.8515625 0.4765625 255
-5070 1081 -5738 0.451171875 0.60546875 0.46875 0.375 -0.78125 255
-4855 738 -5776 0.18359375 0.849609375 0.46875 0.375 -0.78125 255
-5235 1071 -5842 0.376953125 0.361328125 0.46875 0.375 -0.78125 255
-5198 899 -5376 0.982421875 0.68359375 -0.0546875 0.828125 0.53125 255
-5322 1136 -5756 0.568359375 0.283203125 -0.0546875 0.828125 0.53125 255
-5577 963 -5517 0.982421875 0.017578125 -0.0546875 0.828125 0.53125 255
-4855 738 -5776 0.18359375 0.849609375 0.828125 0.53125 -0.109375 255
-5070 1081 -5738 0.451171875 0.60546875 0.828125 0.53125 -0.109375 255
-4852 799 -5458 0.583984375 0.984375 0.828125 0.53125 -0.109375 255
-5203 776 -6012 0.015625 0.349609375 0.140625 0.5 -0.8359375 255
-5518 849 -6024 0.18359375 0.017578125 0.140625 0.5 -0.8359375 255
-5235 1071 -5842 0.376953125 0.361328125 0.140625 0.5 -0.8359375 255
-5518 849 -6024 0.18359375 0.017578125 -0.6796875 0.6796875 -0.2265625 255
-5577 963 -5517 0.982421875 0.017578125 -0.6796875 0.6796875 -0.2265625 255
-5322 1136 -5756 0.568359375 0.283203125 -0.6796875 0.6796875 -0.2265625 255
-5203 776 -6012 0.015625 0.349609375 0.5234375 0.4609375 -0.6953125 255
-5235 1071 -5842 0.376953125 0.361328125 0.5234375 0.4609375 -0.6953125 255
-4855 738 -5776 0.18359375 0.849609375 0.5234375 0.4609375 -0.6953125 255
-5235 1071 -5842 0.376953125 0.361328125 0.21875 0.859375 -0.4296875 255
-5322 1136 -5756 0.568359375 0.283203125 0.21875 0.859375 -0.4296875 255
-5070 1081 -5738 0.451171875 0.60546875 0.21875 0.859375 -0.4296875 255
-5887 1024 -2943 0.15625 0.244140625 -0.4765625 0.859375 0.0625 255
-5460 1331 -3788 0.234375 0.517578125 -0.4765625 0.859375 0.0625 255
-6015 1024 -3839 -0.03515625 0.666015625 -0.4765625 0.859375 0.0625 255
-4991 1024 -2431 0.462890625 -0.017578125 0.2421875 0.8515625 0.4296875 255
-4095 1024 -2943 0.8984375 0.23046875 0.2421875 0.8515625 0.4296875 255
-5017 1331 -3020 0.44921875 0.142578125 0.2421875 0.8515625 0.4296875 255
-4095 1024 -2943 0.8984375 0.23046875 0.53125 0.828125 0.0 255
-4095 1024 -3967 0.8984375 0.728515625 0.53125 0.828125 0.0 255
-4573 1331 -3788 0.666015625 0.517578125 0.53125 0.828125 0.0 255
-4991 1024 -2431 0.462890625 -0.017578125 -0.2578125 0.84375 0.4453125 255
-5017 1331 -3020 0.44921875 0.142578125 -0.2578125 0.84375 0.4453125 255
-5887 1024 -2943 0.15625 0.244140625 -0.2578125 0.84375 0.4453125 255
-5017 1331 -3020 0.44921875 0.142578125 0.0 0.9921875 0.0 255
-4573 1331 -3788 0.666015625 0.517578125 0.0 0.9921875 0.0 255
-4914 1331 -3429 0.5 0.341796875 0.0 0.9921875 0.0 255
-5119 1331 -3429 0.400390625 0.341796875 0.0 0.9921875 0.0 255
-5460 1331 -3788 0.234375 0.517578125 0.0 0.9921875 0.0 255
-4573 1331 -3788 0.666015625 0.517578125 0.2890625 0.9296875 0.1640625 255
-5017 1331 -3020 0.44921875 0.142578125 0.2890625 0.9296875 0.1640625 255
-4095 1024 -2943 0.8984375 0.23046875 0.2890625 0.9296875 0.1640625 255
-4991 1024 -4479 0.462890625 0.978515625 -0.3515625 0.7265625 -0.5625 255
-6015 1024 -3839 -0.03515625 0.666015625 -0.3515625 0.7265625 -0.5625 255
-5460 1331 -3788 0.234375 0.517578125 -0.3515625 0.7265625 -0.5625 255
-4991 1024 -4479 0.462890625 0.978515625 0.0 0.90625 -0.3984375 255
-5460 1331 -3788 0.234375 0.517578125 0.0 0.90625 -0.3984375 255
-4573 1331 -3788 0.666015625 0.517578125 0.0 0.90625 -0.3984375 255
-5460 1331 -3788 0.234375 0.517578125 -0.3046875 0.921875 0.171875 255
-5887 1024 -2943 0.15625 0.244140625 -0.3046875 0.921875 0.171875 255
-5017 1331 -3020 0.44921875 0.142578125 -0.3046875 0.921875 0.171875 255
-4991 1024 -4479 0.462890625 0.978515625 0.296875 0.78125 -0.5234375 255
-4573 1331 -3788 0.666015625 0.517578125 0.296875 0.78125 -0.5234375 255
-4095 1024 -3967 0.8984375 0.728515625 0.296875 0.78125 -0.5234375 255
-2815 1207 -537 0.697265625 0.474609375 -0.03125 0.796875 0.5859375 255
-3199 1207 -562 0.353515625 0.32421875 -0.03125 0.796875 0.5859375 255
-2772 1011 -268 0.857421875 0.267578125 -0.03125 0.796875 0.5859375 255
-4914 1331 -3634 0.5 0.44140625 0.0 0.9921875 0.0 255
-5119 1331 -3634 0.400390625 0.44140625 0.0 0.9921875 0.0 255
-2815 1207 -537 0.697265625 0.474609375 0.390625 0.7578125 0.4921875 255
-2772 1011 -268 0.857421875 0.267578125 0.390625 0.7578125 0.4921875 255
-2540 1001 -436 0.982421875 0.515625 0.390625 0.7578125 0.4921875 255
-2815 1207 -844 0.55859375 0.740234375 0.5234375 0.8125 -0.1796875 255
-2422 993 -663 0.982421875 0.765625 0.5234375 0.8125 -0.1796875 255
-2477 990 -835 0.857421875 0.890625 0.5234375 0.8125 -0.1796875 255
-2772 1011 -268 0.857421875 0.267578125 0.015625 0.8359375 0.53125 255
-3199 1207 -562 0.353515625 0.32421875 0.015625 0.8359375 0.53125 255
-3058 1019 -272 0.607421875 0.142578125 0.015625 0.8359375 0.53125 255
-3045 1207 -895 0.3359375 0.6796875 0.0 0.9921875 0.0 255
-2815 1207 -537 0.697265625 0.474609375 0.0 0.9921875 0.0 255
-2815 1207 -844 0.55859375 0.740234375 0.0 0.9921875 0.0 255
-3058 1019 -272 0.607421875 0.142578125 -0.625 0.4609375 0.6015625 255
-3199 1207 -562 0.353515625 0.32421875 -0.625 0.4609375 0.6015625 255
-3339 1020 -563 0.234375 0.267578125 -0.625 0.4609375 0.6015625 255
-3199 1207 -562 0.353515625 0.32421875 -0.40625 0.875 -0.1875 255
-3045 1207 -895 0.3359375 0.6796875 -0.40625 0.875 -0.1875 255
-3448 1015 -908 0.015625 0.515625 -0.40625 0.875 -0.1875 255
-3045 1207 -895 0.3359375 0.6796875 -0.34375 0.765625 -0.5234375 255
-3217 1005 -1076 0.109375 0.765625 -0.34375 0.765625 -0.5234375 255
-3448 1015 -908 0.015625 0.515625 -0.34375 0.765625 -0.5234375 255
-3217 1005 -1076 0.109375 0.765625 -0.171875 0.7265625 -0.640625 255
-3045 1207 -895 0.3359375 0.6796875 -0.171875 0.7265625 -0.640625 255
-2872 993 -1185 0.359375 0.984375 -0.171875 0.7265625 -0.640625 255
-3339 1020 -563 0.234375 0.267578125 -0.765625 0.5703125 0.234375 255
-3199 1207 -562 0.353515625 0.32421875 -0.765625 0.5703125 0.234375 255
-3448 1015 -908 0.015625 0.515625 -0.765625 0.5703125 0.234375 255
-2872 993 -1185 0.359375 0.984375 0.25 0.8359375 -0.4609375 255
-3045 1207 -895 0.3359375 0.6796875 0.25 0.8359375 -0.4609375 255
-2645 990 -1067 0.607421875 0.984375 0.25 0.8359375 -0.4609375 255
-3199 1207 -562 0.353515625 0.32421875 0.0 0.9921875 0.0 255
-2815 1207 -844 0.55859375 0.740234375 0.1328125 0.75 -0.625 255
-2645 990 -1067 0.607421875 0.984375 0.1328125 0.75 -0.625 255
-3045 1207 -895 0.3359375 0.6796875 0.1328125 0.75 -0.625 255
-2815 1207 -844 0.55859375 0.740234375 0.5 0.765625 -0.359375 255
-2477 990 -835 0.857421875 0.890625 0.5 0.765625 -0.359375 255
-2645 990 -1067 0.607421875 0.984375 0.5 0.765625 -0.359375 255
-2815 1207 -844 0.55859375 0.740234375 0.46875 0.8671875 0.0 255
-2815 1207 -537 0.697265625 0.474609375 0.46875 0.8671875 0.0 255
-2422 993 -663 0.982421875 0.765625 0.46875 0.8671875 0.0 255
-2540 1001 -436 0.982421875 0.515625 0.515625 0.8046875 0.234375 255
-2422 993 -663 0.982421875 0.765625 0.515625 0.8046875 0.234375 255
-2815 1207 -537 0.697265625 0.474609375 0.515625 0.8046875 0.234375 255
-2123 173 6244 0.533203125 -0.51953125 0.4140625 0.6328125 0.6328125 255
-2316 245 6300 -0.0078125 -0.240234375 0.4140625 0.6328125 0.6328125 255
-2357 134 6439 0.0078125 -0.763671875 0.4140625 0.6328125 0.6328125 255
-2357 134 6439 0.0078125 -0.763671875 0.0625 0.7578125 0.6328125 255
-2401 235 6323 -0.337890625 -0.33203125 0.0625 0.7578125 0.6328125 255
-2579 111 6491 -0.375 -0.623046875 0.0625 0.7578125 0.6328125 255
-2357 134 6439 0.0078125 -0.763671875 0.078125 0.7578125 0.625 255
-2316 245 6300 -0.0078125 -0.240234375 0.078125 0.7578125 0.625 255
-2401 235 6323 -0.337890625 -0.33203125 0.078125 0.7578125 0.625 255
-2316 245 6300 -0.0078125 -0.240234375 0.078125 0.9765625 -0.109375 255
-2242 197 5944 0.53515625 0.48046875 0.078125 0.9765625 -0.109375 255
-2364 239 6216 -0.1953125 0.083984375 0.078125 0.9765625 -0.109375 255
-2579 111 6491 -0.375 -0.623046875 -0.3203125 0.8828125 0.3125 255
-2401 235 6323 -0.337890625 -0.33203125 -0.3203125 0.8828125 0.3125 255
-2644 115 6413 -0.65234375 -0.392578125 -0.3203125 0.8828125 0.3125 255
-2386 187 5931 -0.146484375 0.654296875 -0.046875 0.96875 -0.171875 255
-2364 239 6216 -0.1953125 0.083984375 -0.046875 0.96875 -0.171875 255
-2242 197 5944 0.53515625 0.48046875 -0.046875 0.96875 -0.171875 255
-2401 235 6323 -0.337890625 -0.33203125 -0.390625 0.90625 -0.0390625 255
-2542 161 6061 -0.58203125 0.298828125 -0.390625 0.90625 -0.0390625 255
-2632 132 6269 -0.720703125 -0.083984375 -0.390625 0.90625 -0.0390625 255
-2401 235 6323 -0.337890625 -0.33203125 -0.3359375 0.9296875 -0.078125 255
-2364 239 6216 -0.1953125 0.083984375 -0.3359375 0.9296875 -0.078125 255
-2542 161 6061 -0.58203125 0.298828125 -0.3359375 0.9296875 -0.078125 255
-2542 161 6061 -0.58203125 0.298828125 -0.28125 0.9375 -0.1484375 255
-2364 239 6216 -0.1953125 0.083984375 -0.28125 0.9375 -0.1484375 255
-2386 187 5931 -0.146484375 0.654296875 -0.28125 0.9375 -0.1484375 255
-2644 115 6413 -0.65234375 -0.392578125 -0.4140625 0.890625 0.0703125 255
-2401 235 6323 -0.337890625 -0.33203125 -0.4140625 0.890625 0.0703125 255
-2632 132 6269 -0.720703125 -0.083984375 -0.4140625 0.890625 0.0703125 255
-2364 239 6216 -0.1953125 0.083984375 -0.109375 0.984375 0.0 255
-2401 235 6323 -0.337890625 -0.33203125 -0.109375 0.984375 0.0 255
-2316 245 6300 -0.0078125 -0.240234375 -0.109375 0.984375 0.0 255
-2242 197 5944 0.53515625 0.48046875 0.171875 0.96875 -0.09375 255
-2316 245 6300 -0.0078125 -0.240234375 0.171875 0.96875 -0.09375 255
-2110 189 6101 0.69140625 0.064453125 0.171875 0.96875 -0.09375 255
-2316 245 6300 -0.0078125 -0.240234375 0.375 0.90625 0.1328125 255
-2123 173 6244 0.533203125 -0.51953125 0.375 0.90625 0.1328125 255
-2110 189 6101 0.69140625 0.064453125 0.375 0.90625 0.1328125 255
4827 1329 1183 1.818359375 -1.15625 0.2734375 0.9453125 0.0703125 255
5248 1249 675 2.228515625 -0.662109375 0.2734375 0.9453125 0.0703125 255
4966 1333 645 1.953125 -0.630859375 0.2734375 0.9453125 0.0703125 255
4827 1329 1183 1.818359375 -1.15625 -0.5703125 0.3125 0.7421875 255
4582 747 1241 1.3984375 -1.326171875 -0.5703125 0.3125 0.7421875 255
4810 757 1414 1.64453125 -1.359375 -0.5703125 0.3125 0.7421875 255
5360 763 1257 2.296875 -1.1953125 0.25 0.3515625 0.890625 255
4827 1329 1183 1.818359375 -1.15625 0.25 0.3515625 0.890625 255
4810 757 1414 1.64453125 -1.359375 0.25 0.3515625 0.890625 255
4827 1329 1183 1.818359375 -1.15625 0.578125 0.6796875 0.421875 255
5683 759 927 2.453125 -0.96484375 0.578125 0.6796875 0.421875 255
5856 754 699 2.611328125 -0.734375 0.578125 0.6796875 0.421875 255
5070 715 31 1.833984375 -0.00390625 -0.1015625 0.6796875 -0.703125 255
4966 1333 645 1.953125 -0.630859375 -0.1015625 0.6796875 -0.703125 255
5471 721 -23 2.220703125 0.068359375 -0.1015625 0.6796875 -0.703125 255
4966 1333 645 1.953125 -0.630859375 -0.734375 0.625 -0.1796875 255
4378 732 943 1.30859375 -1.0625 -0.734375 0.625 -0.1796875 255
4827 1329 1183 1.818359375 -1.15625 -0.734375 0.625 -0.1796875 255
4966 1333 645 1.953125 -0.630859375 0.2890625 0.796875 -0.5078125 255
5248 1249 675 2.228515625 -0.662109375 0.2890625 0.796875 -0.5078125 255
5471 721 -23 2.220703125 0.068359375 0.2890625 0.796875 -0.5078125 255
4378 732 943 1.30859375 -1.0625 -0.765625 0.3671875 0.5 255
4582 747 1241 1.3984375 -1.326171875 -0.765625 0.3671875 0.5 255
4827 1329 1183 1.818359375 -1.15625 -0.765625 0.3671875 0.5 255
5248 1249 675 2.228515625 -0.662109375 0.5703125 0.71875 0.359375 255
4827 1329 1183 1.818359375 -1.15625 0.5703125 0.71875 0.359375 255
5856 754 699 2.611328125 -0.734375 0.5703125 0.71875 0.359375 255
4966 1333 645 1.953125 -0.630859375 -0.625 0.671875 -0.359375 255
4496 713 314 1.412109375 -0.32421875 -0.625 0.671875 -0.359375 255
4299 721 668 1.236328125 -0.677734375 -0.625 0.671875 -0.359375 255
5471 721 -23 2.220703125 0.068359375 0.5234375 0.7421875 -0.390625 255
5248 1249 675 2.228515625 -0.662109375 0.5234375 0.7421875 -0.390625 255
5777 743 424 2.662109375 -0.365234375 0.5234375 0.7421875 -0.390625 255
5777 743 424 2.662109375 -0.365234375 0.6171875 0.7421875 -0.203125 255
5248 1249 675 2.228515625 -0.662109375 0.6171875 0.7421875 -0.203125 255
5856 754 699 2.611328125 -0.734375 0.6171875 0.7421875 -0.203125 255
4496 713 314 1.412109375 -0.32421875 -0.3359375 0.625 -0.6875 255
4966 1333 645 1.953125 -0.630859375 -0.3359375 0.625 -0.6875 255
5070 715 31 1.833984375 -0.00390625 -0.3359375 0.625 -0.6875 255
4378 732 943 1.30859375 -1.0625 -0.65625 0.71875 0.15625 255
4966 1333 645 1.953125 -0.630859375 -0.65625 0.71875 0.15625 255
4299 721 668 1.236328125 -0.677734375 -0.65625 0.71875 0.15625 255
5683 759 927 2.453125 -0.96484375 0.5625 0.6015625 0.5390625 255
4827 1329 1183 1.818359375 -1.15625 0.5625 0.6015625 0.5390625 255
5360 763 1257 2.296875 -1.1953125 0.5625 0.6015625 0.5390625 255
3 0 1 2
3 3 4 5
3 6 7 8
3 9 10 11
3 12 13 14
3 15 16 17
3 18 19 20
3 21 22 23
3 24 25 26
3 27 28 29
3 30 31 32
3 33 34 35
3 36 37 38
3 39 40 41
3 42 43 44
3 45 46 47
3 48 49 50
3 51 52 53
3 54 55 56
3 57 58 59
3 60 61 62
3 63 64 65
3 66 67 68
3 69 70 71
3 72 73 74
3 72 74 75
3 76 72 75
3 77 78 79
3 80 81 82
3 83 84 85
3 86 87 88
3 89 90 91
3 92 93 94
3 73 95 74
3 76 75 96
3 73 96 95
3 73 76 96
3 97 98 99
3 100 101 102
3 103 104 105
3 106 107 108
3 109 110 111
3 112 113 114
3 115 116 117
3 118 119 120
3 121 122 123
3 124 125 126
3 106 127 107
3 128 129 130
3 131 132 133
3 134 135 136
3 137 138 139
3 140 141 142
3 143 144 145
3 146 147 148
3 149 150 151
3 152 153 154
3 155 156 157
3 158 159 160
3 161 162 163
3 164 165 166
3 167 168 169
3 170 171 172
3 173 174 175
3 176 177 178
3 179 180 181
3 182 183 184
3 185 186 187
3 188 189 190
3 191 192 193
3 194 195 196
3 197 198 199
3 200 201 202
3 203 204 205
3 206 207 208
3 209 210 211
3 212 213 214
3 215 216 217
3 218 219 220
3 221 222 223
