ply
format ascii 1.0
element vertex 50
property short x
property short y
property short z
property float s
property float t
property float nx
property float ny
property float nz
property uchar alpha
element face 28
property list uchar uint vertex_indices
end_header
-2458 1024 -5155 0.015625 4.009765625 -0.4375 0.0 -0.8828125 255
-2793 640 -4988 1.443359375 2.513671875 -0.4375 0.0 -0.8828125 255
-3137 640 -4816 2.94140625 2.513671875 -0.4375 0.0 -0.8828125 255
-2458 0 -5155 0.015625 0.017578125 -0.4375 0.0 -0.8828125 255
-2679 0 -5045 0.9453125 0.017578125 -0.4375 0.0 -0.8828125 255
-2679 384 -5045 0.9453125 1.515625 -0.4375 0.0 -0.8828125 255
-3445 777 -4662 4.283203125 3.044921875 -0.4375 0.0 -0.8828125 255
-3251 384 -4759 3.439453125 1.515625 -0.4375 0.0 -0.8828125 255
-3251 0 -4759 3.439453125 0.017578125 -0.4375 0.0 -0.8828125 255
-3445 1 -4662 4.283203125 0.05078125 -0.4375 0.0 -0.8828125 255
-3445 777 -4662 -7.998046875 -3.47265625 -0.1875 0.9609375 0.09375 255
-2559 768 -2815 0.982421875 -3.603515625 -0.1875 0.9609375 0.09375 255
-2458 1024 -5155 -7.943359375 0.984375 -0.1875 0.9609375 0.09375 255
-1535 1024 -3327 0.982421875 0.984375 -0.1875 0.9609375 0.09375 255
-1878 640 -3155 -0.513671875 2.51171875 0.4453125 0.0 0.8828125 255
-1764 384 -3213 0.015625 1.513671875 0.4453125 0.0 0.8828125 255
-1535 1024 -3327 0.982421875 4.009765625 0.4453125 0.0 0.8828125 255
-1764 384 -3213 0.015625 1.513671875 0.4375 0.0 0.8828125 255
-1764 0 -3213 0.015625 0.017578125 0.4375 0.0 0.8828125 255
-1535 1024 -3327 0.982421875 4.009765625 0.4375 0.0 0.8828125 255
-1535 0 -3327 0.982421875 0.017578125 0.4375 0.0 0.8828125 255
-2222 640 -2984 -2.009765625 2.51171875 0.4375 0.0 0.8828125 255
-2559 768 -2815 -3.478515625 2.8125 0.4375 0.0 0.8828125 255
-1878 640 -3155 -0.513671875 2.51171875 0.4375 0.0 0.8828125 255
-1764 384 -3213 4.474609375 0.984375 -0.8828125 0.0 0.4375 255
-2679 384 -5045 0.015625 0.984375 -0.8828125 0.0 0.4375 255
-2679 0 -5045 0.015625 -0.478515625 -0.8828125 0.0 0.4375 255
-2336 384 -2926 -2.5078125 1.513671875 0.4453125 0.0 0.8828125 255
-2222 640 -2984 -2.009765625 2.51171875 0.4453125 0.0 0.8828125 255
-2559 768 -2815 -3.478515625 2.8125 0.4453125 0.0 0.8828125 255
-2559 0 -2815 -3.478515625 0.017578125 0.4375 0.0 0.8828125 255
-2336 384 -2926 -2.5078125 1.513671875 0.4375 0.0 0.8828125 255
-2336 0 -2926 -2.5078125 0.017578125 0.4375 0.0 0.8828125 255
-2336 0 -2926 0.015625 -0.478515625 0.8828125 0.0 -0.4375 255
-3251 384 -4759 4.4765625 0.984375 0.8828125 0.0 -0.4375 255
-2336 384 -2926 0.015625 0.984375 0.8828125 0.0 -0.4375 255
-3251 0 -4759 4.474609375 -0.478515625 0.8828125 0.0 -0.4375 255
-1764 0 -3213 4.474609375 -0.48046875 -0.8828125 0.0 0.4375 255
-2336 384 -2926 -1.01171875 0.017578125 0.7890625 -0.4375 -0.390625 255
-3251 384 -4759 3.4765625 0.017578125 0.7890625 -0.4375 -0.390625 255
-3137 640 -4816 3.478515625 1.1328125 0.7890625 -0.4375 -0.390625 255
-2222 640 -2984 -1.01171875 1.1328125 0.7890625 -0.4375 -0.390625 255
-1878 640 -3155 4.474609375 1.1328125 -0.7890625 -0.4375 0.390625 255
-2679 384 -5045 0.015625 0.017578125 -0.7890625 -0.4375 0.390625 255
-1764 384 -3213 4.474609375 0.017578125 -0.7890625 -0.4375 0.390625 255
-2793 640 -4988 0.015625 1.1328125 -0.7890625 -0.4375 0.390625 255
-2222 640 -2984 0.982421875 -7.96484375 0.0 -0.9921875 0.0 255
-3137 640 -4816 0.982421875 0.984375 0.0 -0.9921875 0.0 255
-2793 640 -4988 -0.51171875 0.984375 0.0 -0.9921875 0.0 255
-1878 640 -3155 -0.513671875 -7.96484375 0.0 -0.9921875 0.0 255
3 0 1 2
3 0 3 4
3 0 4 5
3 6 7 8
3 6 8 9
3 0 2 6
3 0 5 1
3 2 7 6
3 10 11 12
3 11 13 12
3 14 15 16
3 17 18 19
3 18 20 19
3 21 19 22
3 21 23 19
3 24 25 26
3 27 28 29
3 30 31 22
3 30 32 31
3 33 34 35
3 33 36 34
3 24 26 37
3 38 39 40
3 38 40 41
3 42 43 44
3 42 45 43
3 46 47 48
3 46 48 49
