ply
format ascii 1.0
element vertex 70
property short x
property short y
property short z
property float s
property float t
property float nx
property float ny
property float nz
property uchar alpha
element face 28
property list uchar uint vertex_indices
end_header
1024 1536 171 -0.396484375 1.484375 -0.28125 0.8203125 -0.46875 255
3097 1741 -733 -4.55078125 0.09375 -0.28125 0.8203125 -0.46875 255
1186 1408 -149 -0.84375 0.984375 -0.28125 0.8203125 -0.46875 255
1024 1408 171 0.015625 0.984375 0.0 -0.9921875 0.0 255
1212 1408 -123 0.015625 0.67578125 0.0 -0.9921875 0.0 255
2076 1408 425 0.982421875 0.67578125 0.0 -0.9921875 0.0 255
1888 1408 720 0.982421875 0.984375 0.0 -0.9921875 0.0 255
1888 1536 720 0.982421875 1.140625 -0.53125 0.0 0.8359375 255
1024 1408 171 0.015625 0.984375 -0.53125 0.0 0.8359375 255
1888 1408 720 0.982421875 0.984375 -0.53125 0.0 0.8359375 255
1024 1536 171 0.015625 1.140625 -0.53125 0.0 0.8359375 255
1024 768 171 0.642578125 0.017578125 0.828125 0.0 0.53125 255
1212 1408 -123 0.982421875 0.765625 0.828125 0.0 0.53125 255
1024 1408 171 0.642578125 0.765625 0.828125 0.0 0.53125 255
1212 768 -123 0.982421875 0.017578125 0.828125 0.0 0.53125 255
-1535 0 1536 5.97265625 0.984375 -0.515625 0.0 -0.8359375 255
-1535 768 1536 5.369140625 2.38671875 -0.515625 0.0 -0.8359375 255
1186 1408 -149 -0.84375 0.984375 -0.515625 0.0 -0.8359375 255
-1535 768 1536 5.369140625 2.38671875 -0.484375 0.6875 -0.515625 255
1024 1536 171 -0.396484375 1.484375 -0.484375 0.6875 -0.515625 255
1186 1408 -149 -0.84375 0.984375 -0.484375 0.6875 -0.515625 255
3097 1741 -733 2.484375 0.7578125 -0.3984375 0.3046875 -0.8515625 255
1024 1536 171 1.482421875 -0.064453125 -0.3984375 0.3046875 -0.8515625 255
1950 2049 -82 1.943359375 0.072265625 -0.3984375 0.3046875 -0.8515625 255
1888 1536 720 1.90234375 -0.33203125 0.46875 0.7109375 0.4921875 255
3097 1741 -733 2.484375 0.7578125 0.46875 0.7109375 0.4921875 255
1950 2049 -82 1.943359375 0.072265625 0.46875 0.7109375 0.4921875 255
1024 1536 171 1.482421875 -0.064453125 -0.3046875 0.796875 0.484375 255
1888 1536 720 1.90234375 -0.33203125 -0.3046875 0.796875 0.484375 255
1950 2049 -82 1.943359375 0.072265625 -0.3046875 0.796875 0.484375 255
1186 768 -149 -0.341796875 -0.125 -0.515625 0.0 -0.8359375 255
1186 768 -149 -0.341796875 -0.125 -0.2890625 0.0 -0.9453125 255
1186 1408 -149 -0.84375 0.984375 -0.2890625 0.0 -0.9453125 255
3097 1741 -733 -4.55078125 0.09375 -0.2890625 0.0 -0.9453125 255
3584 656 -767 2.728515625 0.392578125 0.703125 0.296875 0.625 255
3097 1741 -733 2.484375 0.7578125 0.703125 0.296875 0.625 255
1888 1536 720 1.90234375 -0.33203125 0.703125 0.296875 0.625 255
3584 656 -767 2.728515625 0.392578125 0.6171875 0.71875 0.2734375 255
1888 1536 720 1.90234375 -0.33203125 0.6171875 0.71875 0.2734375 255
1692 768 3192 1.60546875 -1.6015625 0.6171875 0.71875 0.2734375 255
-1535 768 1536 -4.671875 0.017578125 0.4609375 0.0 0.875 255
1024 768 171 0.982421875 0.017578125 0.4609375 0.0 0.875 255
1024 1536 171 0.982421875 1.513671875 0.4609375 0.0 0.875 255
1212 1408 -123 0.015625 0.984375 -0.53125 0.0 0.8359375 255
2076 768 425 0.982421875 0.267578125 -0.53125 0.0 0.8359375 255
2076 1408 425 0.982421875 0.984375 -0.53125 0.0 0.8359375 255
1212 768 -123 0.015625 0.267578125 -0.53125 0.0 0.8359375 255
-767 0 -767 0.015625 -0.1171875 -0.3984375 0.890625 0.1640625 255
1186 768 -149 0.015625 2.013671875 -0.3984375 0.890625 0.1640625 255
3097 1741 -733 -1.115234375 3.84765625 -0.3984375 0.890625 0.1640625 255
-767 0 -767 0.015625 -0.1171875 -0.328125 0.921875 -0.109375 255
-1535 0 1536 2.3515625 -0.15234375 -0.328125 0.921875 -0.109375 255
1186 768 -149 0.015625 2.013671875 -0.328125 0.921875 -0.109375 255
2079 1368 -1535 -1.5625 2.61328125 -0.40625 0.8984375 0.09375 255
-767 0 -767 0.015625 -0.1171875 -0.40625 0.8984375 0.09375 255
3097 1741 -733 -1.115234375 3.84765625 -0.40625 0.8984375 0.09375 255
-767 0 -767 0.015625 -0.1171875 -0.40625 0.8984375 0.0625 255
2079 1368 -1535 -1.5625 2.61328125 -0.40625 0.8984375 0.0625 255
-1016 0 -2299 -1.36328125 -0.755859375 -0.40625 0.8984375 0.0625 255
1692 768 3192 4.974609375 0.984375 -0.984375 0.0 -0.078125 255
1888 1536 720 -0.083984375 0.984375 -0.984375 0.0 -0.078125 255
1888 768 720 0.357421875 -0.412109375 -0.984375 0.0 -0.078125 255
1888 1408 720 0.982421875 0.984375 -0.8359375 0.0 -0.53125 255
2076 768 425 0.642578125 0.267578125 -0.8359375 0.0 -0.53125 255
1888 768 720 0.982421875 0.267578125 -0.8359375 0.0 -0.53125 255
2076 1408 425 0.642578125 0.984375 -0.8359375 0.0 -0.53125 255
1260 2918 -2327 0.015625 0.017578125 0.0 0.9921875 0.0 255
1521 2918 -2452 0.98046875 0.984375 0.0 0.9921875 0.0 255
1328 2918 -2520 0.015625 0.984375 0.0 0.9921875 0.0 255
1452 2918 -2259 0.98046875 0.017578125 0.0 0.9921875 0.0 255
3 0 1 2
3 3 4 5
3 3 5 6
3 7 8 9
3 7 10 8
3 11 12 13
3 11 14 12
3 15 16 17
3 18 19 20
3 21 22 23
3 24 25 26
3 27 28 29
3 15 17 30
3 31 32 33
3 34 35 36
3 37 38 39
3 40 41 42
3 43 44 45
3 43 46 44
3 47 48 49
3 50 51 52
3 53 54 55
3 56 57 58
3 59 60 61
3 62 63 64
3 62 65 63
3 66 67 68
3 66 69 67
