ply
format ascii 1.0
element vertex 78
property short x
property short y
property short z
property float s
property float t
property float nx
property float ny
property float nz
property uchar alpha
element face 44
property list uchar uint vertex_indices
end_header
5478 1536 4506 3.478515625 0.017578125 -0.9921875 0.0 0.0 255
5478 1024 4506 3.478515625 0.984375 -0.9921875 0.0 0.0 255
5478 1024 4710 4.4765625 0.984375 -0.9921875 0.0 0.0 255
5478 1536 4710 4.4765625 0.017578125 -0.9921875 0.0 0.0 255
5274 1536 4506 2.48046875 0.017578125 0.0 0.0 0.9921875 255
5478 1024 4506 3.478515625 0.984375 0.0 0.0 0.9921875 255
5478 1536 4506 3.478515625 0.017578125 0.0 0.0 0.9921875 255
5274 1024 4506 2.478515625 0.984375 0.0 0.0 0.9921875 255
5478 1536 4710 0.482421875 0.017578125 0.0 0.0 -0.9921875 255
5478 1024 4710 0.484375 0.984375 0.0 0.0 -0.9921875 255
5274 1024 4710 1.482421875 0.984375 0.0 0.0 -0.9921875 255
5274 1536 4710 1.482421875 0.017578125 0.0 0.0 -0.9921875 255
5274 1536 4710 1.482421875 0.017578125 0.9921875 0.0 0.0 255
5274 1024 4710 1.482421875 0.984375 0.9921875 0.0 0.0 255
5274 1024 4506 2.478515625 0.984375 0.9921875 0.0 0.0 255
5274 1536 4506 2.48046875 0.017578125 0.9921875 0.0 0.0 255
5478 1024 4506 0.015625 0.984375 0.0 0.9921875 0.0 255
5274 1024 4710 0.783203125 0.216796875 0.0 0.9921875 0.0 255
5478 1024 4710 0.783203125 0.984375 0.0 0.9921875 0.0 255
5274 1024 4506 0.015625 0.216796875 0.0 0.9921875 0.0 255
5888 1024 5120 1.482421875 -0.09765625 0.0 0.4375 0.8828125 255
5632 1536 4864 0.982421875 0.984375 0.0 0.4375 0.8828125 255
5120 1536 4864 0.015625 0.984375 0.0 0.4375 0.8828125 255
5120 1536 4864 0.015625 0.017578125 0.0 0.9921875 0.0 255
5632 1536 4864 0.982421875 0.017578125 0.0 0.9921875 0.0 255
5478 1536 4710 0.68359375 0.31640625 0.0 0.9921875 0.0 255
5632 1536 4352 0.982421875 0.984375 0.0 0.9921875 0.0 255
5478 1536 4506 0.68359375 0.716796875 0.0 0.9921875 0.0 255
5274 1536 4506 0.283203125 0.716796875 0.0 0.9921875 0.0 255
5274 1536 4710 0.283203125 0.31640625 0.0 0.9921875 0.0 255
5120 1536 4352 0.015625 0.984375 0.0 0.9921875 0.0 255
5888 1024 4096 1.486328125 -0.09765625 0.8828125 0.4375 0.0 255
5632 1536 4864 -0.009765625 0.984375 0.8828125 0.4375 0.0 255
5888 1024 5120 -0.5078125 -0.09765625 0.8828125 0.4375 0.0 255
5632 1536 4352 0.98828125 0.984375 0.8828125 0.4375 0.0 255
-3503 960 111 -0.88671875 1.11328125 0.0 0.9921875 0.0 255
-3187 960 -115 0.982421875 0.896484375 0.0 0.9921875 0.0 255
-3231 960 -159 0.982421875 1.115234375 0.0 0.9921875 0.0 255
4864 1024 5120 -0.513671875 -0.09765625 0.0 0.4375 0.8828125 255
4864 1024 5120 1.48046875 -0.09765625 -0.8828125 0.4375 0.0 255
5120 1536 4352 0.015625 0.984375 -0.8828125 0.4375 0.0 255
4864 1024 4096 -0.51171875 -0.09765625 -0.8828125 0.4375 0.0 255
5120 1536 4864 0.982421875 0.984375 -0.8828125 0.4375 0.0 255
4864 1024 4096 1.482421875 -0.09765625 0.0 0.4375 -0.8828125 255
5632 1536 4352 0.015625 0.984375 0.0 0.4375 -0.8828125 255
5888 1024 4096 -0.513671875 -0.09765625 0.0 0.4375 -0.8828125 255
5120 1536 4352 0.982421875 0.984375 0.0 0.4375 -0.8828125 255
-3458 960 156 -0.88671875 0.896484375 0.0 0.9921875 0.0 255
-3186 896 -114 0.982421875 0.67578125 0.6953125 0.015625 0.6953125 255
-3187 960 -115 0.982421875 0.896484375 0.6953125 0.015625 0.6953125 255
-3458 960 156 -0.88671875 0.896484375 0.6953125 0.015625 0.6953125 255
-3186 896 -114 0.982421875 0.67578125 0.6953125 0.0 0.703125 255
-3458 960 156 -0.88671875 0.896484375 0.6953125 0.0 0.703125 255
-3458 896 156 -0.88671875 0.67578125 0.6953125 0.0 0.703125 255
-3142 832 -69 0.982421875 0.236328125 0.6953125 0.0 0.6953125 255
-3413 896 201 -0.88671875 0.45703125 0.6953125 0.0 0.6953125 255
-3413 832 201 -0.88671875 0.236328125 0.6953125 0.0 0.6953125 255
-3142 896 -69 0.982421875 0.45703125 0.6953125 0.0 0.6953125 255
-3458 896 156 -0.88671875 0.67578125 0.0 0.9921875 0.0 255
-3413 896 201 -0.88671875 0.45703125 0.0 0.9921875 0.0 255
-3142 896 -69 0.982421875 0.45703125 0.0 0.9921875 0.0 255
-3186 896 -114 0.982421875 0.67578125 0.0 0.9921875 0.0 255
-3413 832 201 -0.88671875 0.236328125 0.0 0.9921875 0.0 255
-3368 832 246 -0.88671875 0.017578125 0.0 0.9921875 0.0 255
-3097 832 -24 0.982421875 0.017578125 0.0 0.9921875 0.0 255
-3142 832 -69 0.982421875 0.236328125 0.0 0.9921875 0.0 255
-3097 768 -24 0.982421875 -0.201171875 0.6953125 0.0 0.6953125 255
-3097 832 -24 0.982421875 0.017578125 0.6953125 0.0 0.6953125 255
-3368 832 246 -0.88671875 0.017578125 0.6953125 0.0 0.6953125 255
-3368 768 246 -0.88671875 -0.201171875 0.6953125 0.0 0.6953125 255
-3503 768 111 0.015625 0.017578125 -0.6953125 0.0 0.6953125 255
-3368 768 246 1.015625 0.017578125 -0.6953125 0.0 0.6953125 255
-3413 832 201 0.671875 0.36328125 -0.6953125 0.0 0.6953125 255
-3458 896 156 0.326171875 0.7109375 -0.6953125 0.0 0.6953125 255
-3503 960 111 0.015625 1.056640625 -0.6953125 0.0 0.6953125 255
-3413 896 201 0.671875 0.7109375 -0.6953125 0.0 0.6953125 255
-3458 960 156 0.326171875 1.056640625 -0.6953125 0.0 0.6953125 255
-3368 832 246 1.015625 0.36328125 -0.6953125 0.0 0.6953125 255
3 0 1 2
3 0 2 3
3 4 5 6
3 4 7 5
3 8 9 10
3 8 10 11
3 12 13 14
3 12 14 15
3 16 17 18
3 16 19 17
3 20 21 22
3 23 24 25
3 24 26 27
3 24 27 25
3 26 28 27
3 23 25 29
3 26 30 28
3 30 23 29
3 30 29 28
3 31 32 33
3 31 34 32
3 35 36 37
3 20 22 38
3 39 40 41
3 39 42 40
3 43 44 45
3 43 46 44
3 35 47 36
3 48 49 50
3 51 52 53
3 54 55 56
3 54 57 55
3 58 59 60
3 58 60 61
3 62 63 64
3 62 64 65
3 66 67 68
3 66 68 69
3 70 71 72
3 70 72 73
3 70 73 74
3 72 75 73
3 73 76 74
3 71 77 72
