ply
format ascii 1.0
element vertex 18
property short x
property short y
property short z
property float s
property float t
property float nx
property float ny
property float nz
property uchar alpha
element face 12
property list uchar uint vertex_indices
end_header
-6677 1075 -3554 -1.01171875 4.5078125 0.0 0.9921875 0.0 255
-6537 1075 -3167 2.978515625 -2.439453125 0.0 0.9921875 0.0 255
-6405 1075 -3324 4.974609375 0.984375 0.0 0.9921875 0.0 255
1879 819 6421 -1.01171875 4.5078125 0.0 0.9921875 0.0 255
2151 819 6650 4.974609375 0.984375 0.0 0.9921875 0.0 255
2081 819 6456 2.978515625 4.5078125 0.0 0.9921875 0.0 255
1747 819 6579 -3.0078125 0.984375 0.0 0.9921875 0.0 255
1817 819 6772 -1.01171875 -2.439453125 0.0 0.9921875 0.0 255
2019 819 6807 2.978515625 -2.439453125 0.0 0.9921875 0.0 255
-6133 1075 -5503 -1.01171875 4.5078125 0.0 0.9921875 0.0 255
-6194 1075 -5152 -1.01171875 -2.439453125 0.0 0.9921875 0.0 255
-5993 1075 -5116 2.978515625 -2.439453125 0.0 0.9921875 0.0 255
-5861 1075 -5273 4.974609375 0.984375 0.0 0.9921875 0.0 255
-5931 1075 -5468 2.978515625 4.5078125 0.0 0.9921875 0.0 255
-6265 1075 -5344 -3.0078125 0.984375 0.0 0.9921875 0.0 255
-6739 1075 -3202 -1.01171875 -2.439453125 0.0 0.9921875 0.0 255
-6809 1075 -3395 -3.0078125 0.984375 0.0 0.9921875 0.0 255
-6475 1075 -3518 2.978515625 4.5078125 0.0 0.9921875 0.0 255
3 0 1 2
3 3 4 5
3 3 6 7
3 3 7 8
3 3 8 4
3 9 10 11
3 9 12 13
3 9 11 12
3 9 14 10
3 0 15 1
3 0 16 15
3 0 2 17
