ply
format ascii 1.0
element vertex 28
property short x
property short y
property short z
property float nx
property float ny
property float nz
property uchar alpha
element face 40
property list uchar uint vertex_indices
end_header
-66 2 139 -0.625 -0.5390625 0.5390625 255
0 0 163 0.0 -0.546875 0.8203125 255
-31 35 118 -0.375 0.296875 0.8671875 255
-32 17 109 0.0 -0.9765625 -0.125 255
33 17 109 -0.0390625 -0.96875 -0.171875 255
-95 22 46 -0.6875 -0.5546875 0.4375 255
-101 10 -7 -0.3125 -0.9296875 0.1328125 255
-70 101 113 -0.6640625 0.171875 0.7109375 255
-135 70 23 -0.96875 0.1640625 0.125 255
-125 38 -45 -0.8984375 -0.15625 -0.3671875 255
-86 1 -60 -0.390625 -0.90625 -0.078125 255
-41 144 64 -0.28125 0.9453125 0.0 255
-76 84 -60 -0.3359375 0.859375 -0.3515625 255
136 70 22 0.9609375 0.171875 0.125 255
71 101 113 0.6640625 0.171875 0.7109375 255
96 22 45 0.5625 -0.71875 0.3828125 255
42 144 64 0.3359375 0.921875 0.1015625 255
76 84 -60 0.328125 0.84375 -0.3828125 255
103 10 -6 0.515625 -0.828125 0.140625 255
126 38 -46 0.8984375 -0.15625 -0.375 255
67 2 139 0.625 -0.546875 0.53125 255
33 35 118 0.375 0.296875 0.859375 255
86 1 -60 0.25 -0.953125 -0.015625 255
53 0 -118 0.34375 -0.5859375 -0.7109375 255
49 62 -139 0.390625 0.5703125 -0.703125 255
0 110 143 0.0 0.40625 0.8984375 255
-52 0 -118 -0.359375 -0.7734375 -0.4921875 255
-49 62 -138 -0.390625 0.203125 -0.8828125 255
3 0 1 2
3 3 4 1
3 3 1 0
3 3 5 6
3 3 0 5
3 5 7 8
3 5 8 6
3 0 2 5
3 6 9 10
3 8 9 6
3 11 8 7
3 8 12 9
3 12 8 11
3 13 14 15
3 16 13 17
3 18 19 13
3 19 17 13
3 14 13 16
3 13 15 18
3 15 20 4
3 21 20 15
3 22 19 18
3 21 1 20
3 20 1 4
3 2 1 21
3 23 24 19
3 12 11 17
3 11 25 16
3 7 25 11
3 11 16 17
3 16 25 14
3 12 17 24
3 19 24 17
3 26 27 23
3 9 27 26
3 24 27 12
3 27 24 23
3 12 27 9
3 23 19 22
3 10 9 26
