ply
format ascii 1.0
element vertex 9
property short x
property short y
property short z
property float nx
property float ny
property float nz
property uchar alpha
element face 7
property list uchar uint vertex_indices
end_header
86 1 -60 0.25 -0.953125 -0.015625 255
-86 1 -60 -0.390625 -0.90625 -0.078125 255
-52 0 -118 -0.359375 -0.7734375 -0.4921875 255
33 17 109 -0.0390625 -0.96875 -0.171875 255
-32 17 109 0.0 -0.9765625 -0.125 255
-101 10 -7 -0.3125 -0.9296875 0.1328125 255
96 22 45 0.5625 -0.71875 0.3828125 255
103 10 -6 0.515625 -0.828125 0.140625 255
53 0 -118 0.34375 -0.5859375 -0.7109375 255
3 0 1 2
3 3 4 5
3 6 3 5
3 7 6 5
3 0 7 5
3 0 5 1
3 2 8 0
