ply
format ascii 1.0
element vertex 28
property short x
property short y
property short z
property float nx
property float ny
property float nz
property uchar alpha
element face 41
property list uchar uint vertex_indices
end_header
29 -82 43 -0.8359375 -0.5234375 0.0 255
70 -52 35 -0.4609375 -0.265625 -0.828125 255
106 -124 90 -0.7734375 -0.609375 0.0703125 255
65 -53 55 -0.5703125 0.0078125 0.8046875 255
151 -168 67 -0.09375 -0.9453125 -0.28125 255
137 -137 134 -0.7578125 -0.2578125 0.5703125 255
114 -92 -11 -0.46875 -0.5625 -0.65625 255
228 -121 117 0.796875 -0.3984375 -0.4140625 255
182 -72 -8 0.6015625 -0.3046875 -0.71875 255
181 -167 138 0.046875 -0.9375 0.296875 255
171 -129 178 -0.6015625 -0.3671875 0.6875 255
160 65 148 -0.6015625 0.5546875 0.5546875 255
211 81 156 0.265625 0.84375 0.4296875 255
183 100 86 0.1328125 0.96875 -0.1484375 255
129 65 103 -0.6953125 0.625 0.3046875 255
78 11 40 -0.375 0.484375 -0.7734375 255
131 47 -1 -0.3203125 0.75 -0.5625 255
45 49 53 -0.6875 0.703125 0.078125 255
73 11 60 -0.5390625 -0.0390625 0.828125 255
192 42 190 -0.6015625 0.2734375 0.7265625 255
18 -13 33 -0.96875 0.125 -0.1484375 255
192 11 -2 0.5859375 0.3203125 -0.7265625 255
107 -19 -33 -0.3671875 0.109375 -0.90625 255
246 29 128 0.890625 0.25 -0.34375 255
285 -6 196 0.9453125 0.2734375 0.0859375 255
273 -105 188 0.7421875 -0.5078125 0.40625 255
228 1 228 0.15625 0.265625 0.9375 255
216 -104 220 -0.2109375 -0.40625 0.875 255
3 0 1 2
3 3 0 2
3 2 4 5
3 6 2 1
3 2 6 4
3 7 4 8
3 8 4 6
3 4 9 5
3 4 7 9
3 5 9 10
3 11 12 13
3 13 14 11
3 15 14 16
3 14 17 18
3 15 17 14
3 13 16 14
3 19 12 11
3 15 20 17
3 1 20 15
3 21 22 16
3 16 13 21
3 17 20 18
3 7 23 24
3 21 13 23
3 12 23 13
3 3 20 0
3 0 20 1
3 3 18 20
3 6 22 8
3 8 21 23
3 8 22 21
3 7 8 23
3 12 24 23
3 7 25 9
3 24 25 7
3 25 24 26
3 9 25 27
3 27 25 26
3 26 24 12
3 26 12 19
3 10 9 27
