ply
format ascii 1.0
element vertex 10
property short x
property short y
property short z
property float nx
property float ny
property float nz
property uchar alpha
element face 8
property list uchar uint vertex_indices
end_header
65 -53 55 -0.5703125 0.0078125 0.8046875 255
106 -124 90 -0.7734375 -0.609375 0.0703125 255
137 -137 134 -0.7578125 -0.2578125 0.5703125 255
73 11 60 -0.5390625 -0.0390625 0.828125 255
129 65 103 -0.6953125 0.625 0.3046875 255
160 65 148 -0.6015625 0.5546875 0.5546875 255
192 42 190 -0.6015625 0.2734375 0.7265625 255
171 -129 178 -0.6015625 -0.3671875 0.6875 255
216 -104 220 -0.2109375 -0.40625 0.875 255
228 1 228 0.15625 0.265625 0.9375 255
3 0 1 2
3 3 0 2
3 4 3 2
3 5 4 2
3 6 5 2
3 6 2 7
3 8 9 6
3 6 7 8
