ply
format ascii 1.0
element vertex 25
property short x
property short y
property short z
property float nx
property float ny
property float nz
property uchar alpha
element face 46
property list uchar uint vertex_indices
end_header
1 24 35 -0.34375 0.46875 0.796875 255
29 7 48 -0.4765625 -0.046875 0.859375 255
29 62 34 -0.3984375 0.59375 0.6796875 255
11 60 -3 -0.6640625 0.6953125 -0.203125 255
56 11 65 -0.03125 0.2109375 0.9609375 255
54 54 44 0.2421875 0.625 0.71875 255
58 81 0 0.1484375 0.953125 -0.1875 255
-2 41 0 -0.140625 0.8828125 -0.421875 255
35 9 -36 -0.21875 -0.09375 -0.9609375 255
-13 26 41 -0.140625 0.46875 0.859375 255
23 -25 35 0.03125 -0.484375 0.859375 255
75 -32 65 0.0625 -0.640625 0.75 255
16 1 -22 0.03125 0.0 -0.984375 255
4 -3 -32 0.1328125 0.046875 -0.9765625 255
-19 47 -4 -0.6484375 0.65625 -0.3515625 255
103 -25 1 0.8046875 -0.46875 -0.328125 255
95 -8 52 0.75 0.046875 0.640625 255
31 -39 0 0.515625 -0.7265625 -0.421875 255
13 -37 41 0.140625 -0.6171875 0.7578125 255
55 -43 -3 0.0 -0.953125 -0.25 255
24 -55 -4 0.03125 -0.9140625 -0.3671875 255
-15 -12 7 -0.90625 -0.3828125 -0.0625 255
85 15 52 0.5 0.375 0.765625 255
85 30 -32 0.6171875 0.2578125 -0.7265625 255
96 39 24 0.8359375 0.4453125 0.2578125 255
3 0 1 2
3 2 3 0
3 2 1 4
3 2 5 6
3 6 3 2
3 5 2 4
3 3 7 0
3 3 6 8
3 3 8 7
3 9 0 7
3 10 0 9
3 1 0 10
3 11 1 10
3 11 4 1
3 7 12 13
3 8 12 7
3 13 14 7
3 7 14 9
3 15 16 11
3 17 10 18
3 10 17 19
3 19 11 10
3 9 18 10
3 13 12 17
3 17 12 8
3 8 19 17
3 18 20 17
3 17 20 13
3 8 15 19
3 19 15 11
3 11 16 4
3 18 21 20
3 16 22 4
3 22 5 4
3 8 23 15
3 6 23 8
3 20 21 13
3 13 21 14
3 14 21 9
3 9 21 18
3 6 24 23
3 5 24 6
3 23 24 15
3 15 24 16
3 16 24 22
3 24 5 22
