ply
format ascii 1.0
element vertex 5
property short x
property short y
property short z
property float s
property float t
property float nx
property float ny
property float nz
property uchar alpha
element face 3
property list uchar uint vertex_indices
end_header
131 47 -1 1.09375 0.76171875 -0.3203125 0.75 -0.5625 255
107 -19 -33 0.478515625 0.953125 -0.3671875 0.109375 -0.90625 255
78 11 40 0.76953125 0.185546875 -0.375 0.484375 -0.7734375 255
70 -52 35 0.20703125 0.203125 -0.4609375 -0.265625 -0.828125 255
114 -92 -11 -0.12890625 0.80078125 -0.46875 -0.5625 -0.65625 255
3 0 1 2
3 1 3 2
3 1 4 3
