ply
format ascii 1.0
element vertex 34
property short x
property short y
property short z
property float nx
property float ny
property float nz
element face 64
property list uchar uint vertex_indices
end_header
121 73 -21 0.5546875 0.75 0.3359375
70 89 -20 -0.15625 0.96875 -0.078125
77 41 21 0.2265625 0.328125 0.90625
141 34 -7 0.9296875 0.09375 0.3203125
78 59 -34 -0.015625 0.0859375 -0.984375
119 70 -42 0.4765625 0.53125 -0.6796875
133 28 -40 0.5390625 -0.4296875 -0.703125
83 -17 10 0.6015625 -0.5234375 0.578125
26 -32 6 0.40625 -0.703125 0.5546875
45 -34 10 -0.015625 -0.796875 0.578125
26 16 28 -0.296875 0.09375 0.9375
41 -37 -36 -0.3125 -0.7890625 -0.5078125
20 -27 -27 0.0703125 -0.5078125 -0.84375
25 -1 -44 -0.21875 -0.25 -0.9296875
-3 35 -9 -0.3984375 0.890625 0.1484375
6 53 -9 -0.6328125 0.7578125 0.0
11 29 -52 -0.546875 0.328125 -0.75
1 -33 -23 -0.78125 -0.5390625 -0.25
6 -38 7 -0.640625 -0.6640625 0.3359375
-6 -3 17 -0.875 -0.296875 0.3515625
2 3 26 -0.0859375 0.1796875 0.96875
20 -46 12 0.296875 -0.765625 0.5390625
-17 40 -8 -0.53125 0.8125 0.171875
-10 14 -43 -0.3515625 0.1953125 -0.8984375
13 -39 -31 0.1875 -0.796875 -0.546875
-20 22 -7 -0.9765625 0.046875 0.15625
89 -47 -37 0.671875 -0.671875 -0.2578125
76 -18 -48 0.3046875 0.078125 -0.9375
89 -6 -27 0.71875 -0.0859375 -0.6640625
26 41 -41 0.0390625 0.40625 -0.8984375
69 10 -36 0.4140625 0.21875 -0.8671875
-15 4 -32 -0.9296875 -0.2734375 -0.1953125
1 15 -37 -0.359375 0.0703125 -0.9140625
11 5 17 -0.0078125 0.2109375 0.96875
3 0 1 2
3 3 0 2
3 4 5 6
3 6 3 7
3 1 0 5
3 5 4 1
3 5 3 6
3 8 9 10
3 8 11 9
3 12 13 11
3 14 15 16
3 14 10 15
3 17 18 19
3 20 21 8
3 14 22 20
3 23 22 14
3 12 24 23
3 8 21 24
3 20 18 21
3 22 25 20
3 23 25 22
3 24 17 23
3 21 18 24
3 10 1 15
3 9 7 10
3 26 7 9
3 27 28 26
3 15 29 16
3 7 3 2
3 28 6 7
3 30 4 28
3 0 3 5
3 27 29 30
3 13 16 29
3 29 4 30
3 26 11 27
3 27 13 29
3 9 11 26
3 26 28 7
3 1 4 29
3 29 15 1
3 4 6 28
3 11 13 27
3 27 30 28
3 7 2 10
3 10 2 1
3 18 17 24
3 17 31 23
3 23 31 25
3 25 19 20
3 20 19 18
3 24 12 8
3 23 32 12
3 14 32 23
3 20 33 14
3 8 33 20
3 19 31 17
3 19 25 31
3 14 33 10
3 16 32 14
3 12 32 13
3 32 16 13
3 8 12 11
3 10 33 8
