ply
format ascii 1.0
element vertex 34
property short x
property short y
property short z
property float nx
property float ny
property float nz
element face 64
property list uchar uint vertex_indices
end_header
81 37 -28 0.1875 0.25 -0.9375
76 88 9 -0.1328125 0.9765625 0.0
125 71 9 0.5546875 0.703125 -0.4140625
143 31 -1 0.9140625 0.046875 -0.359375
136 28 31 0.578125 -0.3828125 0.703125
124 69 30 0.53125 0.5703125 0.6015625
84 59 25 0.03125 0.1640625 0.96875
86 -19 -13 0.5703125 -0.578125 -0.5625
30 13 -30 -0.3515625 0.0234375 -0.921875
48 -35 -9 -0.0703125 -0.84375 -0.515625
30 -32 -4 0.3671875 -0.7578125 -0.515625
46 -35 37 -0.3125 -0.734375 0.578125
32 2 43 -0.1796875 -0.1640625 0.953125
26 -24 28 0.1015625 -0.4375 0.875
20 33 48 -0.5078125 0.390625 0.75
13 53 5 -0.625 0.765625 -0.03125
3 36 6 -0.390625 0.8828125 -0.203125
0 -4 -15 -0.8984375 -0.296875 -0.28125
11 -38 -3 -0.6796875 -0.671875 -0.25
7 -30 26 -0.7890625 -0.5 0.3203125
25 -46 -9 0.2578125 -0.8203125 -0.4921875
7 1 -26 -0.140625 0.1015625 -0.96875
-9 41 5 -0.53125 0.796875 -0.2109375
-1 18 42 -0.3046875 0.2734375 0.8984375
19 -36 33 0.203125 -0.75 0.6015625
-12 23 6 -0.9765625 0.0546875 -0.1171875
93 -45 36 0.6796875 -0.65625 0.2734375
93 -5 22 0.7578125 -0.046875 0.625
81 -15 45 0.3671875 0.1484375 0.90625
34 43 36 0.09375 0.4765625 0.859375
75 11 32 0.46875 0.2734375 0.8203125
-7 7 32 -0.921875 -0.234375 0.25
9 18 35 -0.3125 0.1484375 0.921875
16 4 -17 -0.0546875 0.1328125 -0.9765625
3 0 1 2
3 0 2 3
3 4 5 6
3 7 3 4
3 5 2 1
3 1 6 5
3 4 3 5
3 8 9 10
3 9 11 10
3 11 12 13
3 14 15 16
3 15 8 16
3 17 18 19
3 10 20 21
3 21 22 16
3 16 22 23
3 23 24 13
3 24 20 10
3 20 18 21
3 21 25 22
3 22 25 23
3 23 19 24
3 24 18 20
3 15 1 8
3 8 7 9
3 9 7 26
3 26 27 28
3 14 29 15
3 0 3 7
3 7 4 27
3 27 6 30
3 5 3 2
3 30 29 28
3 29 14 12
3 30 6 29
3 28 11 26
3 29 12 28
3 26 11 9
3 7 27 26
3 29 6 1
3 1 15 29
3 27 4 6
3 28 12 11
3 27 30 28
3 8 0 7
3 1 0 8
3 24 19 18
3 23 31 19
3 25 31 23
3 21 17 25
3 18 17 21
3 10 13 24
3 13 32 23
3 23 32 16
3 16 33 21
3 21 33 10
3 19 31 17
3 31 25 17
3 8 33 16
3 16 32 14
3 12 32 13
3 12 14 32
3 11 13 10
3 10 33 8
