ply
format ascii 1.0
element vertex 5
property short x
property short y
property short z
property float s
property float t
property float nx
property float ny
property float nz
property uchar alpha
element face 3
property list uchar uint vertex_indices
end_header
272 48 53 0.8984375 0.984375 0.515625 0.6328125 0.5546875 255
174 79 -9 0.45703125 0.1875 0.6328125 0.7578125 -0.046875 255
146 27 92 1.224609375 0.044921875 0.0234375 0.453125 0.875 255
272 48 -52 0.013671875 0.984375 0.765625 0.3046875 -0.546875 255
146 27 -91 -0.310546875 0.044921875 0.0234375 0.4453125 -0.8828125 255
3 0 1 2
3 3 4 1
3 3 1 0
