ply
format ascii 1.0
element vertex 12
property short x
property short y
property short z
property float nx
property float ny
property float nz
property uchar alpha
element face 14
property list uchar uint vertex_indices
end_header
272 48 -52 0.765625 0.3046875 -0.546875 255
272 48 53 0.515625 0.6328125 0.5546875 255
149 -87 138 0.5234375 -0.578125 0.6015625 255
146 27 -91 0.0234375 0.4453125 -0.8828125 255
149 -87 -137 0.3984375 -0.484375 -0.7578125 255
146 27 92 0.0234375 0.453125 0.875 255
58 -114 81 -0.546875 -0.6484375 0.5 255
98 -165 0 -0.0234375 -0.984375 0.0 255
58 -114 -80 -0.53125 -0.5625 -0.609375 255
168 79 0 -0.3046875 0.9375 0.0 255
175 154 0 -0.2421875 0.84375 -0.453125 255
174 79 -9 0.6328125 0.7578125 -0.046875 255
3 0 1 2
3 3 0 4
3 4 0 2
3 2 1 5
3 6 2 5
3 6 7 2
3 7 4 2
3 3 4 8
3 4 7 8
3 9 10 3
3 10 11 3
3 8 7 6
3 10 5 11
3 10 9 5
