ply
format ascii 1.0
element vertex 8
property short x
property short y
property short z
property float nx
property float ny
property float nz
element face 10
property list uchar uint vertex_indices
end_header
-6 34 -25 -0.75 0.1484375 -0.625
-9 39 24 -0.6015625 0.5234375 0.578125
91 80 -34 0.1484375 0.96875 -0.140625
90 35 33 0.5078125 0.15625 0.8359375
20 -34 21 -0.34375 -0.796875 0.46875
122 4 -45 0.7734375 -0.5390625 0.2890625
122 4 -45 -0.109375 0.1640625 -0.96875
20 -31 -44 -0.4140625 -0.640625 -0.6171875
3 0 1 2
3 1 3 2
3 4 5 3
3 0 6 7
3 0 2 6
3 4 7 5
3 3 1 4
3 2 3 5
3 0 7 4
3 4 1 0
