ply
format ascii 1.0
element vertex 8
property short x
property short y
property short z
property float nx
property float ny
property float nz
element face 10
property list uchar uint vertex_indices
end_header
85 -38 -32 0.4765625 -0.2265625 -0.828125
-15 -35 -22 -0.8046875 -0.28125 -0.4921875
17 37 -22 -0.015625 0.8203125 -0.5546875
116 -10 36 0.796875 0.5546875 0.171875
82 -85 44 0.1484375 -0.921875 -0.3125
-15 -35 43 -0.7734375 -0.15625 0.59375
82 -85 44 0.015625 0.1640625 0.9765625
14 30 26 -0.421875 0.625 0.6328125
3 0 1 2
3 0 2 3
3 4 0 3
3 4 5 1
3 6 3 7
3 5 6 7
3 0 4 1
3 3 2 7
3 1 5 7
3 7 2 1
