ply
format ascii 1.0
element vertex 10
property short x
property short y
property short z
property float s
property float t
property float nx
property float ny
property float nz
property uchar alpha
element face 6
property list uchar uint vertex_indices
end_header
34 39 -98 1.291015625 0.26953125 -0.3984375 0.5 -0.75 255
44 113 0 0.025390625 0.203125 -0.78125 0.6015625 0.0 255
88 101 -32 0.404296875 0.775390625 0.234375 0.7265625 -0.6171875 255
-5 58 0 0.30859375 -0.4375 -0.9375 0.3125 0.0 255
146 27 -91 1.390625 1.521484375 0.15625 0.296875 -0.9296875 255
88 101 33 0.302734375 0.732421875 0.4375 0.6640625 0.5859375 255
44 113 0 0.048828125 0.1640625 -0.78125 0.6015625 0.0 255
34 39 99 1.298828125 0.365234375 -0.3984375 0.5 0.75 255
-5 58 0 0.474609375 -0.39453125 -0.9375 0.3125 0.0 255
146 27 92 1.12109375 1.52734375 0.171875 0.2890625 0.9296875 255
3 0 1 2
3 0 3 1
3 2 4 0
3 5 6 7
3 6 8 7
3 7 9 5
