ply
format ascii 1.0
element vertex 13
property short x
property short y
property short z
property float nx
property float ny
property float nz
property uchar alpha
element face 12
property list uchar uint vertex_indices
end_header
44 113 0 -0.78125 0.6015625 0.0 255
94 146 -32 0.4609375 0.4140625 -0.765625 255
88 101 -32 0.234375 0.7265625 -0.6171875 255
50 153 0 -0.6484375 0.7421875 0.0 255
88 101 33 0.4375 0.6640625 0.5859375 255
94 146 33 -0.0078125 0.53125 0.8359375 255
146 27 92 0.171875 0.2890625 0.9296875 255
34 39 99 -0.3984375 0.5 0.75 255
7 -85 79 -0.671875 -0.28125 0.65625 255
-5 58 0 -0.9375 0.3125 0.0 255
7 -85 -78 -0.6796875 -0.4453125 -0.5546875 255
34 39 -98 -0.3984375 0.5 -0.75 255
146 27 -91 0.15625 0.296875 -0.9296875 255
3 0 1 2
3 0 3 1
3 4 5 0
3 5 3 0
3 1 3 5
3 2 1 4
3 1 5 4
3 6 7 8
3 7 9 8
3 8 9 10
3 10 9 11
3 10 11 12
