ply
format ascii 1.0
element vertex 15
property short x
property short y
property short z
property float nx
property float ny
property float nz
property uchar alpha
element face 23
property list uchar uint vertex_indices
end_header
58 -114 81 -0.3515625 -0.7890625 0.4765625 255
7 -85 79 -0.671875 -0.28125 0.65625 255
7 -85 -78 -0.6796875 -0.4453125 -0.5546875 255
146 27 92 0.171875 0.2890625 0.9296875 255
167 -121 77 0.46875 -0.6484375 0.578125 255
58 -114 -80 -0.3125 -0.7265625 -0.5859375 255
90 -136 0 -0.125 -0.9765625 0.0 255
146 27 -91 0.15625 0.296875 -0.9296875 255
167 -121 -81 0.453125 -0.6484375 -0.5859375 255
218 48 -52 0.7421875 0.4609375 -0.453125 255
168 79 0 0.3046875 0.9375 0.0 255
192 -28 -80 0.6640625 -0.0703125 -0.7265625 255
223 -38 -1 0.9609375 -0.234375 0.0 255
218 48 53 0.75 0.4453125 0.453125 255
192 -28 78 0.671875 -0.09375 0.71875 255
3 0 1 2
3 3 1 0
3 0 4 3
3 0 2 5
3 5 6 0
3 0 6 4
3 5 2 7
3 7 8 5
3 8 6 5
3 9 7 10
3 7 9 11
3 7 11 8
3 6 8 4
3 8 11 12
3 4 8 12
3 11 9 12
3 13 14 12
3 14 4 12
3 4 14 3
3 13 10 3
3 14 13 3
3 9 10 13
3 9 13 12
