ply
format ascii 1.0
element vertex 12
property short x
property short y
property short z
property float nx
property float ny
property float nz
element face 8
property list uchar uint vertex_indices
end_header
-5 20 6 0.0390625 0.765625 -0.625
67 16 5 0.5234375 0.5859375 0.59375
67 -14 -31 0.46875 0.6640625 -0.546875
-5 -30 21 0.0390625 0.25 0.953125
67 -30 17 0.71875 0.15625 0.65625
-5 20 6 0.03125 0.265625 0.953125
-5 -12 -35 0.0546875 0.7734375 -0.609375
-5 -30 21 -0.7109375 -0.6484375 -0.2109375
-5 20 6 -0.9921875 0.0078125 0.0
-5 -12 -35 -0.7109375 -0.6484375 -0.2109375
67 -30 17 -0.015625 -0.9375 -0.3046875
67 -14 -31 -0.015625 -0.9375 -0.3046875
3 0 1 2
3 3 4 1
3 5 3 1
3 6 0 2
3 7 8 9
3 2 1 4
3 10 7 9
3 10 9 11
