ply
format ascii 1.0
element vertex 12
property short x
property short y
property short z
property float nx
property float ny
property float nz
element face 8
property list uchar uint vertex_indices
end_header
-13 12 -35 -0.7109375 0.6484375 -0.2109375
-13 -20 6 -0.9921875 -0.0078125 0.0
-13 30 21 -0.7109375 0.6484375 -0.2109375
54 14 -31 0.4765625 -0.671875 -0.546875
-13 -20 6 0.0390625 -0.765625 -0.6171875
-13 12 -35 0.0546875 -0.78125 -0.6015625
55 -16 5 0.5234375 -0.5859375 0.59375
-13 30 21 0.0390625 -0.25 0.953125
-13 -20 6 0.03125 -0.265625 0.953125
54 30 17 0.71875 -0.1484375 0.65625
54 30 17 -0.015625 0.9375 -0.3125
54 14 -31 -0.015625 0.9375 -0.3125
3 0 1 2
3 3 4 5
3 6 7 8
3 6 9 7
3 3 6 4
3 2 10 11
3 2 11 0
3 9 6 3
