ply
format ascii 1.0
element vertex 14
property short x
property short y
property short z
property float nx
property float ny
property float nz
element face 12
property list uchar uint vertex_indices
end_header
110 11 56 0.3359375 0.9296875 -0.0078125
109 10 -33 0.3359375 0.9296875 -0.0078125
-50 69 -36 0.3359375 0.9296875 -0.0078125
-49 70 63 0.3359375 0.9296875 -0.0078125
74 -39 51 0.1484375 -0.625 0.75
110 11 56 0.7109375 -0.5390625 0.421875
-49 70 63 0.0 -0.09375 0.984375
73 -40 -25 0.1875 -0.828125 -0.5
-56 20 -30 -0.71875 -0.4609375 -0.484375
-50 69 -36 -0.015625 -0.125 -0.9765625
-54 20 58 -0.8046875 -0.484375 0.296875
109 10 -33 0.53125 -0.484375 -0.671875
-50 69 -36 -0.984375 0.109375 0.0078125
-49 70 63 -0.984375 0.109375 0.0078125
3 0 1 2
3 3 0 2
3 4 5 6
3 7 8 9
3 10 4 6
3 7 9 11
3 12 10 13
3 7 10 8
3 7 11 5
3 5 4 7
3 7 4 10
3 12 8 10
