ply
format ascii 1.0
element vertex 14
property short x
property short y
property short z
property float nx
property float ny
property float nz
element face 12
property list uchar uint vertex_indices
end_header
-55 19 -59 -0.796875 -0.5 -0.296875
-57 20 28 -0.71875 -0.4609375 0.484375
-52 69 34 -0.984375 0.09375 -0.0234375
73 -38 -50 0.1640625 -0.640625 -0.734375
71 -37 25 0.1953125 -0.8125 0.515625
108 12 -55 0.71875 -0.53125 -0.40625
106 13 33 0.53125 -0.4609375 0.6875
-50 68 -65 -0.984375 0.09375 -0.0234375
-52 69 34 -0.0234375 -0.109375 0.984375
-50 68 -65 0.015625 -0.109375 -0.984375
-52 69 34 0.3203125 0.9296875 0.0
108 12 -55 0.3203125 0.9296875 0.0
-50 68 -65 0.3203125 0.9296875 0.0
106 13 33 0.3203125 0.9296875 0.0
3 0 1 2
3 0 3 4
3 4 3 5
3 5 6 4
3 1 0 4
3 7 0 2
3 6 8 4
3 9 3 0
3 8 1 4
3 9 5 3
3 10 11 12
3 10 13 11
