ply
format ascii 1.0
element vertex 14
property short x
property short y
property short z
property float nx
property float ny
property float nz
element face 12
property list uchar uint vertex_indices
end_header
2 -29 27 -0.546875 -0.7265625 0.3828125
1 -26 -50 -0.8671875 -0.2734375 -0.3828125
68 -37 -56 -0.15625 -0.9765625 -0.0234375
70 -40 30 -0.15625 -0.9765625 -0.0234375
68 -37 -56 0.984375 -0.0546875 -0.015625
74 54 -43 0.984375 -0.0546875 -0.015625
75 52 21 0.984375 -0.0546875 -0.015625
70 -40 30 0.984375 -0.0546875 -0.015625
6 47 19 -0.6484375 0.3984375 0.625
6 49 -38 -0.3828125 0.7109375 -0.5703125
68 -37 -56 -0.0625 0.1484375 -0.9765625
75 52 21 -0.0703125 0.8828125 0.4375
70 -40 30 -0.0390625 0.09375 0.984375
74 54 -43 -0.09375 0.75 -0.6328125
3 0 1 2
3 2 3 0
3 4 5 6
3 4 6 7
3 8 9 1
3 0 8 1
3 10 1 9
3 9 8 11
3 8 0 12
3 12 11 8
3 11 13 9
3 13 10 9
