ply
format ascii 1.0
element vertex 14
property short x
property short y
property short z
property float nx
property float ny
property float nz
element face 12
property list uchar uint vertex_indices
end_header
7 47 38 -0.3828125 0.6953125 0.5859375
70 -39 53 -0.0625 0.125 0.9765625
75 52 42 -0.09375 0.734375 0.6484375
75 52 -23 -0.0859375 0.890625 -0.421875
7 47 -20 -0.6640625 0.40625 -0.609375
71 -39 -34 -0.046875 0.1171875 -0.9765625
3 -29 -29 -0.5390625 -0.71875 -0.3984375
2 -29 48 -0.859375 -0.2890625 0.3828125
71 -39 -34 0.984375 -0.046875 0.0078125
75 52 -23 0.984375 -0.046875 0.0078125
70 -39 53 0.984375 -0.046875 0.0078125
75 52 42 0.984375 -0.046875 0.0078125
71 -39 -34 -0.1484375 -0.9765625 0.0
70 -39 53 -0.1484375 -0.9765625 0.0
3 0 1 2
3 0 2 3
3 4 3 5
3 5 6 4
3 3 4 0
3 0 7 1
3 7 4 6
3 7 0 4
3 8 9 10
3 9 11 10
3 6 12 13
3 13 7 6
