ply
format ascii 1.0
element vertex 14
property short x
property short y
property short z
property float nx
property float ny
property float nz
element face 12
property list uchar uint vertex_indices
end_header
10 51 45 0.0625 0.8984375 0.40625
17 -44 58 0.078125 0.1328125 0.9765625
94 48 38 0.4375 0.5 0.7265625
11 51 -27 0.0859375 0.734375 -0.6484375
95 48 -19 0.578125 0.6171875 -0.5078125
18 -45 -38 0.09375 0.1171875 -0.9765625
101 -28 -28 0.7109375 -0.421875 -0.53125
100 -28 48 0.7734375 -0.5234375 0.3203125
17 -44 58 -0.984375 -0.0703125 -0.0078125
10 51 45 -0.984375 -0.0703125 -0.0078125
18 -45 -38 -0.984375 -0.0703125 -0.0078125
11 51 -27 -0.984375 -0.0703125 -0.0078125
18 -45 -38 0.1875 -0.96875 0.0078125
17 -44 58 0.1875 -0.96875 0.0078125
3 0 1 2
3 3 0 4
3 5 3 4
3 4 6 5
3 0 2 4
3 1 7 2
3 8 9 10
3 9 11 10
3 6 4 7
3 4 2 7
3 12 7 13
3 12 6 7
