ply
format ascii 1.0
element vertex 14
property short x
property short y
property short z
property float nx
property float ny
property float nz
element face 12
property list uchar uint vertex_indices
end_header
102 -25 -48 0.78125 -0.5078125 -0.3359375
103 -27 25 0.71875 -0.4296875 0.515625
25 -45 35 0.2109375 -0.9609375 -0.0234375
24 -42 -56 0.2109375 -0.9609375 -0.0234375
95 50 -36 0.4296875 0.515625 -0.7265625
96 49 18 0.578125 0.609375 0.5078125
25 -45 35 -0.984375 -0.0859375 0.015625
17 51 27 -0.984375 -0.0859375 0.015625
15 53 -42 -0.984375 -0.0859375 0.015625
24 -42 -56 -0.984375 -0.0859375 0.015625
24 -42 -56 0.0703125 0.1484375 -0.9765625
15 53 -42 0.0546875 0.90625 -0.390625
25 -45 35 0.1015625 0.09375 0.9765625
17 51 27 0.0859375 0.71875 0.6640625
3 0 1 2
3 3 0 2
3 0 4 5
3 0 5 1
3 6 7 8
3 6 8 9
3 4 0 10
3 5 4 11
3 12 1 5
3 5 13 12
3 5 11 13
3 4 10 11
