ply
format ascii 1.0
element vertex 8
property short x
property short y
property short z
property float s
property float t
property float nx
property float ny
property float nz
property uchar alpha
element face 4
property list uchar uint vertex_indices
end_header
-28 41 -88 -0.37109375 -0.623046875 -0.5703125 0.3828125 -0.7109375 255
0 98 0 1.9375 0.279296875 -0.125 0.9765625 0.0 255
35 64 -82 -0.365234375 0.85546875 0.3203125 0.5859375 -0.7265625 255
39 90 0 1.673828125 1.2578125 0.578125 0.8046875 0.0 255
-28 41 89 1.587890625 -0.4921875 -0.3671875 0.4296875 0.8046875 255
35 64 83 1.060546875 1.05078125 0.3203125 0.5859375 0.7265625 255
0 98 0 -1.0234375 0.0390625 -0.125 0.9765625 0.0 255
39 90 0 -1.103515625 1.10546875 0.578125 0.8046875 0.0 255
3 0 1 2
3 3 2 1
3 4 5 6
3 6 5 7
