ply
format ascii 1.0
element vertex 10
property short x
property short y
property short z
property float nx
property float ny
property float nz
property uchar alpha
element face 9
property list uchar uint vertex_indices
end_header
74 26 60 0.7578125 0.2890625 0.5546875 255
87 42 0 0.921875 0.3515625 0.0 255
39 90 0 0.578125 0.8046875 0.0 255
39 -79 -73 0.3046875 -0.6015625 -0.71875 255
35 64 -82 0.3203125 0.5859375 -0.7265625 255
74 26 -59 0.7578125 0.2890625 -0.5546875 255
89 -45 -42 0.875 -0.375 -0.2578125 255
39 -79 74 0.4296875 -0.546875 0.6953125 255
89 -45 43 0.9140625 -0.21875 0.3125 255
35 64 83 0.3203125 0.5859375 0.7265625 255
3 0 1 2
3 3 4 5
3 5 6 3
3 2 1 5
3 6 5 1
3 7 8 0
3 7 0 9
3 8 6 1
3 1 0 8
