ply
format ascii 1.0
element vertex 15
property short x
property short y
property short z
property float nx
property float ny
property float nz
property uchar alpha
element face 15
property list uchar uint vertex_indices
end_header
-28 -71 81 -0.796875 -0.5234375 0.25 255
-28 41 -88 -0.5703125 0.3828125 -0.7109375 255
-28 -71 -80 -0.5703125 -0.5859375 -0.546875 255
39 -79 -73 0.3046875 -0.6015625 -0.71875 255
-28 41 89 -0.3671875 0.4296875 0.8046875 255
-28 89 0 -0.8203125 0.546875 0.0 255
39 -79 74 0.4296875 -0.546875 0.6953125 255
35 64 83 0.3203125 0.5859375 0.7265625 255
0 98 0 -0.125 0.9765625 0.0 255
35 64 -82 0.3203125 0.5859375 -0.7265625 255
89 -45 -42 0.875 -0.375 -0.2578125 255
89 -45 43 0.9140625 -0.21875 0.3125 255
74 26 -59 0.7578125 0.2890625 -0.5546875 255
39 90 0 0.578125 0.8046875 0.0 255
74 26 60 0.7578125 0.2890625 0.5546875 255
3 0 1 2
3 2 3 0
3 0 4 5
3 3 6 0
3 4 0 6
3 0 5 1
3 7 4 6
3 5 4 8
3 8 1 5
3 3 1 9
3 3 2 1
3 6 3 10
3 10 11 6
3 12 9 13
3 13 7 14
