ply
format ascii 1.0
element vertex 12
property short x
property short y
property short z
property float nx
property float ny
property float nz
element face 8
property list uchar uint vertex_indices
end_header
-6 28 10 0.0703125 0.7890625 -0.5859375
72 21 8 0.53125 0.6015625 0.5625
71 -11 -34 0.4921875 0.6796875 -0.515625
-8 -30 31 0.0703125 0.296875 0.9375
71 -30 23 0.734375 0.1640625 0.6328125
-6 28 10 0.0546875 0.3203125 0.9296875
-8 -7 -41 0.0859375 0.8046875 -0.5625
-8 -30 31 -0.71875 -0.6484375 -0.2109375
-6 28 10 -0.9921875 0.015625 0.0
-8 -7 -41 -0.71875 -0.6484375 -0.2109375
71 -11 -34 -0.0234375 -0.9375 -0.3046875
71 -30 23 -0.0234375 -0.9375 -0.3046875
3 0 1 2
3 3 4 1
3 5 3 1
3 6 0 2
3 7 8 9
3 2 1 4
3 7 9 10
3 7 10 11
