ply
format ascii 1.0
element vertex 12
property short x
property short y
property short z
property float nx
property float ny
property float nz
element face 8
property list uchar uint vertex_indices
end_header
65 30 23 0.734375 -0.1640625 0.6328125
66 -21 8 0.5390625 -0.6015625 0.5703125
65 11 -34 0.5 -0.6796875 -0.5078125
-10 7 -41 -0.71875 0.640625 -0.2109375
-9 -28 10 -0.9921875 -0.015625 0.0
-10 30 30 -0.71875 0.640625 -0.2109375
-9 -28 10 0.0703125 -0.796875 -0.578125
-10 7 -41 0.09375 -0.8046875 -0.5625
-10 30 30 0.078125 -0.2890625 0.9375
-9 -28 10 0.0546875 -0.3125 0.9375
65 30 23 -0.03125 0.9375 -0.3046875
65 11 -34 -0.03125 0.9375 -0.3046875
3 0 1 2
3 3 4 5
3 2 6 7
3 1 8 9
3 1 0 8
3 2 1 6
3 5 10 11
3 5 11 3
