ply
format ascii 1.0
element vertex 11
property short x
property short y
property short z
property float nx
property float ny
property float nz
element face 18
property list uchar uint vertex_indices
end_header
-37 -37 0 -0.984375 -0.0859375 0.0
-2 52 92 -0.6171875 0.46875 0.609375
-35 55 0 -0.8203125 0.5390625 0.0
-7 -86 85 -0.5078125 -0.46875 0.703125
49 46 96 0.5859375 0.2265625 0.7578125
-7 -86 -85 -0.3828125 -0.671875 -0.609375
-2 52 -92 -0.625 0.4609375 -0.609375
48 44 -98 0.3203125 0.265625 -0.890625
46 -71 -89 0.8984375 -0.3046875 -0.2734375
46 -71 89 0.53125 -0.7421875 0.3671875
49 96 0 0.3359375 0.9296875 0.0
3 0 1 2
3 1 3 4
3 5 6 7
3 0 2 6
3 6 5 0
3 0 3 1
3 7 8 5
3 3 9 4
3 8 7 10
3 4 9 8
3 5 9 3
3 3 0 5
3 5 8 9
3 10 7 6
3 10 4 8
3 2 1 10
3 6 2 10
3 1 4 10
