ply
format ascii 1.0
element vertex 25
property short x
property short y
property short z
property float nx
property float ny
property float nz
element face 34
property list uchar uint vertex_indices
end_header
-7 -4 36 -0.90625 -0.3984375 -0.0234375
-26 40 0 -0.90625 -0.3984375 -0.0234375
-4 -7 -34 -0.90625 -0.3984375 -0.0234375
14 -51 7 -0.90625 -0.3984375 -0.0234375
81 -8 49 0.421875 -0.203125 0.8671875
42 -20 54 -0.3046875 -0.5390625 0.765625
54 -42 -4 0.03125 -0.984375 -0.078125
52 59 37 -0.0078125 0.6640625 0.734375
16 38 35 -0.4921875 0.3515625 0.7734375
10 3 33 -0.4765625 -0.046875 0.859375
102 -23 0 0.7890625 -0.4921875 -0.3203125
55 84 -8 0.1640625 0.8984375 -0.3671875
7 62 -11 -0.6953125 0.703125 -0.0546875
94 43 18 0.8515625 0.4375 0.2578125
32 8 -40 -0.296875 -0.1875 -0.921875
26 -32 8 0.0625 -0.984375 -0.046875
-3 37 3 -0.625 0.765625 -0.0703125
14 -51 7 0.6171875 -0.375 -0.671875
-4 -7 -34 0.4296875 0.125 -0.8828125
-26 40 0 0.1640625 0.6328125 -0.7421875
-26 40 0 0.015625 0.6171875 0.765625
-7 -4 36 0.1953125 0.1484375 0.953125
14 -51 7 0.421875 -0.3203125 0.8359375
83 30 -39 0.609375 0.21875 -0.7421875
13 0 -26 -0.0859375 -0.109375 -0.9765625
3 0 1 2
3 3 0 2
3 4 5 6
3 4 7 8
3 5 4 8
3 9 5 8
3 10 4 6
3 7 11 12
3 4 13 7
3 7 12 8
3 14 6 15
3 6 5 15
3 8 12 16
3 12 14 16
3 15 17 18
3 18 19 16
3 16 20 21
3 21 22 15
3 12 11 14
3 14 10 6
3 11 13 23
3 23 13 10
3 10 13 4
3 7 13 11
3 14 23 10
3 11 23 14
3 21 15 9
3 21 9 16
3 16 24 18
3 18 24 15
3 14 24 16
3 16 9 8
3 5 9 15
3 15 24 14
