ply
format ascii 1.0
element vertex 25
property short x
property short y
property short z
property float nx
property float ny
property float nz
element face 34
property list uchar uint vertex_indices
end_header
31 10 40 -0.3125 -0.1484375 0.921875
12 1 26 -0.1171875 -0.0703125 0.9765625
27 -32 -3 0.046875 -0.984375 0.0859375
11 2 -28 -0.421875 -0.078125 -0.890625
44 -22 -46 -0.265625 -0.5546875 -0.7734375
18 37 -31 -0.4453125 0.3125 -0.8203125
-2 36 -2 -0.625 0.7578125 0.0234375
-5 -5 34 0.3671875 0.1484375 0.90625
-6 -5 -32 0.21875 0.109375 -0.953125
81 32 40 0.5625 0.2421875 0.7734375
55 84 9 0.15625 0.90625 0.34375
102 -23 6 0.78125 -0.46875 0.3828125
95 43 -12 0.859375 0.421875 -0.25
54 58 -32 0.015625 0.609375 -0.7734375
84 -10 -41 0.4453125 -0.234375 -0.8515625
53 -42 9 0.03125 -0.9765625 0.1171875
7 62 10 -0.6953125 0.703125 0.0
14 -51 -2 0.4296875 -0.3359375 -0.8203125
-26 40 -1 0.0390625 0.5625 -0.8125
-26 40 -1 0.1328125 0.625 0.75
14 -51 -2 0.5703125 -0.3359375 0.734375
-5 -5 34 -0.90625 -0.390625 0.0078125
-6 -5 -32 -0.90625 -0.390625 0.0078125
14 -51 -2 -0.90625 -0.390625 0.0078125
-26 40 -1 -0.90625 -0.390625 0.0078125
3 0 1 2
3 2 3 4
3 5 3 6
3 6 1 0
3 2 1 7
3 7 1 6
3 6 3 8
3 3 2 8
3 0 9 10
3 11 9 0
3 10 12 13
3 14 12 11
3 11 12 9
3 9 12 10
3 15 11 0
3 0 10 16
3 2 17 8
3 8 18 6
3 6 19 7
3 7 20 2
3 6 0 16
3 6 16 5
3 2 4 15
3 2 15 0
3 5 16 13
3 13 12 14
3 16 10 13
3 15 14 11
3 5 4 3
3 5 14 4
3 5 13 14
3 15 4 14
3 21 22 23
3 21 24 22
