ply
format ascii 1.0
element vertex 15
property short x
property short y
property short z
property float nx
property float ny
property float nz
element face 12
property list uchar uint vertex_indices
end_header
-5 -18 -24 -0.9921875 -0.015625 0.0234375
-3 -29 21 -0.9921875 -0.015625 0.0234375
-4 17 26 -0.9921875 -0.015625 0.0234375
52 13 -10 0.6328125 0.5 -0.5703125
53 13 22 0.4765625 0.7734375 0.3828125
53 -26 19 0.7109375 -0.375 0.5703125
52 -17 -21 0.453125 -0.65625 -0.578125
-3 -29 21 0.03125 -0.9609375 -0.21875
-5 -18 -24 0.0234375 -0.9609375 -0.2265625
-5 17 -12 0.0703125 0.9140625 -0.3671875
-4 17 26 0.0625 0.984375 0.0
-5 -18 -24 0.046875 0.328125 -0.9296875
-4 17 26 0.046875 -0.0859375 0.984375
-3 -29 21 0.046875 -0.09375 0.984375
-5 17 -12 -0.9921875 -0.015625 0.0234375
3 0 1 2
3 3 4 5
3 6 3 5
3 6 7 8
3 4 9 10
3 3 11 9
3 3 6 11
3 4 3 9
3 5 4 12
3 5 12 13
3 6 5 7
3 2 14 0
