ply
format ascii 1.0
element vertex 15
property short x
property short y
property short z
property float nx
property float ny
property float nz
element face 12
property list uchar uint vertex_indices
end_header
-9 -29 -18 0.0390625 -0.96875 0.1953125
53 -26 -17 0.6953125 -0.375 -0.5859375
53 -17 24 0.4765625 -0.6640625 0.5546875
-9 -29 -18 0.03125 -0.1015625 -0.984375
-9 16 -24 0.03125 -0.09375 -0.984375
53 13 -21 0.4609375 0.78125 -0.390625
-9 15 15 0.0546875 0.9140625 0.375
53 13 12 0.640625 0.5078125 0.5546875
-9 -19 28 0.0546875 0.34375 0.921875
-9 16 -24 0.046875 0.984375 0.015625
-9 -19 28 0.0390625 -0.96875 0.203125
-9 16 -24 -0.9921875 -0.0078125 0.0
-9 -29 -18 -0.9921875 -0.0078125 0.0
-9 -19 28 -0.9921875 -0.0078125 0.0
-9 15 15 -0.9921875 -0.0078125 0.0
3 0 1 2
3 3 4 1
3 4 5 1
3 6 7 5
3 8 2 7
3 6 8 7
3 9 6 5
3 10 0 2
3 1 7 2
3 1 5 7
3 11 12 13
3 13 14 11
