ply
format ascii 1.0
element vertex 20
property short x
property short y
property short z
property float nx
property float ny
property float nz
element face 22
property list uchar uint vertex_indices
end_header
108 10 36 0.3359375 0.9296875 -0.0078125
108 9 -20 0.3359375 0.9296875 -0.0078125
75 21 -41 0.3359375 0.9296875 -0.0078125
76 22 61 0.3359375 0.9296875 -0.0078125
-14 55 -27 0.3359375 0.9296875 -0.0078125
-13 55 49 0.3359375 0.9296875 -0.0078125
-41 65 9 0.3359375 0.9296875 -0.0078125
41 -18 54 0.03125 -0.59375 0.7890625
76 22 61 0.140625 -0.2734375 0.9375
-13 55 49 -0.390625 0.0546875 0.90625
42 -11 -33 -0.0078125 -0.5625 -0.8125
-37 12 -16 -0.7421875 -0.3828125 -0.5234375
-14 55 -27 -0.40625 0.015625 -0.8984375
-36 13 39 -0.75 -0.375 0.515625
75 21 -41 0.0703125 -0.296875 -0.9375
108 9 -20 0.53125 -0.6484375 -0.515625
78 -30 7 0.40625 -0.8984375 -0.0390625
108 10 36 0.59375 -0.6328125 0.46875
-41 65 9 -0.9765625 0.1640625 0.0
25 -34 11 -0.2734375 -0.9453125 -0.0390625
3 0 1 2
3 3 0 2
3 3 2 4
3 5 3 4
3 6 5 4
3 7 8 9
3 10 11 12
3 13 7 9
3 10 12 14
3 10 14 15
3 16 15 17
3 15 16 10
3 17 8 7
3 7 16 17
3 13 9 18
3 18 12 11
3 19 10 16
3 11 10 19
3 16 7 19
3 19 7 13
3 19 13 11
3 13 18 11
