ply
format ascii 1.0
element vertex 20
property short x
property short y
property short z
property float nx
property float ny
property float nz
element face 22
property list uchar uint vertex_indices
end_header
-38 12 14 -0.7421875 -0.3828125 0.5234375
-43 65 -12 -0.9765625 0.1484375 -0.0078125
-36 12 -41 -0.7421875 -0.390625 -0.515625
25 -34 -11 -0.2578125 -0.953125 0.0546875
41 -18 -55 0.0546875 -0.6015625 -0.78125
79 -29 -7 0.421875 -0.890625 0.0625
42 -10 32 -0.0078125 -0.546875 0.8203125
-15 55 24 -0.4140625 0.03125 0.8984375
-14 54 -51 -0.3828125 0.03125 -0.90625
108 11 -36 0.609375 -0.625 -0.453125
76 23 -62 0.15625 -0.2890625 -0.9296875
107 12 20 0.5390625 -0.6328125 0.53125
74 24 40 0.0625 -0.28125 0.9453125
-15 55 24 0.3203125 0.9296875 0.0
-14 54 -51 0.3203125 0.9296875 0.0
-43 65 -12 0.3203125 0.9296875 0.0
76 23 -62 0.3203125 0.9296875 0.0
74 24 40 0.3203125 0.9296875 0.0
108 11 -36 0.3203125 0.9296875 0.0
107 12 20 0.3203125 0.9296875 0.0
3 0 1 2
3 0 2 3
3 2 4 3
3 3 4 5
3 3 6 0
3 5 6 3
3 0 7 1
3 1 8 2
3 9 5 4
3 4 10 9
3 6 5 11
3 9 11 5
3 11 12 6
3 12 7 6
3 8 4 2
3 7 0 6
3 8 10 4
3 13 14 15
3 13 16 14
3 13 17 16
3 17 18 16
3 17 19 18
