ply
format ascii 1.0
element vertex 15
property short x
property short y
property short z
property float nx
property float ny
property float nz
element face 16
property list uchar uint vertex_indices
end_header
5 -35 9 -0.421875 -0.890625 0.0
65 -44 10 -0.140625 -0.9765625 0.0078125
66 -9 54 -0.109375 -0.28125 0.9375
9 46 33 -0.3359375 0.7578125 0.5390625
69 47 37 -0.0546875 0.796875 0.5859375
70 47 -18 -0.0390625 0.90625 -0.3828125
10 46 -16 -0.6328125 0.5 -0.5703125
67 -9 -36 -0.09375 -0.296875 -0.9375
7 -4 -31 -0.7890625 -0.140625 -0.578125
7 -4 49 -0.8828125 -0.0859375 0.4296875
66 -9 54 0.984375 -0.046875 0.0078125
65 -44 10 0.984375 -0.046875 0.0078125
67 -9 -36 0.984375 -0.046875 0.0078125
70 47 -18 0.984375 -0.046875 0.0078125
69 47 37 0.984375 -0.046875 0.0078125
3 0 1 2
3 3 2 4
3 3 4 5
3 6 5 7
3 0 7 1
3 0 8 7
3 7 8 6
3 5 6 3
3 3 9 2
3 2 9 0
3 10 11 12
3 8 0 9
3 9 6 8
3 9 3 6
3 12 13 10
3 13 14 10
