ply
format ascii 1.0
element vertex 15
property short x
property short y
property short z
property float nx
property float ny
property float nz
element face 16
property list uchar uint vertex_indices
end_header
6 -1 -50 -0.890625 -0.0703125 -0.421875
5 -34 -11 -0.4296875 -0.890625 -0.015625
7 -4 30 -0.7890625 -0.1484375 0.578125
67 -9 34 0.984375 -0.0546875 -0.015625
64 -43 -12 0.984375 -0.0546875 -0.015625
66 -7 -56 0.984375 -0.0546875 -0.015625
66 -7 -56 -0.1171875 -0.265625 -0.9453125
10 48 -33 -0.328125 0.7734375 -0.515625
10 46 16 -0.6171875 0.4921875 0.5859375
71 47 18 -0.0234375 0.8984375 0.3984375
67 -9 34 -0.09375 -0.3125 0.9296875
64 -43 -12 -0.15625 -0.9765625 -0.0234375
70 49 -37 -0.046875 0.8046875 -0.5625
71 47 18 0.984375 -0.0546875 -0.015625
70 49 -37 0.984375 -0.0546875 -0.015625
3 0 1 2
3 3 4 5
3 1 0 6
3 6 0 7
3 7 8 9
3 8 2 10
3 10 2 1
3 11 10 1
3 10 9 8
3 9 12 7
3 12 6 7
3 6 11 1
3 5 13 3
3 5 14 13
3 2 8 0
3 8 7 0
