ply
format ascii 1.0
element vertex 15
property short x
property short y
property short z
property float nx
property float ny
property float nz
element face 16
property list uchar uint vertex_indices
end_header
18 -12 58 0.1484375 -0.2734375 0.9375
22 -52 8 0.21875 -0.9609375 0.0078125
99 -35 8 0.484375 -0.859375 0.0078125
14 51 38 0.0625 0.9140625 0.375
92 47 33 0.421875 0.5859375 0.671875
14 50 -23 0.078125 0.7890625 -0.5859375
92 47 -16 0.5546875 0.6640625 -0.4609375
19 -13 -42 0.1640625 -0.2890625 -0.9296875
96 -3 -31 0.8125 -0.1171875 -0.546875
96 -3 48 0.8828125 -0.0625 0.4375
19 -13 -42 -0.984375 -0.0703125 -0.0078125
22 -52 8 -0.984375 -0.0703125 -0.0078125
18 -12 58 -0.984375 -0.0703125 -0.0078125
14 51 38 -0.984375 -0.0703125 -0.0078125
14 50 -23 -0.984375 -0.0703125 -0.0078125
3 0 1 2
3 3 0 4
3 5 3 6
3 7 5 6
3 1 7 2
3 7 8 2
3 6 8 7
3 3 4 6
3 0 9 4
3 2 9 0
3 9 2 8
3 10 11 12
3 12 13 10
3 13 14 10
3 8 6 9
3 6 4 9
