ply
format ascii 1.0
element vertex 15
property short x
property short y
property short z
property float nx
property float ny
property float nz
element face 16
property list uchar uint vertex_indices
end_header
18 -11 -58 -0.984375 -0.0859375 0.015625
23 -52 -9 -0.984375 -0.0859375 0.015625
20 -14 41 -0.984375 -0.0859375 0.015625
97 -3 30 0.8203125 -0.1171875 0.5390625
99 -33 -10 0.5 -0.8515625 -0.03125
95 -1 -49 0.8828125 -0.0390625 -0.4453125
18 -11 -58 0.140625 -0.25 -0.9453125
91 49 -33 0.40625 0.609375 -0.6640625
92 48 16 0.5546875 0.6640625 0.4765625
13 52 -37 0.046875 0.921875 -0.3515625
20 -14 41 0.171875 -0.3046875 0.921875
23 -52 -9 0.2265625 -0.9609375 -0.0234375
14 50 24 0.078125 0.7734375 0.6015625
13 52 -37 -0.984375 -0.0859375 0.015625
14 50 24 -0.984375 -0.0859375 0.015625
3 0 1 2
3 3 4 5
3 6 5 4
3 7 5 6
3 8 7 9
3 10 3 8
3 4 3 10
3 4 10 11
3 8 12 10
3 8 9 12
3 7 6 9
3 4 11 6
3 5 8 3
3 5 7 8
3 2 13 0
3 2 14 13
