ply
format ascii 1.0
element vertex 12
property short x
property short y
property short z
property float s
property float t
property float nx
property float ny
property float nz
property uchar alpha
element face 8
property list uchar uint vertex_indices
end_header
75 24 -60 -0.056640625 1.892578125 0.75 0.3046875 -0.5625 255
36 47 -76 -0.154296875 0.8203125 0.359375 0.421875 -0.8125 255
44 78 -35 0.98046875 0.89453125 0.5390625 0.7890625 -0.234375 255
-26 49 -87 -0.509765625 -0.568359375 -0.46875 0.3203125 -0.8046875 255
1 87 -53 0.638671875 -0.15234375 0.109375 0.90625 -0.3671875 255
1 87 54 2.478515625 0.298828125 0.1328125 0.90625 0.3671875 255
1 87 54 0.28125 -0.111328125 0.1328125 0.90625 0.3671875 255
44 78 37 -0.07421875 0.87890625 0.5546875 0.7421875 0.328125 255
44 78 -35 -1.349609375 1.109375 0.5390625 0.7890625 -0.234375 255
-26 49 88 1.494140625 -0.470703125 -0.46875 0.3203125 0.8046875 255
36 47 77 1.099609375 0.857421875 0.3671875 0.4296875 0.8125 255
75 24 60 0.9609375 1.888671875 0.765625 0.3046875 0.546875 255
3 0 1 2
3 3 4 1
3 2 1 4
3 4 5 2
3 6 7 8
3 9 10 6
3 6 10 7
3 7 10 11
