ply
format ascii 1.0
element vertex 21
property short x
property short y
property short z
property float nx
property float ny
property float nz
property uchar alpha
element face 17
property list uchar uint vertex_indices
end_header
82 37 28 0.8828125 0.421875 0.109375 255
82 37 -28 0.8828125 0.4140625 -0.171875 255
44 78 -35 0.5390625 0.7890625 -0.234375 255
44 78 37 0.5546875 0.7421875 0.328125 255
95 -39 -25 0.9453125 -0.203125 -0.1875 255
95 -39 25 0.9140625 -0.2890625 0.2265625 255
54 -68 0 0.3515625 -0.921875 0.0 255
56 -4 79 0.4453125 0.03125 0.8828125 255
75 24 60 0.765625 0.3046875 0.546875 255
36 47 77 0.3671875 0.4296875 0.8125 255
9 0 94 0.109375 0.0234375 0.984375 255
22 -41 87 0.2421875 -0.4296875 0.8515625 255
83 -29 58 0.65625 -0.4375 0.59375 255
83 -29 -58 0.640625 -0.4296875 -0.609375 255
40 -66 -47 0.2265625 -0.8671875 -0.4140625 255
22 -41 -86 0.234375 -0.421875 -0.859375 255
36 47 -76 0.359375 0.421875 -0.8125 255
75 24 -60 0.75 0.3046875 -0.5625 255
56 -4 -77 0.4375 0.03125 -0.8828125 255
9 0 -93 0.109375 0.0234375 -0.984375 255
40 -66 48 0.2265625 -0.8671875 0.4140625 255
3 0 1 2
3 2 3 0
3 1 0 4
3 0 5 4
3 6 4 5
3 7 8 9
3 9 10 7
3 7 10 11
3 7 12 8
3 11 12 7
3 13 14 15
3 16 17 18
3 18 19 16
3 17 13 18
3 18 13 15
3 15 19 18
3 11 20 12
