ply
format ascii 1.0
element vertex 31
property short x
property short y
property short z
property float nx
property float ny
property float nz
property uchar alpha
element face 37
property list uchar uint vertex_indices
end_header
83 -29 -58 0.640625 -0.4296875 -0.609375 255
95 -39 -25 0.9453125 -0.203125 -0.1875 255
54 -68 0 0.3515625 -0.921875 0.0 255
75 24 -60 0.75 0.3046875 -0.5625 255
82 37 -28 0.8828125 0.4140625 -0.171875 255
40 -66 -47 0.2265625 -0.8671875 -0.4140625 255
44 78 -35 0.5390625 0.7890625 -0.234375 255
75 24 60 0.765625 0.3046875 0.546875 255
82 37 28 0.8828125 0.421875 0.109375 255
44 78 37 0.5546875 0.7421875 0.328125 255
83 -29 58 0.65625 -0.4375 0.59375 255
95 -39 25 0.9140625 -0.2890625 0.2265625 255
40 -66 48 0.2265625 -0.8671875 0.4140625 255
1 87 -53 0.109375 0.90625 -0.3671875 255
-30 88 42 -0.3515625 0.890625 0.2421875 255
1 87 54 0.1328125 0.90625 0.3671875 255
-30 88 -41 -0.4453125 0.828125 -0.296875 255
-26 49 -87 -0.46875 0.3203125 -0.8046875 255
-71 56 0 -0.9296875 0.3359375 0.0 255
-26 49 88 -0.46875 0.3203125 0.8046875 255
-59 -44 0 -0.9375 -0.3125 0.0 255
-26 -72 -38 -0.296875 -0.9140625 -0.2109375 255
-26 -72 39 -0.296875 -0.9140625 0.2109375 255
-26 -41 85 -0.40625 -0.484375 0.7578125 255
-26 -41 -84 -0.40625 -0.484375 -0.7578125 255
22 -41 87 0.2421875 -0.4296875 0.8515625 255
9 0 94 0.109375 0.0234375 0.984375 255
36 47 77 0.3671875 0.4296875 0.8125 255
9 0 -93 0.109375 0.0234375 -0.984375 255
36 47 -76 0.359375 0.421875 -0.8125 255
22 -41 -86 0.234375 -0.421875 -0.859375 255
3 0 1 2
3 1 0 3
3 3 4 1
3 2 5 0
3 4 3 6
3 7 8 9
3 7 10 11
3 8 7 11
3 11 10 2
3 10 12 2
3 13 14 15
3 13 16 14
3 17 16 13
3 18 14 16
3 16 17 18
3 19 14 18
3 15 14 19
3 18 17 20
3 21 22 20
3 19 18 20
3 22 23 20
3 24 21 20
3 17 24 20
3 20 23 19
3 23 22 12
3 23 25 26
3 12 25 23
3 19 23 26
3 22 21 2
3 19 26 27
3 28 17 29
3 24 17 28
3 24 28 30
3 5 21 24
3 24 30 5
3 21 5 2
3 22 2 12
