ply
format ascii 1.0
element vertex 15
property short x
property short y
property short z
property float nx
property float ny
property float nz
element face 12
property list uchar uint vertex_indices
end_header
-6 -32 -22 0.0625 -0.96875 0.1875
60 -27 -18 0.4765625 -0.4609375 -0.7265625
60 -18 26 0.71875 -0.515625 0.421875
-6 -32 -22 0.0546875 -0.0859375 -0.984375
-7 21 -27 0.0546875 -0.0859375 -0.984375
59 16 -22 0.7109375 0.6171875 -0.296875
-7 20 18 0.09375 0.8984375 0.390625
59 14 14 0.4375 0.5859375 0.6640625
-6 -21 33 0.0859375 0.328125 0.9296875
-7 21 -27 0.078125 0.984375 0.03125
-6 -21 33 0.0625 -0.96875 0.1875
-7 21 -27 -0.9921875 -0.0078125 0.0
-6 -32 -22 -0.9921875 -0.0078125 0.0
-6 -21 33 -0.9921875 -0.0078125 0.0
-7 20 18 -0.9921875 -0.0078125 0.0
3 0 1 2
3 3 4 1
3 4 5 1
3 6 7 5
3 8 2 7
3 6 8 7
3 9 6 5
3 10 0 2
3 5 2 1
3 11 12 13
3 13 14 11
3 5 7 2
