ply
format ascii 1.0
element vertex 15
property short x
property short y
property short z
property float nx
property float ny
property float nz
element face 12
property list uchar uint vertex_indices
end_header
60 -28 22 0.4609375 -0.4453125 0.75
60 -19 -19 0.703125 -0.53125 -0.4453125
60 14 24 0.7109375 0.6171875 0.296875
-7 -31 24 0.03125 -0.96875 -0.203125
-7 -20 -27 0.03125 -0.96875 -0.203125
-8 21 -15 0.1328125 0.8984375 -0.390625
-8 22 27 0.109375 0.984375 -0.0234375
60 13 -9 0.46875 0.546875 -0.671875
-7 -20 -27 0.109375 0.2734375 -0.9375
-8 22 27 0.0234375 -0.046875 0.984375
-7 -31 24 0.0234375 -0.046875 0.984375
-7 -20 -27 -0.9921875 -0.0078125 0.0
-7 -31 24 -0.9921875 -0.0078125 0.0
-8 22 27 -0.9921875 -0.0078125 0.0
-8 21 -15 -0.9921875 -0.0078125 0.0
3 0 1 2
3 1 3 4
3 2 5 6
3 7 8 5
3 7 1 8
3 2 7 5
3 0 2 9
3 0 9 10
3 1 0 3
3 11 12 13
3 13 14 11
3 1 7 2
