ply
format ascii 1.0
element vertex 21
property short x
property short y
property short z
property float nx
property float ny
property float nz
element face 38
property list uchar uint vertex_indices
end_header
0 78 37 -0.4453125 0.8671875 0.15625
44 80 46 0.421875 0.8125 0.359375
43 80 -45 0.34375 0.875 -0.2890625
-6 -84 50 -0.3359375 -0.875 0.296875
41 -86 -45 0.4140625 -0.875 -0.1953125
41 -86 45 0.53125 -0.7890625 0.2421875
-33 -45 -31 -0.9453125 -0.1796875 -0.2265625
-33 -45 31 -0.953125 -0.2109375 0.1640625
-32 43 -22 -0.9140625 0.3515625 -0.125
-2 41 95 -0.546875 0.4609375 0.6796875
-5 -45 97 -0.4453125 -0.265625 0.8359375
44 36 95 0.4765625 0.265625 0.8203125
-5 -45 -97 -0.4453125 -0.2734375 -0.8359375
-2 41 -95 -0.546875 0.4609375 -0.671875
44 35 -96 0.46875 0.265625 -0.828125
-6 -84 -50 -0.4921875 -0.796875 -0.3046875
-32 43 22 -0.90625 0.34375 0.1875
0 78 -37 -0.4609375 0.84375 -0.234375
43 -48 -97 0.4609375 -0.4921875 -0.71875
43 -48 97 0.4609375 -0.484375 0.71875
85 -5 0 0.9921875 -0.015625 0.0
3 0 1 2
3 3 4 5
3 6 7 8
3 9 10 11
3 12 13 14
3 12 15 6
3 3 10 7
3 9 0 16
3 17 13 8
3 9 16 7
3 6 8 13
3 6 15 7
3 18 4 15
3 3 5 19
3 16 0 8
3 11 1 9
3 13 2 14
3 13 17 2
3 1 0 9
3 0 17 8
3 19 10 3
3 15 12 18
3 15 3 7
3 13 12 6
3 7 10 9
3 14 18 12
3 10 19 11
3 7 16 8
3 3 15 4
3 2 17 0
3 2 20 14
3 14 20 18
3 18 20 4
3 4 20 5
3 5 20 19
3 19 20 11
3 11 20 1
3 1 20 2
