ply
format ascii 1.0
element vertex 95
property short x
property short y
property short z
property float nx
property float ny
property float nz
property uchar alpha
element face 74
property list uchar uint vertex_indices
end_header
-21 9 33 -0.921875 -0.2421875 0.2421875 0
-25 24 0 -0.96875 -0.0625 -0.171875 0
-8 -12 -20 -0.8515625 -0.3828125 -0.3203125 0
0 -35 32 -0.7734375 -0.546875 0.265625 255
6 -49 0 -0.6796875 -0.6953125 -0.15625 255
88 -34 39 0.4375 -0.7421875 0.4765625 255
90 -3 52 0.625 0.0546875 0.7578125 255
45 -29 52 -0.1640625 -0.5546875 0.796875 255
23 -29 36 0.140625 -0.15625 0.9609375 255
18 30 41 -0.4921875 0.3359375 0.78125 255
46 49 45 -0.0625 0.53125 0.828125 255
0 21 37 -0.015625 0.53125 0.828125 255
56 -47 -5 0.09375 -0.9453125 -0.265625 255
56 80 1 0.203125 0.828125 0.5 255
8 58 -2 -0.53125 0.6640625 0.5 255
84 48 24 0.390625 0.4765625 0.765625 255
33 7 -37 -0.265625 -0.0859375 -0.9453125 255
56 -47 -5 0.09375 -0.9453125 -0.265625 0
32 -43 0 -0.2734375 -0.546875 -0.7734375 0
32 -43 0 -0.1640625 -0.9296875 0.28125 255
-4 38 0 -0.3515625 0.796875 0.46875 255
8 58 -2 -0.375 0.375 -0.828125 255
-4 38 0 -0.6015625 0.1875 -0.7578125 255
24 -59 -3 -0.46875 -0.5546875 -0.6640625 255
-8 -12 -20 -0.8515625 -0.3828125 -0.3203125 255
2 -5 -33 -0.6484375 -0.296875 -0.6796875 255
-22 43 -3 0.3828125 0.6015625 -0.6875 255
-4 38 0 0.3828125 0.6015625 -0.6875 0
14 -1 -22 0.5546875 0.25 -0.7734375 0
2 -5 -33 0.5546875 0.25 -0.7734375 255
-22 43 -3 -0.953125 0.125 -0.21875 255
-25 24 0 -0.96875 -0.0625 -0.171875 255
-21 9 33 -0.921875 -0.2421875 0.2421875 255
-15 23 43 -0.328125 0.3828125 0.84375 255
15 -39 42 0.09375 -0.515625 0.8359375 255
24 -59 -3 -0.390625 -0.859375 0.28125 255
56 80 1 -0.015625 0.5078125 -0.84375 255
101 -29 15 0.6484375 -0.7265625 0.1640625 255
88 -34 39 0.4375 -0.7421875 0.4765625 0
84 60 -7 -0.0390625 0.53125 -0.828125 255
89 18 -34 0.078125 0.2109375 -0.9609375 255
105 17 3 0.078125 0.96875 0.15625 255
98 10 29 0.078125 0.953125 0.2578125 255
153 7 24 0.09375 0.953125 0.234375 255
94 -22 -18 0.0546875 -0.3984375 -0.8984375 255
14 -1 -22 -0.515625 -0.2109375 -0.8125 255
0 21 37 -0.015625 0.53125 0.828125 0
18 30 41 -0.4921875 0.3359375 0.78125 0
23 -29 36 -0.2265625 -0.9140625 0.2890625 255
32 -43 0 -0.2734375 -0.546875 -0.7734375 255
166 -13 -17 0.953125 0.0625 0.2578125 255
162 14 -11 0.9453125 0.0078125 0.2890625 255
153 7 24 0.953125 0.0625 0.2578125 255
155 -15 21 0.9453125 0.046875 0.2734375 255
84 60 -7 -0.484375 0.796875 0.3125 255
84 48 24 -0.484375 0.796875 0.3125 255
126 84 -3 -0.484375 0.796875 0.3125 255
146 59 -8 0.7265625 0.6015625 0.296875 255
126 84 -3 0.7421875 0.5546875 0.328125 0
123 72 21 0.7265625 0.6015625 0.296875 0
126 84 -3 -0.0234375 0.4296875 -0.890625 255
146 59 -8 0.1640625 0.328125 -0.9140625 255
162 14 -11 0.078125 0.9765625 0.1015625 255
89 18 -34 0.046875 0.984375 -0.0078125 255
162 14 -11 0.296875 0.234375 -0.9140625 255
166 -13 -17 0.1875 -0.0546875 -0.96875 255
84 60 -7 0.6015625 0.7265625 0.28125 255
139 53 25 0.7109375 -0.6875 0.015625 255
105 17 3 0.6953125 -0.703125 -0.0703125 0
146 59 -8 0.6796875 -0.703125 -0.125 0
94 -22 -18 0.21875 -0.9609375 0.0 255
155 -15 21 0.1953125 -0.9609375 -0.1171875 255
166 -13 -17 0.125 -0.9765625 0.0 255
101 -29 15 -0.0078125 -0.234375 0.9609375 255
153 7 24 -0.0078125 -0.234375 0.9609375 255
98 10 29 0.0546875 -0.328125 0.9296875 255
139 53 25 -0.03125 0.1484375 0.9765625 255
123 72 21 -0.03125 0.1640625 0.9765625 0
84 48 24 0.390625 0.4765625 0.765625 0
98 10 29 0.6640625 0.171875 0.7109375 255
155 -15 21 -0.0859375 -0.1328125 0.9765625 255
146 59 -8 0.6796875 -0.703125 -0.125 255
105 17 3 0.6953125 -0.703125 -0.0703125 255
89 18 -34 0.6328125 -0.703125 -0.2734375 255
123 72 21 -0.4765625 0.796875 0.3203125 0
126 84 -3 -0.484375 0.796875 0.3125 0
98 10 29 0.7109375 -0.6875 0.015625 255
123 72 21 0.7265625 0.6015625 0.296875 255
139 53 25 0.703125 0.640625 0.2578125 255
24 -59 -3 0.8125 -0.4453125 0.34375 255
32 -43 0 0.8125 -0.4453125 0.34375 255
32 -43 0 0.640625 -0.140625 -0.734375 0
24 -59 -3 0.640625 -0.140625 -0.734375 255
-22 43 -3 0.203125 0.890625 0.3671875 255
94 -22 -18 0.21875 -0.9609375 0.0 0
3 0 1 2
3 3 0 2
3 2 4 3
3 5 6 7
3 8 7 9
3 7 6 10
3 7 10 9
3 11 8 9
3 7 12 5
3 10 13 14
3 6 15 10
3 10 14 9
3 16 17 18
3 17 7 19
3 9 14 20
3 21 16 22
3 23 4 24
3 23 24 25
3 26 27 28
3 26 28 29
3 30 31 32
3 30 32 33
3 33 32 3
3 33 3 34
3 34 3 4
3 34 4 35
3 21 36 16
3 37 38 17
3 36 39 40
3 41 42 43
3 10 15 13
3 17 16 44
3 36 40 16
3 16 45 22
3 20 46 47
3 7 48 19
3 49 45 16
3 50 51 52
3 50 52 53
3 54 55 56
3 57 58 59
3 60 40 39
3 40 60 61
3 62 63 41
3 40 64 65
3 13 15 66
3 67 68 69
3 16 40 44
3 5 37 6
3 70 71 37
3 71 70 72
3 73 74 75
3 76 77 78
3 78 79 76
3 73 80 74
3 79 78 6
3 37 79 6
3 81 82 83
3 65 44 40
3 55 84 85
3 67 86 82
3 41 43 62
3 87 88 57
3 89 90 8
3 89 8 34
3 29 28 91
3 29 91 92
3 25 24 31
3 25 31 30
3 33 11 20
3 33 20 93
3 34 8 11
3 34 11 33
3 37 17 94
