ply
format ascii 1.0
element vertex 10
property short x
property short y
property short z
property float s
property float t
property float nx
property float ny
property float nz
property uchar alpha
element face 4
property list uchar uint vertex_indices
end_header
368 146 7 0.982421875 0.9921875 -0.515625 0.7890625 -0.296875 255
166 37 68 0.015625 0.009765625 -0.515625 0.7890625 -0.296875 255
212 96 143 0.982421875 0.009765625 -0.515625 0.7890625 -0.296875 255
368 146 7 0.982421875 0.9921875 -0.515625 0.78125 -0.3046875 255
322 87 -67 0.015625 0.9921875 -0.515625 0.78125 -0.3046875 255
166 37 68 0.015625 0.009765625 -0.515625 0.78125 -0.3046875 255
178 -177 128 0.982421875 0.009765625 -0.6875 -0.59375 -0.3828125 255
149 -100 60 0.015625 0.009765625 -0.6875 -0.59375 -0.3828125 255
319 -248 -14 0.982421875 0.9921875 -0.6875 -0.59375 -0.3828125 255
290 -171 -81 0.015625 0.9921875 -0.6875 -0.59375 -0.3828125 255
3 0 1 2
3 3 4 5
3 6 7 8
3 7 9 8
