ply
format ascii 1.0
element vertex 8
property short x
property short y
property short z
property float s
property float t
property float nx
property float ny
property float nz
property uchar alpha
element face 4
property list uchar uint vertex_indices
end_header
414 206 82 0.982421875 0.9921875 -0.515625 0.78125 -0.3046875 255
212 96 143 0.015625 0.009765625 -0.515625 0.78125 -0.3046875 255
258 156 218 0.982421875 0.009765625 -0.515625 0.78125 -0.3046875 255
368 146 7 0.015625 0.9921875 -0.515625 0.78125 -0.3046875 255
178 -177 128 0.015625 0.009765625 -0.6875 -0.6015625 -0.3828125 255
319 -248 -14 0.015625 0.9921875 -0.6875 -0.6015625 -0.3828125 255
349 -325 53 0.982421875 0.9921875 -0.6875 -0.6015625 -0.3828125 255
207 -253 195 0.982421875 0.009765625 -0.6875 -0.6015625 -0.3828125 255
3 0 1 2
3 0 3 1
3 4 5 6
3 7 4 6
