ply
format ascii 1.0
element vertex 12
property short x
property short y
property short z
property float s
property float t
property float nx
property float ny
property float nz
property uchar alpha
element face 4
property list uchar uint vertex_indices
end_header
199 247 -55 0.982421875 0.9921875 0.6953125 -0.1484375 0.6875 255
131 274 20 0.015625 0.9921875 0.6953125 -0.1484375 0.6875 255
69 71 38 0.015625 0.009765625 0.6953125 -0.1484375 0.6875 255
199 247 -55 0.982421875 0.9921875 0.6875 -0.140625 0.6875 255
69 71 38 0.015625 0.009765625 0.6875 -0.140625 0.6875 255
138 44 -37 0.982421875 0.009765625 0.6875 -0.140625 0.6875 255
-137 44 -37 0.982421875 0.009765625 -0.6875 -0.140625 0.6875 255
-68 71 38 0.015625 0.009765625 -0.6875 -0.140625 0.6875 255
-198 247 -55 0.982421875 0.9921875 -0.6875 -0.140625 0.6875 255
-68 71 38 0.015625 0.009765625 -0.6953125 -0.1484375 0.6875 255
-130 274 20 0.015625 0.9921875 -0.6953125 -0.1484375 0.6875 255
-198 247 -55 0.982421875 0.9921875 -0.6953125 -0.1484375 0.6875 255
3 0 1 2
3 3 4 5
3 6 7 8
3 9 10 11
