ply
format ascii 1.0
element vertex 14
property short x
property short y
property short z
property float s
property float t
property float nx
property float ny
property float nz
property uchar alpha
element face 24
property list uchar uint vertex_indices
end_header
-108 1 0 0.029296875 0.431640625 -0.9296875 0.0 -0.3203125 255
-44 -13 -31 0.294921875 0.3125 -0.1640625 -0.9296875 -0.28125 255
-62 -19 12 0.220703125 0.494140625 -0.1875 -0.96875 0.078125 255
-44 16 -31 0.294921875 0.3125 -0.171875 0.9296875 -0.28125 255
-62 21 12 0.220703125 0.494140625 -0.1875 0.96875 0.0859375 255
-47 1 -64 0.283203125 0.173828125 -0.5234375 -0.0078125 -0.8359375 255
-97 1 23 0.076171875 0.533203125 -0.734375 0.0 0.65625 255
55 1 127 0.7109375 0.9921875 0.203125 0.0 0.96875 255
41 16 56 0.65625 0.693359375 0.5234375 0.8046875 0.2109375 255
50 16 -43 0.69140625 0.279296875 0.4140625 0.8671875 -0.203125 255
41 -14 56 0.65625 0.693359375 0.5234375 -0.8046875 0.2109375 255
50 -13 -43 0.69140625 0.279296875 0.4140625 -0.8671875 -0.203125 255
62 1 -92 0.740234375 0.076171875 0.515625 -0.0078125 -0.84375 255
101 1 1 0.904296875 0.4765625 0.984375 0.0 0.0078125 255
3 0 1 2
3 3 0 4
3 5 0 3
3 2 6 0
3 0 6 4
3 5 1 0
3 4 6 7
3 6 2 7
3 7 8 4
3 9 4 8
3 9 3 4
3 2 10 7
3 1 11 2
3 11 10 2
3 1 5 12
3 12 5 3
3 9 11 12
3 3 9 12
3 12 11 1
3 8 7 10
3 13 9 8
3 9 13 11
3 11 13 10
3 10 13 8
