ply
format ascii 1.0
element vertex 9
property short x
property short y
property short z
property float s
property float t
property float nx
property float ny
property float nz
property uchar alpha
element face 14
property list uchar uint vertex_indices
end_header
67 0 -58 0.734375 0.2734375 0.953125 0.0 -0.265625 255
67 -3 -28 0.703125 0.423828125 0.6484375 -0.7265625 0.15625 255
0 1 -3 1.013671875 0.63671875 -0.7421875 -0.0546875 -0.6484375 255
67 4 27 0.64453125 0.701171875 0.4921875 0.8515625 -0.1015625 255
53 0 0 0.7421875 0.580078125 0.984375 0.0 -0.015625 255
67 -3 27 0.64453125 0.701171875 0.5 -0.8359375 -0.1640625 255
0 0 5 1.0078125 0.6796875 -0.765625 -0.0234375 0.625 255
67 4 -28 0.703125 0.423828125 0.65625 0.71875 0.1640625 255
67 0 57 0.61328125 0.849609375 0.953125 0.0 0.265625 255
3 0 1 2
3 2 3 4
3 4 5 2
3 2 5 6
3 2 1 4
3 2 6 3
3 4 7 2
3 2 7 0
3 6 8 3
3 3 8 5
3 3 5 4
3 4 1 7
3 6 5 8
3 1 0 7
