ply
format ascii 1.0
element vertex 5
property short x
property short y
property short z
property float s
property float t
property uchar red
property uchar green
property uchar blue
property uchar alpha
element face 3
property list uchar uint vertex_indices
end_header
0 384 0 -1.89453125 3.01171875 255 255 255 255
320 640 0 0.599609375 5.0078125 255 255 255 255
128 640 0 -0.896484375 5.0078125 255 255 255 255
0 0 0 -1.89453125 0.017578125 255 255 255 255
320 0 0 0.599609375 0.017578125 255 255 255 255
3 0 1 2
3 0 3 4
3 0 4 1
