ply
format ascii 1.0
element vertex 59
property short x
property short y
property short z
property float nx
property float ny
property float nz
element face 47
property list uchar uint vertex_indices
end_header
-243 -48 -45 -0.0546875 -0.125 -0.9765625
-104 -120 -43 -0.046875 -0.125 -0.9765625
-200 -235 -23 -0.0546875 -0.125 -0.9765625
-298 -186 -23 -0.0625 -0.125 -0.9765625
-104 -120 -43 0.7578125 -0.6328125 0.0
-104 -120 47 0.7578125 -0.6328125 0.0
-200 -235 23 0.7578125 -0.6328125 0.0
-200 -235 -23 0.7578125 -0.6328125 0.0
-104 -120 47 -0.0703125 -0.1328125 0.9765625
-243 -48 45 -0.0703125 -0.1171875 0.9765625
-298 -186 23 -0.0703125 -0.1328125 0.9765625
-200 -235 23 -0.0703125 -0.140625 0.9765625
-243 -48 45 -0.921875 0.359375 0.0
-243 -48 -45 -0.921875 0.359375 0.0
-298 -186 -23 -0.921875 0.359375 0.0
-298 -186 23 -0.921875 0.359375 0.0
-298 -186 -23 -0.4375 -0.8828125 0.0
-200 -235 -23 -0.4375 -0.8828125 0.0
-200 -235 23 -0.4375 -0.8828125 0.0
-298 -186 23 -0.4375 -0.8828125 0.0
-70 -105 -52 0.0078125 -0.140625 -0.9765625
113 -88 -52 0.0078125 -0.140625 -0.9765625
99 -262 -27 0.0078125 -0.140625 -0.9765625
-24 -273 -27 0.0078125 -0.140625 -0.9765625
113 -88 -52 0.984375 -0.0703125 0.0
113 -88 53 0.984375 -0.0703125 0.0
99 -262 27 0.984375 -0.0703125 0.0
99 -262 -27 0.984375 -0.0703125 0.0
113 -88 53 0.0078125 -0.140625 0.9765625
-70 -105 53 0.0078125 -0.140625 0.9765625
-24 -273 27 0.0078125 -0.140625 0.9765625
99 -262 27 0.0078125 -0.140625 0.9765625
-70 -105 53 -0.953125 -0.2578125 0.0
-70 -105 -52 -0.953125 -0.2578125 0.0
-24 -273 -27 -0.953125 -0.2578125 0.0
-24 -273 27 -0.953125 -0.2578125 0.0
-24 -273 -27 0.078125 -0.984375 0.0
99 -262 -27 0.078125 -0.984375 0.0
99 -262 27 0.078125 -0.984375 0.0
-24 -273 27 0.078125 -0.984375 0.0
286 227 -123 0.8984375 -0.09375 -0.390625
286 227 123 0.8984375 -0.09375 0.390625
288 -17 53 0.78125 -0.4453125 0.40625
288 -17 -53 0.78125 -0.4453125 -0.40625
-317 -48 0 -0.640625 -0.75 0.0
-183 -17 128 -0.3359375 -0.46875 0.796875
-233 107 161 -0.375 -0.359375 0.8359375
-396 69 0 -0.578125 -0.3984375 0.6875
127 -116 -102 0.296875 -0.828125 -0.4375
127 -116 102 0.296875 -0.828125 0.4375
-114 -139 64 -0.25 -0.859375 0.4140625
-114 -139 -64 -0.25 -0.859375 -0.4140625
133 191 -247 0.2734375 -0.265625 -0.90625
146 26 -196 0.25 -0.4140625 -0.859375
133 191 247 0.2734375 -0.265625 0.90625
146 26 196 0.25 -0.4140625 0.859375
-233 107 -161 -0.375 -0.359375 -0.8359375
-183 -17 -128 -0.3359375 -0.46875 -0.796875
-396 69 0 -0.578125 -0.3984375 -0.6875
3 0 1 2
3 0 2 3
3 4 5 6
3 4 6 7
3 8 9 10
3 8 10 11
3 12 13 14
3 12 14 15
3 16 17 18
3 16 18 19
3 20 21 22
3 20 22 23
3 24 25 26
3 24 26 27
3 28 29 30
3 28 30 31
3 32 33 34
3 32 34 35
3 36 37 38
3 36 38 39
3 40 41 42
3 40 42 43
3 44 45 46
3 44 46 47
3 48 49 50
3 48 50 51
3 52 40 43
3 52 43 53
3 54 46 45
3 54 45 55
3 56 52 53
3 56 53 57
3 48 43 42
3 48 42 49
3 51 44 57
3 45 44 50
3 55 42 41
3 55 41 54
3 50 44 51
3 49 42 55
3 53 43 48
3 57 44 58
3 57 58 56
3 53 48 51
3 53 51 57
3 45 50 49
3 45 49 55
