ply
format ascii 1.0
element vertex 39
property short x
property short y
property short z
property float nx
property float ny
property float nz
element face 50
property list uchar uint vertex_indices
end_header
617 23 -154 0.8359375 -0.2578125 -0.4609375
571 -260 0 0.953125 -0.2734375 0.0
555 -242 -127 0.5234375 -0.546875 -0.625
2 -334 -93 0.0 -0.921875 -0.3515625
78 -245 -177 0.2578125 -0.53125 -0.7890625
130 -287 0 0.6875 -0.703125 -0.03125
571 -260 0 0.1328125 -0.9765625 0.0
261 -308 0 -0.34375 -0.921875 -0.0078125
295 -262 -175 -0.140625 -0.7265625 -0.6484375
-88 24 -119 0.0 0.9921875 0.0
-88 24 119 0.0078125 0.9921875 0.0
326 21 307 0.0 0.9921875 0.0
617 23 154 0.0 0.9921875 0.0
662 23 0 0.0 0.9921875 0.0
617 23 -154 0.0 0.9921875 -0.0078125
326 21 -307 0.0 0.9921875 -0.015625
326 21 307 0.0 -0.328125 0.9296875
295 -262 175 -0.1171875 -0.734375 0.6484375
555 -242 127 0.5234375 -0.546875 0.625
-55 -257 -162 -0.359375 -0.4921875 -0.7734375
2 -334 93 -0.0625 -0.9375 0.2890625
-58 -257 160 -0.421875 -0.5 0.734375
-107 -275 91 -0.78125 -0.4921875 0.34375
617 23 154 0.8359375 -0.2578125 0.4609375
326 21 -307 -0.0078125 -0.3359375 -0.9296875
140 -168 171 -0.375 -0.3515625 0.84375
161 -168 -171 -0.390625 -0.34375 -0.8359375
-88 24 -119 -0.1640625 0.046875 -0.9765625
-88 24 119 -0.9375 0.2109375 0.234375
-88 24 -119 -0.9375 0.2109375 -0.234375
-158 -149 0 -0.9921875 0.0 0.0
-62 -140 -183 -0.484375 0.0078125 -0.859375
-62 -140 183 -0.4921875 0.0078125 0.8515625
-107 -275 -91 -0.7421875 -0.578125 -0.2890625
-88 24 119 -0.15625 0.0703125 0.96875
161 -168 -171 0.8671875 -0.4453125 -0.1484375
78 -280 177 0.25 -0.5703125 0.765625
140 -168 171 0.921875 -0.3125 0.1640625
662 23 0 0.9375 -0.3046875 0.0
3 0 1 2
3 3 4 5
3 2 6 7
3 2 7 8
3 9 10 11
3 9 11 12
3 9 12 13
3 9 13 14
3 9 14 15
3 16 17 18
3 4 3 19
3 20 21 22
3 18 23 16
3 24 0 2
3 24 2 8
3 16 25 17
3 26 27 24
3 28 29 30
3 29 31 30
3 7 17 25
3 32 28 30
3 19 3 33
3 20 22 33
3 20 33 3
3 34 32 25
3 4 35 5
3 21 20 36
3 31 27 26
3 26 4 31
3 32 36 25
3 16 34 25
3 24 8 26
3 5 20 3
3 5 36 20
3 35 37 5
3 37 36 5
3 19 31 4
3 33 30 31
3 22 21 32
3 36 32 21
3 33 31 19
3 22 30 33
3 32 30 22
3 0 38 1
3 23 18 1
3 6 18 17
3 6 17 7
3 26 8 7
3 25 26 7
3 38 23 1
