ply
format ascii 1.0
element vertex 40
property short x
property short y
property short z
property float nx
property float ny
property float nz
element face 20
property list uchar uint vertex_indices
end_header
524 82 92 0.421875 0.125 0.8828125
443 83 131 0.421875 0.125 0.8828125
432 -25 152 0.421875 0.125 0.8828125
544 -28 99 0.421875 0.125 0.8828125
443 83 131 -0.8828125 0.1640625 0.4140625
425 84 94 -0.8828125 0.1640625 0.4140625
401 -25 88 -0.8828125 0.1640625 0.4140625
432 -25 152 -0.8828125 0.1640625 0.4140625
425 84 94 -0.4140625 0.140625 -0.8828125
507 82 56 -0.4140625 0.140625 -0.8828125
513 -27 35 -0.4140625 0.140625 -0.8828125
401 -25 88 -0.4140625 0.140625 -0.8828125
507 82 56 0.8828125 0.125 -0.4140625
524 82 92 0.8828125 0.125 -0.4140625
544 -28 99 0.8828125 0.125 -0.4140625
513 -27 35 0.8828125 0.125 -0.4140625
507 82 56 0.015625 0.9921875 0.0
425 84 94 0.015625 0.9921875 0.0
443 83 131 0.015625 0.9921875 0.0
524 82 92 0.015625 0.9921875 0.0
544 -28 -99 0.421875 0.125 -0.8828125
432 -25 -152 0.421875 0.125 -0.8828125
443 83 -131 0.421875 0.125 -0.8828125
524 82 -92 0.421875 0.125 -0.8828125
432 -25 -152 -0.8828125 0.1640625 -0.4140625
401 -25 -88 -0.8828125 0.1640625 -0.4140625
425 84 -94 -0.8828125 0.1640625 -0.4140625
443 83 -131 -0.8828125 0.1640625 -0.4140625
401 -25 -88 -0.4140625 0.140625 0.8828125
513 -27 -35 -0.4140625 0.140625 0.8828125
507 82 -56 -0.4140625 0.140625 0.8828125
425 84 -94 -0.4140625 0.140625 0.8828125
513 -27 -35 0.8828125 0.125 0.4140625
544 -28 -99 0.8828125 0.125 0.4140625
524 82 -92 0.8828125 0.125 0.4140625
507 82 -56 0.8828125 0.125 0.4140625
524 82 -92 0.015625 0.9921875 0.0
443 83 -131 0.015625 0.9921875 0.0
425 84 -94 0.015625 0.9921875 0.0
507 82 -56 0.015625 0.9921875 0.0
3 0 1 2
3 0 2 3
3 4 5 6
3 4 6 7
3 8 9 10
3 8 10 11
3 12 13 14
3 12 14 15
3 16 17 18
3 16 18 19
3 20 21 22
3 20 22 23
3 24 25 26
3 24 26 27
3 28 29 30
3 28 30 31
3 32 33 34
3 32 34 35
3 36 37 38
3 36 38 39
