ply
format ascii 1.0
element vertex 40
property short x
property short y
property short z
property float nx
property float ny
property float nz
element face 20
property list uchar uint vertex_indices
end_header
378 -178 -92 0.390625 -0.1953125 -0.8828125
298 -166 -131 0.390625 -0.1953125 -0.8828125
306 -56 -152 0.390625 -0.1953125 -0.8828125
417 -73 -99 0.390625 -0.1953125 -0.8828125
298 -166 -131 -0.8984375 -0.0078125 -0.4140625
280 -163 -94 -0.8984375 -0.0078125 -0.4140625
276 -51 -88 -0.8984375 -0.0078125 -0.4140625
306 -56 -152 -0.8984375 -0.0078125 -0.4140625
280 -163 -94 -0.4296875 -0.0703125 0.8828125
361 -176 -56 -0.4296875 -0.0703125 0.8828125
387 -68 -35 -0.4296875 -0.0703125 0.8828125
276 -51 -88 -0.4296875 -0.0703125 0.8828125
361 -176 -56 0.8515625 -0.28125 0.4140625
378 -178 -92 0.8515625 -0.28125 0.4140625
417 -73 -99 0.8515625 -0.28125 0.4140625
387 -68 -35 0.8515625 -0.28125 0.4140625
361 -176 -56 -0.1484375 -0.9765625 0.0
280 -163 -94 -0.1484375 -0.9765625 0.0
298 -166 -131 -0.1484375 -0.9765625 0.0
378 -178 -92 -0.1484375 -0.9765625 0.0
417 -73 99 0.390625 -0.1953125 0.8828125
306 -56 152 0.390625 -0.1953125 0.8828125
298 -166 131 0.390625 -0.1953125 0.8828125
378 -178 92 0.390625 -0.1953125 0.8828125
306 -56 152 -0.8984375 -0.0078125 0.4140625
276 -51 88 -0.8984375 -0.0078125 0.4140625
280 -163 94 -0.8984375 -0.0078125 0.4140625
298 -166 131 -0.8984375 -0.0078125 0.4140625
276 -51 88 -0.4296875 -0.0703125 -0.8828125
387 -68 35 -0.4296875 -0.0703125 -0.8828125
361 -176 56 -0.4296875 -0.0703125 -0.8828125
280 -163 94 -0.4296875 -0.0703125 -0.8828125
387 -68 35 0.8515625 -0.28125 -0.4140625
417 -73 99 0.8515625 -0.28125 -0.4140625
378 -178 92 0.8515625 -0.28125 -0.4140625
361 -176 56 0.8515625 -0.28125 -0.4140625
378 -178 92 -0.1484375 -0.9765625 0.0
298 -166 131 -0.1484375 -0.9765625 0.0
280 -163 94 -0.1484375 -0.9765625 0.0
361 -176 56 -0.1484375 -0.9765625 0.0
3 0 1 2
3 0 2 3
3 4 5 6
3 4 6 7
3 8 9 10
3 8 10 11
3 12 13 14
3 12 14 15
3 16 17 18
3 16 18 19
3 20 21 22
3 20 22 23
3 24 25 26
3 24 26 27
3 28 29 30
3 28 30 31
3 32 33 34
3 32 34 35
3 36 37 38
3 36 38 39
