ply
format ascii 1.0
element vertex 18
property short x
property short y
property short z
property float nx
property float ny
property float nz
element face 20
property list uchar uint vertex_indices
end_header
556 -10 -56 0.859375 0.4296875 -0.2109375
556 -10 56 0.859375 0.4296875 0.2109375
556 -128 120 0.8359375 0.1171875 0.515625
556 -128 -120 0.8359375 0.1171875 -0.515625
111 99 96 -0.34375 0.890625 0.2421875
111 99 -96 -0.2109375 0.8828125 -0.390625
-73 -8 -90 -0.4765625 0.8046875 -0.3125
-73 -8 90 -0.390625 0.65625 0.625
556 -128 -120 -0.1796875 -0.96875 0.0
556 -128 120 -0.1796875 -0.96875 0.0
318 -84 267 -0.1796875 -0.96875 0.0
-73 -8 90 -0.1796875 -0.96875 0.0
-73 -8 -90 -0.1796875 -0.96875 0.0
318 -84 -267 -0.1796875 -0.96875 0.0
410 80 203 0.3046875 0.796875 0.5
410 80 -203 0.4140625 0.6875 -0.5703125
318 -84 -267 -0.0078125 0.3515625 -0.921875
318 -84 267 0.1328125 0.2890625 0.9375
3 0 1 2
3 0 2 3
3 4 5 6
3 4 6 7
3 8 9 10
3 8 10 11
3 8 11 12
3 8 12 13
3 5 4 14
3 5 14 15
3 1 14 2
3 5 15 16
3 5 16 6
3 14 4 7
3 14 7 17
3 15 3 16
3 14 1 0
3 14 0 15
3 14 17 2
3 15 0 3
