ply
format ascii 1.0
element vertex 64
property short x
property short y
property short z
property float s
property float t
property float nx
property float ny
property float nz
property uchar alpha
element face 32
property list uchar uint vertex_indices
end_header
-101 0 0 0.982421875 0.009765625 0.9765625 0.0 -0.1328125 255
-71 205 72 0.015625 0.9921875 0.7890625 0.0 -0.59375 255
-71 0 72 0.015625 0.009765625 0.6015625 0.0 -0.78125 255
72 0 72 0.982421875 0.009765625 -0.7890625 0.0 -0.59375 255
72 205 72 0.982421875 0.9921875 -0.59375 0.0 -0.7890625 255
102 205 0 0.015625 0.9921875 -0.9765625 0.0 -0.1328125 255
102 0 0 0.015625 0.009765625 -0.9765625 0.0 0.1328125 255
0 0 102 0.982421875 0.009765625 -0.1328125 0.0 -0.9765625 255
0 205 102 0.982421875 0.9921875 0.1328125 0.0 -0.9765625 255
72 205 72 0.015625 0.9921875 -0.59375 0.0 -0.7890625 255
72 0 72 0.015625 0.009765625 -0.7890625 0.0 -0.59375 255
-71 0 72 0.982421875 0.009765625 0.6015625 0.0 -0.78125 255
-71 205 72 0.982421875 0.9921875 0.7890625 0.0 -0.59375 255
0 205 102 0.015625 0.9921875 0.1328125 0.0 -0.9765625 255
0 0 102 0.015625 0.009765625 -0.1328125 0.0 -0.9765625 255
72 0 -71 0.982421875 0.009765625 -0.59375 0.0 0.7890625 255
0 205 -101 0.015625 0.9921875 -0.1328125 0.0 0.9765625 255
0 0 -101 0.015625 0.009765625 0.1328125 0.0 0.9765625 255
-101 205 0 0.982421875 0.9921875 0.9765625 0.0 0.1328125 255
-71 0 -71 0.982421875 0.009765625 0.7890625 0.0 0.59375 255
-101 205 0 0.015625 0.9921875 0.9765625 0.0 0.1328125 255
-101 0 0 0.015625 0.009765625 0.9765625 0.0 -0.1328125 255
-71 205 -71 0.982421875 0.9921875 0.59375 0.0 0.7890625 255
0 0 -101 0.982421875 0.009765625 0.1328125 0.0 0.9765625 255
-71 205 -71 0.015625 0.9921875 0.59375 0.0 0.7890625 255
-71 0 -71 0.015625 0.009765625 0.7890625 0.0 0.59375 255
0 205 -101 0.982421875 0.9921875 -0.1328125 0.0 0.9765625 255
72 205 -71 0.982421875 0.9921875 -0.78125 0.0 0.6015625 255
0 0 154 0.982421875 0.009765625 -0.1328125 0.0 0.9765625 255
0 205 154 0.982421875 0.9921875 0.1328125 0.0 0.9765625 255
-108 205 109 0.015625 0.9921875 -0.59375 0.0 0.7890625 255
102 0 0 0.982421875 0.009765625 -0.9765625 0.0 0.1328125 255
102 205 0 0.982421875 0.9921875 -0.9765625 0.0 -0.1328125 255
72 205 -71 0.015625 0.9921875 -0.78125 0.0 0.6015625 255
72 0 -71 0.015625 0.009765625 -0.59375 0.0 0.7890625 255
154 0 0 0.982421875 0.009765625 0.9765625 0.0 0.1328125 255
154 205 0 0.982421875 0.9921875 0.9765625 0.0 -0.1328125 255
109 205 109 0.015625 0.9921875 0.7890625 0.0 0.59375 255
109 0 109 0.015625 0.009765625 0.59375 0.0 0.7890625 255
109 0 109 0.982421875 0.009765625 0.59375 0.0 0.7890625 255
109 205 109 0.982421875 0.9921875 0.7890625 0.0 0.59375 255
0 205 154 0.015625 0.9921875 0.1328125 0.0 0.9765625 255
0 0 154 0.015625 0.009765625 -0.1328125 0.0 0.9765625 255
-108 0 -108 0.982421875 0.009765625 -0.59375 0.0 -0.7890625 255
0 205 -153 0.015625 0.9921875 -0.1328125 0.0 -0.9765625 255
0 0 -153 0.015625 0.009765625 0.1328125 0.0 -0.9765625 255
-108 0 109 0.015625 0.009765625 -0.7890625 0.0 0.59375 255
-108 0 109 0.982421875 0.009765625 -0.7890625 0.0 0.59375 255
-108 205 109 0.982421875 0.9921875 -0.59375 0.0 0.7890625 255
-153 205 0 0.015625 0.9921875 -0.9765625 0.0 0.1328125 255
-153 0 0 0.015625 0.009765625 -0.9765625 0.0 -0.1328125 255
-153 0 0 0.982421875 0.009765625 -0.9765625 0.0 -0.1328125 255
-108 205 -108 0.015625 0.9921875 -0.7890625 0.0 -0.59375 255
-108 0 -108 0.015625 0.009765625 -0.59375 0.0 -0.7890625 255
-153 205 0 0.982421875 0.9921875 -0.9765625 0.0 0.1328125 255
-108 205 -108 0.982421875 0.9921875 -0.7890625 0.0 -0.59375 255
0 0 -153 0.982421875 0.009765625 0.1328125 0.0 -0.9765625 255
0 205 -153 0.982421875 0.9921875 -0.1328125 0.0 -0.9765625 255
109 205 -108 0.015625 0.9921875 0.59375 0.0 -0.7890625 255
109 0 -108 0.015625 0.009765625 0.7890625 0.0 -0.59375 255
109 0 -108 0.982421875 0.009765625 0.7890625 0.0 -0.59375 255
109 205 -108 0.982421875 0.9921875 0.59375 0.0 -0.7890625 255
154 205 0 0.015625 0.9921875 0.9765625 0.0 -0.1328125 255
154 0 0 0.015625 0.009765625 0.9765625 0.0 0.1328125 255
3 0 1 2
3 3 4 5
3 3 5 6
3 7 8 9
3 7 9 10
3 11 12 13
3 11 13 14
3 15 16 17
3 0 18 1
3 19 20 21
3 19 22 20
3 23 24 25
3 23 26 24
3 15 27 16
3 28 29 30
3 31 32 33
3 31 33 34
3 35 36 37
3 35 37 38
3 39 40 41
3 39 41 42
3 43 44 45
3 28 30 46
3 47 48 49
3 47 49 50
3 51 52 53
3 51 54 52
3 43 55 44
3 56 57 58
3 56 58 59
3 60 61 62
3 60 62 63
