ply
format ascii 1.0
element vertex 16
property short x
property short y
property short z
property float s
property float t
property float nx
property float ny
property float nz
property uchar alpha
element face 16
property list uchar uint vertex_indices
end_header
109 205 -108 0.40625 1.154296875 0.0 0.9921875 0.0 255
0 205 -153 0.029296875 0.93359375 0.0 0.9921875 0.0 255
0 205 -101 0.1953125 0.802734375 0.0 0.9921875 0.0 255
-108 205 109 0.64453125 -0.072265625 0.0 0.9921875 0.0 255
0 205 102 0.857421875 0.27734375 0.0 0.9921875 0.0 255
-71 205 72 0.60546875 0.12890625 0.0 0.9921875 0.0 255
0 205 154 1.0234375 0.14453125 0.0 0.9921875 0.0 255
-153 205 0 0.197265625 0.064453125 0.0 0.9921875 0.0 255
109 205 109 1.109375 0.595703125 0.0 0.9921875 0.0 255
72 205 72 0.9140625 0.578125 0.0 0.9921875 0.0 255
-101 205 0 0.306640625 0.22265625 0.0 0.9921875 0.0 255
-108 205 -108 -0.0546875 0.482421875 0.0 0.9921875 0.0 255
-71 205 -71 0.13671875 0.501953125 0.0 0.9921875 0.0 255
154 205 0 0.853515625 1.013671875 0.0 0.9921875 0.0 255
102 205 0 0.744140625 0.85546875 0.0 0.9921875 0.0 255
72 205 -71 0.447265625 0.94921875 0.0 0.9921875 0.0 255
3 0 1 2
3 3 4 5
3 3 6 4
3 7 3 5
3 8 4 6
3 8 9 4
3 7 5 10
3 11 7 10
3 11 10 12
3 1 11 12
3 1 12 2
3 13 14 9
3 0 2 15
3 13 0 15
3 13 15 14
3 13 9 8
