ply
format ascii 1.0
element vertex 726
property short x
property short y
property short z
property float s
property float t
property uchar red
property uchar green
property uchar blue
property uchar alpha
element face 438
property list uchar uint vertex_indices
end_header
498 -74 90 0.7578125 0.20703125 0 241 0 255
617 -184 153 0.8125 0.12890625 0 241 0 255
660 -62 83 0.826171875 0.224609375 0 241 0 255
918 -126 120 0.939453125 0.185546875 0 241 0 255
811 23 33 0.888671875 0.294921875 0 241 0 255
765 -44 73 0.87109375 0.2421875 0 241 0 255
969 83 0 0.955078125 0.345703125 0 241 0 255
790 200 -68 0.873046875 0.427734375 0 241 0 255
699 102 -12 0.837890625 0.349609375 0 241 0 255
765 -44 73 0.87109375 0.2421875 31 192 0 255
811 2 -1 0.888671875 0.294921875 31 192 0 255
811 23 33 0.888671875 0.294921875 31 192 0 255
765 -65 37 0.87109375 0.2421875 31 192 0 255
615 199 -68 0.798828125 0.419921875 0 241 0 255
495 137 -32 0.748046875 0.369140625 0 241 0 255
611 31 29 0.802734375 0.29296875 0 241 0 255
699 103 -12 0.837890625 0.349609375 0 241 0 255
-378 -82 144 0.390625 0.1484375 0 241 0 255
-164 -154 185 0.484375 0.103515625 0 241 0 255
-354 312 -83 0.38671875 0.447265625 0 241 0 255
-391 31 78 0.380859375 0.234375 0 241 0 255
-570 87 46 0.30078125 0.267578125 0 241 0 255
-579 -19 108 0.30078125 0.1875 0 241 0 255
-370 -153 185 0.396484375 0.09375 0 241 0 255
-828 -32 115 0.1953125 0.16796875 0 241 0 255
-527 344 -102 0.3125 0.46484375 0 241 0 255
-656 -91 149 0.271484375 0.12890625 0 241 0 255
-448 249 -47 0.349609375 0.396484375 0 241 0 255
-944 243 -14 0.13671875 0.361328125 101 127 255 255
-992 378 -91 0.111328125 0.4609375 101 127 255 255
-1127 377 -91 0.052734375 0.455078125 101 127 255 255
-742 15 117 0.23046875 0.197265625 101 127 255 255
-717 337 -68 0.23046875 0.44140625 101 127 255 255
-877 378 -91 0.16015625 0.466796875 101 127 255 255
-853 141 44 0.177734375 0.287109375 101 127 255 255
-565 -59 160 0.30859375 0.1484375 101 127 255 255
-737 -126 199 0.23828125 0.08984375 101 127 255 255
-939 -22 139 0.146484375 0.16015625 101 127 255 255
-1037 -143 209 0.109375 0.064453125 101 127 255 255
-1060 134 48 0.08984375 0.2734375 101 127 255 255
-1234 -144 209 0.0234375 0.056640625 101 127 255 255
-633 570 -238 0.2578125 0.6328125 101 127 255 255
-639 816 -380 0.248046875 0.8203125 101 127 255 255
-687 451 -169 0.240234375 0.541015625 101 127 255 255
-12 706 -349 0.521484375 0.7734375 101 127 255 255
108 783 -394 0.5703125 0.8359375 101 127 255 255
-177 752 -376 0.447265625 0.80078125 101 127 255 255
-92 441 -196 0.494140625 0.568359375 101 127 255 255
-24 627 -304 0.517578125 0.712890625 101 127 255 255
82 705 -349 0.5625 0.77734375 101 127 255 255
8 500 -230 0.537109375 0.6171875 101 127 255 255
-23 588 -282 0.51953125 0.68359375 101 127 255 255
147 541 -254 0.595703125 0.654296875 101 127 255 255
183 482 -220 0.61328125 0.611328125 101 127 255 255
88 595 -285 0.568359375 0.693359375 101 127 255 255
88 635 -308 0.56640625 0.72265625 101 127 255 255
-455 560 -232 0.3359375 0.6328125 101 127 255 255
-568 747 -340 0.28125 0.76953125 101 127 255 255
-559 610 -261 0.2890625 0.666015625 101 127 255 255
-758 540 -221 0.205078125 0.60546875 101 127 255 255
-763 816 -380 0.1953125 0.814453125 101 127 255 255
-510 485 -189 0.314453125 0.57421875 101 127 255 255
-480 764 -350 0.318359375 0.787109375 101 127 255 255
-717 337 -68 0.23046875 0.44140625 32 57 229 255
-565 -59 160 0.30859375 0.1484375 32 57 229 255
-540 -80 149 0.3203125 0.140625 32 57 229 255
-701 343 -95 0.236328125 0.455078125 32 57 229 255
-737 -126 199 0.23828125 0.08984375 32 57 229 255
-757 -165 198 0.23046875 0.06640625 32 57 229 255
-757 -165 198 0.23046875 0.06640625 18 32 129 255
-737 -126 199 0.23828125 0.08984375 18 32 129 255
-762 -2 104 0.22265625 0.19140625 18 32 129 255
-742 15 117 0.23046875 0.197265625 18 32 129 255
-762 -2 104 0.22265625 0.19140625 24 43 173 255
-742 15 117 0.23046875 0.197265625 24 43 173 255
-853 141 44 0.177734375 0.287109375 24 43 173 255
-849 95 47 0.181640625 0.26171875 24 43 173 255
-888 390 -122 0.154296875 0.482421875 26 46 187 255
-717 337 -68 0.23046875 0.44140625 26 46 187 255
-701 343 -95 0.236328125 0.455078125 26 46 187 255
-877 378 -91 0.16015625 0.466796875 26 46 187 255
-1033 57 69 0.103515625 0.224609375 32 57 229 255
-1060 134 48 0.08984375 0.2734375 32 57 229 255
-1037 -143 209 0.109375 0.064453125 32 57 229 255
-1015 -173 202 0.119140625 0.05078125 32 57 229 255
-1259 -174 203 0.013671875 0.0390625 32 57 229 255
-1234 -144 209 0.0234375 0.056640625 32 57 229 255
-1259 -174 203 0.013671875 0.0390625 16 28 115 255
-1127 377 -91 0.052734375 0.455078125 16 28 115 255
-1144 386 -120 0.044921875 0.46875 16 28 115 255
-1234 -144 209 0.0234375 0.056640625 16 28 115 255
-977 387 -120 0.1171875 0.4765625 32 57 229 255
-992 378 -91 0.111328125 0.4609375 32 57 229 255
-941 285 -61 0.134765625 0.400390625 32 57 229 255
-936 -69 142 0.150390625 0.1328125 19 80 140 255
-939 -22 139 0.146484375 0.16015625 19 80 140 255
-1060 134 48 0.08984375 0.2734375 19 80 140 255
-1033 57 69 0.103515625 0.224609375 19 80 140 255
-849 95 47 0.181640625 0.26171875 32 57 229 255
-853 141 44 0.177734375 0.287109375 32 57 229 255
-936 -69 142 0.150390625 0.1328125 32 57 229 255
-939 -22 139 0.146484375 0.16015625 32 57 229 255
-1144 386 -120 0.044921875 0.46875 22 39 158 255
-1127 377 -91 0.052734375 0.455078125 22 39 158 255
-992 378 -91 0.111328125 0.4609375 22 39 158 255
-977 387 -120 0.1171875 0.4765625 22 39 158 255
-203 759 -404 0.435546875 0.8125 20 35 144 255
-107 408 -201 0.48828125 0.55078125 20 35 144 255
-92 441 -196 0.494140625 0.568359375 20 35 144 255
-944 243 -14 0.13671875 0.361328125 32 57 229 255
-941 285 -61 0.134765625 0.400390625 16 28 115 255
-944 243 -14 0.13671875 0.361328125 16 28 115 255
-877 378 -91 0.16015625 0.466796875 16 28 115 255
-888 390 -122 0.154296875 0.482421875 16 28 115 255
-177 752 -376 0.447265625 0.80078125 20 35 144 255
108 783 -394 0.5703125 0.8359375 20 35 144 255
137 795 -425 0.58203125 0.85546875 20 35 144 255
109 566 -292 0.578125 0.6796875 32 57 229 255
108 645 -338 0.57421875 0.740234375 32 57 229 255
88 635 -308 0.56640625 0.72265625 32 57 229 255
183 482 -220 0.61328125 0.611328125 32 57 229 255
157 554 -285 0.599609375 0.671875 32 57 229 255
147 541 -254 0.595703125 0.654296875 32 57 229 255
-92 441 -196 0.494140625 0.568359375 32 57 229 255
215 457 -229 0.626953125 0.6015625 32 57 229 255
-107 408 -201 0.48828125 0.55078125 32 57 229 255
82 705 -349 0.5625 0.77734375 32 57 229 255
137 795 -425 0.58203125 0.85546875 32 57 229 255
108 783 -394 0.5703125 0.8359375 32 57 229 255
97 675 -355 0.568359375 0.76171875 32 57 229 255
-12 706 -349 0.521484375 0.7734375 32 57 229 255
5 676 -356 0.529296875 0.7578125 32 57 229 255
88 635 -308 0.56640625 0.72265625 22 39 158 255
108 645 -338 0.57421875 0.740234375 22 39 158 255
0 638 -334 0.52734375 0.73046875 22 39 158 255
88 595 -285 0.568359375 0.693359375 32 57 229 255
-23 588 -282 0.51953125 0.68359375 32 57 229 255
147 541 -254 0.595703125 0.654296875 20 35 144 255
157 554 -285 0.599609375 0.671875 20 35 144 255
8 500 -230 0.537109375 0.6171875 20 35 144 255
21 514 -262 0.541015625 0.63671875 20 35 144 255
-24 627 -304 0.517578125 0.712890625 32 57 229 255
0 638 -334 0.52734375 0.73046875 32 57 229 255
-763 816 -380 0.1953125 0.814453125 18 32 129 255
-783 825 -409 0.185546875 0.828125 18 32 129 255
-779 523 -234 0.197265625 0.599609375 18 32 129 255
-24 627 -304 0.517578125 0.712890625 22 39 158 255
8 500 -230 0.537109375 0.6171875 32 57 229 255
4 560 -289 0.533203125 0.671875 32 57 229 255
21 514 -262 0.541015625 0.63671875 32 57 229 255
-619 825 -409 0.255859375 0.8359375 22 39 158 255
-783 825 -409 0.185546875 0.828125 22 39 158 255
-763 816 -380 0.1953125 0.814453125 22 39 158 255
-639 816 -380 0.248046875 0.8203125 22 39 158 255
-633 570 -238 0.2578125 0.6328125 32 57 229 255
-619 825 -409 0.255859375 0.8359375 32 57 229 255
-639 816 -380 0.248046875 0.8203125 32 57 229 255
-758 540 -221 0.205078125 0.60546875 18 32 129 255
-480 764 -350 0.318359375 0.787109375 20 35 144 255
-462 777 -381 0.32421875 0.8046875 20 35 144 255
-590 752 -367 0.271484375 0.78125 20 35 144 255
-568 747 -340 0.28125 0.76953125 20 35 144 255
-758 540 -221 0.205078125 0.60546875 19 80 140 255
-779 523 -234 0.197265625 0.599609375 19 80 140 255
-695 420 -175 0.236328125 0.525390625 19 80 140 255
-687 451 -169 0.240234375 0.541015625 19 80 140 255
-613 593 -275 0.265625 0.66015625 32 57 229 255
-590 752 -367 0.271484375 0.78125 18 32 129 255
-580 611 -285 0.279296875 0.673828125 18 32 129 255
-559 610 -261 0.2890625 0.666015625 18 32 129 255
-568 747 -340 0.28125 0.76953125 18 32 129 255
-613 593 -275 0.265625 0.66015625 18 32 129 255
-633 570 -238 0.2578125 0.6328125 18 32 129 255
-498 458 -197 0.3203125 0.5625 32 57 229 255
-433 545 -247 0.345703125 0.630859375 32 57 229 255
-455 560 -232 0.3359375 0.6328125 32 57 229 255
-510 485 -189 0.314453125 0.57421875 32 57 229 255
-462 777 -381 0.32421875 0.8046875 32 57 229 255
-480 764 -350 0.318359375 0.787109375 32 57 229 255
-687 451 -169 0.240234375 0.541015625 32 57 229 255
-695 420 -175 0.236328125 0.525390625 32 57 229 255
969 83 0 0.955078125 0.345703125 0 139 0 255
992 81 -23 0.96484375 0.353515625 0 139 0 255
796 209 -97 0.875 0.443359375 0 139 0 255
495 137 -32 0.748046875 0.369140625 0 82 0 255
474 139 -56 0.73828125 0.376953125 0 82 0 255
498 -74 90 0.7578125 0.20703125 0 82 0 255
478 -93 77 0.748046875 0.201171875 0 82 0 255
935 -153 112 0.947265625 0.173828125 0 186 0 255
992 81 -23 0.96484375 0.353515625 0 186 0 255
969 83 0 0.955078125 0.345703125 0 186 0 255
918 -126 120 0.939453125 0.185546875 0 186 0 255
617 -184 153 0.8125 0.12890625 0 172 0 255
610 -215 148 0.810546875 0.11328125 0 172 0 255
935 -153 112 0.947265625 0.173828125 0 172 0 255
918 -126 120 0.939453125 0.185546875 0 172 0 255
699 103 -12 0.837890625 0.349609375 0 121 0 255
700 67 -15 0.837890625 0.33203125 0 121 0 255
811 23 33 0.888671875 0.294921875 0 121 0 255
790 200 -68 0.873046875 0.427734375 0 139 0 255
811 23 33 0.888671875 0.294921875 0 75 0 255
783 8 18 0.876953125 0.291015625 0 75 0 255
752 -37 45 0.865234375 0.25390625 0 75 0 255
765 -44 73 0.87109375 0.2421875 0 75 0 255
765 -44 73 0.87109375 0.2421875 0 98 0 255
752 -37 45 0.865234375 0.25390625 0 98 0 255
671 -50 52 0.830078125 0.240234375 0 98 0 255
660 -62 83 0.826171875 0.224609375 0 98 0 255
783 8 18 0.876953125 0.291015625 0 121 0 255
790 200 -68 0.873046875 0.427734375 0 106 0 255
796 209 -97 0.875 0.443359375 0 106 0 255
610 209 -97 0.794921875 0.435546875 0 106 0 255
660 -62 83 0.826171875 0.224609375 0 164 0 255
671 -50 52 0.830078125 0.240234375 0 164 0 255
611 31 29 0.802734375 0.29296875 0 164 0 255
636 16 14 0.8125 0.2890625 0 164 0 255
498 -74 90 0.7578125 0.20703125 0 117 0 255
478 -93 77 0.748046875 0.201171875 0 117 0 255
610 -215 148 0.810546875 0.11328125 0 117 0 255
617 -184 153 0.8125 0.12890625 0 117 0 255
611 31 29 0.802734375 0.29296875 0 187 0 255
700 67 -15 0.837890625 0.33203125 0 187 0 255
699 103 -12 0.837890625 0.349609375 0 187 0 255
636 16 14 0.8125 0.2890625 0 187 0 255
-397 -107 135 0.3828125 0.13671875 0 84 0 255
-388 -183 179 0.388671875 0.078125 0 84 0 255
-370 -153 185 0.396484375 0.09375 0 84 0 255
615 199 -68 0.798828125 0.419921875 0 106 0 255
615 199 -68 0.798828125 0.419921875 0 84 0 255
610 209 -97 0.794921875 0.435546875 0 84 0 255
495 137 -32 0.748046875 0.369140625 0 84 0 255
474 139 -56 0.73828125 0.376953125 0 84 0 255
-370 -153 185 0.396484375 0.09375 0 164 0 255
-388 -183 179 0.388671875 0.078125 0 164 0 255
-164 -154 185 0.484375 0.103515625 0 164 0 255
-134 -183 179 0.498046875 0.08984375 0 164 0 255
-378 -82 144 0.390625 0.1484375 0 84 0 255
-164 -154 185 0.484375 0.103515625 0 166 0 255
-134 -183 179 0.498046875 0.08984375 0 166 0 255
-354 312 -83 0.38671875 0.447265625 0 166 0 255
-828 -32 115 0.1953125 0.16796875 0 143 0 255
-861 -51 103 0.181640625 0.158203125 0 143 0 255
-651 -124 144 0.2734375 0.11328125 0 143 0 255
-656 -91 149 0.271484375 0.12890625 0 143 0 255
-656 -91 149 0.271484375 0.12890625 0 187 0 255
-573 -52 103 0.3046875 0.169921875 0 187 0 255
-579 -19 108 0.30078125 0.1875 0 187 0 255
-651 -124 144 0.2734375 0.11328125 0 187 0 255
-579 -19 108 0.30078125 0.1875 0 144 0 255
-573 -52 103 0.3046875 0.169921875 0 144 0 255
-397 -107 135 0.3828125 0.13671875 0 144 0 255
-378 -82 144 0.390625 0.1484375 0 144 0 255
-448 249 -47 0.349609375 0.396484375 0 90 0 255
-420 50 43 0.3671875 0.25390625 0 90 0 255
-391 31 78 0.380859375 0.234375 0 90 0 255
-339 318 -110 0.392578125 0.4609375 0 166 0 255
-391 31 78 0.380859375 0.234375 0 121 0 255
-537 87 22 0.314453125 0.27734375 0 121 0 255
-570 87 46 0.30078125 0.267578125 0 121 0 255
-420 50 43 0.3671875 0.25390625 0 121 0 255
-527 344 -102 0.3125 0.46484375 0 75 0 255
-536 356 -132 0.306640625 0.48046875 0 75 0 255
-861 -51 103 0.181640625 0.158203125 0 75 0 255
-828 -32 115 0.1953125 0.16796875 0 75 0 255
-457 194 -38 0.345703125 0.361328125 0 90 0 255
334 706 -391 0.669921875 0.80078125 0 177 0 255
310 758 -397 0.658203125 0.83203125 0 177 0 255
344 596 -327 0.677734375 0.71875 0 177 0 255
-570 87 46 0.30078125 0.267578125 0 188 0 255
-457 194 -38 0.345703125 0.361328125 0 188 0 255
-448 249 -47 0.349609375 0.396484375 0 188 0 255
-537 87 22 0.314453125 0.27734375 0 188 0 255
-354 312 -83 0.38671875 0.447265625 0 117 0 255
-536 356 -132 0.306640625 0.48046875 0 117 0 255
-527 344 -102 0.3125 0.46484375 0 117 0 255
-339 318 -110 0.392578125 0.4609375 0 117 0 255
210 423 -204 0.626953125 0.57421875 0 84 0 255
175 795 -419 0.59765625 0.853515625 0 84 0 255
152 804 -447 0.587890625 0.8671875 0 84 0 255
192 393 -210 0.619140625 0.55859375 0 84 0 255
324 598 -305 0.669921875 0.7109375 0 177 0 255
344 596 -327 0.677734375 0.71875 0 152 0 255
324 598 -305 0.669921875 0.7109375 0 152 0 255
342 578 -294 0.677734375 0.697265625 0 152 0 255
497 547 -299 0.744140625 0.6875 0 138 0 255
462 556 -281 0.73046875 0.685546875 0 138 0 255
568 489 -242 0.77734375 0.638671875 0 138 0 255
604 480 -260 0.79296875 0.640625 0 138 0 255
529 744 -413 0.751953125 0.837890625 0 177 0 255
509 744 -389 0.744140625 0.830078125 0 177 0 255
519 600 -306 0.75390625 0.720703125 0 177 0 255
541 581 -318 0.76171875 0.71484375 0 177 0 255
461 382 -203 0.734375 0.560546875 0 118 0 255
462 417 -200 0.734375 0.580078125 0 118 0 255
336 532 -267 0.67578125 0.662109375 0 118 0 255
604 480 -260 0.79296875 0.640625 0 186 0 255
462 417 -200 0.734375 0.580078125 0 186 0 255
461 382 -203 0.734375 0.560546875 0 186 0 255
568 489 -242 0.77734375 0.638671875 0 186 0 255
541 581 -318 0.76171875 0.71484375 0 186 0 255
519 600 -306 0.75390625 0.720703125 0 186 0 255
497 547 -299 0.744140625 0.6875 0 186 0 255
462 556 -281 0.73046875 0.685546875 0 186 0 255
440 807 -449 0.712890625 0.8828125 0 141 0 255
509 744 -389 0.744140625 0.830078125 0 141 0 255
529 744 -413 0.751953125 0.837890625 0 141 0 255
434 797 -420 0.708984375 0.8671875 0 141 0 255
336 532 -267 0.67578125 0.662109375 0 177 0 255
339 425 -205 0.681640625 0.580078125 0 177 0 255
360 395 -211 0.69140625 0.56640625 0 177 0 255
357 475 -258 0.6875 0.626953125 0 118 0 255
344 596 -327 0.677734375 0.71875 0 76 0 255
444 663 -343 0.71875 0.765625 0 76 0 255
411 652 -360 0.705078125 0.763671875 0 76 0 255
342 578 -294 0.677734375 0.697265625 0 76 0 255
411 652 -360 0.705078125 0.763671875 0 121 0 255
310 758 -397 0.658203125 0.83203125 0 121 0 255
334 706 -391 0.669921875 0.80078125 0 121 0 255
444 663 -343 0.71875 0.765625 0 121 0 255
357 475 -258 0.6875 0.626953125 0 177 0 255
152 804 -447 0.587890625 0.8671875 0 106 0 255
434 797 -420 0.708984375 0.8671875 0 106 0 255
440 807 -449 0.712890625 0.8828125 0 106 0 255
175 795 -419 0.59765625 0.853515625 0 106 0 255
360 395 -211 0.69140625 0.56640625 0 164 0 255
339 425 -205 0.681640625 0.580078125 0 164 0 255
210 423 -204 0.626953125 0.57421875 0 164 0 255
192 393 -210 0.619140625 0.55859375 0 164 0 255
324 598 -305 0.669921875 0.7109375 47 255 47 255
339 425 -205 0.681640625 0.580078125 47 255 47 255
336 532 -267 0.67578125 0.662109375 47 255 47 255
342 578 -294 0.677734375 0.697265625 47 255 47 255
310 758 -397 0.658203125 0.83203125 47 255 47 255
210 423 -204 0.626953125 0.57421875 47 255 47 255
175 795 -419 0.59765625 0.853515625 47 255 47 255
434 797 -420 0.708984375 0.8671875 47 255 47 255
444 663 -343 0.71875 0.765625 47 255 47 255
519 600 -306 0.75390625 0.720703125 47 255 47 255
509 744 -389 0.744140625 0.830078125 47 255 47 255
462 417 -200 0.734375 0.580078125 47 255 47 255
568 489 -242 0.77734375 0.638671875 47 255 47 255
462 556 -281 0.73046875 0.685546875 47 255 47 255
256 -197 150 0.666015625 0.107421875 98 0 0 255
277 -168 157 0.673828125 0.123046875 98 0 0 255
284 326 -128 0.66015625 0.498046875 98 0 0 255
263 335 -157 0.65234375 0.51171875 98 0 0 255
496 -198 151 0.76953125 0.1171875 197 0 0 255
277 -168 157 0.673828125 0.123046875 197 0 0 255
256 -197 150 0.666015625 0.107421875 197 0 0 255
476 -168 157 0.759765625 0.130859375 197 0 0 255
437 336 -157 0.7265625 0.51953125 212 0 0 255
476 -168 157 0.759765625 0.130859375 212 0 0 255
496 -198 151 0.76953125 0.1171875 212 0 0 255
437 336 -157 0.7265625 0.51953125 215 0 0 255
417 326 -128 0.71875 0.50390625 215 0 0 255
476 -168 157 0.759765625 0.130859375 215 0 0 255
-1043 585 -270 0.08203125 0.634765625 107 0 0 255
-1182 531 -239 0.0234375 0.587890625 107 0 0 255
-1140 536 -218 0.041015625 0.5859375 107 0 0 255
263 335 -157 0.65234375 0.51171875 128 0 0 255
284 326 -128 0.66015625 0.498046875 128 0 0 255
437 336 -157 0.7265625 0.51953125 128 0 0 255
417 326 -128 0.71875 0.50390625 128 0 0 255
-1027 832 -389 0.080078125 0.814453125 94 0 0 255
-1036 841 -418 0.076171875 0.830078125 94 0 0 255
-1159 713 -320 0.02734375 0.71875 94 0 0 255
-1190 702 -337 0.013671875 0.716796875 94 0 0 255
-1159 713 -320 0.02734375 0.71875 147 0 0 255
-1043 585 -270 0.08203125 0.634765625 147 0 0 255
-1004 589 -249 0.09765625 0.6328125 147 0 0 255
-1190 702 -337 0.013671875 0.716796875 147 0 0 255
-1030 702 -314 0.083984375 0.716796875 224 0 0 255
-946 728 -353 0.1171875 0.748046875 224 0 0 255
-948 761 -348 0.1171875 0.765625 224 0 0 255
-1004 589 -249 0.09765625 0.6328125 107 0 0 255
-1140 536 -218 0.041015625 0.5859375 153 0 0 255
-1182 531 -239 0.0234375 0.587890625 153 0 0 255
-1027 459 -173 0.091796875 0.533203125 153 0 0 255
-1030 426 -179 0.091796875 0.515625 153 0 0 255
-868 831 -389 0.1484375 0.822265625 128 0 0 255
-861 841 -418 0.150390625 0.8359375 128 0 0 255
-1036 841 -418 0.076171875 0.830078125 128 0 0 255
-1027 832 -389 0.080078125 0.814453125 128 0 0 255
-989 697 -335 0.1015625 0.72265625 224 0 0 255
-814 618 -265 0.1796875 0.662109375 153 0 0 255
-786 618 -289 0.19140625 0.669921875 153 0 0 255
-1030 702 -314 0.083984375 0.716796875 153 0 0 255
-948 761 -348 0.1171875 0.765625 161 0 0 255
-946 728 -353 0.1171875 0.748046875 161 0 0 255
-869 717 -323 0.15234375 0.734375 161 0 0 255
-867 683 -327 0.154296875 0.716796875 161 0 0 255
-1027 459 -173 0.091796875 0.533203125 215 0 0 255
-1030 426 -179 0.091796875 0.515625 215 0 0 255
-846 489 -215 0.169921875 0.5703125 215 0 0 255
-862 515 -206 0.162109375 0.58203125 215 0 0 255
-795 776 -356 0.181640625 0.78125 172 0 0 255
-762 766 -374 0.1953125 0.783203125 172 0 0 255
-861 841 -418 0.150390625 0.8359375 172 0 0 255
-868 831 -389 0.1484375 0.822265625 172 0 0 255
-862 515 -206 0.162109375 0.58203125 227 0 0 255
-786 618 -289 0.19140625 0.669921875 227 0 0 255
-814 618 -265 0.1796875 0.662109375 227 0 0 255
-989 697 -335 0.1015625 0.72265625 153 0 0 255
-869 717 -323 0.15234375 0.734375 227 0 0 255
-762 766 -374 0.1953125 0.783203125 227 0 0 255
-795 776 -356 0.181640625 0.78125 227 0 0 255
-867 683 -327 0.154296875 0.716796875 227 0 0 255
-846 489 -215 0.169921875 0.5703125 227 0 0 255
-1004 589 -249 0.09765625 0.6328125 255 47 47 255
-1027 459 -173 0.091796875 0.533203125 255 47 47 255
-862 515 -206 0.162109375 0.58203125 255 47 47 255
476 -168 157 0.759765625 0.130859375 255 47 47 255
417 326 -128 0.71875 0.50390625 255 47 47 255
284 326 -128 0.66015625 0.498046875 255 47 47 255
277 -168 157 0.673828125 0.123046875 255 47 47 255
-948 761 -348 0.1171875 0.765625 255 47 47 255
-869 717 -323 0.15234375 0.734375 255 47 47 255
-795 776 -356 0.181640625 0.78125 255 47 47 255
-1027 832 -389 0.080078125 0.814453125 255 47 47 255
-1159 713 -320 0.02734375 0.71875 255 47 47 255
-1030 702 -314 0.083984375 0.716796875 255 47 47 255
-868 831 -389 0.1484375 0.822265625 255 47 47 255
-814 618 -265 0.1796875 0.662109375 255 47 47 255
-1140 536 -218 0.041015625 0.5859375 255 47 47 255
105 33 48 0.59375 0.265625 186 186 0 255
142 22 30 0.609375 0.265625 186 186 0 255
230 73 1 0.646484375 0.30859375 186 186 0 255
122 -166 163 0.607421875 0.115234375 186 186 0 255
120 -201 160 0.607421875 0.095703125 186 186 0 255
260 -69 107 0.6640625 0.1953125 186 186 0 255
295 -78 89 0.6796875 0.197265625 186 186 0 255
260 -69 107 0.6640625 0.1953125 139 139 0 255
295 -78 89 0.6796875 0.197265625 139 139 0 255
142 22 30 0.609375 0.265625 139 139 0 255
105 33 48 0.59375 0.265625 139 139 0 255
-38 -26 82 0.53515625 0.21484375 107 107 0 255
-19 -79 89 0.54296875 0.181640625 107 107 0 255
120 -201 160 0.607421875 0.095703125 107 107 0 255
122 -166 163 0.607421875 0.115234375 107 107 0 255
101 165 -28 0.587890625 0.365234375 67 67 0 255
-24 75 0 0.537109375 0.30078125 67 67 0 255
-22 62 31 0.537109375 0.28125 67 67 0 255
-42 -140 148 0.537109375 0.126953125 182 182 0 255
-22 -169 141 0.544921875 0.115234375 182 182 0 255
-19 -79 89 0.54296875 0.181640625 182 182 0 255
-38 -26 82 0.53515625 0.21484375 182 182 0 255
-199 -145 151 0.46875 0.1171875 164 164 0 255
-220 -176 145 0.4609375 0.1015625 164 164 0 255
-22 -169 141 0.544921875 0.115234375 164 164 0 255
-42 -140 148 0.537109375 0.126953125 164 164 0 255
209 94 12 0.63671875 0.31640625 177 177 0 255
230 73 1 0.646484375 0.30859375 177 177 0 255
206 268 -87 0.62890625 0.447265625 177 177 0 255
226 271 -113 0.638671875 0.458984375 177 177 0 255
68 154 -45 0.57421875 0.36328125 67 67 0 255
-22 62 31 0.537109375 0.28125 139 139 0 255
-24 75 0 0.537109375 0.30078125 139 139 0 255
-45 80 20 0.52734375 0.294921875 139 139 0 255
206 268 -87 0.62890625 0.447265625 129 129 0 255
226 271 -113 0.638671875 0.458984375 129 129 0 255
12 362 -165 0.54296875 0.51953125 129 129 0 255
8 353 -136 0.541015625 0.50390625 129 129 0 255
-43 272 -89 0.521484375 0.439453125 120 120 0 255
-23 222 -84 0.53125 0.41015625 120 120 0 255
68 154 -45 0.57421875 0.36328125 120 120 0 255
101 165 -28 0.587890625 0.365234375 120 120 0 255
-399 424 -165 0.36328125 0.537109375 164 164 0 255
-419 394 -172 0.35546875 0.521484375 164 164 0 255
-283 394 -171 0.4140625 0.525390625 164 164 0 255
-24 75 0 0.537109375 0.30078125 182 182 0 255
-23 222 -84 0.53125 0.41015625 182 182 0 255
-43 272 -89 0.521484375 0.439453125 182 182 0 255
-45 80 20 0.52734375 0.294921875 182 182 0 255
-198 352 -136 0.453125 0.494140625 81 81 0 255
-218 362 -165 0.443359375 0.5078125 81 81 0 255
-220 -176 145 0.4609375 0.1015625 81 81 0 255
-199 -145 151 0.46875 0.1171875 81 81 0 255
8 353 -136 0.541015625 0.50390625 106 106 0 255
12 362 -165 0.54296875 0.51953125 106 106 0 255
-218 362 -165 0.443359375 0.5078125 106 106 0 255
-198 352 -136 0.453125 0.494140625 106 106 0 255
-132 599 -266 0.47265625 0.6796875 177 177 0 255
-111 583 -281 0.482421875 0.67578125 177 177 0 255
-126 768 -388 0.470703125 0.81640625 177 177 0 255
-303 423 -165 0.404296875 0.541015625 164 164 0 255
-400 811 -389 0.349609375 0.830078125 81 81 0 255
-419 394 -172 0.35546875 0.521484375 81 81 0 255
-399 424 -165 0.36328125 0.537109375 81 81 0 255
-421 820 -418 0.341796875 0.84375 81 81 0 255
-145 766 -363 0.4609375 0.806640625 131 131 0 255
-126 768 -388 0.470703125 0.81640625 131 131 0 255
-238 810 -388 0.419921875 0.8359375 131 131 0 255
-233 819 -417 0.421875 0.849609375 131 131 0 255
-145 766 -363 0.4609375 0.806640625 177 177 0 255
-310 724 -338 0.392578125 0.767578125 161 161 0 255
-289 690 -343 0.40234375 0.75 161 161 0 255
-215 678 -336 0.43359375 0.744140625 161 161 0 255
-206 503 -211 0.443359375 0.60546875 188 188 0 255
-196 474 -218 0.44921875 0.58984375 188 188 0 255
-132 599 -266 0.47265625 0.6796875 188 188 0 255
-111 583 -281 0.482421875 0.67578125 188 188 0 255
-238 810 -388 0.419921875 0.8359375 106 106 0 255
-233 819 -417 0.421875 0.849609375 106 106 0 255
-400 811 -389 0.349609375 0.830078125 106 106 0 255
-421 820 -418 0.341796875 0.84375 106 106 0 255
-189 704 -327 0.4453125 0.7578125 76 76 0 255
-215 678 -336 0.43359375 0.744140625 76 76 0 255
-235 614 -299 0.427734375 0.6953125 76 76 0 255
-219 607 -271 0.435546875 0.681640625 76 76 0 255
-304 593 -263 0.3984375 0.66796875 177 177 0 255
-284 606 -294 0.40625 0.6875 177 177 0 255
-289 690 -343 0.40234375 0.75 177 177 0 255
-189 704 -327 0.4453125 0.7578125 161 161 0 255
-283 473 -218 0.412109375 0.5859375 164 164 0 255
-196 474 -218 0.44921875 0.58984375 164 164 0 255
-206 503 -211 0.443359375 0.60546875 164 164 0 255
-303 503 -211 0.40234375 0.599609375 164 164 0 255
-219 607 -271 0.435546875 0.681640625 98 98 0 255
-235 614 -299 0.427734375 0.6953125 98 98 0 255
-304 593 -263 0.3984375 0.66796875 98 98 0 255
-284 606 -294 0.40625 0.6875 98 98 0 255
-310 724 -338 0.392578125 0.767578125 177 177 0 255
-303 423 -165 0.404296875 0.541015625 182 182 0 255
-283 394 -171 0.4140625 0.525390625 182 182 0 255
-283 473 -218 0.412109375 0.5859375 182 182 0 255
-303 503 -211 0.40234375 0.599609375 177 177 0 255
-198 352 -136 0.453125 0.494140625 255 255 57 255
-43 272 -89 0.521484375 0.439453125 255 255 57 255
8 353 -136 0.541015625 0.50390625 255 255 57 255
122 -166 163 0.607421875 0.115234375 255 255 57 255
105 33 48 0.59375 0.265625 255 255 57 255
-38 -26 82 0.53515625 0.21484375 255 255 57 255
260 -69 107 0.6640625 0.1953125 255 255 57 255
101 165 -28 0.587890625 0.365234375 255 255 57 255
209 94 12 0.63671875 0.31640625 255 255 57 255
-22 62 31 0.537109375 0.28125 255 255 57 255
-45 80 20 0.52734375 0.294921875 255 255 57 255
-42 -140 148 0.537109375 0.126953125 255 255 57 255
206 268 -87 0.62890625 0.447265625 255 255 57 255
-199 -145 151 0.46875 0.1171875 255 255 57 255
-219 607 -271 0.435546875 0.681640625 255 255 57 255
-145 766 -363 0.4609375 0.806640625 255 255 57 255
-189 704 -327 0.4453125 0.7578125 255 255 57 255
-132 599 -266 0.47265625 0.6796875 255 255 57 255
-206 503 -211 0.443359375 0.60546875 255 255 57 255
-304 593 -263 0.3984375 0.66796875 255 255 57 255
-303 503 -211 0.40234375 0.599609375 255 255 57 255
-400 811 -389 0.349609375 0.830078125 255 255 57 255
-310 724 -338 0.392578125 0.767578125 255 255 57 255
-238 810 -388 0.419921875 0.8359375 255 255 57 255
-399 424 -165 0.36328125 0.537109375 255 255 57 255
-303 423 -165 0.404296875 0.541015625 255 255 57 255
1414 378 -183 5.255859375 0.943359375 149 149 97 255
1414 176 -350 6.0703125 0.146484375 149 149 97 255
1414 255 -396 5.255859375 0.943359375 149 149 97 255
1462 447 -223 5.130859375 1.48046875 149 149 97 255
1462 378 -183 5.685546875 0.951171875 149 149 97 255
1462 255 -396 5.685546875 0.951171875 149 149 97 255
1462 325 -436 5.130859375 1.48046875 149 149 97 255
1462 378 -183 5.685546875 0.951171875 116 116 85 255
1414 255 -396 5.255859375 0.943359375 116 116 85 255
1462 255 -396 5.685546875 0.951171875 116 116 85 255
1414 378 -183 5.255859375 0.943359375 116 116 85 255
1414 447 -223 4.71484375 1.474609375 54 54 35 255
1462 325 -436 5.130859375 1.48046875 54 54 35 255
1414 325 -436 4.71484375 1.474609375 54 54 35 255
1462 447 -223 5.130859375 1.48046875 54 54 35 255
1120 451 -225 2.111328125 1.45703125 54 54 35 255
1333 563 -573 1.921875 3.5859375 54 54 35 255
1120 328 -438 2.111328125 1.45703125 54 54 35 255
1414 299 -137 6.0703125 0.146484375 149 149 97 255
1414 685 -360 2.544921875 3.59765625 149 149 97 255
1414 325 -436 4.71484375 1.474609375 149 149 97 255
1414 563 -573 2.544921875 3.59765625 149 149 97 255
1414 447 -223 4.71484375 1.474609375 149 149 97 255
1333 685 -360 1.921875 3.5859375 54 54 35 255
1414 685 -360 2.544921875 3.59765625 54 54 35 255
1414 563 -573 2.544921875 3.59765625 54 54 35 255
1229 450 -224 2.806640625 1.458984375 54 54 35 255
1320 450 -224 3.873046875 1.478515625 54 54 35 255
1320 327 -437 3.873046875 1.478515625 54 54 35 255
1414 299 -137 6.0703125 0.146484375 116 116 85 255
1320 176 -350 5.248046875 0.130859375 116 116 85 255
1414 176 -350 6.0703125 0.146484375 116 116 85 255
1320 299 -137 5.248046875 0.130859375 116 116 85 255
1320 299 -137 5.248046875 0.130859375 54 54 35 255
1320 255 -396 4.435546875 0.927734375 54 54 35 255
1320 176 -350 5.248046875 0.130859375 54 54 35 255
1320 378 -183 4.435546875 0.927734375 54 54 35 255
1320 430 -497 2.6640625 2.662109375 54 54 35 255
1320 553 -284 2.6640625 2.662109375 54 54 35 255
1320 378 -183 4.435546875 0.927734375 116 116 85 255
1123 378 -183 2.68359375 0.89453125 116 116 85 255
1123 255 -396 2.68359375 0.89453125 116 116 85 255
1229 327 -437 2.806640625 1.458984375 54 54 35 255
1320 553 -284 2.6640625 2.662109375 167 167 123 255
1229 327 -437 2.806640625 1.458984375 167 167 123 255
1320 430 -497 2.6640625 2.662109375 167 167 123 255
1229 450 -224 2.806640625 1.458984375 167 167 123 255
1123 378 -183 2.68359375 0.89453125 54 54 35 255
1123 255 -396 2.68359375 0.89453125 54 54 35 255
1320 255 -396 4.435546875 0.927734375 116 116 85 255
1026 526 -269 0.60546875 2.11328125 95 95 61 255
1060 366 -459 1.248046875 1.783203125 95 95 61 255
1026 403 -481 0.60546875 2.11328125 95 95 61 255
1075 426 -211 1.943359375 1.232421875 160 158 111 255
1068 376 -182 2.3359375 0.78515625 160 158 111 255
1068 254 -395 2.3359375 0.78515625 160 158 111 255
1075 304 -423 1.943359375 1.232421875 160 158 111 255
1060 488 -247 1.248046875 1.783203125 136 136 88 255
1075 304 -423 1.943359375 1.232421875 136 136 88 255
1060 366 -459 1.248046875 1.783203125 136 136 88 255
1075 426 -211 1.943359375 1.232421875 136 136 88 255
1068 376 -182 2.3359375 0.78515625 167 167 123 255
1035 335 -158 2.41796875 0.412109375 167 167 123 255
1035 213 -371 2.41796875 0.412109375 167 167 123 255
1068 254 -395 2.3359375 0.78515625 167 167 123 255
956 696 -367 -1.5546875 3.6171875 54 54 35 255
1013 694 -366 -1.04296875 3.611328125 54 54 35 255
1013 571 -578 -1.04296875 3.611328125 54 54 35 255
1060 488 -247 1.248046875 1.783203125 95 95 61 255
1013 694 -366 -1.04296875 3.611328125 149 149 97 255
1012 494 -533 -0.50390625 3.083984375 149 149 97 255
1013 571 -578 -1.04296875 3.611328125 149 149 97 255
1012 616 -321 -0.50390625 3.083984375 149 149 97 255
1035 335 -158 2.41796875 0.412109375 154 154 114 255
979 183 -354 2.197265625 0.140625 154 154 114 255
1035 213 -371 2.41796875 0.412109375 154 154 114 255
979 306 -141 2.197265625 0.140625 154 154 114 255
956 573 -579 -1.5546875 3.6171875 54 54 35 255
884 687 -361 -2.046875 3.5234375 54 54 35 255
884 564 -574 -2.046875 3.5234375 54 54 35 255
978 546 -280 0.00390625 2.28125 54 54 35 255
1026 403 -481 0.60546875 2.11328125 54 54 35 255
978 423 -492 0.00390625 2.28125 54 54 35 255
1026 526 -269 0.60546875 2.11328125 54 54 35 255
923 552 -283 -0.525390625 2.32421875 54 54 35 255
923 429 -496 -0.525390625 2.32421875 54 54 35 255
1012 616 -321 -0.50390625 3.083984375 116 116 85 255
959 616 -321 -0.978515625 3.05859375 116 116 85 255
959 494 -533 -0.978515625 3.05859375 116 116 85 255
1012 494 -533 -0.50390625 3.083984375 116 116 85 255
939 375 -182 1.333984375 0.68359375 54 54 35 255
968 394 -192 1.33203125 0.888671875 54 54 35 255
968 271 -405 1.33203125 0.888671875 54 54 35 255
972 429 -212 1.015625 1.236328125 54 54 35 255
972 306 -425 1.015625 1.236328125 54 54 35 255
960 339 -444 0.609375 1.529296875 54 54 35 255
939 253 -394 1.333984375 0.68359375 54 54 35 255
960 462 -231 0.609375 1.529296875 54 54 35 255
908 370 -179 1.107421875 0.59375 54 54 35 255
908 248 -391 1.107421875 0.59375 54 54 35 255
979 306 -141 2.197265625 0.140625 136 136 88 255
916 292 -133 1.771484375 0.0078125 136 136 88 255
916 169 -346 1.771484375 0.0078125 136 136 88 255
979 183 -354 2.197265625 0.140625 136 136 88 255
959 616 -321 -0.978515625 3.05859375 129 129 95 255
909 608 -316 -1.337890625 2.984375 129 129 95 255
909 486 -529 -1.337890625 2.984375 129 129 95 255
868 547 -281 -0.966796875 2.2734375 54 54 35 255
868 424 -493 -0.966796875 2.2734375 54 54 35 255
960 462 -231 0.609375 1.529296875 64 64 47 255
936 350 -450 0.2109375 1.701171875 64 64 47 255
960 339 -444 0.609375 1.529296875 64 64 47 255
936 473 -238 0.2109375 1.701171875 64 64 47 255
806 655 -343 -2.44921875 3.216796875 54 54 35 255
806 532 -555 -2.44921875 3.216796875 54 54 35 255
959 494 -533 -0.978515625 3.05859375 129 129 95 255
878 371 -179 0.759765625 0.625 54 54 35 255
878 249 -392 0.759765625 0.625 54 54 35 255
936 473 -238 0.2109375 1.701171875 108 108 70 255
900 475 -239 -0.158203125 1.73046875 108 108 70 255
900 352 -451 -0.158203125 1.73046875 108 108 70 255
936 350 -450 0.2109375 1.701171875 108 108 70 255
825 530 -271 -1.185546875 2.1171875 54 54 35 255
916 292 -133 1.771484375 0.0078125 106 116 85 255
840 177 -350 1.0390625 0.060546875 106 116 85 255
916 169 -346 1.771484375 0.0078125 106 116 85 255
825 407 -483 -1.185546875 2.1171875 54 54 35 255
909 608 -316 -1.337890625 2.984375 148 145 102 255
872 471 -520 -1.513671875 2.796875 148 145 102 255
909 486 -529 -1.337890625 2.984375 148 145 102 255
872 593 -307 -1.513671875 2.796875 148 145 102 255
852 382 -185 0.37109375 0.76953125 54 54 35 255
852 259 -398 0.37109375 0.76953125 54 54 35 255
840 299 -138 1.0390625 0.060546875 106 116 85 255
900 475 -239 -0.158203125 1.73046875 129 129 95 255
863 346 -448 -0.40234375 1.640625 129 129 95 255
900 352 -451 -0.158203125 1.73046875 129 129 95 255
863 468 -235 -0.40234375 1.640625 129 129 95 255
753 600 -311 -2.453125 2.7265625 54 54 35 255
753 477 -524 -2.453125 2.7265625 54 54 35 255
872 593 -307 -1.513671875 2.796875 163 163 105 255
841 569 -293 -1.478515625 2.501953125 163 163 105 255
841 446 -506 -1.478515625 2.501953125 163 163 105 255
872 471 -520 -1.513671875 2.796875 163 163 105 255
825 407 -483 -1.185546875 2.1171875 163 163 105 255
825 530 -271 -1.185546875 2.1171875 163 163 105 255
840 299 -138 1.0390625 0.060546875 68 68 44 255
786 199 -363 0.361328125 0.25390625 68 68 44 255
840 177 -350 1.0390625 0.060546875 68 68 44 255
863 468 -235 -0.40234375 1.640625 160 158 111 255
826 444 -221 -0.46484375 1.4296875 160 158 111 255
826 321 -434 -0.46484375 1.4296875 160 158 111 255
863 346 -448 -0.40234375 1.640625 160 158 111 255
833 407 -200 0.0 1.021484375 106 116 85 255
852 382 -185 0.37109375 0.76953125 106 116 85 255
852 259 -398 0.37109375 0.76953125 106 116 85 255
833 284 -412 0.0 1.021484375 106 116 85 255
826 444 -221 -0.46484375 1.4296875 142 142 104 255
833 284 -412 0.0 1.021484375 142 142 104 255
826 321 -434 -0.46484375 1.4296875 142 142 104 255
833 407 -200 0.0 1.021484375 142 142 104 255
747 364 -175 -0.36328125 0.625 54 54 35 255
729 405 -199 -0.89453125 0.990234375 54 54 35 255
729 283 -411 -0.89453125 0.990234375 54 54 35 255
786 322 -151 0.361328125 0.25390625 68 68 44 255
729 550 -283 -2.21484375 2.283203125 54 54 35 255
729 428 -495 -2.21484375 2.283203125 54 54 35 255
786 322 -151 0.361328125 0.25390625 54 54 35 255
747 242 -388 -0.36328125 0.625 54 54 35 255
786 199 -363 0.361328125 0.25390625 54 54 35 255
720 506 -257 -1.89453125 1.888671875 54 54 35 255
720 384 -470 -1.89453125 1.888671875 54 54 35 255
720 455 -228 -1.4296875 1.43359375 54 54 35 255
720 333 -440 -1.4296875 1.43359375 54 54 35 255
3 0 1 2
3 3 4 5
3 3 6 7
3 5 2 3
3 3 7 4
3 2 1 3
3 7 8 4
3 9 10 11
3 9 12 10
3 13 14 0
3 15 13 0
3 0 2 15
3 15 16 7
3 15 7 13
3 17 18 19
3 20 17 19
3 21 22 17
3 17 23 18
3 20 21 17
3 24 21 25
3 21 24 26
3 21 26 22
3 21 27 25
3 19 27 20
3 19 25 27
3 28 29 30
3 31 32 33
3 34 31 33
3 31 35 32
3 31 36 35
3 28 30 34
3 30 37 34
3 34 33 28
3 30 38 39
3 30 40 38
3 30 39 37
3 41 42 43
3 44 45 46
3 47 48 44
3 44 46 47
3 44 49 45
3 47 50 51
3 47 52 50
3 47 51 48
3 47 53 52
3 51 54 55
3 51 55 48
3 56 57 58
3 42 59 43
3 42 60 59
3 41 43 56
3 43 61 56
3 56 58 41
3 56 62 57
3 63 64 65
3 66 63 65
3 65 64 67
3 65 67 68
3 69 70 71
3 70 72 71
3 73 74 75
3 73 75 76
3 77 78 79
3 77 80 78
3 81 82 83
3 84 83 85
3 83 86 85
3 81 83 84
3 87 88 89
3 87 90 88
3 91 92 93
3 94 95 96
3 94 96 97
3 98 99 100
3 99 101 100
3 102 103 104
3 102 104 105
3 106 107 108
3 92 109 93
3 110 111 112
3 110 112 113
3 114 106 108
3 115 116 114
3 116 106 114
3 117 118 119
3 120 121 122
3 123 124 120
3 120 124 121
3 123 125 124
3 126 127 128
3 126 129 127
3 130 129 126
3 130 131 129
3 132 133 134
3 135 117 119
3 136 117 135
3 137 138 139
3 138 140 139
3 141 131 130
3 141 142 131
3 143 144 145
3 132 134 146
3 147 148 136
3 136 148 117
3 147 149 148
3 150 151 152
3 153 150 152
3 154 155 156
3 143 145 157
3 158 159 160
3 158 160 161
3 162 163 164
3 162 164 165
3 154 166 155
3 167 168 169
3 170 167 169
3 169 168 171
3 169 171 172
3 173 174 175
3 176 173 175
3 175 177 178
3 175 174 177
3 179 180 173
3 179 173 176
3 181 182 183
3 184 185 186
3 185 187 186
3 188 189 190
3 191 188 190
3 192 193 194
3 192 194 195
3 196 197 198
3 181 183 199
3 200 201 202
3 200 202 203
3 204 205 206
3 204 206 207
3 197 208 198
3 209 210 211
3 212 213 214
3 213 215 214
3 216 217 218
3 216 218 219
3 220 221 222
3 220 223 221
3 224 225 226
3 209 211 227
3 228 229 230
3 229 231 230
3 232 233 234
3 233 235 234
3 236 224 226
3 237 238 239
3 240 241 242
3 240 242 243
3 244 245 246
3 244 247 245
3 248 249 250
3 248 250 251
3 252 253 254
3 238 255 239
3 256 257 258
3 256 259 257
3 260 261 262
3 260 262 263
3 252 264 253
3 265 266 267
3 268 269 270
3 268 271 269
3 272 273 274
3 272 275 273
3 276 277 278
3 279 276 278
3 266 280 267
3 281 282 283
3 284 285 286
3 284 286 287
3 288 289 290
3 288 290 291
3 292 293 294
3 295 296 297
3 295 298 296
3 299 300 301
3 300 302 301
3 303 304 305
3 303 306 304
3 307 308 309
3 292 294 310
3 311 312 313
3 311 314 312
3 315 316 317
3 315 318 316
3 319 307 309
3 320 321 322
3 320 323 321
3 324 325 326
3 324 326 327
3 328 329 330
3 330 331 328
3 332 333 329
3 332 334 333
3 335 334 332
3 335 336 337
3 335 332 336
3 335 337 338
3 331 337 336
3 331 339 340
3 331 340 341
3 331 341 337
3 331 330 339
3 342 343 344
3 342 344 345
3 346 347 348
3 346 349 347
3 350 351 352
3 353 354 355
3 356 357 358
3 359 360 361
3 360 362 361
3 363 364 365
3 364 366 365
3 367 368 369
3 367 370 368
3 371 372 373
3 374 356 358
3 375 376 377
3 376 378 377
3 379 380 381
3 379 381 382
3 371 383 372
3 384 385 386
3 387 388 389
3 388 390 389
3 391 392 393
3 391 393 394
3 395 396 397
3 395 397 398
3 399 400 401
3 385 402 386
3 403 404 405
3 403 406 404
3 399 407 400
3 408 409 410
3 411 412 413
3 414 411 413
3 415 416 417
3 415 418 419
3 419 420 415
3 415 417 421
3 415 421 418
3 419 408 420
3 408 422 420
3 408 410 422
3 408 423 409
3 424 425 426
3 427 428 429
3 428 430 429
3 431 432 433
3 431 433 434
3 435 436 437
3 435 437 438
3 439 440 441
3 442 443 444
3 442 444 445
3 446 447 448
3 446 448 449
3 450 451 452
3 451 453 452
3 439 454 440
3 455 456 457
3 458 459 460
3 458 460 461
3 462 463 464
3 462 464 465
3 466 467 468
3 469 470 471
3 469 471 472
3 473 474 475
3 473 475 476
3 477 478 479
3 477 479 480
3 481 482 483
3 466 468 484
3 485 486 487
3 485 488 486
3 489 490 491
3 490 492 491
3 481 483 493
3 494 495 496
3 497 498 499
3 498 500 499
3 501 502 503
3 502 504 503
3 505 506 507
3 505 507 508
3 509 510 511
3 494 496 512
3 513 514 515
3 516 513 515
3 517 518 519
3 518 520 519
3 509 511 521
3 522 523 524
3 522 524 525
3 526 527 528
3 529 530 531
3 529 532 530
3 533 530 534
3 533 531 530
3 531 535 536
3 533 535 531
3 526 531 536
3 526 537 531
3 533 538 528
3 528 527 533
3 533 534 538
3 526 536 527
3 526 539 537
3 540 541 542
3 540 543 541
3 540 544 543
3 540 545 546
3 540 546 544
3 547 542 541
3 547 548 542
3 547 541 549
3 547 545 548
3 547 550 551
3 547 546 545
3 547 551 546
3 552 553 554
3 555 556 557
3 555 557 558
3 559 560 561
3 559 562 560
3 563 564 565
3 563 566 564
3 567 568 569
3 552 570 553
3 571 572 573
3 571 574 572
3 575 576 577
3 575 577 568
3 567 575 568
3 578 579 580
3 581 582 583
3 581 584 582
3 585 586 587
3 585 588 586
3 579 589 580
3 579 590 589
3 591 592 593
3 578 580 594
3 595 596 597
3 595 598 596
3 599 567 569
3 599 569 600
3 591 593 601
3 602 603 604
3 605 606 607
3 605 607 608
3 609 610 611
3 610 609 612
3 613 614 615
3 613 615 616
3 617 618 619
3 602 620 603
3 621 622 623
3 621 624 622
3 625 626 627
3 625 628 626
3 617 619 629
3 630 629 631
3 630 617 629
3 632 633 634
3 632 635 633
3 636 632 634
3 636 634 637
3 638 639 640
3 638 640 641
3 642 643 644
3 643 645 646
3 643 646 644
3 645 647 646
3 642 644 648
3 645 649 647
3 650 642 648
3 650 648 651
3 652 653 654
3 652 654 655
3 656 657 658
3 659 636 637
3 659 637 660
3 661 662 663
3 661 664 662
3 665 630 631
3 665 631 666
3 656 658 667
3 668 650 651
3 668 651 669
3 670 671 672
3 670 672 673
3 674 659 660
3 675 676 677
3 674 660 678
3 679 680 681
3 679 682 680
3 683 668 669
3 683 669 684
3 675 685 676
3 686 687 688
3 686 689 687
3 690 665 666
3 690 666 691
3 692 693 694
3 692 694 695
3 693 696 694
3 693 697 696
3 698 699 700
3 701 702 703
3 701 703 704
3 705 706 707
3 705 707 708
3 709 710 711
3 709 712 710
3 713 714 715
3 698 716 699
3 717 690 691
3 717 691 718
3 719 720 721
3 719 713 720
3 713 715 720
3 722 717 718
3 722 718 723
3 714 724 725
3 714 725 715
3 724 722 723
3 724 723 725
