ply
format ascii 1.0
element vertex 248
property short x
property short y
property short z
property uchar red
property uchar green
property uchar blue
property uchar alpha
element face 166
property list uchar uint vertex_indices
end_header
2484 2075 -818 0 0 0 255
-2423 -1994 -818 0 0 0 255
2484 -1994 -818 0 0 0 255
-2423 2075 -818 0 0 0 255
-123 259 -409 74 74 74 255
-123 366 -224 74 74 74 255
-229 648 -634 74 74 74 255
1401 395 -178 255 47 47 255
1401 443 -206 255 47 47 255
1334 445 -207 255 47 47 255
1334 395 -178 255 47 47 255
1449 395 -178 255 47 47 255
1449 443 -206 255 47 47 255
1334 316 -132 255 47 47 255
1401 316 -132 255 47 47 255
1401 681 -343 255 47 47 255
1202 445 -207 255 47 47 255
1334 592 -292 255 47 47 255
1339 681 -343 255 47 47 255
1133 453 -212 255 47 47 255
1025 350 -152 255 47 47 255
981 396 -178 255 47 47 255
947 372 -165 255 47 47 255
1133 395 -178 255 47 47 255
985 436 -202 255 47 47 255
1062 434 -201 255 47 47 255
1048 490 -233 255 47 47 255
972 474 -224 255 47 47 255
1055 387 -173 255 47 47 255
1018 524 -252 255 47 47 255
888 682 -344 255 47 47 255
904 625 -311 255 47 47 255
957 691 -349 255 47 47 255
973 322 -136 255 47 47 255
943 489 -232 255 47 47 255
974 541 -263 255 47 47 255
957 634 -316 255 47 47 255
999 633 -316 255 47 47 255
999 690 -348 255 47 47 255
815 652 -327 255 47 47 255
909 365 -161 255 47 47 255
915 309 -129 255 47 47 255
923 547 -266 255 47 47 255
899 492 -234 255 47 47 255
872 543 -263 255 47 47 255
872 367 -162 255 47 47 255
844 316 -133 255 47 47 255
863 608 -301 255 47 47 255
765 601 -297 255 47 47 255
829 580 -285 255 47 47 255
856 484 -230 255 47 47 255
807 517 -248 255 47 47 255
812 455 -213 255 47 47 255
841 382 -170 255 47 47 255
795 337 -145 255 47 47 255
820 411 -187 255 47 47 255
759 376 -167 255 47 47 255
733 462 -217 255 47 47 255
742 414 -189 255 47 47 255
742 554 -270 255 47 47 255
733 512 -246 255 47 47 255
230 73 1 186 186 0 255
209 94 12 186 186 0 255
105 33 48 186 186 0 255
1414 299 -137 255 255 57 255
1401 316 -132 255 255 57 255
1334 316 -132 255 255 57 255
1414 447 -223 180 160 59 255
1401 443 -206 180 160 59 255
1449 443 -206 180 160 59 255
1462 447 -223 180 160 59 255
1462 447 -223 255 255 57 255
1449 395 -178 255 255 57 255
1462 378 -183 255 255 57 255
1401 395 -178 255 255 57 255
1414 378 -183 255 255 57 255
1449 443 -206 255 255 57 255
1320 299 -137 168 149 55 255
1334 316 -132 168 149 55 255
1334 395 -178 168 149 55 255
1320 299 -137 255 255 57 255
1414 685 -360 255 255 57 255
1401 681 -343 255 255 57 255
1401 443 -206 255 255 57 255
1414 447 -223 255 255 57 255
1333 685 -360 180 160 59 255
1401 681 -343 180 160 59 255
1414 685 -360 180 160 59 255
1339 681 -343 180 160 59 255
1320 378 -183 168 149 55 255
1120 451 -225 132 132 43 255
1133 453 -212 132 132 43 255
1333 685 -360 132 132 43 255
1334 592 -292 168 149 55 255
1320 450 -224 168 149 55 255
1334 445 -207 168 149 55 255
1320 553 -284 168 149 55 255
1202 445 -207 255 255 57 255
1229 450 -224 255 255 57 255
1334 592 -292 255 255 57 255
1320 553 -284 255 255 57 255
1334 445 -207 180 160 59 255
1229 450 -224 180 160 59 255
1202 445 -207 180 160 59 255
1320 450 -224 180 160 59 255
1123 378 -183 168 149 55 255
1133 453 -212 168 149 55 255
1120 451 -225 168 149 55 255
1339 681 -343 132 132 43 255
1320 378 -183 255 255 57 255
1334 395 -178 255 255 57 255
1133 395 -178 255 255 57 255
1123 378 -183 255 255 57 255
1123 378 -183 112 112 25 255
1133 395 -178 112 112 25 255
1133 453 -212 112 112 25 255
1013 694 -366 255 255 57 255
999 690 -348 255 255 57 255
999 633 -316 255 255 57 255
1060 488 -247 255 255 57 255
1062 434 -201 255 255 57 255
1075 426 -211 255 255 57 255
1068 376 -182 255 255 57 255
1055 387 -173 255 255 57 255
1048 490 -233 255 255 57 255
1025 350 -152 255 255 57 255
1035 335 -158 255 255 57 255
1026 526 -269 255 255 57 255
1018 524 -252 255 255 57 255
973 322 -136 255 255 57 255
979 306 -141 255 255 57 255
956 696 -367 180 180 59 255
957 691 -349 180 180 59 255
999 690 -348 180 180 59 255
1012 616 -321 255 255 57 255
957 634 -316 255 255 57 255
959 616 -321 255 255 57 255
915 309 -129 255 255 57 255
916 292 -133 255 255 57 255
1013 694 -366 180 180 59 255
960 462 -231 168 168 55 255
972 429 -212 168 168 55 255
985 436 -202 168 168 55 255
978 546 -280 223 223 31 255
974 541 -263 223 223 31 255
1026 526 -269 223 223 31 255
1018 524 -252 223 223 31 255
904 625 -311 255 255 57 255
909 608 -316 255 255 57 255
985 436 -202 144 144 57 255
968 394 -192 144 144 57 255
981 396 -178 144 144 57 255
972 429 -212 144 144 57 255
943 489 -232 223 223 31 255
960 462 -231 223 223 31 255
972 474 -224 223 223 31 255
972 474 -224 168 168 55 255
981 396 -178 126 126 17 255
968 394 -192 126 126 17 255
947 372 -165 126 126 17 255
968 394 -192 140 140 19 255
939 375 -182 140 140 19 255
947 372 -165 140 140 19 255
936 473 -238 223 223 31 255
872 593 -307 255 255 57 255
844 316 -133 255 255 57 255
840 299 -138 255 255 57 255
923 552 -283 192 192 43 255
974 541 -263 192 192 43 255
978 546 -280 192 192 43 255
923 547 -266 192 192 43 255
884 687 -361 168 168 55 255
888 682 -344 168 168 55 255
957 691 -349 168 168 55 255
956 696 -367 168 168 55 255
868 547 -281 168 168 55 255
872 543 -263 168 168 55 255
923 547 -266 168 168 55 255
947 372 -165 154 154 21 255
939 375 -182 154 154 21 255
909 365 -161 154 154 21 255
939 375 -182 160 160 35 255
908 370 -179 160 160 35 255
909 365 -161 160 160 35 255
863 468 -235 255 255 57 255
900 475 -239 255 255 57 255
899 492 -234 255 255 57 255
943 489 -232 255 255 57 255
936 473 -238 255 255 57 255
856 484 -230 255 255 57 255
812 455 -213 255 255 57 255
923 552 -283 168 168 55 255
863 608 -301 255 255 57 255
841 569 -293 255 255 57 255
909 365 -161 180 180 59 255
908 370 -179 180 180 59 255
872 367 -162 180 180 59 255
878 371 -179 180 180 59 255
829 580 -285 255 255 57 255
841 382 -170 255 255 57 255
852 382 -185 255 255 57 255
833 407 -200 255 255 57 255
806 655 -343 144 144 32 255
815 652 -327 144 144 32 255
888 682 -344 144 144 57 255
884 687 -361 144 144 57 255
872 367 -162 223 223 31 255
852 382 -185 223 223 31 255
841 382 -170 223 223 31 255
878 371 -179 223 223 31 255
807 517 -248 255 255 57 255
825 530 -271 255 255 57 255
840 299 -138 240 240 0 255
844 316 -133 240 240 0 255
786 322 -151 240 240 0 255
820 411 -187 255 255 57 255
826 444 -221 255 255 57 255
807 517 -248 144 144 57 255
872 543 -263 144 144 57 255
868 547 -281 144 144 57 255
825 530 -271 144 144 57 255
786 322 -151 192 192 43 255
759 376 -167 192 192 43 255
747 364 -175 192 192 43 255
795 337 -145 240 240 0 255
753 600 -311 132 132 43 255
765 601 -297 132 132 43 255
806 655 -343 132 132 43 255
815 652 -327 132 132 43 255
729 550 -283 132 132 43 255
742 554 -270 132 132 43 255
795 337 -145 192 192 43 255
720 455 -228 168 149 55 255
733 512 -246 168 149 55 255
720 506 -257 168 149 55 255
747 364 -175 168 168 23 255
759 376 -167 168 168 23 255
742 414 -189 168 168 23 255
729 405 -199 168 168 23 255
729 405 -199 154 154 21 255
733 462 -217 154 154 21 255
720 455 -228 154 154 21 255
742 414 -189 154 154 21 255
720 506 -257 139 139 0 255
733 512 -246 139 139 0 255
742 554 -270 139 139 0 255
729 550 -283 139 139 0 255
733 462 -217 168 149 55 255
3 0 1 2
3 0 3 1
3 4 5 6
3 7 8 9
3 10 7 9
3 7 11 12
3 7 12 8
3 13 14 7
3 13 7 10
3 9 8 15
3 16 17 18
3 9 15 17
3 17 15 18
3 19 16 18
3 10 9 16
3 20 21 22
3 10 16 23
3 23 16 19
3 24 25 26
3 24 26 27
3 24 21 25
3 21 28 25
3 26 29 27
3 20 28 21
3 30 31 32
3 20 22 33
3 34 27 29
3 34 29 35
3 36 37 32
3 37 38 32
3 31 36 32
3 39 31 30
3 33 22 40
3 33 40 41
3 34 35 42
3 43 34 42
3 43 42 44
3 45 41 40
3 45 46 41
3 39 47 31
3 48 49 47
3 50 43 44
3 51 52 44
3 52 50 44
3 45 53 46
3 53 54 46
3 48 47 39
3 53 55 56
3 53 56 54
3 57 52 51
3 58 52 57
3 58 55 52
3 59 60 51
3 57 51 60
3 59 51 49
3 49 48 59
3 58 56 55
3 61 62 63
3 64 65 66
3 67 68 69
3 67 69 70
3 71 72 73
3 73 72 74
3 73 74 75
3 75 74 65
3 75 65 64
3 71 76 72
3 77 78 79
3 64 66 80
3 81 82 83
3 81 83 84
3 85 86 87
3 85 88 86
3 77 79 89
3 90 91 92
3 93 94 95
3 93 96 94
3 97 98 99
3 98 100 99
3 101 102 103
3 101 104 102
3 105 106 107
3 91 108 92
3 109 110 111
3 109 111 112
3 113 114 115
3 116 117 118
3 119 120 121
3 121 120 122
3 120 123 122
3 119 124 120
3 122 123 125
3 122 125 126
3 127 124 119
3 127 128 124
3 126 125 129
3 126 129 130
3 131 132 133
3 116 118 134
3 134 118 135
3 134 135 136
3 130 129 137
3 130 137 138
3 131 133 139
3 140 141 142
3 143 144 145
3 144 146 145
3 136 135 147
3 136 147 148
3 149 150 151
3 149 152 150
3 153 154 155
3 156 140 142
3 157 158 159
3 160 161 162
3 153 163 154
3 148 147 164
3 137 165 166
3 138 137 166
3 167 168 169
3 167 170 168
3 171 172 173
3 171 173 174
3 175 176 177
3 178 179 180
3 181 182 183
3 184 185 186
3 186 185 187
3 185 188 187
3 189 184 186
3 190 184 189
3 175 177 191
3 164 192 193
3 147 192 164
3 194 195 196
3 195 197 196
3 192 198 193
3 199 200 201
3 202 203 204
3 202 204 205
3 206 207 208
3 206 209 207
3 193 198 210
3 193 210 211
3 212 213 214
3 215 201 216
3 199 201 215
3 217 218 219
3 220 217 219
3 215 216 190
3 190 216 184
3 221 222 223
3 213 224 214
3 225 226 227
3 226 228 227
3 229 226 225
3 229 230 226
3 221 231 222
3 232 233 234
3 235 236 237
3 235 237 238
3 239 240 241
3 239 242 240
3 243 244 245
3 243 245 246
3 232 247 233
