ply
format ascii 1.0
element vertex 755
property short x
property short y
property short z
property float s
property float t
property uchar red
property uchar green
property uchar blue
property uchar alpha
element face 435
property list uchar uint vertex_indices
end_header
605 208 -143 3.09765625 3.826171875 74 74 74 255
453 27 -276 2.8515625 3.33203125 74 74 74 255
453 130 -98 2.8515625 3.33203125 74 74 74 255
474 139 -56 2.9140625 3.32421875 74 74 74 255
610 209 -97 3.134765625 3.767578125 74 74 74 255
478 -93 77 3.228515625 2.541015625 74 74 74 255
458 -121 46 3.193359375 2.482421875 74 74 74 255
458 -224 -130 3.193359375 2.482421875 74 74 74 255
605 105 -321 3.09765625 3.826171875 74 74 74 255
604 -359 -52 3.70703125 2.244140625 74 74 74 255
604 -257 124 3.70703125 2.244140625 74 74 74 255
952 -190 86 4.419921875 3.0 209 209 209 255
1016 -32 -241 4.22265625 3.98046875 209 209 209 255
1016 69 -63 4.22265625 3.98046875 209 209 209 255
952 -293 -90 4.419921875 3.0 209 209 209 255
1016 69 -63 4.22265625 3.98046875 255 255 254 255
992 81 -23 4.181640625 3.916015625 255 255 254 255
935 -153 112 4.359375 3.03125 255 255 254 255
952 -190 86 4.419921875 3.0 255 255 254 255
610 -215 148 3.693359375 2.326171875 255 255 254 255
604 -257 124 3.70703125 2.244140625 255 255 254 255
604 -257 124 3.70703125 2.244140625 176 176 176 255
952 -293 -90 4.419921875 3.0 176 176 176 255
952 -190 86 4.419921875 3.0 176 176 176 255
604 -359 -52 3.70703125 2.244140625 176 176 176 255
1016 69 -63 4.22265625 3.98046875 94 94 94 255
802 106 -321 3.548828125 4.130859375 94 94 94 255
802 208 -144 3.548828125 4.130859375 94 94 94 255
1016 -32 -241 4.22265625 3.98046875 94 94 94 255
740 -40 0 3.734375 3.189453125 74 74 74 255
683 -152 -172 3.615234375 3.0703125 74 74 74 255
683 -49 4 3.615234375 3.0703125 74 74 74 255
802 208 -144 3.548828125 4.130859375 187 187 187 255
992 81 -23 4.181640625 3.916015625 187 187 187 255
1016 69 -63 4.22265625 3.98046875 187 187 187 255
796 209 -97 3.560546875 4.0546875 187 187 187 255
756 -16 -13 3.740234375 3.29296875 74 74 74 255
740 -142 -177 3.734375 3.189453125 74 74 74 255
756 -119 -191 3.740234375 3.29296875 74 74 74 255
752 -37 45 3.78515625 3.1484375 74 74 74 255
783 8 18 3.796875 3.3515625 74 74 74 255
701 22 -36 3.560546875 3.341796875 74 74 74 255
683 -49 4 3.615234375 3.0703125 154 154 154 255
662 -111 -195 3.513671875 3.17578125 154 154 154 255
662 -9 -18 3.513671875 3.17578125 154 154 154 255
701 -80 -214 3.560546875 3.341796875 74 74 74 255
683 -49 4 3.615234375 3.0703125 96 96 96 255
671 -50 52 3.6171875 2.978515625 96 96 96 255
740 -40 0 3.734375 3.189453125 96 96 96 255
752 -37 45 3.78515625 3.1484375 96 96 96 255
756 -16 -13 3.740234375 3.29296875 154 154 154 255
783 8 18 3.796875 3.3515625 154 154 154 255
700 67 -15 3.52734375 3.42578125 154 154 154 255
701 22 -36 3.560546875 3.341796875 154 154 154 255
683 -152 -172 3.615234375 3.0703125 154 154 154 255
802 208 -144 3.548828125 4.130859375 74 74 74 255
662 -9 -18 3.513671875 3.17578125 209 209 209 255
662 -111 -195 3.513671875 3.17578125 209 209 209 255
701 -80 -214 3.560546875 3.341796875 209 209 209 255
701 22 -36 3.560546875 3.341796875 209 209 209 255
662 -9 -18 3.513671875 3.17578125 240 240 240 255
671 -50 52 3.6171875 2.978515625 240 240 240 255
683 -49 4 3.615234375 3.0703125 240 240 240 255
636 16 14 3.44921875 3.154296875 240 240 240 255
701 22 -36 3.560546875 3.341796875 255 255 254 255
700 67 -15 3.52734375 3.42578125 255 255 254 255
662 -9 -18 3.513671875 3.17578125 255 255 254 255
636 16 14 3.44921875 3.154296875 255 255 254 255
458 335 -204 2.65234375 4.041015625 74 74 74 255
243 232 -382 2.16015625 3.71484375 74 74 74 255
243 335 -204 2.16015625 3.71484375 74 74 74 255
802 106 -321 3.548828125 4.130859375 74 74 74 255
604 -257 124 3.70703125 2.244140625 141 141 141 255
610 -215 148 3.693359375 2.326171875 141 141 141 255
478 -93 77 3.228515625 2.541015625 141 141 141 255
458 -121 46 3.193359375 2.482421875 141 141 141 255
610 209 -97 3.134765625 3.767578125 115 115 115 255
796 209 -97 3.560546875 4.0546875 115 115 115 255
802 208 -144 3.548828125 4.130859375 115 115 115 255
605 208 -143 3.09765625 3.826171875 115 115 115 255
458 232 -382 2.65234375 4.041015625 74 74 74 255
496 -198 151 3.46875 2.21875 240 240 240 255
256 -197 150 2.91796875 1.85546875 240 240 240 255
517 -238 126 3.541015625 2.18359375 240 240 240 255
236 -340 -51 2.89453125 1.7578125 74 74 74 255
236 -237 126 2.89453125 1.7578125 74 74 74 255
263 335 -157 2.232421875 3.677734375 74 74 74 255
256 -197 150 2.91796875 1.85546875 74 74 74 255
517 -341 -51 3.541015625 2.18359375 149 149 149 255
236 -237 126 2.89453125 1.7578125 149 149 149 255
236 -340 -51 2.89453125 1.7578125 149 149 149 255
517 -238 126 3.541015625 2.18359375 149 149 149 255
437 336 -157 2.630859375 3.9453125 115 115 115 255
243 335 -204 2.16015625 3.712890625 115 115 115 255
263 335 -157 2.232421875 3.677734375 115 115 115 255
236 -237 126 2.89453125 1.7578125 240 240 240 255
517 -238 126 3.541015625 2.18359375 192 192 192 255
458 232 -382 2.65234375 4.041015625 192 192 192 255
458 335 -204 2.65234375 4.041015625 192 192 192 255
517 -341 -51 3.541015625 2.18359375 192 192 192 255
496 -198 151 3.46875 2.21875 255 255 254 255
517 -238 126 3.541015625 2.18359375 255 255 254 255
458 335 -204 2.65234375 4.041015625 255 255 254 255
437 336 -157 2.630859375 3.9453125 255 255 254 255
458 335 -204 2.65234375 4.041015625 115 115 115 255
0 -143 79 2.234375 1.708984375 74 74 74 255
119 -353 -44 2.64453125 1.537109375 74 74 74 255
119 -247 139 2.64453125 1.537109375 74 74 74 255
119 -247 139 2.64453125 1.537109375 209 209 209 255
119 -353 -44 2.64453125 1.537109375 209 209 209 255
331 -204 -130 2.935546875 2.36328125 209 209 209 255
331 -98 53 2.935546875 2.36328125 209 209 209 255
331 -98 53 2.935546875 2.36328125 255 255 254 255
120 -201 160 2.61328125 1.625 255 255 254 255
119 -247 139 2.64453125 1.537109375 255 255 254 255
295 -78 89 2.85546875 2.30859375 255 255 254 255
331 -98 53 2.935546875 2.36328125 94 94 94 255
180 -105 -187 2.458984375 2.47265625 94 94 94 255
180 0 -4 2.458984375 2.47265625 94 94 94 255
331 -204 -130 2.935546875 2.36328125 94 94 94 255
-2 -208 116 2.314453125 1.482421875 204 204 204 255
0 -249 -104 2.234375 1.708984375 204 204 204 255
0 -143 79 2.234375 1.708984375 204 204 204 255
0 -249 -104 2.234375 1.708984375 74 74 74 255
180 0 -4 2.458984375 2.47265625 187 187 187 255
142 22 30 2.37109375 2.41796875 187 187 187 255
295 -78 89 2.85546875 2.30859375 187 187 187 255
331 -98 53 2.935546875 2.36328125 187 187 187 255
180 0 -4 2.458984375 2.47265625 204 204 204 255
250 -64 -211 2.56640625 2.720703125 204 204 204 255
250 41 -27 2.56640625 2.720703125 204 204 204 255
180 -105 -187 2.458984375 2.47265625 204 204 204 255
-2 -314 -66 2.314453125 1.482421875 204 204 204 255
246 263 -155 2.265625 3.466796875 255 255 254 255
230 73 1 2.50390625 2.724609375 255 255 254 255
250 41 -27 2.56640625 2.720703125 255 255 254 255
119 -247 139 2.64453125 1.537109375 167 145 123 255
120 -201 160 2.61328125 1.625 167 145 123 255
0 -143 79 2.234375 1.708984375 167 145 123 255
-19 -79 89 2.1328125 1.826171875 167 145 123 255
-241 -216 121 1.77734375 1.091796875 154 154 154 255
-241 -322 -62 1.77734375 1.091796875 154 154 154 255
-2 -314 -66 2.314453125 1.482421875 154 154 154 255
-2 -208 116 2.314453125 1.482421875 154 154 154 255
250 41 -27 2.56640625 2.720703125 194 194 194 255
250 -64 -211 2.56640625 2.720703125 194 194 194 255
246 157 -339 2.265625 3.466796875 204 204 204 255
246 263 -155 2.265625 3.466796875 194 194 194 255
-2 -208 116 2.314453125 1.482421875 240 240 240 255
-22 -169 141 2.244140625 1.515625 240 240 240 255
-220 -176 145 1.796875 1.19140625 240 240 240 255
226 271 -113 2.234375 3.392578125 255 255 254 255
142 22 30 2.37109375 2.41796875 255 255 254 255
180 0 -4 2.458984375 2.47265625 255 255 254 255
0 -143 79 2.234375 1.708984375 255 255 254 255
-19 -79 89 2.1328125 1.826171875 255 255 254 255
-2 -208 116 2.314453125 1.482421875 255 255 254 255
-22 -169 141 2.244140625 1.515625 255 255 254 255
-241 -216 121 1.77734375 1.091796875 240 240 240 255
-3 162 -97 1.82421875 2.7421875 74 74 74 255
-3 56 -281 1.82421875 2.7421875 74 74 74 255
36 26 -263 1.955078125 2.703125 74 74 74 255
246 263 -155 2.265625 3.466796875 74 74 74 255
246 157 -339 2.265625 3.466796875 74 74 74 255
17 255 -396 1.609375 3.451171875 74 74 74 255
17 361 -212 1.609375 3.451171875 74 74 74 255
-238 255 -395 1.0234375 3.05859375 74 74 74 255
-238 361 -212 1.0234375 3.05859375 74 74 74 255
36 132 -80 1.955078125 2.703125 74 74 74 255
-3 -7 -244 1.90625 2.525390625 74 74 74 255
-3 98 -60 1.90625 2.525390625 74 74 74 255
68 154 -45 2.02734375 2.755859375 74 74 74 255
36 132 -80 1.955078125 2.703125 154 154 154 255
68 154 -45 2.02734375 2.755859375 154 154 154 255
-23 222 -84 1.7265625 2.84765625 154 154 154 255
-24 75 0 1.916015625 2.345703125 74 74 74 255
-3 -7 -244 1.90625 2.525390625 204 204 204 255
-3 56 -281 1.82421875 2.7421875 204 204 204 255
-3 162 -97 1.82421875 2.7421875 204 204 204 255
-3 98 -60 1.90625 2.525390625 204 204 204 255
17 361 -212 1.609375 3.451171875 167 167 167 255
226 271 -113 2.234375 3.392578125 167 167 167 255
246 263 -155 2.265625 3.466796875 167 167 167 255
12 362 -165 1.625 3.37890625 167 167 167 255
-3 162 -97 1.82421875 2.7421875 154 154 154 255
-3 162 -97 1.82421875 2.7421875 255 255 254 255
-23 222 -84 1.7265625 2.84765625 255 255 254 255
-3 98 -60 1.90625 2.525390625 255 255 254 255
-24 75 0 1.916015625 2.345703125 255 255 254 255
-241 -322 -62 1.77734375 1.091796875 74 74 74 255
-241 -216 121 1.77734375 1.091796875 74 74 74 255
-218 362 -165 1.095703125 3.0234375 74 74 74 255
-220 -176 145 1.796875 1.19140625 74 74 74 255
-238 361 -212 1.0234375 3.05859375 115 115 115 255
12 362 -165 1.625 3.37890625 115 115 115 255
17 361 -212 1.609375 3.451171875 115 115 115 255
-218 362 -165 1.095703125 3.0234375 115 115 115 255
-416 -142 108 1.29296875 1.033203125 74 74 74 255
-407 -341 -50 1.419921875 0.7734375 74 74 74 255
-407 -223 154 1.419921875 0.7734375 74 74 74 255
-407 -223 154 1.419921875 0.7734375 149 149 149 255
-104 -342 -50 2.115234375 1.232421875 149 149 149 255
-104 -223 155 2.115234375 1.232421875 149 149 149 255
-407 -341 -50 1.419921875 0.7734375 149 149 149 255
-104 -223 155 2.115234375 1.232421875 240 240 240 255
-134 -183 179 2.021484375 1.251953125 240 240 240 255
-388 -183 179 1.4375 0.8671875 240 240 240 255
-407 -223 154 1.419921875 0.7734375 240 240 240 255
-397 -107 135 1.31640625 1.111328125 74 74 74 255
-416 -261 -97 1.29296875 1.033203125 74 74 74 255
-568 -94 80 0.8828125 0.96484375 104 104 104 255
-416 -261 -97 1.29296875 1.033203125 104 104 104 255
-416 -142 108 1.29296875 1.033203125 104 104 104 255
-388 -183 179 1.4375 0.8671875 74 74 74 255
-894 -81 72 0.115234375 0.513671875 102 102 102 255
-646 -285 -83 0.796875 0.6015625 102 102 102 255
-646 -167 122 0.796875 0.6015625 102 102 102 255
-894 -200 -132 0.115234375 0.513671875 102 102 102 255
-646 -167 122 0.796875 0.6015625 209 209 209 255
-646 -285 -83 0.796875 0.6015625 209 209 209 255
-568 -213 -124 0.8828125 0.96484375 209 209 209 255
-568 -94 80 0.8828125 0.96484375 209 209 209 255
-568 -213 -124 0.8828125 0.96484375 104 104 104 255
-104 -223 155 2.115234375 1.232421875 164 164 164 255
-104 -342 -50 2.115234375 1.232421875 164 164 164 255
-324 196 -361 0.90234375 2.73046875 164 164 164 255
-646 -167 122 0.796875 0.6015625 204 204 204 255
-651 -124 144 0.755859375 0.669921875 204 204 204 255
-894 -81 72 0.115234375 0.513671875 204 204 204 255
-861 -51 103 0.177734375 0.595703125 204 204 204 255
-573 -52 103 0.83984375 1.03125 255 255 254 255
-651 -124 144 0.755859375 0.669921875 255 255 254 255
-646 -167 122 0.796875 0.6015625 255 255 254 255
-568 -94 80 0.8828125 0.96484375 255 255 254 255
-416 -142 108 1.29296875 1.033203125 204 204 204 255
-573 -52 103 0.83984375 1.03125 204 204 204 255
-568 -94 80 0.8828125 0.96484375 204 204 204 255
-397 -107 135 1.31640625 1.111328125 204 204 204 255
-466 127 -47 0.822265625 1.875 74 74 74 255
-466 9 -253 0.822265625 1.875 74 74 74 255
-449 -59 -214 0.953125 1.671875 74 74 74 255
-324 315 -156 0.90234375 2.73046875 164 164 164 255
-324 315 -156 0.90234375 2.73046875 255 255 254 255
-134 -183 179 2.021484375 1.251953125 255 255 254 255
-104 -223 155 2.115234375 1.232421875 255 255 254 255
-339 318 -110 0.890625 2.6484375 255 255 254 255
-449 59 -8 0.953125 1.671875 74 74 74 255
-505 -41 -224 0.80078125 1.646484375 74 74 74 255
-505 77 -18 0.80078125 1.64453125 74 74 74 255
-537 87 22 0.73828125 1.560546875 153 153 153 255
-420 50 43 1.056640625 1.615234375 153 153 153 255
-449 59 -8 0.953125 1.671875 153 153 153 255
-324 315 -156 0.90234375 2.73046875 74 74 74 255
-544 238 -386 0.341796875 2.537109375 74 74 74 255
-544 357 -180 0.341796875 2.537109375 74 74 74 255
-894 -81 72 0.115234375 0.513671875 74 74 74 255
-536 356 -132 0.390625 2.4765625 74 74 74 255
-894 -200 -132 0.115234375 0.513671875 74 74 74 255
-324 196 -361 0.90234375 2.73046875 74 74 74 255
-861 -51 103 0.177734375 0.595703125 74 74 74 255
-505 77 -18 0.80078125 1.64453125 221 221 221 255
-466 9 -253 0.822265625 1.875 221 221 221 255
-466 127 -47 0.822265625 1.875 221 221 221 255
-505 -41 -224 0.80078125 1.646484375 221 221 221 255
-536 356 -132 0.390625 2.4765625 139 139 139 255
-339 318 -110 0.890625 2.6484375 139 139 139 255
-324 315 -156 0.90234375 2.73046875 139 139 139 255
-505 77 -18 0.80078125 1.64453125 153 153 153 255
-449 59 -8 0.953125 1.671875 80 80 80 255
-457 194 -38 0.783203125 2.044921875 80 80 80 255
-466 127 -47 0.822265625 1.875 80 80 80 255
-420 50 43 1.056640625 1.615234375 80 80 80 255
-466 127 -47 0.822265625 1.875 255 255 254 255
-537 87 22 0.73828125 1.560546875 255 255 254 255
-505 77 -18 0.80078125 1.64453125 255 255 254 255
-457 194 -38 0.783203125 2.044921875 255 255 254 255
-544 357 -180 0.341796875 2.537109375 139 139 139 255
-757 -165 198 0.5859375 0.32421875 255 255 254 255
-776 -214 179 0.578125 0.197265625 255 255 254 255
-540 -80 149 0.97265625 0.943359375 255 255 254 255
-776 -214 179 0.578125 0.197265625 192 192 192 255
-776 -346 -48 0.578125 0.197265625 192 192 192 255
-514 -243 -107 1.044921875 0.9453125 192 192 192 255
-514 -112 120 1.044921875 0.9453125 192 192 192 255
-782 -30 73 0.322265625 0.814453125 74 74 74 255
-782 -161 -154 0.322265625 0.814453125 74 74 74 255
-776 -346 -48 0.578125 0.197265625 74 74 74 255
-776 -214 179 0.578125 0.197265625 74 74 74 255
-757 -165 198 0.5859375 0.32421875 74 74 74 255
-762 -2 104 0.357421875 0.87109375 74 74 74 255
-844 40 32 0.0859375 0.958984375 74 74 74 255
-844 -91 -195 0.0859375 0.958984375 74 74 74 255
-900 393 -171 -0.501953125 2.076171875 74 74 74 255
-900 261 -399 -0.501953125 2.076171875 74 74 74 255
-938 184 -355 -0.490234375 1.755859375 74 74 74 255
-514 -112 120 1.044921875 0.9453125 255 255 254 255
-685 339 -140 0.05859375 2.21875 255 255 254 255
-701 343 -95 0.04296875 2.138671875 255 255 254 255
-849 95 47 0.03125 1.072265625 128 128 128 255
-844 40 32 0.0859375 0.958984375 128 128 128 255
-762 -2 104 0.357421875 0.87109375 128 128 128 255
-782 -30 73 0.322265625 0.814453125 128 128 128 255
-685 339 -140 0.05859375 2.21875 74 74 74 255
-888 390 -122 -0.447265625 2.015625 74 74 74 255
-938 316 -127 -0.490234375 1.755859375 74 74 74 255
-1284 -214 179 -0.5859375 -0.5703125 149 149 149 255
-1284 -345 -48 -0.5859375 -0.5703125 149 149 149 255
-992 -344 -49 0.080078125 -0.125 149 149 149 255
-685 207 -368 0.05859375 2.21875 74 74 74 255
-514 -112 120 1.044921875 0.9453125 167 167 167 255
-685 207 -368 0.05859375 2.21875 167 167 167 255
-685 339 -140 0.05859375 2.21875 167 167 167 255
-514 -243 -107 1.044921875 0.9453125 167 167 167 255
-701 343 -95 0.04296875 2.138671875 167 145 123 255
-685 339 -140 0.05859375 2.21875 167 145 123 255
-900 393 -171 -0.501953125 2.076171875 167 145 123 255
-888 390 -122 -0.447265625 2.015625 167 145 123 255
-992 -213 178 0.080078125 -0.125 149 149 149 255
-992 -213 178 0.080078125 -0.125 192 192 192 255
-1007 -161 -155 -0.193359375 0.47265625 192 192 192 255
-1007 -30 72 -0.193359375 0.47265625 192 192 192 255
-1259 -174 203 -0.5546875 -0.466796875 240 240 240 255
-1284 -214 179 -0.5859375 -0.5703125 240 240 240 255
-1015 -173 202 0.001953125 -0.091796875 240 240 240 255
-992 -213 178 0.080078125 -0.125 240 240 240 255
-1161 385 -167 -1.091796875 1.65234375 74 74 74 255
-1284 -345 -48 -0.5859375 -0.5703125 74 74 74 255
-1284 -214 179 -0.5859375 -0.5703125 74 74 74 255
-1161 254 -395 -1.091796875 1.65234375 74 74 74 255
-963 386 -167 -0.638671875 1.95703125 74 74 74 255
-1259 -174 203 -0.5546875 -0.466796875 74 74 74 255
-1144 386 -120 -1.02734375 1.611328125 74 74 74 255
-963 254 -395 -0.638671875 1.95703125 74 74 74 255
-933 -127 128 0.103515625 0.255859375 221 221 221 255
-933 -258 -98 0.103515625 0.255859375 221 221 221 255
-844 -91 -195 0.0859375 0.958984375 221 221 221 255
-992 -344 -49 0.080078125 -0.125 192 192 192 255
-1015 -173 202 0.001953125 -0.091796875 255 255 254 255
-1007 -30 72 -0.193359375 0.47265625 255 255 254 255
-1033 57 69 -0.341796875 0.66015625 255 255 254 255
-992 -213 178 0.080078125 -0.125 255 255 254 255
-1007 -30 72 -0.193359375 0.47265625 74 74 74 255
-1007 -161 -155 -0.193359375 0.47265625 74 74 74 255
-933 -258 -98 0.103515625 0.255859375 74 74 74 255
-933 -127 128 0.103515625 0.255859375 74 74 74 255
-844 40 32 0.0859375 0.958984375 221 221 221 255
-938 316 -127 -0.490234375 1.755859375 170 170 170 255
-963 254 -395 -0.638671875 1.95703125 170 170 170 255
-963 386 -167 -0.638671875 1.95703125 170 170 170 255
-1033 57 69 -0.341796875 0.66015625 136 136 136 255
-933 -127 128 0.103515625 0.255859375 136 136 136 255
-936 -69 142 0.046875 0.376953125 136 136 136 255
-1007 -30 72 -0.193359375 0.47265625 136 136 136 255
-936 -69 142 0.046875 0.376953125 255 255 254 255
-844 40 32 0.0859375 0.958984375 255 255 254 255
-849 95 47 0.03125 1.072265625 255 255 254 255
-933 -127 128 0.103515625 0.255859375 255 255 254 255
-977 387 -120 -0.646484375 1.8671875 115 115 115 255
-1161 385 -167 -1.091796875 1.65234375 115 115 115 255
-1144 386 -120 -1.02734375 1.611328125 115 115 115 255
-963 386 -167 -0.638671875 1.95703125 115 115 115 255
-938 184 -355 -0.490234375 1.755859375 170 170 170 255
-941 285 -61 -0.4296875 1.57421875 74 74 74 255
-941 285 -61 -0.4296875 1.57421875 255 255 254 255
-963 386 -167 -0.638671875 1.95703125 255 255 254 255
-977 387 -120 -0.646484375 1.8671875 255 255 254 255
-938 316 -127 -0.490234375 1.755859375 255 255 254 255
130 803 -494 1.2734375 5.1640625 74 74 74 255
130 693 -684 1.2734375 5.1640625 74 74 74 255
173 243 -424 1.96484375 3.69921875 74 74 74 255
173 352 -234 1.96484375 3.69921875 74 74 74 255
152 804 -447 1.3515625 5.130859375 74 74 74 255
192 393 -210 1.982421875 3.794921875 74 74 74 255
447 806 -496 1.998046875 5.654296875 74 74 74 255
447 696 -685 1.998046875 5.654296875 74 74 74 255
344 596 -327 2.064453125 4.71484375 255 255 254 255
361 616 -386 2.05078125 4.87890625 255 255 254 255
334 706 -391 1.896484375 5.076171875 255 255 254 255
358 644 -403 2.005859375 4.97265625 255 255 254 255
640 460 -296 2.896484375 4.7734375 89 89 89 255
640 350 -486 2.896484375 4.7734375 89 89 89 255
532 419 -525 2.556640625 4.841796875 89 89 89 255
532 528 -336 2.556640625 4.841796875 89 89 89 255
549 734 -454 2.326171875 5.56640625 96 96 96 255
447 696 -685 1.998046875 5.654296875 96 96 96 255
447 806 -496 1.998046875 5.654296875 96 96 96 255
562 551 -349 2.595703125 4.96484375 192 192 192 255
549 625 -644 2.326171875 5.56640625 192 192 192 255
549 734 -454 2.326171875 5.56640625 192 192 192 255
562 442 -539 2.595703125 4.96484375 192 192 192 255
529 744 -413 2.29296875 5.501953125 192 192 192 255
447 806 -496 1.998046875 5.654296875 192 192 192 255
532 528 -336 2.556640625 4.841796875 209 209 209 255
532 419 -525 2.556640625 4.841796875 209 209 209 255
562 442 -539 2.595703125 4.96484375 209 209 209 255
562 551 -349 2.595703125 4.96484375 209 209 209 255
549 625 -644 2.326171875 5.56640625 96 96 96 255
440 807 -449 2.009765625 5.578125 192 192 192 255
604 480 -260 2.814453125 4.716796875 187 187 187 255
640 460 -296 2.896484375 4.7734375 187 187 187 255
497 547 -299 2.478515625 4.783203125 187 187 187 255
532 528 -336 2.556640625 4.841796875 187 187 187 255
497 547 -299 2.478515625 4.783203125 255 255 254 255
562 551 -349 2.595703125 4.96484375 255 255 254 255
541 581 -318 2.53515625 4.962890625 255 255 254 255
532 528 -336 2.556640625 4.841796875 255 255 254 255
549 734 -454 2.326171875 5.56640625 255 255 254 255
529 744 -413 2.29296875 5.501953125 255 255 254 255
361 616 -386 2.05078125 4.87890625 192 192 192 255
361 506 -576 2.05078125 4.87890625 192 192 192 255
358 644 -403 2.005859375 4.97265625 192 192 192 255
381 356 -236 2.4375 4.025390625 194 194 194 255
379 298 -456 2.365234375 4.201171875 204 204 204 255
379 408 -266 2.365234375 4.201171875 194 194 194 255
381 246 -426 2.4375 4.025390625 194 194 194 255
358 644 -403 2.005859375 4.97265625 74 74 74 255
358 535 -592 2.005859375 4.97265625 74 74 74 255
379 630 -394 2.072265625 4.955078125 74 74 74 255
379 520 -584 2.072265625 4.955078125 74 74 74 255
361 506 -576 2.05078125 4.87890625 74 74 74 255
361 616 -386 2.05078125 4.87890625 74 74 74 255
344 596 -327 2.064453125 4.71484375 74 74 74 255
411 652 -360 2.14453125 5.0078125 74 74 74 255
440 807 -449 2.009765625 5.578125 112 112 112 255
130 803 -494 1.2734375 5.1640625 112 112 112 255
152 804 -447 1.3515625 5.130859375 112 112 112 255
358 535 -592 2.005859375 4.97265625 192 192 192 255
334 706 -391 1.896484375 5.076171875 154 154 154 255
358 644 -403 2.005859375 4.97265625 154 154 154 255
379 630 -394 2.072265625 4.955078125 154 154 154 255
411 652 -360 2.14453125 5.0078125 154 154 154 255
360 395 -211 2.36328125 4.05859375 255 255 254 255
379 408 -266 2.365234375 4.201171875 255 255 254 255
357 475 -258 2.25390625 4.326171875 255 255 254 255
381 356 -236 2.4375 4.025390625 255 255 254 255
447 806 -496 1.998046875 5.654296875 112 112 112 255
379 408 -266 2.365234375 4.201171875 74 74 74 255
379 298 -456 2.365234375 4.201171875 74 74 74 255
459 226 -414 2.642578125 4.076171875 74 74 74 255
173 352 -234 1.96484375 3.69921875 149 149 149 255
173 243 -424 1.96484375 3.69921875 149 149 149 255
381 246 -426 2.4375 4.025390625 153 153 153 255
381 356 -236 2.4375 4.025390625 153 153 153 255
173 352 -234 1.96484375 3.69921875 240 240 240 255
381 356 -236 2.4375 4.025390625 240 240 240 255
360 395 -211 2.36328125 4.05859375 240 240 240 255
192 393 -210 1.982421875 3.794921875 240 240 240 255
357 475 -258 2.25390625 4.326171875 142 142 104 255
379 408 -266 2.365234375 4.201171875 142 142 104 255
459 336 -224 2.642578125 4.076171875 142 142 104 255
461 382 -203 2.61328125 4.166015625 142 142 104 255
-229 755 -449 0.521484375 4.427734375 74 74 74 255
-229 648 -634 0.521484375 4.427734375 74 74 74 255
-123 366 -224 1.275390625 3.265625 74 74 74 255
459 336 -224 2.642578125 4.076171875 74 74 74 255
461 382 -203 2.61328125 4.166015625 255 255 254 255
459 336 -224 2.642578125 4.076171875 255 255 254 255
604 480 -260 2.814453125 4.716796875 255 255 254 255
640 460 -296 2.896484375 4.7734375 255 255 254 255
459 336 -224 2.642578125 4.076171875 208 208 208 255
640 350 -486 2.896484375 4.7734375 208 208 208 255
640 460 -296 2.896484375 4.7734375 208 208 208 255
459 226 -414 2.642578125 4.076171875 208 208 208 255
165 798 -473 1.373046875 5.173828125 74 74 74 255
115 645 -385 1.45703125 4.578125 209 209 209 255
165 691 -659 1.373046875 5.173828125 209 209 209 255
165 798 -473 1.373046875 5.173828125 209 209 209 255
165 691 -659 1.373046875 5.173828125 74 74 74 255
-123 366 -224 1.275390625 3.265625 80 80 80 255
-203 759 -404 0.6015625 4.41015625 80 80 80 255
-229 755 -449 0.521484375 4.427734375 80 80 80 255
-107 408 -201 1.28125 3.36328125 80 80 80 255
248 421 -256 2.056640625 4.01953125 149 149 149 255
248 314 -441 2.056640625 4.01953125 149 149 149 255
167 449 -519 1.69140625 4.35546875 149 149 149 255
167 556 -334 1.69140625 4.35546875 149 149 149 255
115 538 -571 1.45703125 4.578125 209 209 209 255
130 545 -328 1.62109375 4.26171875 204 204 204 255
130 438 -513 1.62109375 4.26171875 204 204 204 255
129 539 -571 1.48828125 4.6015625 204 204 204 255
167 556 -334 1.69140625 4.35546875 74 74 74 255
130 438 -513 1.62109375 4.26171875 74 74 74 255
130 545 -328 1.62109375 4.26171875 74 74 74 255
167 449 -519 1.69140625 4.35546875 74 74 74 255
129 646 -386 1.48828125 4.6015625 74 74 74 255
129 539 -571 1.48828125 4.6015625 74 74 74 255
115 538 -571 1.45703125 4.578125 74 74 74 255
115 645 -385 1.45703125 4.578125 74 74 74 255
167 556 -334 1.69140625 4.35546875 238 238 238 255
215 457 -229 1.9609375 4.021484375 238 238 238 255
248 421 -256 2.056640625 4.01953125 238 238 238 255
157 554 -285 1.701171875 4.26171875 238 238 238 255
129 646 -386 1.48828125 4.6015625 255 255 254 255
108 645 -338 1.46875 4.5 255 255 254 255
109 566 -292 1.57421875 4.23046875 255 255 254 255
129 646 -386 1.48828125 4.6015625 204 204 204 255
137 795 -425 1.3359375 5.052734375 255 255 254 255
115 645 -385 1.45703125 4.578125 255 255 254 255
165 798 -473 1.373046875 5.173828125 255 255 254 255
108 645 -374 1.44921875 4.548828125 255 255 254 255
97 675 -355 1.40234375 4.58203125 255 255 254 255
-123 366 -224 1.275390625 3.265625 170 170 170 255
-123 259 -409 1.275390625 3.265625 170 170 170 255
248 314 -441 2.056640625 4.01953125 170 170 170 255
248 421 -256 2.056640625 4.01953125 170 170 170 255
121 543 -307 1.6171875 4.212890625 255 255 254 255
130 545 -328 1.62109375 4.26171875 255 255 254 255
53 523 -315 1.474609375 4.068359375 255 255 254 255
32 522 -314 1.4296875 4.033203125 255 255 254 255
4 560 -289 1.33984375 4.05078125 255 255 254 255
34 517 -311 1.439453125 4.021484375 83 83 83 255
157 554 -285 1.701171875 4.26171875 83 83 83 255
167 556 -334 1.69140625 4.35546875 83 83 83 255
21 514 -262 1.44140625 3.919921875 83 83 83 255
108 645 -374 1.44921875 4.548828125 240 240 240 255
97 675 -355 1.40234375 4.58203125 240 240 240 255
21 639 -378 1.251953125 4.408203125 240 240 240 255
21 514 -262 1.44140625 3.919921875 255 255 254 255
34 517 -311 1.439453125 4.021484375 255 255 254 255
5 676 -356 1.189453125 4.4453125 240 240 240 255
0 638 -334 1.2265625 4.30859375 106 106 106 255
129 646 -386 1.48828125 4.6015625 106 106 106 255
23 639 -382 1.25390625 4.416015625 106 106 106 255
108 645 -338 1.46875 4.5 106 106 106 255
248 421 -256 2.056640625 4.01953125 255 255 254 255
-107 408 -201 1.28125 3.36328125 255 255 254 255
-123 366 -224 1.275390625 3.265625 255 255 254 255
215 457 -229 1.9609375 4.021484375 255 255 254 255
-229 755 -449 0.521484375 4.427734375 102 102 102 255
137 795 -425 1.3359375 5.052734375 102 102 102 255
165 798 -473 1.373046875 5.173828125 102 102 102 255
-203 759 -404 0.6015625 4.41015625 102 102 102 255
21 639 -378 1.251953125 4.408203125 255 255 254 255
5 676 -356 1.189453125 4.4453125 255 255 254 255
0 638 -334 1.2265625 4.30859375 255 255 254 255
-440 354 -196 0.576171875 2.712890625 149 149 149 255
-262 242 -388 0.982421875 2.98046875 149 149 149 255
-262 354 -196 0.982421875 2.98046875 149 149 149 255
-440 243 -388 0.576171875 2.712890625 149 149 149 255
-228 818 -464 0.451171875 4.609375 74 74 74 255
-441 708 -657 -0.037109375 4.291015625 74 74 74 255
-441 820 -465 -0.037109375 4.291015625 74 74 74 255
-106 760 -430 0.80859375 4.599609375 74 74 74 255
-228 707 -656 0.451171875 4.609375 74 74 74 255
-421 820 -418 0.033203125 4.255859375 74 74 74 255
-440 354 -196 0.576171875 2.712890625 74 74 74 255
-440 243 -388 0.576171875 2.712890625 74 74 74 255
-419 394 -172 0.595703125 2.810546875 74 74 74 255
-419 394 -172 0.595703125 2.810546875 240 240 240 255
-440 354 -196 0.576171875 2.712890625 240 240 240 255
-283 394 -171 0.91015625 3.015625 240 240 240 255
-262 354 -196 0.982421875 2.98046875 240 240 240 255
-106 649 -623 0.80859375 4.599609375 74 74 74 255
-111 583 -281 1.056640625 3.919921875 255 255 254 255
-90 557 -313 1.111328125 3.931640625 255 255 254 255
-106 760 -430 0.80859375 4.599609375 255 255 254 255
-90 557 -313 1.111328125 3.931640625 192 192 192 255
-90 445 -505 1.111328125 3.931640625 192 192 192 255
-106 649 -623 0.80859375 4.599609375 192 192 192 255
-106 760 -430 0.80859375 4.599609375 192 192 192 255
-185 434 -242 1.0546875 3.37109375 221 221 221 255
-185 323 -434 1.0546875 3.37109375 221 221 221 255
-90 445 -505 1.111328125 3.931640625 221 221 221 255
-90 557 -313 1.111328125 3.931640625 221 221 221 255
-126 768 -388 0.779296875 4.52734375 170 170 170 255
-228 818 -464 0.451171875 4.609375 170 170 170 255
-233 819 -417 0.466796875 4.537109375 170 170 170 255
-106 760 -430 0.80859375 4.599609375 170 170 170 255
-267 646 -365 0.587890625 3.96875 125 125 125 255
-267 535 -557 0.587890625 3.96875 125 125 125 255
-241 531 -555 0.65234375 3.994140625 125 125 125 255
-196 474 -218 1.005859375 3.421875 255 255 254 255
-185 434 -242 1.0546875 3.37109375 255 255 254 255
-126 768 -388 0.779296875 4.52734375 255 255 254 255
-262 433 -242 0.87890625 3.251953125 149 149 149 255
-185 323 -434 1.0546875 3.37109375 149 149 149 255
-185 434 -242 1.0546875 3.37109375 149 149 149 255
-262 322 -434 0.87890625 3.251953125 149 149 149 255
-241 642 -362 0.65234375 3.994140625 125 125 125 255
-265 608 -343 0.642578125 3.841796875 192 192 192 255
-265 497 -535 0.642578125 3.841796875 192 192 192 255
-267 535 -557 0.587890625 3.96875 192 192 192 255
-215 678 -336 0.69140625 4.0859375 74 74 74 255
-241 642 -362 0.65234375 3.994140625 74 74 74 255
-251 610 -344 0.671875 3.87109375 74 74 74 255
-241 531 -555 0.65234375 3.994140625 74 74 74 255
-251 499 -536 0.671875 3.87109375 74 74 74 255
-265 497 -535 0.642578125 3.841796875 74 74 74 255
-235 614 -299 0.73046875 3.8359375 74 74 74 255
-265 608 -343 0.642578125 3.841796875 74 74 74 255
-262 354 -196 0.982421875 2.98046875 204 204 204 255
-262 322 -434 0.87890625 3.251953125 204 204 204 255
-262 433 -242 0.87890625 3.251953125 204 204 204 255
-262 242 -388 0.982421875 2.98046875 204 204 204 255
-283 473 -218 0.8046875 3.287109375 240 240 240 255
-262 433 -242 0.87890625 3.251953125 240 240 240 255
-185 434 -242 1.0546875 3.37109375 240 240 240 255
-267 646 -365 0.587890625 3.96875 192 192 192 255
-233 819 -417 0.466796875 4.537109375 115 115 115 255
-441 820 -465 -0.037109375 4.291015625 115 115 115 255
-421 820 -418 0.033203125 4.255859375 115 115 115 255
-228 818 -464 0.451171875 4.609375 115 115 115 255
-289 690 -343 0.5078125 4.015625 221 221 221 255
-241 642 -362 0.65234375 3.994140625 221 221 221 255
-215 678 -336 0.69140625 4.0859375 221 221 221 255
-267 646 -365 0.587890625 3.96875 221 221 221 255
-196 474 -218 1.005859375 3.421875 240 240 240 255
-599 824 -456 -0.3984375 4.05078125 74 74 74 255
-804 708 -657 -0.87109375 3.73828125 74 74 74 255
-804 824 -456 -0.87109375 3.73828125 74 74 74 255
-283 394 -171 0.91015625 3.015625 255 255 254 255
-262 354 -196 0.982421875 2.98046875 255 255 254 255
-262 433 -242 0.87890625 3.251953125 255 255 254 255
-283 473 -218 0.8046875 3.287109375 255 255 254 255
-235 614 -299 0.73046875 3.8359375 96 96 96 255
-251 610 -344 0.671875 3.87109375 96 96 96 255
-284 606 -294 0.62890625 3.734375 96 96 96 255
-265 608 -343 0.642578125 3.841796875 96 96 96 255
-284 606 -294 0.62890625 3.734375 255 255 254 255
-267 646 -365 0.587890625 3.96875 255 255 254 255
-289 690 -343 0.5078125 4.015625 255 255 254 255
-265 608 -343 0.642578125 3.841796875 255 255 254 255
-597 750 -413 -0.298828125 3.802734375 194 194 194 255
-599 708 -657 -0.3984375 4.05078125 194 194 194 255
-599 824 -456 -0.3984375 4.05078125 194 194 194 255
-599 708 -657 -0.3984375 4.05078125 74 74 74 255
-799 380 -467 -0.427734375 2.630859375 74 74 74 255
-783 825 -409 -0.796875 3.703125 74 74 74 255
-799 496 -266 -0.427734375 2.630859375 74 74 74 255
-704 261 -399 -0.052734375 2.373046875 74 74 74 255
-779 523 -234 -0.388671875 2.685546875 74 74 74 255
-704 378 -198 -0.052734375 2.373046875 74 74 74 255
-597 634 -614 -0.298828125 3.802734375 194 194 194 255
-704 378 -198 -0.052734375 2.373046875 176 176 176 255
-486 303 -423 0.390625 2.84765625 176 176 176 255
-486 419 -222 0.390625 2.84765625 176 176 176 255
-445 780 -430 0.01171875 4.134765625 74 74 74 255
-445 664 -631 0.01171875 4.134765625 74 74 74 255
-597 634 -614 -0.298828125 3.802734375 74 74 74 255
-597 750 -413 -0.298828125 3.802734375 74 74 74 255
-619 825 -409 -0.419921875 3.953125 115 115 115 255
-599 824 -456 -0.3984375 4.05078125 115 115 115 255
-804 824 -456 -0.87109375 3.73828125 115 115 115 255
-783 825 -409 -0.796875 3.703125 115 115 115 255
-412 519 -279 0.4296875 3.298828125 187 187 187 255
-445 664 -631 0.01171875 4.134765625 187 187 187 255
-445 780 -430 0.01171875 4.134765625 187 187 187 255
-412 403 -481 0.4296875 3.298828125 187 187 187 255
-779 523 -234 -0.388671875 2.685546875 125 125 125 255
-799 496 -266 -0.427734375 2.630859375 125 125 125 255
-704 378 -198 -0.052734375 2.373046875 125 125 125 255
-704 261 -399 -0.052734375 2.373046875 176 176 176 255
-486 419 -222 0.390625 2.84765625 221 221 221 255
-486 303 -423 0.390625 2.84765625 221 221 221 255
-412 403 -481 0.4296875 3.298828125 221 221 221 255
-412 519 -279 0.4296875 3.298828125 221 221 221 255
-597 750 -413 -0.298828125 3.802734375 94 94 94 255
-462 777 -381 0.001953125 4.02734375 94 94 94 255
-445 780 -430 0.01171875 4.134765625 94 94 94 255
-604 749 -396 -0.302734375 3.763671875 94 94 94 255
-590 752 -367 -0.2578125 3.75 94 94 94 255
-433 545 -247 0.373046875 3.283203125 255 255 254 255
-445 780 -430 0.01171875 4.134765625 255 255 254 255
-462 777 -381 0.001953125 4.02734375 255 255 254 255
-695 420 -175 -0.060546875 2.458984375 125 125 125 255
-594 605 -329 -0.099609375 3.314453125 255 255 254 255
-599 824 -456 -0.3984375 4.05078125 255 255 254 255
-619 825 -409 -0.419921875 3.953125 255 255 254 255
-613 593 -275 -0.1015625 3.171875 255 255 254 255
-590 752 -367 -0.2578125 3.75 74 74 74 255
-597 603 -319 -0.099609375 3.287109375 74 74 74 255
-580 611 -285 -0.048828125 3.283203125 74 74 74 255
-604 749 -396 -0.302734375 3.763671875 74 74 74 255
-613 593 -275 -0.1015625 3.171875 74 74 74 255
-854 840 -464 -1.00390625 3.71484375 74 74 74 255
-1044 724 -666 -1.44140625 3.427734375 74 74 74 255
-1044 840 -465 -1.44140625 3.427734375 74 74 74 255
-412 519 -279 0.4296875 3.298828125 255 255 254 255
-498 458 -197 0.33984375 2.888671875 255 255 254 255
-486 419 -222 0.390625 2.84765625 255 255 254 255
-695 420 -175 -0.060546875 2.458984375 255 255 254 255
-704 378 -198 -0.052734375 2.373046875 255 255 254 255
-1036 841 -418 -1.396484375 3.373046875 74 74 74 255
-1220 680 -372 -1.63671875 2.615234375 74 74 74 255
-1220 564 -574 -1.63671875 2.615234375 74 74 74 255
-1082 454 -510 -1.17578125 2.451171875 74 74 74 255
-1190 702 -337 -1.568359375 2.666015625 74 74 74 255
-1082 570 -309 -1.17578125 2.451171875 74 74 74 255
-854 723 -666 -1.00390625 3.71484375 74 74 74 255
-1224 399 -479 -1.427734375 2.048828125 74 74 74 255
-1224 515 -277 -1.427734375 2.048828125 74 74 74 255
-1182 531 -239 -1.326171875 2.09765625 74 74 74 255
-1043 585 -270 -1.078125 2.4921875 74 74 74 255
-854 840 -464 -1.00390625 3.71484375 115 115 115 255
-1044 840 -465 -1.44140625 3.427734375 115 115 115 255
-1036 841 -418 -1.396484375 3.373046875 115 115 115 255
-1034 268 -403 -0.818359375 1.89453125 74 74 74 255
-1034 384 -201 -0.818359375 1.89453125 74 74 74 255
-1190 702 -337 -1.568359375 2.666015625 149 149 149 255
-1220 680 -372 -1.63671875 2.615234375 149 149 149 255
-1043 585 -270 -1.078125 2.4921875 149 149 149 255
-1082 570 -309 -1.17578125 2.451171875 149 149 149 255
-1182 531 -239 -1.326171875 2.09765625 160 160 160 255
-1034 384 -201 -0.818359375 1.89453125 160 160 160 255
-1030 426 -179 -0.83984375 1.97265625 160 160 160 255
-1224 515 -277 -1.427734375 2.048828125 160 160 160 255
-989 697 -335 -1.1015625 2.955078125 255 255 254 255
-948 682 -373 -1.013671875 3.03515625 255 255 254 255
-945 684 -374 -1.009765625 3.046875 255 255 254 255
-861 841 -418 -0.99609375 3.638671875 115 115 115 255
-1034 384 -201 -0.818359375 1.89453125 187 187 187 255
-1034 268 -403 -0.818359375 1.89453125 187 187 187 255
-831 337 -443 -0.4453125 2.435546875 187 187 187 255
-831 453 -241 -0.4453125 2.435546875 187 187 187 255
-730 745 -410 -0.595703125 3.583984375 102 102 102 255
-730 629 -611 -0.595703125 3.583984375 102 102 102 255
-854 723 -666 -1.00390625 3.71484375 102 102 102 255
-854 840 -464 -1.00390625 3.71484375 102 102 102 255
-946 728 -353 -1.04296875 3.125 255 255 254 255
-846 489 -215 -0.5 2.46484375 255 255 254 255
-831 453 -241 -0.4453125 2.435546875 255 255 254 255
-759 608 -330 -0.482421875 3.0703125 255 255 254 255
-856 646 -352 -0.755859375 3.052734375 209 209 209 255
-856 529 -554 -0.755859375 3.052734375 209 209 209 255
-730 629 -611 -0.595703125 3.583984375 209 209 209 255
-730 745 -410 -0.595703125 3.583984375 209 209 209 255
-759 608 -330 -0.482421875 3.0703125 74 74 74 255
-759 491 -532 -0.482421875 3.0703125 74 74 74 255
-856 529 -554 -0.755859375 3.052734375 74 74 74 255
-856 646 -352 -0.755859375 3.052734375 74 74 74 255
-1030 426 -179 -0.83984375 1.97265625 255 255 254 255
-1034 384 -201 -0.818359375 1.89453125 255 255 254 255
-730 745 -410 -0.595703125 3.583984375 204 204 204 255
-854 840 -464 -1.00390625 3.71484375 204 204 204 255
-861 841 -418 -0.99609375 3.638671875 204 204 204 255
-867 683 -327 -0.802734375 3.09375 170 170 170 255
-946 728 -353 -1.04296875 3.125 170 170 170 255
-945 684 -374 -1.009765625 3.046875 170 170 170 255
-925 673 -368 -0.94921875 3.0390625 170 170 170 255
-865 649 -343 -0.775390625 3.033203125 170 170 170 255
-786 618 -289 -0.53125 2.994140625 255 255 254 255
-831 453 -241 -0.4453125 2.435546875 221 221 221 255
-831 337 -443 -0.4453125 2.435546875 221 221 221 255
-759 491 -532 -0.482421875 3.0703125 221 221 221 255
-759 608 -330 -0.482421875 3.0703125 221 221 221 255
-762 766 -374 -0.669921875 3.533203125 204 204 204 255
-786 618 -289 -0.53125 2.994140625 160 160 160 255
-759 608 -330 -0.482421875 3.0703125 160 160 160 255
-989 697 -335 -1.1015625 2.955078125 160 160 160 255
-948 682 -373 -1.013671875 3.03515625 160 160 160 255
-762 766 -374 -0.669921875 3.533203125 255 255 254 255
-865 649 -343 -0.775390625 3.033203125 255 255 254 255
-856 646 -352 -0.755859375 3.052734375 255 255 254 255
-867 683 -327 -0.802734375 3.09375 255 255 254 255
-730 745 -410 -0.595703125 3.583984375 255 255 254 255
3 0 1 2
3 2 3 4
3 2 4 0
3 5 3 2
3 6 5 2
3 2 1 7
3 2 7 6
3 0 8 1
3 7 9 10
3 6 7 10
3 11 12 13
3 11 14 12
3 15 16 17
3 15 17 18
3 17 19 20
3 18 17 20
3 21 22 23
3 21 24 22
3 25 26 27
3 25 28 26
3 29 30 31
3 32 33 34
3 32 35 33
3 36 37 29
3 36 38 37
3 39 40 36
3 41 38 36
3 29 39 36
3 29 37 30
3 42 43 44
3 41 45 38
3 46 47 48
3 47 49 48
3 50 51 52
3 50 52 53
3 42 54 43
3 55 8 0
3 56 57 58
3 56 58 59
3 60 61 62
3 60 63 61
3 64 65 66
3 65 67 66
3 68 69 70
3 55 71 8
3 72 73 74
3 72 74 75
3 76 77 78
3 79 76 78
3 68 80 69
3 81 82 83
3 69 84 70
3 84 85 70
3 85 86 70
3 85 87 86
3 88 89 90
3 88 91 89
3 92 93 94
3 82 95 83
3 96 97 98
3 96 99 97
3 100 101 102
3 100 102 103
3 92 104 93
3 105 106 107
3 108 109 110
3 108 110 111
3 112 113 114
3 112 115 113
3 116 117 118
3 116 119 117
3 120 121 122
3 105 123 106
3 124 125 126
3 124 126 127
3 128 129 130
3 128 131 129
3 120 132 121
3 133 134 135
3 136 137 138
3 137 139 138
3 140 141 142
3 140 142 143
3 144 145 146
3 144 146 147
3 148 149 150
3 133 151 134
3 134 152 153
3 135 134 153
3 154 155 156
3 155 157 156
3 148 150 158
3 159 160 161
3 162 163 164
3 162 164 165
3 165 164 166
3 165 166 167
3 168 161 169
3 168 169 170
3 170 171 168
3 159 161 168
3 172 173 174
3 170 175 171
3 176 177 178
3 179 176 178
3 180 181 182
3 180 183 181
3 172 174 184
3 185 186 187
3 186 188 187
3 167 166 189
3 167 189 190
3 190 191 167
3 190 192 191
3 193 194 195
3 193 196 194
3 197 198 199
3 200 201 202
3 200 203 201
3 204 205 206
3 204 206 207
3 199 208 197
3 197 209 198
3 210 211 212
3 199 213 208
3 214 215 216
3 214 217 215
3 218 219 220
3 218 220 221
3 210 222 211
3 223 224 225
3 226 227 228
3 227 229 228
3 230 231 232
3 233 230 232
3 234 235 236
3 234 237 235
3 238 239 240
3 223 225 241
3 242 243 244
3 242 245 243
3 246 240 247
3 238 240 246
3 246 247 248
3 249 250 251
3 252 253 254
3 255 256 254
3 254 253 257
3 254 257 255
3 252 258 253
3 255 259 256
3 260 261 262
3 260 263 261
3 264 265 266
3 267 249 251
3 268 269 270
3 268 271 269
3 272 273 274
3 272 275 273
3 276 264 266
3 277 278 279
3 280 281 282
3 280 282 283
3 284 285 286
3 284 286 287
3 284 287 288
3 289 284 288
3 290 285 284
3 290 291 285
3 292 293 294
3 278 295 279
3 279 296 297
3 279 295 296
3 298 299 300
3 299 301 300
3 302 293 292
3 303 292 304
3 292 294 304
3 305 306 307
3 302 308 293
3 309 310 311
3 309 312 310
3 313 314 315
3 313 315 316
3 305 307 317
3 318 319 320
3 321 322 323
3 322 324 323
3 325 326 327
3 325 328 326
3 329 328 325
3 325 327 330
3 331 325 330
3 329 332 328
3 333 334 335
3 318 336 319
3 337 338 339
3 337 340 338
3 341 342 343
3 341 343 344
3 333 335 345
3 346 347 348
3 349 350 351
3 349 352 350
3 353 354 355
3 353 356 354
3 357 358 359
3 357 360 358
3 346 361 347
3 303 304 362
3 363 364 365
3 363 366 364
3 367 368 369
3 367 369 370
3 371 367 372
3 373 374 368
3 373 368 367
3 367 370 372
3 375 376 377
3 376 378 377
3 379 380 381
3 379 381 382
3 383 384 385
3 386 387 388
3 386 389 387
3 390 388 391
3 392 393 394
3 392 394 395
3 383 396 384
3 390 391 397
3 398 399 400
3 399 401 400
3 402 403 404
3 402 405 403
3 403 406 407
3 404 403 407
3 408 409 410
3 411 412 413
3 411 414 412
3 415 416 417
3 416 418 417
3 418 419 420
3 417 418 420
3 417 420 421
3 422 417 421
3 423 424 425
3 409 426 410
3 427 428 429
3 427 429 430
3 431 432 433
3 431 434 432
3 423 435 424
3 436 437 438
3 439 440 441
3 439 441 442
3 443 444 445
3 446 443 445
3 447 448 449
3 447 449 450
3 451 452 453
3 436 438 454
3 455 456 457
3 456 458 457
3 459 460 461
3 459 462 460
3 463 452 451
3 464 465 466
3 463 467 452
3 468 469 470
3 468 471 469
3 472 473 474
3 472 474 475
3 464 476 465
3 477 478 479
3 480 481 482
3 480 483 481
3 484 485 486
3 484 486 487
3 488 489 490
3 488 491 489
3 492 493 494
3 477 479 495
3 496 497 498
3 496 499 497
3 496 500 499
3 501 502 503
3 501 503 504
3 492 494 505
3 492 505 506
3 494 507 505
3 494 508 507
3 494 509 508
3 510 511 512
3 510 513 511
3 514 515 516
3 509 517 518
3 515 519 516
3 520 521 522
3 520 523 521
3 524 525 526
3 524 527 525
3 509 518 508
3 528 529 530
3 528 531 529
3 532 533 534
3 535 536 537
3 535 538 536
3 539 540 541
3 542 543 539
3 544 541 545
3 541 546 545
3 541 540 546
3 544 545 547
3 539 543 540
3 548 549 550
3 549 551 550
3 542 552 543
3 553 554 555
3 556 557 558
3 556 558 559
3 560 561 562
3 560 562 563
3 564 565 566
3 564 567 565
3 568 569 570
3 571 554 553
3 571 572 554
3 553 555 573
3 574 575 576
3 574 577 575
3 568 570 578
3 579 580 581
3 582 583 584
3 583 585 586
3 583 586 584
3 584 586 587
3 582 584 588
3 584 587 589
3 590 591 592
3 590 593 591
3 594 595 596
3 579 581 597
3 598 599 600
3 598 601 599
3 602 603 604
3 602 605 603
3 594 596 606
3 607 608 609
3 610 611 612
3 610 612 613
3 614 615 616
3 615 617 616
3 618 619 620
3 618 621 619
3 622 623 624
3 607 625 608
3 609 608 626
3 627 609 628
3 609 626 628
3 628 626 629
3 627 628 630
3 628 629 631
3 622 632 623
3 633 634 635
3 636 637 638
3 636 638 639
3 640 641 642
3 640 642 643
3 644 645 646
3 644 647 645
3 648 649 650
3 633 651 634
3 652 653 654
3 652 654 655
3 656 657 658
3 656 659 660
3 656 660 657
3 661 662 663
3 648 650 664
3 665 666 667
3 668 665 667
3 669 670 671
3 669 672 670
3 671 670 673
3 674 675 676
3 661 677 662
3 678 679 677
3 678 677 661
3 680 681 679
3 680 679 678
3 682 676 683
3 676 684 683
3 676 675 684
3 683 684 685
3 682 683 686
3 683 685 687
3 674 688 675
3 687 685 689
3 687 689 690
3 687 690 691
3 692 687 691
3 693 694 695
3 690 689 696
3 690 696 697
3 698 699 700
3 699 701 700
3 702 703 704
3 702 705 703
3 706 707 708
3 709 693 695
3 710 711 712
3 710 712 713
3 714 715 716
3 714 716 717
3 706 708 718
3 719 720 721
3 722 723 724
3 722 724 725
3 726 727 728
3 726 728 729
3 730 731 720
3 730 720 719
3 732 733 734
3 735 736 737
3 735 737 738
3 735 738 739
3 719 721 740
3 741 742 743
3 741 743 744
3 745 732 734
3 746 747 748
3 747 749 748
3 750 751 752
3 750 753 751
3 750 752 754
