ply
format ascii 1.0
element vertex 22
property short x
property short y
property short z
property float s
property float t
property float nx
property float ny
property float nz
property uchar alpha
element face 12
property list uchar uint vertex_indices
end_header
-180 51 -904 0.982421875 0.9921875 -0.3984375 0.3984375 -0.8046875 255
-180 0 -904 0.943359375 0.853515625 -0.65625 -0.65625 -0.328125 255
-180 51 905 -3.130859375 0.9921875 -0.65625 0.65625 0.328125 255
-180 0 -904 -3.11328125 0.9921875 -0.65625 -0.65625 -0.328125 255
181 0 -904 -3.11328125 0.009765625 0.3984375 -0.3984375 -0.8046875 255
181 0 905 0.982421875 0.009765625 0.65625 -0.65625 0.328125 255
-180 0 905 0.982421875 0.9921875 -0.3984375 -0.3984375 0.8046875 255
181 51 -904 0.982421875 0.009765625 0.65625 0.65625 -0.328125 255
181 51 905 -3.130859375 0.009765625 0.3984375 0.3984375 0.8046875 255
181 0 905 -3.15234375 0.84375 0.65625 -0.65625 0.328125 255
181 0 -904 0.943359375 0.853515625 0.3984375 -0.3984375 -0.8046875 255
181 51 -904 0.982421875 0.9921875 0.65625 0.65625 -0.328125 255
181 51 905 -3.130859375 0.9921875 0.3984375 0.3984375 0.8046875 255
-180 0 905 0.015625 0.908203125 -0.3984375 -0.3984375 0.8046875 255
181 51 905 0.689453125 0.9921875 0.3984375 0.3984375 0.8046875 255
-180 51 905 0.015625 0.9921875 -0.65625 0.65625 0.328125 255
-180 0 905 -3.15234375 0.84375 -0.3984375 -0.3984375 0.8046875 255
181 0 -904 0.27734375 0.009765625 0.3984375 -0.3984375 -0.8046875 255
-180 0 -904 0.982421875 0.009765625 -0.65625 -0.65625 -0.328125 255
-180 51 -904 0.982421875 0.109375 -0.3984375 0.3984375 -0.8046875 255
181 51 -904 0.27734375 0.109375 0.65625 0.65625 -0.328125 255
181 0 905 0.689453125 0.908203125 0.65625 -0.65625 0.328125 255
3 0 1 2
3 3 4 5
3 6 3 5
3 7 0 2
3 8 7 2
3 9 10 11
3 12 9 11
3 13 14 15
3 1 16 2
3 17 18 19
3 17 19 20
3 13 21 14
