ply
format ascii 1.0
comment Created by Blender 2.83.5 - www.blender.org, source file: 'stage2.blend'
element vertex 240
property float x
property float y
property float z
property float nx
property float ny
property float nz
property float s
property float t
element face 80
property list uchar uint vertex_indices
end_header
-4200.000000 -799.999756 150.000107 0.707083 0.000000 0.707083 55.999996 0.000000
-4200.000000 -299.999786 150.000107 0.577349 0.577349 0.577349 56.000000 5.000000
-7000.000000 -299.999908 150.000107 0.301492 0.301492 0.904508 0.000000 4.999992
-7000.000000 -799.999878 150.000107 0.000000 0.000000 1.000000 0.000000 0.000000
-3500.000000 -799.999756 150.000351 -0.707083 0.000000 0.707083 0.000000 0.000000
-2200.000000 -799.999634 150.000107 0.707083 0.000000 0.707083 26.000000 0.000002
-2200.000000 100.000275 150.000122 0.577349 0.577349 0.577349 26.000000 9.000000
-3500.000000 100.000214 150.000122 -0.577349 0.577349 0.577349 0.000000 8.999998
-8000.000000 -799.999939 150.000107 -0.707083 0.000000 0.707083 -0.000001 0.000633
-7200.000000 0.000059 150.000061 0.577349 0.577349 0.577349 15.997967 7.999997
-8000.000000 -0.000002 150.000000 -0.577349 0.577349 0.577349 0.000010 8.000000
-7000.000000 -199.999908 150.000107 0.577349 0.577349 0.577349 19.997458 6.000167
-7100.000000 -199.999908 150.000046 0.301492 0.301492 0.904508 17.997715 6.000166
-7000.000000 -299.999908 150.000107 0.301492 0.301492 0.904508 19.997467 5.000245
-7100.000000 -99.999924 150.000061 0.577349 0.577319 0.577349 17.997715 7.000088
-7200.000000 -99.999924 150.000061 0.301492 0.301492 0.904508 15.997967 7.000088
-7000.000000 -799.999878 150.000107 0.000000 0.000000 1.000000 19.997456 0.000632
-8000.000000 0.000011 -150.000000 -0.577349 0.577349 -0.577349 0.000693 3.000000
-8000.000000 -0.000002 150.000000 -0.577349 0.577349 0.577349 0.000693 0.000693
-7200.000000 0.000059 150.000061 0.577349 0.577349 0.577349 15.999999 0.000694
-7200.000000 0.000072 -149.999878 0.577349 0.577349 -0.577349 16.000000 2.999998
-7100.000000 -99.999924 -149.999939 0.577349 0.577319 -0.577349 2.000000 3.000000
-7200.000000 -99.999924 -149.999878 0.301492 0.301492 -0.904508 0.000245 3.000000
-7200.000000 -99.999924 150.000061 0.301492 0.301492 0.904508 0.000245 0.000245
-7100.000000 -99.999924 150.000061 0.577349 0.577319 0.577349 2.000000 0.000245
-7200.000000 -99.999924 150.000061 0.301492 0.301492 0.904508 0.000001 2.000000
-7200.000000 -99.999924 -149.999878 0.301492 0.301492 -0.904508 5.999998 2.000000
-7200.000000 0.000072 -149.999878 0.577349 0.577349 -0.577349 5.999998 3.000000
-7200.000000 0.000059 150.000061 0.577349 0.577349 0.577349 0.000000 3.000000
-7100.000000 -199.999939 -149.999954 0.301492 0.301492 -0.904508 5.999999 1.000000
-7100.000000 -99.999924 -149.999939 0.577349 0.577319 -0.577349 6.000000 2.000000
-7100.000000 -99.999924 150.000061 0.577349 0.577319 0.577349 0.000001 2.000000
-7100.000000 -199.999908 150.000046 0.301492 0.301492 0.904508 0.000000 1.000000
-7100.000000 -199.999908 150.000046 0.301492 0.301492 0.904508 2.000000 2.999999
-7000.000000 -199.999908 150.000107 0.577349 0.577349 0.577349 0.000245 3.000000
-7000.000000 -199.999939 -149.999954 0.577349 0.577349 -0.577349 0.000245 0.000245
-7100.000000 -199.999939 -149.999954 0.301492 0.301492 -0.904508 2.000000 0.000245
-7000.000000 -299.999908 -149.999954 0.301492 0.301492 -0.904508 5.999999 0.000000
-7000.000000 -199.999939 -149.999954 0.577349 0.577349 -0.577349 5.999999 1.000000
-7000.000000 -199.999908 150.000107 0.577349 0.577349 0.577349 0.000000 1.000000
-7000.000000 -299.999908 150.000107 0.301492 0.301492 0.904508 0.000000 0.000000
-7200.000000 0.000072 -149.999878 0.577349 0.577349 -0.577349 4.000031 8.000000
-8000.000000 -799.999939 -149.999893 -0.707083 0.000000 -0.707083 19.999977 0.000000
-8000.000000 0.000011 -150.000000 -0.577349 0.577349 -0.577349 20.000000 7.999979
-7200.000000 -99.999924 -149.999878 0.301492 0.301492 -0.904508 4.000022 6.999997
-7100.000000 -199.999939 -149.999954 0.301492 0.301492 -0.904508 2.000013 5.999999
-7000.000000 -299.999908 -149.999954 0.301492 0.301492 -0.904508 0.000005 4.999995
-7000.000000 -199.999939 -149.999954 0.577349 0.577349 -0.577349 0.000005 6.000003
-7100.000000 -99.999924 -149.999939 0.577349 0.577319 -0.577349 2.000018 7.000002
-7000.000000 -799.999878 -149.999893 0.000000 0.000000 -1.000000 -0.000000 0.000001
-4200.000000 -299.999786 -149.999771 0.577349 0.577349 -0.577349 56.000004 2.999999
-7000.000000 -299.999908 -149.999954 0.301492 0.301492 -0.904508 0.000000 3.000001
-7000.000000 -299.999908 150.000107 0.301492 0.301492 0.904508 0.000000 -0.000003
-4200.000000 -299.999786 150.000107 0.577349 0.577349 0.577349 56.000004 -0.000006
-4200.000000 -799.999756 150.000107 0.707083 0.000000 0.707083 0.000848 0.000212
-4200.000000 -799.999756 -149.999771 0.707083 0.000000 -0.707083 5.999999 0.000212
-4200.000000 -299.999786 -149.999771 0.577349 0.577349 -0.577349 5.999998 4.999787
-4200.000000 -299.999786 150.000107 0.577349 0.577349 0.577349 0.000850 4.999788
-7000.000000 -799.999878 -149.999893 0.000000 0.000000 -1.000000 55.999996 0.001296
-7000.000000 -299.999908 -149.999954 0.301492 0.301492 -0.904508 55.999996 5.000000
-4200.000000 -299.999786 -149.999771 0.577349 0.577349 -0.577349 0.001157 4.999996
-4200.000000 -799.999756 -149.999771 0.707083 0.000000 -0.707083 0.001157 0.001304
-2200.000000 100.000275 150.000122 0.577349 0.577349 0.577349 26.000000 0.000000
-2200.000000 100.000290 -149.999634 0.577349 0.577349 -0.577349 26.000000 2.999996
-3500.000000 100.000229 -149.999878 -0.577349 0.577349 -0.577349 -0.000001 3.000000
-3500.000000 100.000214 150.000122 -0.577349 0.577349 0.577349 0.000004 0.000000
-3500.000000 100.000214 150.000122 -0.577349 0.577349 0.577349 6.000000 8.999999
-3500.000000 100.000229 -149.999878 -0.577349 0.577349 -0.577349 0.000651 9.000000
-3500.000000 -799.999756 -149.999649 -0.707083 0.000000 -0.707083 0.000648 0.000649
-3500.000000 -799.999756 150.000351 -0.707083 0.000000 0.707083 6.000000 0.000648
-2200.000000 -799.999634 -149.999649 0.707083 0.000000 -0.707083 0.001349 0.001349
-3500.000000 -799.999756 -149.999649 -0.707083 0.000000 -0.707083 25.999998 0.001350
-3500.000000 100.000229 -149.999878 -0.577349 0.577349 -0.577349 25.999998 9.000001
-2200.000000 100.000290 -149.999634 0.577349 0.577349 -0.577349 0.001349 8.999998
-2200.000000 100.000275 150.000122 0.577349 0.577349 0.577349 0.000002 9.000000
-2200.000000 -799.999634 150.000107 0.707083 0.000000 0.707083 0.000000 0.000000
-2200.000000 -799.999634 -149.999649 0.707083 0.000000 -0.707083 6.000000 0.000000
-2200.000000 100.000290 -149.999634 0.577349 0.577349 -0.577349 5.999999 9.000000
-500.000000 -300.000000 150.000000 -0.577349 0.577349 0.577349 5.999990 5.000000
-500.000000 -299.999634 -149.999405 -0.577349 0.577349 -0.577349 0.000001 5.000000
-500.000000 -799.999634 -149.999405 -0.707083 0.000000 -0.707083 0.000001 0.000000
-500.000000 -800.000000 150.000015 -0.707083 0.000000 0.707083 6.000000 0.000000
600.000000 -299.999573 -149.999405 -0.577349 0.577349 -0.577349 22.000000 3.000000
-500.000000 -299.999634 -149.999405 -0.577349 0.577349 -0.577349 0.000000 3.000000
-500.000000 -300.000000 150.000000 -0.577349 0.577349 0.577349 0.000000 0.000002
600.000000 -299.999573 150.000595 -0.577349 0.577349 0.577349 22.000000 -0.000000
600.000000 -299.999573 -149.999405 -0.577349 0.577349 -0.577349 -0.000006 -0.000001
600.000000 -299.999573 150.000595 -0.577349 0.577349 0.577349 6.000000 -0.000002
600.000000 1400.000244 150.000183 -0.577349 0.577349 0.577349 5.999996 17.000000
600.000000 1400.000244 -149.999817 -0.577349 0.577349 -0.577349 -0.000006 17.000000
100.000000 100.000381 -149.999390 0.577349 -0.577349 -0.577349 6.000001 0.000001
100.000000 100.000366 150.000610 0.577349 -0.577349 0.577349 6.000001 3.000000
-200.000000 100.000366 150.000610 -0.577349 -0.577349 0.577349 -0.000001 3.000000
-200.000000 100.000381 -149.999390 -0.577349 -0.577349 -0.577349 0.000000 0.000000
-8000.000000 -799.999939 150.000107 -0.707083 0.000000 0.707083 5.999400 0.000600
-8000.000000 -0.000002 150.000000 -0.577349 0.577349 0.577349 5.999400 7.999397
-8000.000000 0.000011 -150.000000 -0.577349 0.577349 -0.577349 0.000602 7.999398
-8000.000000 -799.999939 -149.999893 -0.707083 0.000000 -0.707083 0.000600 0.000601
100.000000 2200.000244 -149.999817 0.577349 0.577349 -0.577349 6.000000 3.000000
-200.000000 2200.000244 -149.999817 -0.577349 0.577349 -0.577349 0.000001 3.000000
-200.000000 2200.000244 150.000183 -0.577349 0.577349 0.577349 0.000001 0.000001
100.000000 2200.000244 150.000183 0.577349 0.577349 0.577349 6.000000 0.000002
-200.000000 100.000366 150.000610 -0.577349 -0.577349 0.577349 0.000002 0.000002
100.000000 100.000366 150.000610 0.577349 -0.577349 0.577349 6.000000 0.000001
100.000000 2200.000244 150.000183 0.577349 0.577349 0.577349 5.999998 21.000000
-200.000000 2200.000244 150.000183 -0.577349 0.577349 0.577349 0.000005 21.000000
100.000000 100.000366 150.000610 0.577349 -0.577349 0.577349 0.000000 0.000000
100.000000 100.000381 -149.999390 0.577349 -0.577349 -0.577349 6.000000 0.000002
100.000000 2200.000244 -149.999817 0.577349 0.577349 -0.577349 5.999995 21.000000
100.000000 2200.000244 150.000183 0.577349 0.577349 0.577349 0.000002 20.999998
-200.000000 100.000381 -149.999390 -0.577349 -0.577349 -0.577349 0.000883 0.000884
-200.000000 100.000366 150.000610 -0.577349 -0.577349 0.577349 6.000000 0.000883
-200.000000 2200.000244 150.000183 -0.577349 0.577349 0.577349 5.999999 21.000000
-200.000000 2200.000244 -149.999817 -0.577349 0.577349 -0.577349 0.000887 21.000000
100.000000 100.000381 -149.999390 0.577349 -0.577349 -0.577349 -0.000000 0.000000
-200.000000 100.000381 -149.999390 -0.577349 -0.577349 -0.577349 6.000000 0.000000
-200.000000 2200.000244 -149.999817 -0.577349 0.577349 -0.577349 5.999997 21.000000
100.000000 2200.000244 -149.999817 0.577349 0.577349 -0.577349 0.000002 21.000000
600.000000 1400.000244 150.000183 -0.577349 0.577349 0.577349 0.000001 16.999998
600.000000 -299.999573 150.000595 -0.577349 0.577349 0.577349 0.000005 -0.000000
3400.000000 -299.999573 150.000595 0.000000 0.000000 1.000000 56.000000 -0.000000
3400.000000 1400.000366 150.000183 0.577349 0.577349 0.577349 56.000000 17.000000
600.000000 -299.999573 -149.999405 -0.577349 0.577349 -0.577349 55.999996 0.000000
600.000000 1400.000244 -149.999817 -0.577349 0.577349 -0.577349 56.000000 16.999996
3400.000000 1400.000366 -149.999817 0.577349 0.577349 -0.577349 0.000002 17.000000
3400.000000 -299.999573 -149.999405 0.000000 0.000000 -1.000000 -0.000001 0.000000
3400.000000 1400.000366 -149.999817 0.577349 0.577349 -0.577349 56.000000 2.999998
600.000000 1400.000244 -149.999817 -0.577349 0.577349 -0.577349 0.000001 3.000000
600.000000 1400.000244 150.000183 -0.577349 0.577349 0.577349 0.000001 0.000001
3400.000000 1400.000366 150.000183 0.577349 0.577349 0.577349 56.000000 0.000000
3400.000000 -800.000000 150.000610 0.707083 0.000000 0.707083 78.000000 0.000001
3400.000000 -299.999573 150.000595 0.000000 0.000000 1.000000 78.000000 5.000000
-500.000000 -300.000000 150.000000 -0.577349 0.577349 0.577349 0.000004 4.999998
-500.000000 -800.000000 150.000015 -0.707083 0.000000 0.707083 0.000003 0.000002
3400.000000 1400.000366 -149.999817 0.577349 0.577349 -0.577349 5.999988 22.000000
3400.000000 1400.000366 150.000183 0.577349 0.577349 0.577349 0.000010 21.999998
3400.000000 -800.000000 150.000610 0.707083 0.000000 0.707083 0.000000 0.000001
3400.000000 -800.000000 -149.999390 0.707083 0.000000 -0.707083 6.000000 0.000000
3400.000000 -800.000000 -149.999390 0.707083 0.000000 -0.707083 -0.000002 0.000000
-500.000000 -799.999634 -149.999405 -0.707083 0.000000 -0.707083 78.000000 0.000004
-500.000000 -299.999634 -149.999405 -0.577349 0.577349 -0.577349 78.000000 5.000000
3400.000000 -299.999573 -149.999405 0.000000 0.000000 -1.000000 0.000000 5.000000
6000.000000 100.000381 -149.999390 0.577349 -0.577349 -0.577349 26.000000 0.000001
6000.000000 100.000366 150.000610 0.577349 -0.577349 0.577349 26.000000 3.000000
4700.000000 100.000366 150.000610 -0.577349 -0.577349 0.577349 -0.000001 3.000000
4700.000000 100.000381 -149.999390 -0.577349 -0.577349 -0.577349 0.000000 0.000000
6000.000000 2400.000244 -149.999817 0.577349 0.577349 -0.577349 26.000000 3.000000
4700.000000 2400.000244 -149.999817 -0.577349 0.577349 -0.577349 0.000001 3.000000
4700.000000 2400.000244 150.000183 -0.577349 0.577349 0.577349 0.000001 0.000001
6000.000000 2400.000244 150.000183 0.577349 0.577349 0.577349 26.000000 0.000002
4700.000000 100.000366 150.000610 -0.577349 -0.577349 0.577349 0.000002 0.000002
6000.000000 100.000366 150.000610 0.577349 -0.577349 0.577349 26.000000 0.000001
6000.000000 2400.000244 150.000183 0.577349 0.577349 0.577349 25.999998 23.000000
4700.000000 2400.000244 150.000183 -0.577349 0.577349 0.577349 0.000005 23.000000
6000.000000 100.000366 150.000610 0.577349 -0.577349 0.577349 0.000000 0.000000
6000.000000 100.000381 -149.999390 0.577349 -0.577349 -0.577349 6.000000 0.000002
6000.000000 2400.000244 -149.999817 0.577349 0.577349 -0.577349 5.999995 23.000000
6000.000000 2400.000244 150.000183 0.577349 0.577349 0.577349 0.000002 22.999998
4700.000000 100.000381 -149.999390 -0.577349 -0.577349 -0.577349 0.000883 0.000884
4700.000000 100.000366 150.000610 -0.577349 -0.577349 0.577349 6.000000 0.000883
4700.000000 2400.000244 150.000183 -0.577349 0.577349 0.577349 5.999999 23.000000
4700.000000 2400.000244 -149.999817 -0.577349 0.577349 -0.577349 0.000887 23.000000
6000.000000 100.000381 -149.999390 0.577349 -0.577349 -0.577349 -0.000000 0.000000
4700.000000 100.000381 -149.999390 -0.577349 -0.577349 -0.577349 26.000000 0.000000
4700.000000 2400.000244 -149.999817 -0.577349 0.577349 -0.577349 25.999996 23.000000
6000.000000 2400.000244 -149.999817 0.577349 0.577349 -0.577349 0.000002 23.000000
5700.000000 -599.999512 -149.999954 0.301492 0.301492 -0.904508 0.000424 3.000000
5700.000000 -599.999512 150.000107 0.301492 0.301492 0.904508 0.000424 0.000424
6000.000000 -599.999512 150.000107 0.000000 0.707083 0.707083 5.999576 0.000424
6000.000000 -599.999512 -149.999954 0.000000 0.707083 -0.707083 5.999576 3.000000
5700.000000 -499.999573 -149.999939 0.577349 0.577349 -0.577349 6.000010 3.000001
5700.000000 -599.999512 -149.999954 0.301492 0.301492 -0.904508 6.000000 1.999999
5600.000000 -499.999573 -149.999939 0.301492 0.301492 -0.904508 7.999999 2.999998
6700.000000 -799.999634 150.000351 -0.707083 0.000000 0.707083 0.000000 0.000000
8000.000000 -799.999512 150.000107 0.707083 0.000000 0.707083 26.000000 0.000002
8000.000000 1200.000610 150.000122 0.577349 0.577349 0.577349 26.000000 20.000000
6700.000000 1200.000488 150.000122 -0.577349 0.577349 0.577349 0.000000 19.999998
8000.000000 1200.000610 150.000122 0.577349 0.577349 0.577349 26.000000 0.000000
8000.000000 1200.000610 -149.999634 0.577349 0.577349 -0.577349 26.000000 2.999996
6700.000000 1200.000488 -149.999878 -0.577349 0.577349 -0.577349 -0.000001 3.000000
6700.000000 1200.000488 150.000122 -0.577349 0.577349 0.577349 0.000004 0.000000
6700.000000 1200.000488 150.000122 -0.577349 0.577349 0.577349 6.000000 20.000000
6700.000000 1200.000488 -149.999878 -0.577349 0.577349 -0.577349 0.000651 20.000000
6700.000000 -799.999634 -149.999649 -0.707083 0.000000 -0.707083 0.000648 0.000649
6700.000000 -799.999634 150.000351 -0.707083 0.000000 0.707083 6.000000 0.000648
8000.000000 -799.999512 -149.999649 0.707083 0.000000 -0.707083 0.001349 0.001349
6700.000000 -799.999634 -149.999649 -0.707083 0.000000 -0.707083 25.999998 0.001350
6700.000000 1200.000488 -149.999878 -0.577349 0.577349 -0.577349 25.999996 20.000000
8000.000000 1200.000610 -149.999634 0.577349 0.577349 -0.577349 0.001349 19.999998
8000.000000 1200.000610 150.000122 0.577349 0.577349 0.577349 0.000002 20.000000
8000.000000 -799.999512 150.000107 0.707083 0.000000 0.707083 0.000000 0.000000
8000.000000 -799.999512 -149.999649 0.707083 0.000000 -0.707083 6.000000 0.000000
8000.000000 1200.000610 -149.999634 0.577349 0.577349 -0.577349 5.999999 20.000000
4700.000000 -799.999512 150.000107 -0.707083 0.000000 0.707083 0.000000 0.000001
5500.000000 -299.999573 150.000061 0.577349 0.577349 0.577349 15.999990 5.000000
4700.000000 -299.999634 150.000000 -0.577349 0.577349 0.577349 0.000000 4.999995
5700.000000 -499.999542 150.000122 0.577349 0.577349 0.577349 19.999998 3.000000
5600.000000 -499.999542 150.000061 0.301492 0.301492 0.904508 17.999998 3.000000
5700.000000 -599.999512 150.000107 0.301492 0.301492 0.904508 19.999998 2.000000
5600.000000 -399.999542 150.000061 0.577349 0.577349 0.577349 17.999998 4.000005
5500.000000 -399.999542 150.000061 0.301492 0.301492 0.904508 15.999991 4.000004
5700.000000 -799.999512 150.000107 0.000000 0.000000 1.000000 19.999998 0.000000
4700.000000 -299.999634 -150.000000 -0.577349 0.577349 -0.577349 76.000000 -0.000005
4700.000000 -299.999634 150.000000 -0.577349 0.577349 0.577349 76.000000 2.999995
5500.000000 -299.999573 150.000061 0.577349 0.577349 0.577349 60.000000 3.000000
5500.000000 -299.999573 -149.999878 0.577349 0.577349 -0.577349 60.000000 -0.000005
5600.000000 -399.999573 -149.999939 0.577349 0.577349 -0.577349 58.000008 -0.000005
5500.000000 -399.999573 -149.999878 0.301492 0.301492 -0.904508 60.000000 -0.000005
5500.000000 -399.999542 150.000061 0.301492 0.301492 0.904508 60.000000 3.000000
5600.000000 -399.999542 150.000061 0.577349 0.577349 0.577349 58.000008 3.000000
5500.000000 -399.999542 150.000061 0.301492 0.301492 0.904508 0.000001 2.000000
5500.000000 -399.999573 -149.999878 0.301492 0.301492 -0.904508 5.999998 2.000000
5500.000000 -299.999573 -149.999878 0.577349 0.577349 -0.577349 5.999998 3.000000
5500.000000 -299.999573 150.000061 0.577349 0.577349 0.577349 0.000000 3.000000
5600.000000 -499.999573 -149.999939 0.301492 0.301492 -0.904508 5.999999 1.000000
5600.000000 -399.999573 -149.999939 0.577349 0.577349 -0.577349 6.000000 2.000000
5600.000000 -399.999542 150.000061 0.577349 0.577349 0.577349 0.000001 2.000000
5600.000000 -499.999542 150.000061 0.301492 0.301492 0.904508 0.000000 1.000000
5600.000000 -499.999542 150.000061 0.301492 0.301492 0.904508 58.000008 3.000000
5700.000000 -499.999542 150.000122 0.577349 0.577349 0.577349 56.000004 3.000000
5700.000000 -499.999573 -149.999939 0.577349 0.577349 -0.577349 56.000004 -0.000005
5600.000000 -499.999573 -149.999939 0.301492 0.301492 -0.904508 58.000008 -0.000005
5700.000000 -599.999512 -149.999954 0.301492 0.301492 -0.904508 5.999999 0.000000
5700.000000 -499.999573 -149.999939 0.577349 0.577349 -0.577349 5.999999 1.000000
5700.000000 -499.999542 150.000122 0.577349 0.577349 0.577349 0.000000 1.000000
5700.000000 -599.999512 150.000107 0.301492 0.301492 0.904508 0.000000 0.000000
5500.000000 -299.999573 -149.999878 0.577349 0.577349 -0.577349 10.000008 5.000000
4700.000000 -799.999512 -149.999893 -0.707083 0.000000 -0.707083 26.000000 0.000008
4700.000000 -299.999634 -150.000000 -0.577349 0.577349 -0.577349 25.999998 5.000000
5500.000000 -399.999573 -149.999878 0.301492 0.301492 -0.904508 10.000008 4.000003
5600.000000 -399.999573 -149.999939 0.577349 0.577349 -0.577349 8.000011 4.000000
5700.000000 -799.999512 -149.999893 0.000000 0.000000 -1.000000 6.000010 0.000000
4700.000000 -799.999512 150.000107 -0.707083 0.000000 0.707083 5.999999 -0.000000
4700.000000 -299.999634 150.000000 -0.577349 0.577349 0.577349 6.000000 4.999999
4700.000000 -299.999634 -150.000000 -0.577349 0.577349 -0.577349 0.000003 5.000000
4700.000000 -799.999512 -149.999893 -0.707083 0.000000 -0.707083 0.000001 0.000001
6000.000000 -599.999512 -149.999954 0.000000 0.707083 -0.707083 0.000000 1.999996
6000.000000 -799.999512 -149.999893 0.000000 0.000000 -1.000000 0.000009 0.000000
6000.000000 -799.999512 150.000107 0.000000 0.000000 1.000000 25.999996 0.000000
6000.000000 -599.999512 150.000107 0.000000 0.707083 0.707083 25.999996 1.999999
4 0 1 2 3
4 4 5 6 7
3 8 9 10
3 11 12 13
3 14 15 12
3 8 15 9
3 15 8 12
3 12 8 13
3 16 13 8
4 17 18 19 20
4 21 22 23 24
4 25 26 27 28
4 29 30 31 32
4 33 34 35 36
4 37 38 39 40
3 41 42 43
3 41 44 42
3 45 42 44
3 46 42 45
3 46 45 47
3 48 45 44
3 49 42 46
4 50 51 52 53
4 54 55 56 57
4 58 59 60 61
4 62 63 64 65
4 66 67 68 69
4 70 71 72 73
4 74 75 76 77
4 78 79 80 81
4 82 83 84 85
4 86 87 88 89
4 90 91 92 93
4 94 95 96 97
4 98 99 100 101
4 102 103 104 105
4 106 107 108 109
4 110 111 112 113
4 114 115 116 117
4 118 119 120 121
4 122 123 124 125
4 126 127 128 129
4 130 131 132 133
4 134 135 136 137
4 138 139 140 141
4 142 143 144 145
4 146 147 148 149
4 150 151 152 153
4 154 155 156 157
4 158 159 160 161
4 162 163 164 165
4 166 167 168 169
3 170 171 172
4 173 174 175 176
4 177 178 179 180
4 181 182 183 184
4 185 186 187 188
4 189 190 191 192
3 193 194 195
3 196 197 198
3 199 200 197
3 193 200 194
3 200 193 197
3 197 193 198
3 201 198 193
4 202 203 204 205
4 206 207 208 209
4 210 211 212 213
4 214 215 216 217
4 218 219 220 221
4 222 223 224 225
3 226 227 228
3 226 229 227
3 172 227 229
3 171 227 172
3 230 172 229
3 231 227 171
4 232 233 234 235
4 231 171 236 237
4 198 201 238 239
