ply
format ascii 1.0
comment Created by Blender 2.83.5 - www.blender.org, source file: 'stage2.blend'
element vertex 32
property float x
property float y
property float z
property float nx
property float ny
property float nz
property float s
property float t
element face 8
property list uchar uint vertex_indices
end_header
2850.000000 700.000610 -5250.000000 -0.000000 0.000000 -1.000000 1.000000 10.000000
2850.000000 1200.000610 -5250.000000 -0.000000 0.000000 -1.000000 0.000000 10.000002
6850.000000 1200.000610 -5250.000000 -0.000000 0.000000 -1.000000 0.000000 0.000000
6850.000000 700.000610 -5250.000000 -0.000000 0.000000 -1.000000 1.000000 0.000000
6850.000000 700.000610 -4750.000000 -0.000000 0.000000 1.000000 0.000000 0.000000
6850.000000 1200.000610 -4750.000000 -0.000000 0.000000 1.000000 1.000000 0.000000
2850.000000 1200.000610 -4750.000000 -0.000000 0.000000 1.000000 1.000000 10.000000
2850.000000 700.000610 -4750.000000 -0.000000 0.000000 1.000000 0.000000 10.000000
2850.000000 700.000610 -5250.000000 0.000000 -1.000000 -0.000000 0.000000 10.000000
6850.000000 700.000610 -5250.000000 0.000000 -1.000000 -0.000000 0.000000 0.000000
6850.000000 700.000610 -4750.000000 0.000000 -1.000000 -0.000000 1.000000 0.000000
2850.000000 700.000610 -4750.000000 0.000000 -1.000000 -0.000000 1.000000 10.000000
6850.000000 1200.000610 -5250.000000 0.000000 1.000000 0.000000 0.999714 0.000000
2850.000000 1200.000610 -5250.000000 0.000000 1.000000 0.000000 0.999713 9.999651
2850.000000 1200.000610 -4750.000000 0.000000 1.000000 0.000000 0.000000 9.999651
6850.000000 1200.000610 -4750.000000 0.000000 1.000000 0.000000 0.000000 0.000000
7600.000000 700.000610 -4500.000000 1.000000 0.000000 0.000000 0.999695 11.000001
7600.000000 1200.000610 -4500.000000 1.000000 0.000000 0.000000 0.000000 11.000001
7600.000000 1200.000610 -150.000000 1.000000 0.000000 0.000000 0.000000 0.000362
7600.000000 700.000610 -150.000000 1.000000 0.000000 0.000000 0.999697 0.000363
7100.000000 700.000610 -150.000000 -1.000000 0.000000 0.000000 0.000002 0.000000
7100.000000 1200.000610 -150.000000 -1.000000 0.000000 0.000000 1.000000 0.000001
7100.000000 1200.000610 -4500.000000 -1.000000 0.000000 0.000000 1.000000 10.999999
7100.000000 700.000610 -4500.000000 -1.000000 0.000000 0.000000 0.000000 10.999999
7100.000000 700.000610 -4500.000000 0.000000 -1.000000 -0.000000 0.999998 11.000000
7600.000000 700.000610 -4500.000000 0.000000 -1.000000 -0.000000 0.000000 11.000000
7600.000000 700.000610 -150.000000 0.000000 -1.000000 -0.000000 0.000001 0.000001
7100.000000 700.000610 -150.000000 0.000000 -1.000000 -0.000000 1.000000 0.000000
7600.000000 1200.000610 -4500.000000 0.000000 1.000000 0.000000 0.999998 11.000000
7100.000000 1200.000610 -4500.000000 0.000000 1.000000 0.000000 0.000000 10.999999
7100.000000 1200.000610 -150.000000 0.000000 1.000000 0.000000 0.000000 0.000000
7600.000000 1200.000610 -150.000000 0.000000 1.000000 0.000000 1.000000 0.000000
4 0 1 2 3
4 4 5 6 7
4 8 9 10 11
4 12 13 14 15
4 16 17 18 19
4 20 21 22 23
4 24 25 26 27
4 28 29 30 31
