ply
format ascii 1.0
comment Created by Blender 2.83.5 - www.blender.org, source file: 'stage2.blend'
element vertex 8
property float x
property float y
property float z
property float nx
property float ny
property float nz
property float s
property float t
element face 1
property list uchar uint vertex_indices
end_header
0.000000 1400.000488 -8000.000000 0.000000 1.000000 -0.000000 0.500000 2.500000
-2121.320312 1400.000488 -7121.320312 0.000000 1.000000 -0.000000 -0.914214 1.914214
-3000.000000 1400.000488 -5000.000000 0.000000 1.000000 -0.000000 -1.500000 0.500000
-2121.320312 1400.000488 -2878.679688 0.000000 1.000000 -0.000000 -0.914214 -0.914214
0.000262 1400.000488 -2000.000000 0.000000 1.000000 -0.000000 0.500000 -1.500000
2121.320557 1400.000488 -2878.679932 0.000000 1.000000 -0.000000 1.914214 -0.914213
3000.000000 1400.000488 -5000.000000 0.000000 1.000000 -0.000000 2.500000 0.500000
2121.320557 1400.000488 -7121.320312 0.000000 1.000000 -0.000000 1.914214 1.914213
8 0 1 2 3 4 5 6 7
