ply
format ascii 1.0
comment Created by Blender 2.83.5 - www.blender.org, source file: 'stage2.blend'
element vertex 32
property float x
property float y
property float z
property float nx
property float ny
property float nz
property float s
property float t
element face 8
property list uchar uint vertex_indices
end_header
0.000000 -2599.999512 -8000.000000 -0.382683 0.000000 -0.923880 1.000000 1.000000
-2121.320312 -2599.999512 -7121.320312 -0.382683 0.000000 -0.923880 0.000094 1.000000
-2121.320312 1400.000488 -7121.320312 -0.382683 0.000000 -0.923880 0.000093 0.000107
0.000000 1400.000488 -8000.000000 -0.382683 0.000000 -0.923880 1.000000 0.000107
2121.320557 -2599.999512 -7121.320312 0.382683 0.000000 -0.923880 1.000000 1.000000
0.000000 -2599.999512 -8000.000000 0.382683 0.000000 -0.923880 0.000000 1.000000
0.000000 1400.000488 -8000.000000 0.382683 0.000000 -0.923880 0.000000 0.000000
2121.320557 1400.000488 -7121.320312 0.382683 0.000000 -0.923880 1.000000 0.000000
2121.320557 -2599.999512 -2878.679932 0.923880 0.000000 0.382683 1.000000 1.000000
3000.000000 -2599.999512 -5000.000000 0.923880 0.000000 0.382683 0.000093 1.000000
3000.000000 1400.000488 -5000.000000 0.923880 0.000000 0.382683 0.000094 0.000107
2121.320557 1400.000488 -2878.679932 0.923880 0.000000 0.382683 1.000000 0.000107
-2121.320312 -2599.999512 -2878.679688 -0.382683 0.000000 0.923880 1.000000 1.000000
0.000262 -2599.999512 -2000.000000 -0.382683 0.000000 0.923880 0.000093 1.000000
0.000262 1400.000488 -2000.000000 -0.382683 0.000000 0.923880 0.000093 0.000107
-2121.320312 1400.000488 -2878.679688 -0.382683 0.000000 0.923880 1.000000 0.000107
-2121.320312 -2599.999512 -7121.320312 -0.923880 0.000000 -0.382683 1.000000 1.000000
-3000.000000 -2599.999512 -5000.000000 -0.923880 0.000000 -0.382683 0.000094 1.000000
-3000.000000 1400.000488 -5000.000000 -0.923880 0.000000 -0.382683 0.000093 0.000107
-2121.320312 1400.000488 -7121.320312 -0.923880 0.000000 -0.382683 1.000000 0.000107
3000.000000 -2599.999512 -5000.000000 0.923880 0.000000 -0.382683 1.000000 1.000000
2121.320557 -2599.999512 -7121.320312 0.923880 0.000000 -0.382683 0.000094 1.000000
2121.320557 1400.000488 -7121.320312 0.923880 0.000000 -0.382683 0.000093 0.000107
3000.000000 1400.000488 -5000.000000 0.923880 0.000000 -0.382683 1.000000 0.000107
0.000262 -2599.999512 -2000.000000 0.382684 0.000000 0.923879 1.000000 1.000000
2121.320557 -2599.999512 -2878.679932 0.382684 0.000000 0.923879 0.000000 1.000000
2121.320557 1400.000488 -2878.679932 0.382684 0.000000 0.923879 0.000000 0.000000
0.000262 1400.000488 -2000.000000 0.382684 0.000000 0.923879 1.000000 0.000000
-3000.000000 -2599.999512 -5000.000000 -0.923880 0.000000 0.382683 1.000000 1.000000
-2121.320312 -2599.999512 -2878.679688 -0.923880 0.000000 0.382683 0.000000 1.000000
-2121.320312 1400.000488 -2878.679688 -0.923880 0.000000 0.382683 0.000000 0.000000
-3000.000000 1400.000488 -5000.000000 -0.923880 0.000000 0.382683 1.000000 0.000000
4 0 1 2 3
4 4 5 6 7
4 8 9 10 11
4 12 13 14 15
4 16 17 18 19
4 20 21 22 23
4 24 25 26 27
4 28 29 30 31
