ply
format ascii 1.0
comment Created by Blender 2.83.5 - www.blender.org, source file: 'stage2.blend'
element vertex 24
property float x
property float y
property float z
property float nx
property float ny
property float nz
property float s
property float t
element face 9
property list uchar uint vertex_indices
end_header
-3500.000000 -599.999756 150.000336 0.000000 0.707083 0.707083 3.000000 0.857143
-3500.000000 -599.999756 -149.999664 0.000000 0.707083 -0.707083 2.999998 2.142858
-4200.000000 -599.999756 -149.999786 0.000000 0.707083 -0.707083 0.000000 2.142857
-4200.000000 -599.999756 150.000092 0.000000 0.707083 0.707083 0.000002 0.857143
-500.000000 -600.000000 150.000000 0.000000 0.707083 0.707083 9.000000 0.857149
-500.000000 -599.999634 -149.999420 0.000000 0.707083 -0.707083 9.000000 2.142856
-2200.000000 -599.999634 -149.999664 0.000000 0.707083 -0.707083 0.000001 2.142860
-2200.000000 -599.999634 150.000092 0.000000 0.707083 0.707083 -0.000000 0.857148
-3500.000000 -799.999756 -149.999649 0.000000 0.000000 -1.000000 2.999999 3.000000
-4200.000000 -799.999756 -149.999771 0.000000 0.000000 -1.000000 0.000002 3.000000
-4200.000000 -799.999756 150.000107 0.000000 0.000000 1.000000 0.000002 0.000001
-3500.000000 -799.999756 150.000351 0.000000 0.000000 1.000000 2.999999 0.000000
-500.000000 -799.999634 -149.999405 0.000000 0.000000 -1.000000 9.000000 2.999996
-2200.000000 -799.999634 -149.999649 0.000000 0.000000 -1.000000 0.000003 3.000000
-2200.000000 -799.999634 150.000107 0.000000 0.000000 0.999969 0.000003 0.000000
-500.000000 -800.000000 150.000015 0.000000 0.000000 1.000000 9.000000 0.000009
6700.000000 -599.999634 150.000336 0.000000 0.707083 0.707083 3.000000 0.857143
6700.000000 -599.999634 -149.999664 0.000000 0.707083 -0.707083 2.999998 2.142858
6000.000000 -599.999634 -149.999786 0.000000 0.707083 -0.707083 0.000000 2.142857
6000.000000 -599.999634 150.000092 0.000000 0.707083 0.707083 0.000002 0.857143
6700.000000 -799.999634 -149.999649 0.000000 0.000000 -1.000000 2.999999 3.000000
6000.000000 -799.999634 -149.999771 0.000000 0.000000 -1.000000 0.000002 3.000000
6000.000000 -799.999634 150.000107 0.000000 0.000000 1.000000 0.000002 0.000001
6700.000000 -799.999634 150.000351 0.000000 0.000000 1.000000 2.999999 0.000000
4 0 1 2 3
4 4 5 6 7
4 8 9 2 1
4 10 11 0 3
4 12 13 6 5
4 14 15 4 7
4 16 17 18 19
4 20 21 18 17
4 22 23 16 19
