# Blender v2.83.5 OBJ File: 'stage2.blend'
# www.blender.org
mtllib map.mtl
o 10
v 3400.000000 -2999.999756 150.000000
v 4800.000000 -2999.999756 150.000000
v 3400.000000 -2999.999756 -150.000000
v 4800.000000 -2999.999756 -150.000000
v -4500.000000 -2999.999756 -500.000000
v 4500.000000 -2999.999756 -500.000000
v -4500.000000 -2999.999756 -9500.000000
v 4500.000000 -2999.999756 -9500.000000
vt 0.000000 0.000000
vt 1.000000 0.000000
vt 1.000000 1.000000
vt 0.000000 1.000000
vt 0.000000 0.000000
vt 0.000000 0.000000
vt 0.000000 0.000000
vt 0.000000 0.000000
vn 0.0000 1.0000 0.0000
usemtl None
s off
f 1/1/1 2/2/1 4/3/1 3/4/1
f 5/5/1 6/6/1 8/7/1 7/8/1
o 1
v -4200.000000 -799.999756 150.000107
v -3500.000000 -799.999756 150.000351
v -2200.000000 -799.999634 150.000107
v -3500.000000 -799.999756 -149.999649
v -4200.000000 -799.999756 -149.999771
v -2200.000000 -799.999634 -149.999649
v -500.000000 -800.000000 150.000015
v -500.000000 -799.999634 -149.999405
v -4200.000000 -599.999756 150.000092
v -3500.000000 -599.999756 150.000336
v -3500.000000 -599.999756 -149.999664
v -4200.000000 -599.999756 -149.999786
v -2200.000000 -599.999634 150.000092
v -2200.000000 -599.999634 -149.999664
v -500.000000 -600.000000 150.000000
v -500.000000 -599.999634 -149.999420
v 6000.000000 -799.999634 150.000107
v 6700.000000 -799.999634 150.000351
v 6700.000000 -799.999634 -149.999649
v 6000.000000 -799.999634 -149.999771
v 6000.000000 -599.999634 150.000092
v 6700.000000 -599.999634 150.000336
v 6700.000000 -599.999634 -149.999664
v 6000.000000 -599.999634 -149.999786
vt 3.000000 0.857143
vt 2.999998 2.142858
vt 0.000000 2.142857
vt 0.000002 0.857143
vt 9.000000 0.857149
vt 9.000000 2.142856
vt 0.000001 2.142860
vt -0.000000 0.857148
vt 2.999999 3.000000
vt 0.000002 3.000000
vt 0.000002 0.000001
vt 2.999999 0.000000
vt 9.000000 2.999996
vt 0.000003 3.000000
vt 0.000003 0.000000
vt 9.000000 0.000009
vt 3.000000 0.857143
vt 2.999998 2.142858
vt 0.000000 2.142857
vt 0.000002 0.857143
vt 2.999999 3.000000
vt 0.000002 3.000000
vt 0.000002 0.000001
vt 2.999999 0.000000
vn 0.0000 1.0000 0.0000
vn 0.0000 -0.0000 -1.0000
vn -0.0000 0.0000 1.0000
usemtl None
s 1
f 18/9/2 19/10/2 20/11/2 17/12/2
f 23/13/2 24/14/2 22/15/2 21/16/2
f 12/17/3 13/18/3 20/11/3 19/10/3
f 9/19/4 10/20/4 18/9/4 17/12/4
f 16/21/3 14/22/3 22/15/3 24/14/3
f 11/23/4 15/24/4 23/13/4 21/16/4
f 30/25/2 31/26/2 32/27/2 29/28/2
f 27/29/3 28/30/3 32/27/3 31/26/3
f 25/31/4 26/32/4 30/25/4 29/28/4
o 0
v 6850.000000 200.001221 -4500.000000
v 6850.000000 1200.001221 -4500.000000
v 7850.000000 200.001221 -4500.000000
v 7850.000000 1200.001221 -4500.000000
v 6850.000000 1200.001221 -5500.000000
v 6850.000000 200.001221 -5500.000000
v 7850.000000 200.001221 -5500.000000
v 7850.000000 1200.001221 -5500.000000
v -4200.000000 -799.999756 150.000107
v -4200.000000 -299.999786 150.000107
v -7000.000000 -299.999908 150.000107
v -7000.000000 -799.999878 150.000107
v -3500.000000 -799.999756 150.000351
v -2200.000000 -799.999634 150.000107
v -2200.000000 100.000275 150.000122
v -3500.000000 100.000214 150.000122
v -8000.000000 -799.999939 150.000107
v -7200.000000 0.000059 150.000061
v -8000.000000 -0.000002 150.000000
v -7000.000000 -199.999908 150.000107
v -7100.000000 -199.999908 150.000046
v -7100.000000 -99.999924 150.000061
v -7200.000000 -99.999924 150.000061
v -8000.000000 0.000011 -150.000000
v -7200.000000 0.000072 -149.999878
v -7100.000000 -99.999924 -149.999939
v -7200.000000 -99.999924 -149.999878
v -7100.000000 -199.999939 -149.999954
v -7000.000000 -199.999939 -149.999954
v -7000.000000 -299.999908 -149.999954
v -8000.000000 -799.999939 -149.999893
v -7000.000000 -799.999878 -149.999893
v -4200.000000 -299.999786 -149.999771
v -3500.000000 -799.999756 -149.999649
v -4200.000000 -799.999756 -149.999771
v -2200.000000 100.000290 -149.999634
v -3500.000000 100.000229 -149.999878
v -2200.000000 -799.999634 -149.999649
v -500.000000 -800.000000 150.000015
v -500.000000 -799.999634 -149.999405
v -500.000000 -300.000000 150.000000
v -500.000000 -299.999634 -149.999405
v 600.000000 -299.999573 -149.999405
v 600.000000 -299.999573 150.000595
v 600.000000 1400.000244 150.000183
v 600.000000 1400.000244 -149.999817
v 100.000000 100.000381 -149.999390
v 100.000000 100.000366 150.000610
v -200.000000 100.000366 150.000610
v -200.000000 100.000381 -149.999390
v 100.000000 2200.000244 -149.999817
v -200.000000 2200.000244 -149.999817
v -200.000000 2200.000244 150.000183
v 100.000000 2200.000244 150.000183
v 3400.000000 -299.999573 150.000595
v 3400.000000 1400.000366 150.000183
v 3400.000000 -299.999573 -149.999405
v 3400.000000 1400.000366 -149.999817
v 3400.000000 -800.000000 150.000610
v 3400.000000 -800.000000 -149.999390
v 6000.000000 100.000381 -149.999390
v 6000.000000 100.000366 150.000610
v 4700.000000 100.000366 150.000610
v 4700.000000 100.000381 -149.999390
v 6000.000000 2400.000244 -149.999817
v 4700.000000 2400.000244 -149.999817
v 4700.000000 2400.000244 150.000183
v 6000.000000 2400.000244 150.000183
v 6700.000000 -799.999634 150.000351
v 8000.000000 -799.999512 150.000107
v 8000.000000 1200.000610 150.000122
v 6700.000000 1200.000488 150.000122
v 6700.000000 -799.999634 -149.999649
v 8000.000000 1200.000610 -149.999634
v 6700.000000 1200.000488 -149.999878
v 8000.000000 -799.999512 -149.999649
v 5700.000000 -599.999512 150.000107
v 5700.000000 -799.999512 150.000107
v 4700.000000 -799.999512 150.000107
v 5500.000000 -299.999573 150.000061
v 4700.000000 -299.999634 150.000000
v 5700.000000 -499.999542 150.000122
v 5600.000000 -499.999542 150.000061
v 5600.000000 -399.999542 150.000061
v 5500.000000 -399.999542 150.000061
v 4700.000000 -299.999634 -150.000000
v 5500.000000 -299.999573 -149.999878
v 5600.000000 -399.999573 -149.999939
v 5500.000000 -399.999573 -149.999878
v 5600.000000 -499.999573 -149.999939
v 5700.000000 -499.999573 -149.999939
v 5700.000000 -599.999512 -149.999954
v 4700.000000 -799.999512 -149.999893
v 5700.000000 -799.999512 -149.999893
v 6000.000000 -799.999512 150.000107
v 6000.000000 -799.999512 -149.999893
v 6000.000000 -599.999512 150.000107
v 6000.000000 -599.999512 -149.999954
v 0.000000 -2599.999512 -8000.000000
v -2121.320312 -2599.999512 -7121.320312
v -3000.000000 -2599.999512 -5000.000000
v -2121.320312 -2599.999512 -2878.679688
v 0.000262 -2599.999512 -2000.000000
v 2121.320557 -2599.999512 -2878.679932
v 3000.000000 -2599.999512 -5000.000000
v 2121.320557 -2599.999512 -7121.320312
v -3000.000000 1400.000488 -5000.000000
v 3000.000000 1400.000488 -5000.000000
v 2121.320557 1400.000488 -7121.320312
v -2121.320312 1400.000488 -7121.320312
v 0.000000 1400.000488 -8000.000000
v -2121.320312 1400.000488 -2878.679688
v 0.000262 1400.000488 -2000.000000
v 2121.320557 1400.000488 -2878.679932
v 6850.000000 1200.000610 -4750.000000
v 2850.000000 700.000610 -4750.000000
v 2850.000000 1200.000610 -4750.000000
v 2850.000000 700.000610 -5250.000000
v 2850.000000 1200.000610 -5250.000000
v 6850.000000 700.000610 -4750.000000
v 6850.000000 700.000610 -5250.000000
v 6850.000000 1200.000610 -5250.000000
v 7600.000000 1200.000610 -150.000000
v 7600.000000 700.000610 -4500.000000
v 7100.000000 700.000610 -150.000000
v 7100.000000 1200.000610 -150.000000
v 7100.000000 1200.000610 -4500.000000
v 7600.000000 700.000610 -150.000000
v 7600.000000 1200.000610 -4500.000000
v 7100.000000 700.000610 -4500.000000
vt 0.000100 0.000100
vt 0.999900 0.000100
vt 0.999900 0.999900
vt 0.000100 0.999900
vt 0.999900 0.000100
vt 0.999900 0.999900
vt 0.000100 0.999900
vt 0.000100 0.000100
vt 0.000100 0.999900
vt 0.000100 0.000100
vt 0.999900 0.000100
vt 0.999900 0.000100
vt 0.999900 0.999900
vt 0.000100 0.999900
vt 0.000100 0.000100
vt 0.999900 0.999900
vt 0.999900 0.000100
vt 0.999900 0.999900
vt 0.000100 0.999900
vt 0.000100 0.000100
vt 1.000000 1.000000
vt 0.000094 1.000000
vt 0.000093 0.000107
vt 1.000000 0.000107
vt 1.000000 1.000000
vt 0.000000 1.000000
vt 0.000000 0.000000
vt 1.000000 0.000000
vt 1.000000 1.000000
vt 0.000093 1.000000
vt 0.000094 0.000107
vt 1.000000 0.000107
vt 1.000000 1.000000
vt 0.000093 1.000000
vt 0.000093 0.000107
vt 1.000000 0.000107
vt 1.000000 1.000000
vt 0.000094 1.000000
vt 0.000093 0.000107
vt 1.000000 0.000107
vt 1.000000 1.000000
vt 0.000094 1.000000
vt 0.000093 0.000107
vt 1.000000 0.000107
vt 1.000000 1.000000
vt 0.000000 1.000000
vt 0.000000 0.000000
vt 1.000000 0.000000
vt 1.000000 1.000000
vt 0.000000 1.000000
vt 0.000000 0.000000
vt 1.000000 0.000000
vt 0.500000 2.500000
vt -0.914214 1.914214
vt -1.500000 0.500000
vt -0.914214 -0.914214
vt 0.500000 -1.500000
vt 1.914214 -0.914213
vt 2.500000 0.500000
vt 1.914214 1.914213
vt 1.000000 10.000000
vt 0.000000 10.000002
vt 0.000000 0.000000
vt 1.000000 0.000000
vt 0.000000 0.000000
vt 1.000000 0.000000
vt 1.000000 10.000000
vt 0.000000 10.000000
vt 0.000000 10.000000
vt 0.000000 0.000000
vt 1.000000 0.000000
vt 1.000000 10.000000
vt 0.999714 0.000000
vt 0.999713 9.999651
vt 0.000000 9.999651
vt 0.000000 0.000000
vt 0.999695 11.000001
vt 0.000000 11.000001
vt 0.000000 0.000362
vt 0.999697 0.000363
vt 0.000002 0.000000
vt 1.000000 0.000001
vt 1.000000 10.999999
vt 0.000000 10.999999
vt 0.999998 11.000000
vt 0.000000 11.000000
vt 0.000001 0.000001
vt 1.000000 0.000000
vt 0.999998 11.000000
vt 0.000000 10.999999
vt 0.000000 0.000000
vt 1.000000 0.000000
vt 55.999996 0.000000
vt 56.000000 5.000000
vt 0.000000 4.999992
vt 0.000000 0.000000
vt 0.000000 0.000000
vt 26.000000 0.000002
vt 26.000000 9.000000
vt 0.000000 8.999998
vt 0.000020 0.000001
vt 15.999993 8.000001
vt 0.000000 7.999996
vt 19.999992 4.000003
vt 17.999992 4.000006
vt 20.000000 2.999999
vt 17.999992 5.000000
vt 15.999993 4.999996
vt 15.999993 6.999996
vt 17.999992 6.000006
vt 20.000000 4.999999
vt 19.999998 0.000000
vt 76.000000 -0.000005
vt 76.000000 2.999995
vt 60.000000 3.000000
vt 60.000000 -0.000005
vt 58.000008 -0.000005
vt 60.000000 -0.000005
vt 60.000000 3.000000
vt 58.000008 3.000000
vt 0.000001 2.000000
vt 5.999998 2.000000
vt 5.999998 3.000000
vt 0.000000 3.000000
vt 5.999999 1.000000
vt 6.000000 2.000000
vt 0.000001 2.000000
vt 0.000000 1.000000
vt 58.000008 3.000000
vt 56.000004 3.000000
vt 56.000004 -0.000005
vt 58.000008 -0.000005
vt 5.999999 0.000000
vt 5.999999 1.000000
vt 0.000000 1.000000
vt 0.000000 0.000000
vt 4.000031 8.000000
vt 19.999977 0.000000
vt 20.000000 7.999979
vt 4.000022 6.999997
vt 2.000013 5.999999
vt 0.000005 4.999995
vt 0.000005 2.999995
vt 2.000013 3.999999
vt 0.000005 4.000003
vt 2.000018 5.000002
vt 4.000022 4.999997
vt -0.000000 0.000001
vt 0.000000 -0.000005
vt 56.000004 -0.000005
vt 56.000004 3.000000
vt 0.000000 3.000000
vt 0.000848 0.000212
vt 5.999999 0.000212
vt 5.999998 4.999787
vt 0.000850 4.999788
vt 55.999996 0.001296
vt 55.999996 5.000000
vt 0.001157 4.999996
vt 0.001157 0.001304
vt 26.000000 0.000000
vt 26.000000 2.999996
vt -0.000001 3.000000
vt 0.000004 0.000000
vt 6.000000 8.999999
vt 0.000651 9.000000
vt 0.000648 0.000649
vt 6.000000 0.000648
vt 0.001349 0.001349
vt 25.999998 0.001350
vt 25.999998 9.000001
vt 0.001349 8.999998
vt 0.000002 9.000000
vt 0.000000 0.000000
vt 6.000000 0.000000
vt 5.999999 9.000000
vt 5.999990 5.000000
vt 0.000001 5.000000
vt 0.000001 0.000000
vt 6.000000 0.000000
vt 22.000000 3.000000
vt 0.000000 3.000000
vt 0.000000 0.000002
vt 22.000000 -0.000000
vt -0.000006 -0.000001
vt 6.000000 -0.000002
vt 5.999996 17.000000
vt -0.000006 17.000000
vt 6.000001 0.000001
vt 6.000001 3.000000
vt -0.000001 3.000000
vt 0.000000 0.000000
vt 5.999400 0.000600
vt 5.999400 7.999397
vt 0.000602 7.999398
vt 0.000600 0.000601
vt 6.000000 3.000000
vt 0.000001 3.000000
vt 0.000001 0.000001
vt 6.000000 0.000002
vt 0.000002 0.000002
vt 6.000000 0.000001
vt 5.999998 21.000000
vt 0.000005 21.000000
vt 0.000000 0.000000
vt 5.999995 21.000000
vt 0.000002 20.999998
vt 0.000883 0.000884
vt 6.000000 0.000883
vt 5.999999 21.000000
vt 0.000887 21.000000
vt -0.000000 0.000000
vt 6.000000 0.000000
vt 5.999997 21.000000
vt 0.000002 21.000000
vt 0.000001 16.999998
vt 0.000005 -0.000000
vt 56.000000 -0.000000
vt 56.000000 17.000000
vt 55.999996 0.000000
vt 56.000000 16.999996
vt 0.000002 17.000000
vt -0.000001 0.000000
vt 56.000000 2.999998
vt 0.000001 3.000000
vt 0.000001 0.000001
vt 56.000000 0.000000
vt 78.000000 0.000001
vt 78.000000 5.000000
vt 0.000004 4.999998
vt 0.000003 0.000002
vt 5.999988 22.000000
vt 0.000010 21.999998
vt 0.000000 0.000001
vt 6.000000 0.000000
vt -0.000002 0.000000
vt 78.000000 0.000004
vt 78.000000 5.000000
vt 0.000000 5.000000
vt 26.000000 0.000001
vt 26.000000 3.000000
vt -0.000001 3.000000
vt 0.000000 0.000000
vt 26.000000 3.000000
vt 0.000001 3.000000
vt 0.000001 0.000001
vt 26.000000 0.000002
vt 0.000002 0.000002
vt 26.000000 0.000001
vt 25.999998 23.000000
vt 0.000005 23.000000
vt 0.000000 0.000000
vt 6.000000 0.000002
vt 5.999995 23.000000
vt 0.000002 22.999998
vt 0.000883 0.000884
vt 6.000000 0.000883
vt 5.999999 23.000000
vt 0.000887 23.000000
vt -0.000000 0.000000
vt 26.000000 0.000000
vt 25.999996 23.000000
vt 0.000002 23.000000
vt 0.000424 3.000000
vt 0.000424 0.000424
vt 5.999576 0.000424
vt 5.999576 3.000000
vt 6.000010 3.000001
vt 6.000000 1.999999
vt 7.999999 2.999998
vt 0.000000 0.000000
vt 26.000000 0.000002
vt 26.000000 20.000000
vt 0.000000 19.999998
vt 26.000000 0.000000
vt 26.000000 2.999996
vt -0.000001 3.000000
vt 0.000004 0.000000
vt 6.000000 20.000000
vt 0.000651 20.000000
vt 0.000648 0.000649
vt 6.000000 0.000648
vt 0.001349 0.001349
vt 25.999998 0.001350
vt 25.999996 20.000000
vt 0.001349 19.999998
vt 0.000002 20.000000
vt 0.000000 0.000000
vt 6.000000 0.000000
vt 5.999999 20.000000
vt 0.000000 0.000001
vt 15.999990 5.000000
vt 0.000000 4.999995
vt 19.999998 3.000000
vt 17.999998 3.000000
vt 19.999998 2.000000
vt 17.999998 4.000005
vt 15.999991 4.000004
vt 19.999998 0.000000
vt 76.000000 -0.000005
vt 76.000000 2.999995
vt 60.000000 3.000000
vt 60.000000 -0.000005
vt 58.000008 -0.000005
vt 60.000000 -0.000005
vt 60.000000 3.000000
vt 58.000008 3.000000
vt 0.000001 2.000000
vt 5.999998 2.000000
vt 5.999998 3.000000
vt 0.000000 3.000000
vt 5.999999 1.000000
vt 6.000000 2.000000
vt 0.000001 2.000000
vt 0.000000 1.000000
vt 58.000008 3.000000
vt 56.000004 3.000000
vt 56.000004 -0.000005
vt 58.000008 -0.000005
vt 5.999999 0.000000
vt 5.999999 1.000000
vt 0.000000 1.000000
vt 0.000000 0.000000
vt 10.000008 5.000000
vt 26.000000 0.000008
vt 25.999998 5.000000
vt 10.000008 4.000003
vt 8.000011 4.000000
vt 6.000010 0.000000
vt 5.999999 -0.000000
vt 6.000000 4.999999
vt 0.000003 5.000000
vt 0.000001 0.000001
vt 0.000000 1.999996
vt 0.000009 0.000000
vt 25.999996 0.000000
vt 25.999996 1.999999
vn 0.0000 1.0000 0.0000
vn 0.0000 0.0000 -1.0000
vn 1.0000 0.0000 0.0000
vn 0.0000 -1.0000 0.0000
vn -1.0000 0.0000 0.0000
vn 0.0000 0.0000 1.0000
vn -0.3827 0.0000 -0.9239
vn 0.3827 0.0000 -0.9239
vn 0.9239 0.0000 0.3827
vn -0.3827 0.0000 0.9239
vn -0.9239 0.0000 -0.3827
vn 0.9239 0.0000 -0.3827
vn 0.3827 0.0000 0.9239
vn -0.9239 0.0000 0.3827
vn 0.7071 0.0000 0.7071
vn 0.5773 0.5773 0.5773
vn 0.3015 0.3015 0.9045
vn -0.7071 0.0000 0.7071
vn -0.5773 0.5773 0.5773
vn -0.5773 0.5773 -0.5773
vn 0.5773 0.5773 -0.5773
vn 0.3015 0.3015 -0.9045
vn -0.7071 0.0000 -0.7071
vn 0.7071 0.0000 -0.7071
vn 0.5773 -0.5773 -0.5773
vn 0.5773 -0.5773 0.5773
vn -0.5773 -0.5773 0.5773
vn -0.5773 -0.5773 -0.5773
vn 0.0000 0.7071 0.7071
vn 0.0000 0.7071 -0.7071
usemtl None
s off
f 34/33/5 36/34/5 40/35/5 37/36/5
f 38/37/6 37/38/6 40/39/6 39/40/6
f 36/41/7 35/42/7 39/43/7 40/35/7
f 35/42/8 33/44/8 38/45/8 39/46/8
f 38/47/9 33/44/9 34/48/9 37/36/9
f 35/49/10 36/50/10 34/51/10 33/52/10
f 131/53/11 132/54/11 142/55/11 143/56/11
f 138/57/12 131/58/12 143/59/12 141/60/12
f 136/61/13 137/62/13 140/63/13 146/64/13
f 134/65/14 135/66/14 145/67/14 144/68/14
f 132/69/15 133/70/15 139/71/15 142/72/15
f 137/73/16 138/74/16 141/75/16 140/76/16
f 135/77/17 136/78/17 146/79/17 145/80/17
f 133/81/18 134/82/18 144/83/18 139/84/18
f 143/85/5 142/86/5 139/87/5 144/88/5 145/89/5 146/90/5 140/91/5 141/92/5
f 150/93/6 151/94/6 154/95/6 153/96/6
f 152/97/10 147/98/10 149/99/10 148/100/10
f 150/101/8 153/102/8 152/103/8 148/104/8
f 154/105/5 151/106/5 149/107/5 147/108/5
f 156/109/7 161/110/7 155/111/7 160/112/7
f 157/113/9 158/114/9 159/115/9 162/116/9
f 162/117/8 156/118/8 160/119/8 157/120/8
f 161/121/5 159/122/5 158/123/5 155/124/5
s 1
f 41/125/19 42/126/20 43/127/21 44/128/10
f 45/129/22 46/130/19 47/131/20 48/132/23
f 49/133/22 50/134/20 51/135/23
f 52/136/20 53/137/21 43/138/21
f 54/139/20 55/140/21 53/137/21
f 49/133/22 55/141/21 50/134/20
f 55/141/21 49/133/22 53/142/21
f 53/142/21 49/133/22 43/143/21
f 44/144/10 43/143/21 49/133/22
f 56/145/24 51/146/23 50/147/20 57/148/25
f 58/149/25 59/150/26 55/151/21 54/152/20
f 55/153/21 59/154/26 57/155/25 50/156/20
f 60/157/26 58/158/25 54/159/20 53/160/21
f 53/161/21 52/162/20 61/163/25 60/164/26
f 62/165/26 61/166/25 52/167/20 43/168/21
f 57/169/25 63/170/27 56/171/24
f 57/169/25 59/172/26 63/170/27
f 60/173/26 63/170/27 59/172/26
f 62/174/26 63/170/27 60/173/26
f 62/175/26 60/176/26 61/177/25
f 58/178/25 60/176/26 59/179/26
f 64/180/6 63/170/27 62/174/26
f 65/181/25 62/182/26 43/183/21 42/184/20
f 41/185/19 67/186/28 65/187/25 42/188/20
f 64/189/6 62/190/26 65/191/25 67/192/28
f 47/193/20 68/194/25 69/195/24 48/196/23
f 48/197/23 69/198/24 66/199/27 45/200/22
f 70/201/28 66/202/27 69/203/24 68/204/25
f 47/205/20 46/206/19 70/207/28 68/208/25
f 73/209/23 74/210/24 72/211/27 71/212/22
f 75/213/24 74/214/24 73/215/23 76/216/23
f 75/217/24 76/218/23 77/219/23 78/220/24
f 79/221/29 80/222/30 81/223/31 82/224/32
f 49/225/22 51/226/23 56/227/24 63/228/27
f 83/229/25 84/230/24 85/231/23 86/232/20
f 81/233/31 80/234/30 86/235/20 85/236/23
f 80/237/30 79/221/29 83/238/25 86/239/20
f 82/240/32 81/241/31 85/242/23 84/243/24
f 79/244/29 82/245/32 84/246/24 83/247/25
f 77/248/23 76/249/23 87/250/10 88/251/20
f 75/252/24 78/253/24 90/254/25 89/255/6
f 90/256/25 78/257/24 77/258/23 88/259/20
f 91/260/19 87/261/10 73/262/23 71/263/22
f 90/264/25 88/265/20 91/266/19 92/267/28
f 92/268/28 72/269/27 74/270/24 89/271/6
f 93/272/29 94/273/30 95/274/31 96/275/32
f 97/276/25 98/277/24 99/278/23 100/279/20
f 95/280/31 94/281/30 100/282/20 99/283/23
f 94/284/30 93/285/29 97/286/25 100/287/20
f 96/288/32 95/289/31 99/290/23 98/291/24
f 93/292/29 96/293/32 98/294/24 97/295/25
f 124/296/26 109/297/21 129/298/33 130/299/34
f 123/300/25 124/301/26 122/302/26
f 101/303/22 102/304/19 103/305/20 104/306/23
f 103/307/20 106/308/25 107/309/24 104/310/23
f 104/311/23 107/312/24 105/313/27 101/314/22
f 108/315/28 105/316/27 107/317/24 106/318/25
f 103/319/20 102/320/19 108/321/28 106/322/25
f 111/323/22 112/324/20 113/325/23
f 114/326/20 115/327/21 109/328/21
f 116/329/20 117/330/21 115/327/21
f 111/323/22 117/330/21 112/324/20
f 117/330/21 111/323/22 115/327/21
f 115/327/21 111/323/22 109/328/21
f 110/331/10 109/328/21 111/323/22
f 118/332/24 113/333/23 112/334/20 119/335/25
f 120/336/25 121/337/26 117/338/21 116/339/20
f 117/340/21 121/341/26 119/342/25 112/343/20
f 122/344/26 120/345/25 116/346/20 115/347/21
f 115/348/21 114/349/20 123/350/25 122/351/26
f 124/352/26 123/353/25 114/354/20 109/355/21
f 119/356/25 125/357/27 118/358/24
f 119/356/25 121/359/26 125/357/27
f 122/302/26 125/357/27 121/359/26
f 124/301/26 125/357/27 122/302/26
f 120/360/25 122/302/26 121/359/26
f 126/361/6 125/357/27 124/301/26
f 111/362/22 113/363/23 118/364/24 125/365/27
f 126/361/6 124/301/26 130/366/34 128/367/6
f 109/328/21 110/331/10 127/368/10 129/369/33
