ply
format ascii 1.0
element vertex 74
property short x
property short y
property short z
property float nx
property float ny
property float nz
element face 48
property list uchar uint vertex_indices
end_header
17 107 -20 -0.9296875 0.3671875 0.0
-1 60 -20 -0.9296875 0.3671875 0.0
-1 60 19 -0.9296875 0.3671875 0.0
17 107 19 -0.9296875 0.3671875 0.0
-1 60 -20 0.8984375 0.421875 0.0
-23 107 -20 0.8984375 0.421875 0.0
-23 107 19 0.8984375 0.421875 0.0
-1 60 19 0.8984375 0.421875 0.0
-23 107 -20 0.015625 0.9921875 0.0
-64 108 -20 0.015625 0.9921875 0.0
-64 108 19 0.015625 0.9921875 0.0
-23 107 19 0.015625 0.9921875 0.0
-64 108 -20 -0.984375 0.1875 0.0
-101 -85 -20 -0.984375 0.1875 0.0
-101 -85 19 -0.984375 0.1875 0.0
-64 108 19 -0.984375 0.1875 0.0
-101 -85 -20 -0.2109375 -0.984375 0.0
-40 -98 -20 -0.2109375 -0.984375 0.0
-40 -98 19 -0.2109375 -0.984375 0.0
-101 -85 19 -0.2109375 -0.984375 0.0
-40 -98 -20 0.9921875 -0.0859375 0.0
-32 9 -20 0.9921875 -0.0859375 0.0
-32 9 19 0.9921875 -0.0859375 0.0
-40 -98 19 0.9921875 -0.0859375 0.0
-32 9 -20 -0.890625 -0.46875 0.0
-2 -46 -20 -0.890625 -0.46875 0.0
-2 -46 19 -0.890625 -0.46875 0.0
-32 9 19 -0.890625 -0.46875 0.0
-2 -46 -20 0.8828125 -0.46875 0.0
29 14 -20 0.8828125 -0.46875 0.0
29 14 19 0.8828125 -0.46875 0.0
-2 -46 19 0.8828125 -0.46875 0.0
29 14 -20 -0.859375 -0.515625 0.0
63 -41 -20 -1.0 -0.0625 0.0
63 -41 19 -0.9609375 -0.3046875 0.0
29 14 19 -0.859375 -0.515625 0.0
54 -93 -20 -0.984375 0.171875 0.0
54 -93 19 -0.984375 0.171875 0.0
54 -93 -20 0.4375 -0.8984375 0.0
119 -61 -20 0.4375 -0.8984375 0.0
119 -61 19 0.4375 -0.8984375 0.0
54 -93 19 0.4375 -0.8984375 0.0
119 -61 -20 0.9375 0.3359375 0.0
64 89 -20 0.6015625 0.7890625 0.0
64 89 19 0.8125 0.578125 0.0
119 -61 19 0.9375 0.3359375 0.0
17 107 -20 0.3671875 0.921875 0.0
17 107 19 0.3671875 0.921875 0.0
17 107 -20 0.0 0.0 -1.0
64 89 -20 0.0 0.0 -1.0
119 -61 -20 0.0 0.0 -1.0
54 -93 -20 0.0 0.0 -1.0
63 -41 -20 0.0 0.0 -1.0
29 14 -20 0.0 0.0 -1.0
-2 -46 -20 0.0 0.0 -1.0
-32 9 -20 0.0 0.0 -1.0
-40 -98 -20 0.0 0.0 -1.0
-101 -85 -20 0.0 0.0 -1.0
-64 108 -20 0.0 0.0 -1.0
-23 107 -20 0.0 0.0 -1.0
-1 60 -20 0.0 0.0 -1.0
-1 60 19 0.0 0.0 0.9921875
-23 107 19 0.0 0.0 0.9921875
-64 108 19 0.0 0.0 0.9921875
-101 -85 19 0.0 0.0 0.9921875
-40 -98 19 0.0 0.0 0.9921875
-32 9 19 0.0 0.0 0.9921875
-2 -46 19 0.0 0.0 0.9921875
29 14 19 0.0 0.0 0.9921875
63 -41 19 0.0 0.0 0.9921875
54 -93 19 0.0 0.0 0.9921875
119 -61 19 0.0 0.0 0.9921875
64 89 19 0.0 0.0 0.9921875
17 107 19 0.0 0.0 0.9921875
3 0 1 2
3 0 2 3
3 4 5 6
3 4 6 7
3 8 9 10
3 8 10 11
3 12 13 14
3 12 14 15
3 16 17 18
3 16 18 19
3 20 21 22
3 20 22 23
3 24 25 26
3 24 26 27
3 28 29 30
3 28 30 31
3 32 33 34
3 32 34 35
3 33 36 37
3 33 37 34
3 38 39 40
3 38 40 41
3 42 43 44
3 42 44 45
3 43 46 47
3 43 47 44
3 48 49 50
3 50 51 52
3 50 52 53
3 53 54 55
3 55 56 57
3 55 57 58
3 55 58 59
3 55 59 60
3 60 48 50
3 60 50 53
3 60 53 55
3 61 62 63
3 61 63 64
3 64 65 66
3 66 67 68
3 69 70 71
3 69 71 72
3 69 72 73
3 61 64 66
3 61 66 68
3 68 69 73
3 68 73 61
