ply
format ascii 1.0
element vertex 78
property short x
property short y
property short z
property float nx
property float ny
property float nz
element face 56
property list uchar uint vertex_indices
end_header
-60 95 -20 -1.0 0.0 0.0
-61 -92 -20 -1.0 0.0 0.0
-61 -92 19 -1.0 0.0 0.0
-60 95 19 -1.0 0.0 0.0
-61 -92 -20 -0.015625 -1.0 0.0
-17 -92 -20 -0.015625 -1.0 0.0
-17 -92 19 -0.015625 -1.0 0.0
-61 -92 19 -0.015625 -1.0 0.0
-17 -92 -20 0.9921875 -0.0078125 0.0
-17 -40 -20 0.9921875 -0.0078125 0.0
-17 -40 19 0.9921875 -0.0078125 0.0
-17 -92 19 0.9921875 -0.0078125 0.0
-17 -40 -20 -0.6953125 -0.7265625 0.0
40 -95 -20 -0.6953125 -0.7265625 0.0
40 -95 19 -0.6953125 -0.7265625 0.0
-17 -40 19 -0.6953125 -0.7265625 0.0
40 -95 -20 0.640625 -0.7734375 0.0
85 -57 -20 0.640625 -0.7734375 0.0
85 -57 19 0.640625 -0.7734375 0.0
40 -95 19 0.640625 -0.7734375 0.0
85 -57 -20 0.5859375 0.8046875 0.0
35 -20 -20 0.5859375 0.8046875 0.0
35 -20 19 0.5859375 0.8046875 0.0
85 -57 19 0.5859375 0.8046875 0.0
35 -20 -20 0.546875 -0.8359375 0.0
64 -1 -20 0.9375 -0.34375 0.0
64 -1 19 0.7734375 -0.6328125 0.0
35 -20 19 0.546875 -0.8359375 0.0
66 58 -20 0.9921875 -0.0390625 0.0
66 58 19 0.9921875 -0.0390625 0.0
66 58 -20 0.5234375 0.84375 0.0
6 95 -20 0.1796875 0.9765625 0.0
6 95 19 0.359375 0.9296875 0.0
66 58 19 0.5234375 0.84375 0.0
-60 95 -20 0.0 0.9921875 0.0
-60 95 19 0.0 0.9921875 0.0
-16 -1 -20 0.96875 0.234375 0.0
-12 50 -20 0.9921875 -0.0625 0.0
-12 50 19 0.9921875 -0.0625 0.0
-16 -1 19 0.8359375 0.5390625 0.0
-12 50 -20 -0.609375 -0.796875 0.0
20 24 -20 -0.609375 -0.796875 0.0
20 24 19 -0.609375 -0.796875 0.0
-12 50 19 -0.609375 -0.796875 0.0
20 24 -20 -0.875 0.4921875 0.0
-1 -14 -20 -0.875 0.4921875 0.0
-1 -14 19 -0.875 0.4921875 0.0
20 24 19 -0.875 0.4921875 0.0
-1 -14 -20 0.640625 0.7578125 0.0
-1 -14 19 0.640625 0.7578125 0.0
-12 50 -20 0.0 0.0 -1.0
-16 -1 -20 0.0 0.0 -1.0
-60 95 -20 0.0 0.0 -1.0
6 95 -20 0.0 0.0 -1.0
66 58 -20 0.0 0.0 -1.0
64 -1 -20 0.0 0.0 -1.0
35 -20 -20 0.0 0.0 -1.0
85 -57 -20 0.0 0.0 -1.0
40 -95 -20 0.0 0.0 -1.0
-17 -40 -20 0.0 0.0 -1.0
-17 -92 -20 0.0 0.0 -1.0
-61 -92 -20 0.0 0.0 -1.0
-1 -14 -20 0.0 0.0 -1.0
20 24 -20 0.0 0.0 -1.0
-16 -1 19 0.0 0.0 0.9921875
-12 50 19 0.0 0.0 0.9921875
-61 -92 19 0.0 0.0 0.9921875
-17 -92 19 0.0 0.0 0.9921875
-17 -40 19 0.0 0.0 0.9921875
40 -95 19 0.0 0.0 0.9921875
85 -57 19 0.0 0.0 0.9921875
35 -20 19 0.0 0.0 0.9921875
64 -1 19 0.0 0.0 0.9921875
66 58 19 0.0 0.0 0.9921875
6 95 19 0.0 0.0 0.9921875
-60 95 19 0.0 0.0 0.9921875
20 24 19 0.0 0.0 0.9921875
-1 -14 19 0.0 0.0 0.9921875
3 0 1 2
3 0 2 3
3 4 5 6
3 4 6 7
3 8 9 10
3 8 10 11
3 12 13 14
3 12 14 15
3 16 17 18
3 16 18 19
3 20 21 22
3 20 22 23
3 24 25 26
3 24 26 27
3 25 28 29
3 25 29 26
3 30 31 32
3 30 32 33
3 31 34 35
3 31 35 32
3 36 37 38
3 36 38 39
3 40 41 42
3 40 42 43
3 44 45 46
3 44 46 47
3 48 36 39
3 48 39 49
3 50 51 52
3 50 52 53
3 50 53 54
3 50 54 55
3 56 57 58
3 56 58 59
3 59 60 61
3 59 61 52
3 59 52 51
3 59 51 62
3 63 50 55
3 63 55 56
3 56 59 62
3 56 62 63
3 64 65 66
3 66 67 68
3 68 69 70
3 68 70 71
3 68 71 72
3 68 72 73
3 73 74 75
3 75 66 65
3 75 65 76
3 77 64 66
3 77 66 68
3 77 68 73
3 73 75 76
3 73 76 77
