ply
format ascii 1.0
element vertex 68
property short x
property short y
property short z
property float nx
property float ny
property float nz
element face 48
property list uchar uint vertex_indices
end_header
-15 83 -20 -0.8515625 0.53125 0.0
-105 -60 -20 -0.8515625 0.53125 0.0
-105 -60 19 -0.8515625 0.53125 0.0
-15 83 19 -0.8515625 0.53125 0.0
-105 -60 -20 -0.2109375 -0.984375 0.0
-48 -72 -20 -0.2109375 -0.984375 0.0
-48 -72 19 -0.2109375 -0.984375 0.0
-105 -60 19 -0.2109375 -0.984375 0.0
-48 -72 -20 0.875 -0.484375 0.0
-35 -47 -20 0.875 -0.484375 0.0
-35 -47 19 0.875 -0.484375 0.0
-48 -72 19 0.875 -0.484375 0.0
-35 -47 -20 -0.2734375 -0.96875 0.0
26 -65 -20 -0.828125 -0.5703125 0.0
26 -65 19 -0.5703125 -0.828125 0.0
-35 -47 19 -0.2734375 -0.96875 0.0
33 -90 -20 -0.96875 -0.2734375 0.0
33 -90 19 -0.96875 -0.2734375 0.0
33 -90 -20 0.0078125 -1.0 0.0
89 -89 -20 0.0078125 -1.0 0.0
89 -89 19 0.0078125 -1.0 0.0
33 -90 19 0.0078125 -1.0 0.0
89 -89 -20 0.9375 0.34375 0.0
28 74 -20 0.4921875 0.859375 0.0
28 74 19 0.7734375 0.625 0.0
89 -89 19 0.9375 0.34375 0.0
-15 83 -20 0.1875 0.9765625 0.0
-15 83 19 0.1875 0.9765625 0.0
-22 -19 -20 0.9453125 -0.3125 0.0
-6 29 -20 0.9453125 -0.3125 0.0
-6 29 19 0.9453125 -0.3125 0.0
-22 -19 19 0.9453125 -0.3125 0.0
-6 29 -20 -0.0546875 -1.0 0.0
8 28 -20 -0.0546875 -1.0 0.0
8 28 19 -0.0546875 -1.0 0.0
-6 29 19 -0.0546875 -1.0 0.0
8 28 -20 -0.9921875 -0.1484375 0.0
15 -20 -20 -0.9921875 -0.1484375 0.0
15 -20 19 -0.9921875 -0.1484375 0.0
8 28 19 -0.9921875 -0.1484375 0.0
15 -20 -20 0.015625 0.9921875 0.0
-22 -19 -20 0.015625 0.9921875 0.0
-22 -19 19 0.015625 0.9921875 0.0
15 -20 19 0.015625 0.9921875 0.0
-6 29 -20 0.0 0.0 -1.0
-22 -19 -20 0.0 0.0 -1.0
-15 83 -20 0.0 0.0 -1.0
28 74 -20 0.0 0.0 -1.0
89 -89 -20 0.0 0.0 -1.0
33 -90 -20 0.0 0.0 -1.0
26 -65 -20 0.0 0.0 -1.0
-35 -47 -20 0.0 0.0 -1.0
-48 -72 -20 0.0 0.0 -1.0
-105 -60 -20 0.0 0.0 -1.0
15 -20 -20 0.0 0.0 -1.0
8 28 -20 0.0 0.0 -1.0
-22 -19 19 0.0 0.0 0.9921875
-6 29 19 0.0 0.0 0.9921875
-105 -60 19 0.0 0.0 0.9921875
-48 -72 19 0.0 0.0 0.9921875
-35 -47 19 0.0 0.0 0.9921875
26 -65 19 0.0 0.0 0.9921875
33 -90 19 0.0 0.0 0.9921875
89 -89 19 0.0 0.0 0.9921875
28 74 19 0.0 0.0 0.9921875
-15 83 19 0.0 0.0 0.9921875
8 28 19 0.0 0.0 0.9921875
15 -20 19 0.0 0.0 0.9921875
3 0 1 2
3 0 2 3
3 4 5 6
3 4 6 7
3 8 9 10
3 8 10 11
3 12 13 14
3 12 14 15
3 13 16 17
3 13 17 14
3 18 19 20
3 18 20 21
3 22 23 24
3 22 24 25
3 23 26 27
3 23 27 24
3 28 29 30
3 28 30 31
3 32 33 34
3 32 34 35
3 36 37 38
3 36 38 39
3 40 41 42
3 40 42 43
3 44 45 46
3 44 46 47
3 47 48 49
3 47 49 50
3 51 52 53
3 51 53 46
3 51 46 45
3 51 45 54
3 55 44 47
3 55 47 50
3 50 51 54
3 50 54 55
3 56 57 58
3 56 58 59
3 56 59 60
3 56 60 61
3 61 62 63
3 61 63 64
3 64 65 58
3 64 58 57
3 64 57 66
3 64 66 67
3 67 56 61
3 67 61 64
