ply
format ascii 1.0
element vertex 60
property short x
property short y
property short z
property float nx
property float ny
property float nz
element face 48
property list uchar uint vertex_indices
end_header
30 71 -26 0.2109375 0.96875 0.0
-30 68 -26 -0.4765625 0.8828125 0.0
-30 68 20 -0.265625 0.9609375 0.0
30 71 20 0.4921875 0.8671875 0.0
-72 33 -26 -0.96875 0.2734375 0.0
-72 33 20 -0.8359375 0.5546875 0.0
-72 -32 -26 -0.796875 -0.6171875 0.0
-72 -32 20 -0.953125 -0.3125 0.0
-14 -72 -26 -0.109375 -1.0 0.0
-14 -72 20 -0.359375 -0.9375 0.0
54 -62 -26 0.1328125 -0.9921875 0.0
54 -62 20 0.1328125 -0.9921875 0.0
54 -62 -26 0.921875 -0.3828125 0.0
86 14 -26 0.921875 -0.3828125 0.0
86 14 20 0.921875 -0.3828125 0.0
54 -62 20 0.921875 -0.3828125 0.0
86 14 -26 0.7109375 0.6953125 0.0
86 14 20 0.7109375 0.6953125 0.0
2 31 -26 -0.6875 -0.7265625 0.0
31 4 -26 -0.6875 -0.7265625 0.0
31 4 20 -0.6875 -0.7265625 0.0
2 31 20 -0.6875 -0.7265625 0.0
31 4 -26 -0.921875 0.390625 0.0
20 -19 -26 -0.5 0.8671875 0.0
20 -19 20 -0.7578125 0.6484375 0.0
31 4 20 -0.921875 0.390625 0.0
-14 -27 -26 -0.2109375 0.9765625 0.0
-14 -27 20 -0.2109375 0.9765625 0.0
-14 -27 -26 0.859375 0.5078125 0.0
-33 5 -26 0.859375 0.5078125 0.0
-33 5 20 0.859375 0.5078125 0.0
-14 -27 20 0.859375 0.5078125 0.0
-33 5 -26 0.5859375 -0.8125 0.0
2 31 -26 0.5859375 -0.8125 0.0
2 31 20 0.5859375 -0.8125 0.0
-33 5 20 0.5859375 -0.8125 0.0
30 71 -26 0.0 0.0 -1.0
2 31 -26 0.0 0.0 -1.0
-33 5 -26 0.0 0.0 -1.0
31 4 -26 0.0 0.0 -1.0
86 14 -26 0.0 0.0 -1.0
54 -62 -26 0.0 0.0 -1.0
-14 -72 -26 0.0 0.0 -1.0
-72 -32 -26 0.0 0.0 -1.0
-72 33 -26 0.0 0.0 -1.0
-30 68 -26 0.0 0.0 -1.0
-14 -27 -26 0.0 0.0 -1.0
20 -19 -26 0.0 0.0 -1.0
2 31 20 0.0 0.0 0.9921875
31 4 20 0.0 0.0 0.9921875
-30 68 20 0.0 0.0 0.9921875
-72 33 20 0.0 0.0 0.9921875
-72 -32 20 0.0 0.0 0.9921875
-14 -72 20 0.0 0.0 0.9921875
54 -62 20 0.0 0.0 0.9921875
86 14 20 0.0 0.0 0.9921875
30 71 20 0.0 0.0 0.9921875
20 -19 20 0.0 0.0 0.9921875
-33 5 20 0.0 0.0 0.9921875
-14 -27 20 0.0 0.0 0.9921875
3 0 1 2
3 0 2 3
3 1 4 5
3 1 5 2
3 4 6 7
3 4 7 5
3 6 8 9
3 6 9 7
3 8 10 11
3 8 11 9
3 12 13 14
3 12 14 15
3 16 0 3
3 16 3 17
3 18 19 20
3 18 20 21
3 22 23 24
3 22 24 25
3 23 26 27
3 23 27 24
3 28 29 30
3 28 30 31
3 32 33 34
3 32 34 35
3 36 37 38
3 39 37 36
3 39 36 40
3 39 40 41
3 41 42 43
3 43 44 45
3 43 45 36
3 43 36 38
3 43 38 46
3 47 39 41
3 41 43 46
3 41 46 47
3 48 49 50
3 48 50 51
3 51 52 53
3 53 54 55
3 55 56 50
3 55 50 49
3 55 49 57
3 58 48 51
3 58 51 53
3 53 55 57
3 53 57 59
3 53 59 58
