ply
format ascii 1.0
element vertex 24
property short x
property short y
property short z
property float nx
property float ny
property float nz
element face 12
property list uchar uint vertex_indices
end_header
-32 103 -19 -1.0 -0.046875 0.0
-22 -107 -19 -1.0 -0.046875 0.0
-22 -107 20 -1.0 -0.046875 0.0
-32 103 20 -1.0 -0.046875 0.0
-22 -107 -19 0.15625 -0.9921875 0.0
28 -98 -19 0.15625 -0.9921875 0.0
28 -98 20 0.15625 -0.9921875 0.0
-22 -107 20 0.15625 -0.9921875 0.0
28 -98 -19 0.9921875 0.0703125 0.0
13 100 -19 0.9921875 0.0703125 0.0
13 100 20 0.9921875 0.0703125 0.0
28 -98 20 0.9921875 0.0703125 0.0
13 100 -19 0.046875 0.9921875 0.0
-32 103 -19 0.046875 0.9921875 0.0
-32 103 20 0.046875 0.9921875 0.0
13 100 20 0.046875 0.9921875 0.0
-32 103 -19 0.0 0.0 -1.0
13 100 -19 0.0 0.0 -1.0
28 -98 -19 0.0 0.0 -1.0
-22 -107 -19 0.0 0.0 -1.0
-22 -107 20 0.0 0.0 0.9921875
28 -98 20 0.0 0.0 0.9921875
13 100 20 0.0 0.0 0.9921875
-32 103 20 0.0 0.0 0.9921875
3 0 1 2
3 0 2 3
3 4 5 6
3 4 6 7
3 8 9 10
3 8 10 11
3 12 13 14
3 12 14 15
3 16 17 18
3 16 18 19
3 20 21 22
3 20 22 23
