ply
format ascii 1.0
element vertex 66
property short x
property short y
property short z
property float nx
property float ny
property float nz
element face 48
property list uchar uint vertex_indices
end_header
3 82 -19 0.1171875 0.984375 0.0
-42 82 -19 0.0 0.9921875 0.0
-42 82 20 0.0 0.9921875 0.0
3 82 20 0.2421875 0.96875 0.0
-42 82 -19 -1.0 0.0 0.0
-42 -71 -19 -1.0 0.0 0.0
-42 -71 20 -1.0 0.0 0.0
-42 82 20 -1.0 0.0 0.0
-42 -71 -19 0.015625 -1.0 0.0
-5 -71 -19 0.015625 -1.0 0.0
-5 -71 20 0.015625 -1.0 0.0
-42 -71 20 0.015625 -1.0 0.0
-5 -71 -19 0.9921875 0.0 0.0
-5 -43 -19 0.9921875 0.0 0.0
-5 -43 20 0.9921875 0.0 0.0
-5 -71 20 0.9921875 0.0 0.0
-5 -43 -19 -0.03125 -1.0 0.0
20 -44 -19 0.484375 -0.875 0.0
20 -44 20 0.21875 -0.9765625 0.0
-5 -43 20 -0.03125 -1.0 0.0
58 -8 -19 0.984375 -0.1640625 0.0
58 -8 20 0.875 -0.484375 0.0
47 65 -19 0.984375 0.140625 0.0
47 65 20 0.984375 0.140625 0.0
47 65 -19 0.359375 0.9296875 0.0
47 65 20 0.359375 0.9296875 0.0
-5 -4 -19 0.9921875 0.0 0.0
-5 32 -19 0.9921875 0.0 0.0
-5 32 20 0.9921875 0.0 0.0
-5 -4 20 0.9921875 0.0 0.0
-5 32 -19 0.0625 -1.0 0.0
29 34 -19 0.0625 -1.0 0.0
29 34 20 0.0625 -1.0 0.0
-5 32 20 0.0625 -1.0 0.0
29 34 -19 -0.9765625 0.21875 0.0
18 -9 -19 -0.9765625 0.21875 0.0
18 -9 20 -0.9765625 0.21875 0.0
29 34 20 -0.9765625 0.21875 0.0
18 -9 -19 0.21875 0.96875 0.0
-5 -4 -19 0.21875 0.96875 0.0
-5 -4 20 0.21875 0.96875 0.0
18 -9 20 0.21875 0.96875 0.0
3 82 -19 0.0 0.0 -1.0
29 34 -19 0.0 0.0 -1.0
-5 32 -19 0.0 0.0 -1.0
47 65 -19 0.0 0.0 -1.0
58 -8 -19 0.0 0.0 -1.0
20 -44 -19 0.0 0.0 -1.0
-5 -43 -19 0.0 0.0 -1.0
-5 -71 -19 0.0 0.0 -1.0
-42 -71 -19 0.0 0.0 -1.0
-42 82 -19 0.0 0.0 -1.0
-5 -4 -19 0.0 0.0 -1.0
18 -9 -19 0.0 0.0 -1.0
-42 82 20 0.0 0.0 0.9921875
-5 32 20 0.0 0.0 0.9921875
29 34 20 0.0 0.0 0.9921875
-5 -4 20 0.0 0.0 0.9921875
-42 -71 20 0.0 0.0 0.9921875
-5 -71 20 0.0 0.0 0.9921875
-5 -43 20 0.0 0.0 0.9921875
20 -44 20 0.0 0.0 0.9921875
58 -8 20 0.0 0.0 0.9921875
47 65 20 0.0 0.0 0.9921875
3 82 20 0.0 0.0 0.9921875
18 -9 20 0.0 0.0 0.9921875
3 0 1 2
3 0 2 3
3 4 5 6
3 4 6 7
3 8 9 10
3 8 10 11
3 12 13 14
3 12 14 15
3 16 17 18
3 16 18 19
3 17 20 21
3 17 21 18
3 20 22 23
3 20 23 21
3 24 0 3
3 24 3 25
3 26 27 28
3 26 28 29
3 30 31 32
3 30 32 33
3 34 35 36
3 34 36 37
3 38 39 40
3 38 40 41
3 42 43 44
3 43 42 45
3 43 45 46
3 43 46 47
3 48 49 50
3 48 50 51
3 51 42 44
3 51 44 52
3 53 43 47
3 53 47 48
3 48 51 52
3 48 52 53
3 54 55 56
3 57 55 54
3 57 54 58
3 58 59 60
3 60 61 62
3 62 63 64
3 64 54 56
3 65 57 58
3 65 58 60
3 65 60 62
3 62 64 56
3 62 56 65
