ply
format ascii 1.0
element vertex 76
property short x
property short y
property short z
property float nx
property float ny
property float nz
element face 56
property list uchar uint vertex_indices
end_header
28 75 -20 0.171875 0.9765625 0.0
-43 76 -20 0.0078125 0.9921875 0.0
-43 76 20 0.0078125 0.9921875 0.0
28 75 20 0.3359375 0.9375 0.0
-43 76 -20 -1.0 -0.0390625 0.0
-37 -71 -20 -1.0 -0.0390625 0.0
-37 -71 20 -1.0 -0.0390625 0.0
-43 76 20 -1.0 -0.0390625 0.0
-37 -71 -20 0.0 -1.0 0.0
0 -71 -20 0.0 -1.0 0.0
0 -71 20 0.0 -1.0 0.0
-37 -71 20 0.0 -1.0 0.0
0 -71 -20 0.9921875 0.109375 0.0
-7 -14 -20 0.9921875 0.109375 0.0
-7 -14 20 0.9921875 0.109375 0.0
0 -71 20 0.9921875 0.109375 0.0
-7 -14 -20 -0.7265625 -0.6953125 0.0
46 -70 -20 -0.7265625 -0.6953125 0.0
46 -70 20 -0.7265625 -0.6953125 0.0
-7 -14 20 -0.7265625 -0.6953125 0.0
46 -70 -20 0.6796875 -0.734375 0.0
79 -39 -20 0.6796875 -0.734375 0.0
79 -39 20 0.6796875 -0.734375 0.0
46 -70 20 0.6796875 -0.734375 0.0
79 -39 -20 0.5703125 0.8203125 0.0
35 -8 -20 0.5703125 0.8203125 0.0
35 -8 20 0.5703125 0.8203125 0.0
79 -39 20 0.5703125 0.8203125 0.0
35 -8 -20 0.6484375 -0.7578125 0.0
64 16 -20 0.9765625 -0.203125 0.0
64 16 20 0.8515625 -0.5234375 0.0
35 -8 20 0.6484375 -0.7578125 0.0
59 58 -20 0.7265625 0.6796875 0.0
59 58 20 0.9140625 0.3984375 0.0
-9 56 -20 -0.5 -0.875 0.0
32 32 -20 -0.5 -0.875 0.0
32 32 20 -0.5 -0.875 0.0
-9 56 20 -0.5 -0.875 0.0
32 32 -20 -0.875 0.484375 0.0
11 -3 -20 -0.875 0.484375 0.0
11 -3 20 -0.875 0.484375 0.0
32 32 20 -0.875 0.484375 0.0
11 -3 -20 0.53125 0.84375 0.0
-9 10 -20 0.9453125 0.3125 0.0
-9 10 20 0.7734375 0.6328125 0.0
11 -3 20 0.53125 0.84375 0.0
-9 56 -20 0.9921875 0.0 0.0
-9 56 20 0.9921875 0.0 0.0
32 32 -20 0.0 0.0 -1.0
-9 56 -20 0.0 0.0 -1.0
28 75 -20 0.0 0.0 -1.0
59 58 -20 0.0 0.0 -1.0
64 16 -20 0.0 0.0 -1.0
35 -8 -20 0.0 0.0 -1.0
79 -39 -20 0.0 0.0 -1.0
46 -70 -20 0.0 0.0 -1.0
-7 -14 -20 0.0 0.0 -1.0
0 -71 -20 0.0 0.0 -1.0
-37 -71 -20 0.0 0.0 -1.0
-43 76 -20 0.0 0.0 -1.0
-9 10 -20 0.0 0.0 -1.0
11 -3 -20 0.0 0.0 -1.0
-9 56 20 0.0 0.0 0.9921875
32 32 20 0.0 0.0 0.9921875
-43 76 20 0.0 0.0 0.9921875
-37 -71 20 0.0 0.0 0.9921875
0 -71 20 0.0 0.0 0.9921875
-7 -14 20 0.0 0.0 0.9921875
46 -70 20 0.0 0.0 0.9921875
79 -39 20 0.0 0.0 0.9921875
35 -8 20 0.0 0.0 0.9921875
64 16 20 0.0 0.0 0.9921875
59 58 20 0.0 0.0 0.9921875
28 75 20 0.0 0.0 0.9921875
11 -3 20 0.0 0.0 0.9921875
-9 10 20 0.0 0.0 0.9921875
3 0 1 2
3 0 2 3
3 4 5 6
3 4 6 7
3 8 9 10
3 8 10 11
3 12 13 14
3 12 14 15
3 16 17 18
3 16 18 19
3 20 21 22
3 20 22 23
3 24 25 26
3 24 26 27
3 28 29 30
3 28 30 31
3 29 32 33
3 29 33 30
3 32 0 3
3 32 3 33
3 34 35 36
3 34 36 37
3 38 39 40
3 38 40 41
3 42 43 44
3 42 44 45
3 43 46 47
3 43 47 44
3 48 49 50
3 48 50 51
3 48 51 52
3 48 52 53
3 53 54 55
3 53 55 56
3 56 57 58
3 56 58 59
3 59 50 49
3 59 49 60
3 61 48 53
3 61 53 56
3 56 59 60
3 56 60 61
3 62 63 64
3 62 64 65
3 65 66 67
3 67 68 69
3 67 69 70
3 67 70 71
3 71 72 73
3 71 73 64
3 71 64 63
3 71 63 74
3 75 62 65
3 75 65 67
3 67 71 74
3 67 74 75
