ply
format ascii 1.0
element vertex 54
property short x
property short y
property short z
property float nx
property float ny
property float nz
element face 36
property list uchar uint vertex_indices
end_header
-41 81 -22 -1.0 0.0 0.0
-42 -36 -22 -0.9375 -0.3515625 0.0
-42 -36 20 -0.9921875 -0.1796875 0.0
-41 81 20 -1.0 0.0 0.0
-20 -72 -22 -0.859375 -0.515625 0.0
-20 -72 20 -0.859375 -0.515625 0.0
-20 -72 -22 0.1328125 -0.9921875 0.0
33 -64 -22 0.6015625 -0.8046875 0.0
33 -64 20 0.375 -0.9296875 0.0
-20 -72 20 0.1328125 -0.9921875 0.0
58 -32 -22 0.9921875 -0.078125 0.0
58 -32 20 0.921875 -0.3828125 0.0
39 58 -22 0.9765625 0.2109375 0.0
39 58 20 0.9765625 0.2109375 0.0
39 58 -22 -0.2578125 0.9609375 0.0
6 49 -22 -0.2578125 0.9609375 0.0
6 49 20 -0.2578125 0.9609375 0.0
39 58 20 -0.2578125 0.9609375 0.0
6 49 -22 -0.984375 -0.21875 0.0
21 -18 -22 -0.984375 -0.21875 0.0
21 -18 20 -0.984375 -0.21875 0.0
6 49 20 -0.984375 -0.21875 0.0
21 -18 -22 -0.625 0.78125 0.0
-4 -38 -22 -0.625 0.78125 0.0
-4 -38 20 -0.625 0.78125 0.0
21 -18 20 -0.625 0.78125 0.0
-4 -38 -22 0.9921875 0.0 0.0
-4 81 -22 0.9921875 0.0 0.0
-4 81 20 0.9921875 0.0 0.0
-4 -38 20 0.9921875 0.0 0.0
-4 81 -22 0.0 0.9921875 0.0
-41 81 -22 0.0 0.9921875 0.0
-41 81 20 0.0 0.9921875 0.0
-4 81 20 0.0 0.9921875 0.0
-41 81 -22 0.0 0.0 -1.0
-4 81 -22 0.0 0.0 -1.0
-4 -38 -22 0.0 0.0 -1.0
21 -18 -22 0.0 0.0 -1.0
6 49 -22 0.0 0.0 -1.0
39 58 -22 0.0 0.0 -1.0
58 -32 -22 0.0 0.0 -1.0
33 -64 -22 0.0 0.0 -1.0
-20 -72 -22 0.0 0.0 -1.0
-42 -36 -22 0.0 0.0 -1.0
-42 -36 20 0.0 0.0 0.9921875
-20 -72 20 0.0 0.0 0.9921875
33 -64 20 0.0 0.0 0.9921875
58 -32 20 0.0 0.0 0.9921875
39 58 20 0.0 0.0 0.9921875
6 49 20 0.0 0.0 0.9921875
21 -18 20 0.0 0.0 0.9921875
-4 -38 20 0.0 0.0 0.9921875
-4 81 20 0.0 0.0 0.9921875
-41 81 20 0.0 0.0 0.9921875
3 0 1 2
3 0 2 3
3 1 4 5
3 1 5 2
3 6 7 8
3 6 8 9
3 7 10 11
3 7 11 8
3 10 12 13
3 10 13 11
3 14 15 16
3 14 16 17
3 18 19 20
3 18 20 21
3 22 23 24
3 22 24 25
3 26 27 28
3 26 28 29
3 30 31 32
3 30 32 33
3 34 35 36
3 37 38 39
3 37 39 40
3 37 40 41
3 37 41 42
3 42 43 34
3 42 34 36
3 42 36 37
3 44 45 46
3 46 47 48
3 46 48 49
3 46 49 50
3 46 50 51
3 51 52 53
3 51 53 44
3 51 44 46
