ply
format ascii 1.0
element vertex 64
property short x
property short y
property short z
property float nx
property float ny
property float nz
element face 44
property list uchar uint vertex_indices
end_header
-23 74 -19 -0.53125 0.84375 0.0
-65 32 -19 -0.71875 0.6953125 0.0
-65 32 20 -0.71875 0.6953125 0.0
-23 74 20 -0.296875 0.953125 0.0
-65 32 -19 -0.6875 -0.734375 0.0
-8 -21 -19 -0.6875 -0.734375 0.0
-8 -21 20 -0.6875 -0.734375 0.0
-65 32 20 -0.6875 -0.734375 0.0
-8 -21 -19 -0.3046875 0.9453125 0.0
-59 -38 -19 -0.3046875 0.9453125 0.0
-59 -38 20 -0.3046875 0.9453125 0.0
-8 -21 20 -0.3046875 0.9453125 0.0
-59 -38 -19 -0.6796875 -0.7421875 0.0
-23 -71 -19 -0.0703125 -1.0 0.0
-23 -71 20 -0.4140625 -0.9140625 0.0
-59 -38 20 -0.6796875 -0.7421875 0.0
31 -57 -19 0.703125 -0.7109375 0.0
31 -57 20 0.484375 -0.875 0.0
53 -20 -19 0.859375 -0.5 0.0
53 -20 20 0.859375 -0.5 0.0
53 -20 -19 0.625 0.7734375 0.0
-10 30 -19 0.625 0.7734375 0.0
-10 30 20 0.625 0.7734375 0.0
53 -20 20 0.625 0.7734375 0.0
-10 30 -19 0.6640625 -0.75 0.0
5 44 -19 0.6640625 -0.75 0.0
5 44 20 0.6640625 -0.75 0.0
-10 30 20 0.6640625 -0.75 0.0
5 44 -19 -0.46875 -0.890625 0.0
34 28 -19 -0.46875 -0.890625 0.0
34 28 20 -0.46875 -0.890625 0.0
5 44 20 -0.46875 -0.890625 0.0
34 28 -19 0.6875 -0.7265625 0.0
56 49 -19 0.6875 -0.7265625 0.0
56 49 20 0.6875 -0.7265625 0.0
34 28 20 0.6875 -0.7265625 0.0
56 49 -19 0.5859375 0.8046875 0.0
19 77 -19 0.1640625 0.984375 0.0
19 77 20 0.390625 0.9140625 0.0
56 49 20 0.5859375 0.8046875 0.0
-23 74 -19 0.0 0.0 -1.0
19 77 -19 0.0 0.0 -1.0
56 49 -19 0.0 0.0 -1.0
34 28 -19 0.0 0.0 -1.0
5 44 -19 0.0 0.0 -1.0
-10 30 -19 0.0 0.0 -1.0
53 -20 -19 0.0 0.0 -1.0
31 -57 -19 0.0 0.0 -1.0
-23 -71 -19 0.0 0.0 -1.0
-59 -38 -19 0.0 0.0 -1.0
-8 -21 -19 0.0 0.0 -1.0
-65 32 -19 0.0 0.0 -1.0
-8 -21 20 0.0 0.0 0.9921875
-59 -38 20 0.0 0.0 0.9921875
-23 -71 20 0.0 0.0 0.9921875
31 -57 20 0.0 0.0 0.9921875
53 -20 20 0.0 0.0 0.9921875
-10 30 20 0.0 0.0 0.9921875
5 44 20 0.0 0.0 0.9921875
34 28 20 0.0 0.0 0.9921875
56 49 20 0.0 0.0 0.9921875
19 77 20 0.0 0.0 0.9921875
-23 74 20 0.0 0.0 0.9921875
-65 32 20 0.0 0.0 0.9921875
3 0 1 2
3 0 2 3
3 4 5 6
3 4 6 7
3 8 9 10
3 8 10 11
3 12 13 14
3 12 14 15
3 13 16 17
3 13 17 14
3 16 18 19
3 16 19 17
3 20 21 22
3 20 22 23
3 24 25 26
3 24 26 27
3 28 29 30
3 28 30 31
3 32 33 34
3 32 34 35
3 36 37 38
3 36 38 39
3 37 0 3
3 37 3 38
3 40 41 42
3 40 42 43
3 40 43 44
3 40 44 45
3 45 46 47
3 47 48 49
3 47 49 50
3 47 50 51
3 51 40 45
3 51 45 47
3 52 53 54
3 52 54 55
3 52 55 56
3 52 56 57
3 58 59 60
3 58 60 61
3 58 61 62
3 58 62 63
3 63 52 57
3 63 57 58
