ply
format ascii 1.0
element vertex 72
property short x
property short y
property short z
property float nx
property float ny
property float nz
element face 44
property list uchar uint vertex_indices
end_header
42 76 -19 -0.15625 0.984375 0.0
-49 62 -19 -0.15625 0.984375 0.0
-49 62 20 -0.15625 0.984375 0.0
42 76 20 -0.15625 0.984375 0.0
-49 62 -19 -0.984375 -0.21875 0.0
-22 -62 -19 -0.984375 -0.21875 0.0
-22 -62 20 -0.984375 -0.21875 0.0
-49 62 20 -0.984375 -0.21875 0.0
-22 -62 -19 0.078125 -1.0 0.0
73 -54 -19 0.078125 -1.0 0.0
73 -54 20 0.078125 -1.0 0.0
-22 -62 20 0.078125 -1.0 0.0
73 -54 -19 0.90625 0.4140625 0.0
57 -18 -19 0.90625 0.4140625 0.0
57 -18 20 0.90625 0.4140625 0.0
73 -54 20 0.90625 0.4140625 0.0
57 -18 -19 -0.203125 0.9765625 0.0
7 -28 -19 -0.203125 0.9765625 0.0
7 -28 20 -0.203125 0.9765625 0.0
57 -18 20 -0.203125 0.9765625 0.0
7 -28 -19 0.984375 0.140625 0.0
3 -1 -19 0.984375 0.140625 0.0
3 -1 20 0.984375 0.140625 0.0
7 -28 20 0.984375 0.140625 0.0
3 -1 -19 -0.140625 -0.9921875 0.0
43 -7 -19 -0.140625 -0.9921875 0.0
43 -7 20 -0.140625 -0.9921875 0.0
3 -1 20 -0.140625 -0.9921875 0.0
43 -7 -19 0.9921875 0.0 0.0
43 19 -19 0.9921875 0.0 0.0
43 19 20 0.9921875 0.0 0.0
43 -7 20 0.9921875 0.0 0.0
43 19 -19 0.09375 0.9921875 0.0
-4 23 -19 0.09375 0.9921875 0.0
-4 23 20 0.09375 0.9921875 0.0
43 19 20 0.09375 0.9921875 0.0
-4 23 -19 0.953125 -0.296875 0.0
1 42 -19 0.953125 -0.296875 0.0
1 42 20 0.953125 -0.296875 0.0
-4 23 20 0.953125 -0.296875 0.0
1 42 -19 0.0 -1.0 0.0
38 42 -19 0.0 -1.0 0.0
38 42 20 0.0 -1.0 0.0
1 42 20 0.0 -1.0 0.0
38 42 -19 0.9921875 -0.1171875 0.0
42 76 -19 0.9921875 -0.1171875 0.0
42 76 20 0.9921875 -0.1171875 0.0
38 42 20 0.9921875 -0.1171875 0.0
42 76 -19 0.0 0.0 -1.0
38 42 -19 0.0 0.0 -1.0
1 42 -19 0.0 0.0 -1.0
-4 23 -19 0.0 0.0 -1.0
43 19 -19 0.0 0.0 -1.0
43 -7 -19 0.0 0.0 -1.0
3 -1 -19 0.0 0.0 -1.0
7 -28 -19 0.0 0.0 -1.0
57 -18 -19 0.0 0.0 -1.0
73 -54 -19 0.0 0.0 -1.0
-22 -62 -19 0.0 0.0 -1.0
-49 62 -19 0.0 0.0 -1.0
-22 -62 20 0.0 0.0 0.9921875
73 -54 20 0.0 0.0 0.9921875
57 -18 20 0.0 0.0 0.9921875
7 -28 20 0.0 0.0 0.9921875
3 -1 20 0.0 0.0 0.9921875
43 -7 20 0.0 0.0 0.9921875
43 19 20 0.0 0.0 0.9921875
-4 23 20 0.0 0.0 0.9921875
1 42 20 0.0 0.0 0.9921875
38 42 20 0.0 0.0 0.9921875
42 76 20 0.0 0.0 0.9921875
-49 62 20 0.0 0.0 0.9921875
3 0 1 2
3 0 2 3
3 4 5 6
3 4 6 7
3 8 9 10
3 8 10 11
3 12 13 14
3 12 14 15
3 16 17 18
3 16 18 19
3 20 21 22
3 20 22 23
3 24 25 26
3 24 26 27
3 28 29 30
3 28 30 31
3 32 33 34
3 32 34 35
3 36 37 38
3 36 38 39
3 40 41 42
3 40 42 43
3 44 45 46
3 44 46 47
3 48 49 50
3 51 52 53
3 51 53 54
3 51 54 55
3 55 56 57
3 55 57 58
3 55 58 59
3 59 48 50
3 59 50 51
3 59 51 55
3 60 61 62
3 60 62 63
3 60 63 64
3 64 65 66
3 64 66 67
3 68 69 70
3 68 70 71
3 71 60 64
3 71 64 67
3 71 67 68
