ply
format ascii 1.0
element vertex 10
property short x
property short y
property short z
property float s
property float t
property float nx
property float ny
property float nz
property uchar alpha
element face 4
property list uchar uint vertex_indices
end_header
67 86 63 0.982421875 0.984375 0.1875 0.1640625 0.953125 255
0 -27 96 0.015625 0.017578125 0.1875 0.1640625 0.953125 255
67 -29 83 0.982421875 0.017578125 0.1875 0.1640625 0.953125 255
0 89 76 0.015625 0.984375 0.1875 0.1640625 0.953125 255
0 89 76 0.982421875 0.984375 -0.1875 0.1640625 0.953125 255
-66 -29 83 0.015625 0.017578125 -0.1875 0.1640625 0.953125 255
0 -27 96 0.982421875 0.017578125 -0.1875 0.1640625 0.953125 255
0 89 76 0.982421875 0.984375 -0.1953125 0.1640625 0.953125 255
-66 86 63 0.015625 0.984375 -0.1953125 0.1640625 0.953125 255
-66 -29 83 0.015625 0.017578125 -0.1953125 0.1640625 0.953125 255
3 0 1 2
3 0 3 1
3 4 5 6
3 7 8 9
