ply
format ascii 1.0
element vertex 12
property short x
property short y
property short z
property float nx
property float ny
property float nz
property uchar alpha
element face 20
property list uchar uint vertex_indices
end_header
0 8 -89 0.0 0.0546875 -0.984375 255
190 -201 0 0.6640625 -0.7265625 0.0 255
0 -129 0 0.0 -0.984375 0.0 255
146 -42 0 0.96875 -0.1953125 0.0 255
0 8 90 0.0 0.0546875 0.984375 255
257 84 0 0.8125 0.5546875 0.0 255
-145 -42 0 -0.96875 -0.1953125 0.0 255
-189 -201 0 -0.671875 -0.7265625 0.0 255
-256 84 0 -0.8203125 0.5546875 0.0 255
0 246 0 0.0 0.984375 0.0 255
96 99 0 0.4765625 0.8671875 0.0 255
-95 99 0 -0.4765625 0.8671875 0.0 255
3 0 1 2
3 0 3 1
3 2 1 4
3 1 3 4
3 5 3 0
3 4 3 5
3 6 7 4
3 7 2 4
3 8 6 4
3 9 4 10
3 9 11 4
3 4 5 10
3 11 8 4
3 0 2 7
3 0 7 6
3 0 6 8
3 0 8 11
3 0 11 9
3 10 5 0
3 10 0 9
